<svg width="46" height="31" viewBox="0 0 46 31" fill="none" xmlns="http://www.w3.org/2000/svg">
<path fill-rule="evenodd" clip-rule="evenodd" d="M0.960637 29.0384C1.31162 29.2506 1.90638 29.4889 2.47176 29.4889C3.2861 29.4889 3.67512 29.0767 3.67512 28.5306C3.67512 27.9705 3.34834 27.6818 2.5219 27.36C1.38769 26.9426 0.860357 26.3182 0.860357 25.5529C0.860357 24.518 1.68853 23.6675 3.0233 23.6675C3.6561 23.6675 4.21456 23.8414 4.54652 24.0658L4.2768 24.9146C4.03302 24.7545 3.58176 24.5284 2.99736 24.5284C2.31961 24.5284 1.95652 24.9267 1.95652 25.4033C1.95652 25.9373 2.31961 26.1755 3.13568 26.5025C4.20764 26.9148 4.7782 27.4748 4.7782 28.4262C4.7782 29.5654 3.91372 30.362 2.45274 30.362C1.76979 30.362 1.13699 30.1759 0.690918 29.9116L0.960637 29.0384Z" fill="#2B2A29"/>
<path fill-rule="evenodd" clip-rule="evenodd" d="M10.0555 29.9985C9.76154 30.1464 9.09588 30.3707 8.25733 30.3707C6.37102 30.3707 5.14172 29.0593 5.14172 27.0904C5.14172 25.1146 6.45747 23.6675 8.50803 23.6675C9.17888 23.6675 9.77364 23.8414 10.0883 24.0153L9.8307 24.9024C9.56098 24.7545 9.13565 24.5997 8.51495 24.5997C7.0799 24.5997 6.30186 25.699 6.30186 27.0313C6.30186 28.5166 7.23551 29.4315 8.47691 29.4315C9.12182 29.4315 9.54887 29.2715 9.87392 29.1289L10.0555 29.9985Z" fill="#2B2A29"/>
<path fill-rule="evenodd" clip-rule="evenodd" d="M10.7396 20.7969H11.8807V30.2221H10.7396V20.7969Z" fill="#2B2A29"/>
<path fill-rule="evenodd" clip-rule="evenodd" d="M13.8613 27.0252C13.8613 28.434 14.6393 29.495 15.7476 29.495C16.8316 29.495 17.646 28.4462 17.646 26.9991C17.646 25.9121 17.1135 24.5415 15.7718 24.5415C14.437 24.5415 13.8613 25.8147 13.8613 27.0252ZM18.8113 26.9539C18.8113 29.328 17.1947 30.3629 15.6957 30.3629C14.0151 30.3629 12.6942 29.0898 12.6942 27.0565C12.6942 24.9207 14.0791 23.6597 15.796 23.6597C17.5958 23.6666 18.8113 25.0041 18.8113 26.9539Z" fill="#2B2A29"/>
<path fill-rule="evenodd" clip-rule="evenodd" d="M24.8346 28.4607C24.8346 29.1355 24.8467 29.7217 24.8847 30.2226H23.8767L23.8145 29.1738H23.7903C23.5084 29.6886 22.8307 30.3704 21.7224 30.3704C20.7386 30.3704 19.5594 29.7982 19.5594 27.5597V23.8029H20.7006V27.3475C20.7006 28.5703 21.0775 29.4069 22.0976 29.4069C22.8618 29.4069 23.3891 28.8607 23.5949 28.332C23.6571 28.172 23.6952 27.9598 23.6952 27.7337V23.7959H24.8363V28.4607H24.8346Z" fill="#2B2A29"/>
<path fill-rule="evenodd" clip-rule="evenodd" d="M30.3451 26.4133C30.3451 26.2655 30.333 26.0655 30.295 25.9246C30.1255 25.1906 29.5048 24.5871 28.6524 24.5871C27.475 24.5871 26.7782 25.6481 26.7782 27.0569C26.7782 28.3561 27.411 29.431 28.6265 29.431C29.3907 29.431 30.0875 28.8971 30.2932 28.0344C30.3313 27.8744 30.3434 27.7126 30.3434 27.5335V26.4133H30.3451ZM31.4724 20.7971V28.5614C31.4724 29.1336 31.4983 29.7841 31.5225 30.2207H30.5128L30.4627 29.1075H30.4246C30.0857 29.8224 29.3406 30.3685 28.3187 30.3685C26.8076 30.3685 25.6302 29.0571 25.6302 27.1004C25.6181 24.9645 26.9217 23.6653 28.438 23.6653C29.4097 23.6653 30.0425 24.1279 30.3243 24.6358H30.3486V20.7954H31.4724V20.7971Z" fill="#2B2A29"/>
<path fill-rule="evenodd" clip-rule="evenodd" d="M32.3243 29.5339C32.3243 29.0573 32.6494 28.6973 33.1007 28.6973C33.5519 28.6973 33.8649 29.0451 33.8649 29.5339C33.8649 30.0104 33.5519 30.3705 33.0747 30.3705C32.639 30.3705 32.3243 30.0104 32.3243 29.5339Z" fill="#2B2A29"/>
<path fill-rule="evenodd" clip-rule="evenodd" d="M34.6262 25.8025C34.6262 25.0442 34.6141 24.3937 34.576 23.7953H35.5719L35.6221 25.0685H35.6601C35.9419 24.2058 36.6439 23.6597 37.4081 23.6597C37.5274 23.6597 37.6156 23.6718 37.721 23.6858V24.785C37.6017 24.7589 37.4894 24.7589 37.332 24.7589C36.5298 24.7589 35.9592 25.3694 35.8036 26.2443C35.7777 26.4043 35.7656 26.6043 35.7656 26.7904V30.2133H34.6245V25.8025H34.6262Z" fill="#808285"/>
<path fill-rule="evenodd" clip-rule="evenodd" d="M43.4503 28.4607C43.4503 29.1355 43.4624 29.7217 43.5004 30.2226H42.4907L42.4285 29.1738H42.4043C42.1224 29.6886 41.4447 30.3704 40.3364 30.3704C39.3526 30.3704 38.1735 29.7982 38.1735 27.5597V23.8029H39.3146V27.3475C39.3146 28.5703 39.6915 29.4069 40.7116 29.4069C41.4758 29.4069 42.0031 28.8607 42.2089 28.332C42.2711 28.172 42.3161 27.9598 42.3161 27.7337V23.7959H43.4572V28.4607H43.4503Z" fill="#808285"/>
<path fill-rule="evenodd" clip-rule="evenodd" d="M0.179813 20.444C0.0501401 19.8944 0 19.3569 0 18.8769C0 17.9168 0.179813 17.2193 0.179813 17.2193C0.223037 16.9184 0.28528 16.6436 0.359626 16.374C0.414953 16.1827 0.47028 15.9966 0.539438 15.8174C0.594765 15.6696 0.650092 15.5287 0.719251 15.3896C0.774578 15.2678 0.836821 15.1461 0.899064 15.0382C0.954391 14.9356 1.01663 14.833 1.07888 14.7373C1.1342 14.6469 1.19645 14.5582 1.25869 14.4747C1.31402 14.3912 1.37626 14.3147 1.4385 14.2382C1.49383 14.1686 1.55607 14.0973 1.61832 14.0277C1.67364 13.9633 1.73589 13.899 1.79813 13.8364C1.85346 13.779 1.9157 13.7216 1.97794 13.6642C2.03327 13.6068 2.09551 13.5546 2.15775 13.5042C2.21308 13.4537 2.27532 13.4085 2.33757 13.3563C2.39289 13.3111 2.45514 13.2659 2.51738 13.2224C2.57962 13.1772 2.63495 13.1389 2.69719 13.1007C2.75944 13.0624 2.81476 13.0241 2.87701 12.9859C2.93925 12.9476 2.99458 12.9163 3.05682 12.8832C3.11906 12.8519 3.17439 12.8189 3.23663 12.7876C3.29887 12.7563 3.3542 12.7302 3.41644 12.6971C3.47869 12.6711 3.53401 12.6397 3.59626 12.6137C3.6585 12.5876 3.71383 12.5632 3.77607 12.5371C3.83831 12.511 3.89364 12.4919 3.95588 12.4676C4.01813 12.4484 4.07345 12.4223 4.13569 12.4032C4.19794 12.3841 4.25326 12.3649 4.31551 12.3458C4.37775 12.3267 4.43308 12.3145 4.49532 12.2954C4.55756 12.2762 4.61808 12.2641 4.67513 12.2501C4.73738 12.238 4.79789 12.224 4.85495 12.2119C4.92238 12.1997 4.9777 12.1858 5.03476 12.1806C5.10911 12.1684 5.16443 12.1614 5.21457 12.1545C5.27681 12.1475 5.30794 12.1423 5.30794 12.1423C5.30794 12.1423 5.32004 11.8797 5.38747 11.4379C5.42378 11.2013 5.48083 10.9074 5.56728 10.5735C5.61742 10.3752 5.67275 10.1578 5.74709 9.92644C5.79723 9.75424 5.85775 9.5751 5.92691 9.38899C5.98223 9.23593 6.03756 9.07592 6.10672 8.9159C6.16205 8.77502 6.21737 8.63414 6.28653 8.49325C6.34186 8.36455 6.39719 8.23758 6.46635 8.10887C6.52167 7.99407 6.58392 7.87232 6.64616 7.75753C6.70149 7.64795 6.76373 7.54012 6.82597 7.42532C6.8813 7.3227 6.94354 7.22009 7.00578 7.11747C7.06111 7.02181 7.12335 6.92614 7.1856 6.82874C7.24092 6.7383 7.30317 6.64264 7.36541 6.55394C7.42074 6.46349 7.48298 6.38174 7.54522 6.2913C7.60055 6.20781 7.66279 6.12433 7.72504 6.04258C7.78036 5.96605 7.84261 5.88257 7.90485 5.80604C7.96018 5.72951 8.02242 5.6582 8.08466 5.58167C8.13999 5.51209 8.20223 5.44078 8.26447 5.36425C8.3198 5.29468 8.38204 5.22337 8.44429 5.15902C8.49961 5.09466 8.56186 5.02509 8.6241 4.96074C8.67943 4.89638 8.74167 4.83203 8.80391 4.76941C8.85924 4.70506 8.92148 4.64766 8.98372 4.58331C9.03905 4.52591 9.1013 4.46852 9.16354 4.40416C9.21887 4.34676 9.28111 4.28937 9.34335 4.23197C9.39868 4.17457 9.46092 4.1224 9.52316 4.065C9.57849 4.01456 9.64073 3.96238 9.70298 3.90498C9.7583 3.85454 9.82055 3.80236 9.88279 3.75192C9.93812 3.70148 10.0004 3.65626 10.0626 3.60408C10.1179 3.55886 10.1802 3.50842 10.2424 3.4632C10.2977 3.41798 10.36 3.3745 10.4222 3.32232C10.4776 3.2771 10.5398 3.23187 10.602 3.18839C10.6574 3.14317 10.7196 3.09969 10.7819 3.05968C10.8372 3.01446 10.8994 2.9762 10.9617 2.93097C11.017 2.89271 11.0792 2.84749 11.1415 2.80922C11.1968 2.77096 11.259 2.7327 11.3213 2.69443C11.3766 2.65617 11.4389 2.6179 11.5011 2.57964C11.5564 2.54137 11.6187 2.50311 11.6809 2.46484C11.7362 2.42658 11.7985 2.39527 11.8607 2.35527C11.9161 2.317 11.9783 2.2857 12.0405 2.25265C12.0959 2.22134 12.1581 2.18308 12.2204 2.15003C12.2757 2.11872 12.3379 2.08568 12.4002 2.05437C12.4555 2.02306 12.5177 1.99001 12.58 1.95871C12.6353 1.9274 12.6976 1.89435 12.7598 1.86826C12.8151 1.83696 12.8774 1.81087 12.9396 1.77782C12.9586 1.77086 12.9759 1.75869 12.9949 1.75173C13.0382 1.7326 13.0745 1.71347 13.1177 1.69433C13.1799 1.66824 13.2353 1.63694 13.2975 1.61085C13.3597 1.58476 13.4151 1.56041 13.4773 1.53432C13.5396 1.50823 13.5949 1.48388 13.6571 1.45779C13.7194 1.4317 13.7747 1.40735 13.8369 1.38822C13.8992 1.36213 13.9545 1.33778 14.0168 1.31865C14.079 1.29256 14.1343 1.27342 14.1966 1.25429C14.2588 1.23516 14.3141 1.20907 14.3764 1.18994C14.4386 1.1708 14.494 1.15167 14.5562 1.13254C14.6184 1.11341 14.6738 1.09428 14.736 1.07514C14.7982 1.05601 14.8536 1.04384 14.9158 1.0247C14.9781 1.00557 15.0334 0.993396 15.0956 0.974264C15.1579 0.962089 15.2132 0.942957 15.2754 0.929042C15.3377 0.916867 15.393 0.897735 15.4553 0.88382C15.5175 0.871645 15.5728 0.857731 15.6351 0.845556C15.6973 0.833381 15.7526 0.819466 15.8149 0.807291C15.8771 0.795116 15.9325 0.781202 15.9947 0.775984C16.0569 0.763809 16.1123 0.756852 16.1745 0.744677C16.2368 0.737719 16.2921 0.725544 16.3543 0.718587C16.4166 0.71163 16.4719 0.706412 16.5341 0.699455C16.5964 0.692498 16.6517 0.68728 16.7139 0.680322C16.7762 0.673365 16.8315 0.668147 16.8938 0.668147C16.956 0.66119 17.0113 0.655972 17.0736 0.655972C17.1358 0.649015 17.1911 0.649015 17.2534 0.643797C17.3156 0.643797 17.371 0.63684 17.4332 0.63684C17.4954 0.63684 17.5508 0.629883 17.613 0.629883C17.6753 0.629883 17.7306 0.629883 17.7928 0.629883C17.8551 0.629883 17.9104 0.629883 17.9726 0.629883C18.0349 0.629883 18.0902 0.63684 18.1525 0.63684C18.2147 0.63684 18.27 0.643797 18.3323 0.643797C18.3945 0.643797 18.4498 0.650754 18.5121 0.655972C18.5743 0.662929 18.6296 0.662929 18.6919 0.668147C18.7541 0.675105 18.8095 0.680322 18.8717 0.680322C18.9339 0.68728 18.9893 0.692498 19.0515 0.699455C19.1138 0.706412 19.1691 0.71163 19.2313 0.718587C19.2936 0.725544 19.3489 0.737719 19.4111 0.744677C19.4734 0.751634 19.5287 0.763809 19.591 0.770766C19.6532 0.782941 19.7085 0.789898 19.7708 0.802073C19.833 0.814248 19.8883 0.828163 19.9506 0.833381C20.0128 0.845556 20.0681 0.85947 20.1304 0.871645C20.1926 0.88382 20.248 0.897735 20.3102 0.90991C20.3724 0.922085 20.4278 0.935999 20.49 0.955132C20.5523 0.967307 20.6076 0.986439 20.6698 1.00035C20.7321 1.01253 20.7874 1.03166 20.8496 1.04558C20.9119 1.06471 20.9672 1.07688 21.0295 1.09601C21.0917 1.11515 21.147 1.12732 21.2093 1.14645C21.2715 1.16559 21.3268 1.18472 21.3891 1.20385C21.4513 1.22298 21.5067 1.24212 21.5689 1.26125C21.6311 1.28038 21.6865 1.29951 21.7487 1.3256C21.8109 1.34473 21.8663 1.37082 21.9285 1.38996C21.9908 1.40909 22.0461 1.43518 22.1083 1.45953C22.1706 1.48562 22.2259 1.50475 22.2881 1.5291C22.3504 1.55519 22.4057 1.57432 22.468 1.59867C22.5302 1.62476 22.5855 1.64911 22.6478 1.6752C22.71 1.70129 22.7653 1.72564 22.8276 1.75173C22.8898 1.77782 22.9452 1.80217 23.0074 1.83522C23.0696 1.86131 23.125 1.89261 23.1872 1.9187C23.2495 1.95001 23.3048 1.9761 23.367 2.00915C23.4293 2.04045 23.4846 2.06654 23.5468 2.09959C23.6091 2.1309 23.6644 2.16394 23.7266 2.19525C23.7889 2.22656 23.8442 2.25961 23.9065 2.29091C23.9687 2.32222 24.024 2.35527 24.0863 2.39353C24.1485 2.42484 24.2038 2.4631 24.2661 2.49615C24.3283 2.52746 24.3837 2.56572 24.4459 2.59877C24.5081 2.63703 24.5635 2.66834 24.6257 2.70834C24.688 2.74661 24.7433 2.78487 24.8055 2.81792C24.8678 2.85619 24.9231 2.89445 24.9853 2.93271C25.0476 2.97098 25.1029 3.00924 25.1651 3.05447C25.2274 3.09273 25.2827 3.13795 25.345 3.17622C25.4072 3.22144 25.4625 3.2597 25.5248 3.30492C25.587 3.35015 25.6423 3.39537 25.7046 3.43363C25.7668 3.47885 25.8222 3.52408 25.8844 3.56756C25.9466 3.61278 26.002 3.66322 26.0642 3.70148C26.1265 3.75192 26.1887 3.79715 26.244 3.84237C26.3063 3.89281 26.3685 3.94499 26.4238 3.99021C26.4913 4.04761 26.5483 4.09978 26.6037 4.14327C26.678 4.20762 26.7402 4.26502 26.7835 4.30328C26.8336 4.3485 26.8509 4.37285 26.8509 4.37285C26.8889 4.36068 26.9183 4.34676 26.9564 4.33459C27.0186 4.31546 27.0739 4.28937 27.1362 4.27024C27.1984 4.2511 27.2537 4.22501 27.316 4.20588C27.3782 4.18675 27.4336 4.16762 27.4958 4.14848C27.558 4.12935 27.6134 4.11022 27.6756 4.09109C27.7379 4.07196 27.7932 4.05282 27.8554 4.03369C27.9177 4.01456 27.973 3.99543 28.0352 3.98325C28.0975 3.96412 28.1528 3.95194 28.2151 3.93281C28.2773 3.91368 28.3326 3.9015 28.3949 3.88237C28.4571 3.8702 28.5124 3.85106 28.5747 3.83715C28.6369 3.82497 28.6922 3.80584 28.7545 3.79193C28.8167 3.77975 28.8721 3.76584 28.9343 3.75366C28.9965 3.74149 29.0519 3.72757 29.1141 3.7154C29.1764 3.70322 29.2317 3.69627 29.2939 3.68409C29.3562 3.67192 29.4115 3.66496 29.4737 3.65278C29.536 3.64061 29.5913 3.63365 29.6536 3.62669C29.7158 3.61974 29.7711 3.60756 29.8334 3.60061C29.8956 3.59365 29.9509 3.58843 30.0132 3.58147C30.0754 3.57452 30.1308 3.5693 30.193 3.56234C30.2552 3.55538 30.3106 3.55538 30.3728 3.55017C30.435 3.54321 30.4904 3.54321 30.5526 3.53799C30.6149 3.53799 30.6702 3.53103 30.7324 3.53103C30.7947 3.53103 30.85 3.53103 30.9122 3.52408C30.9745 3.52408 31.0298 3.52408 31.0921 3.52408C31.1543 3.52408 31.2096 3.52408 31.2719 3.53103C31.3341 3.53103 31.3894 3.53799 31.4517 3.53799C31.5139 3.54495 31.5693 3.54495 31.6315 3.55017C31.6937 3.55712 31.7491 3.56234 31.8113 3.56234C31.8736 3.5693 31.9289 3.57452 31.9911 3.58147C32.0534 3.58843 32.1087 3.60061 32.1709 3.60756C32.2332 3.61452 32.2885 3.62669 32.3507 3.63365C32.413 3.64583 32.4683 3.65278 32.5306 3.66496C32.5928 3.67713 32.6481 3.69105 32.7104 3.70322C32.7726 3.7154 32.8279 3.72931 32.8902 3.74845C32.9524 3.76062 33.0078 3.77975 33.07 3.79367C33.1322 3.8128 33.1876 3.82497 33.2498 3.84411C33.3121 3.86324 33.3674 3.88237 33.4296 3.9015C33.4919 3.92064 33.5472 3.93977 33.6094 3.96586C33.6717 3.98499 33.727 4.01108 33.7892 4.03543C33.8515 4.06152 33.9068 4.08587 33.9691 4.11196C34.0313 4.13805 34.0866 4.1624 34.1489 4.19545C34.2111 4.22154 34.2664 4.25284 34.3287 4.27893C34.3909 4.31024 34.4463 4.33633 34.5085 4.36764C34.5707 4.39894 34.6261 4.43199 34.6883 4.4633C34.7506 4.4946 34.8059 4.53287 34.8681 4.57287C34.9304 4.61114 34.9857 4.6494 35.0479 4.68767C35.1102 4.72593 35.1655 4.77115 35.2278 4.80942C35.29 4.85464 35.3453 4.8929 35.4076 4.93813C35.4698 4.98335 35.5251 5.02857 35.5874 5.07205C35.6496 5.12249 35.7049 5.16771 35.7672 5.21989C35.8294 5.27033 35.8848 5.32251 35.947 5.37295C36.0092 5.43035 36.0646 5.48253 36.1268 5.53992C36.1891 5.59732 36.2444 5.65472 36.3066 5.71907C36.3689 5.78343 36.4242 5.84778 36.4864 5.90518C36.5487 5.96953 36.604 6.0391 36.6663 6.10346C36.7285 6.17303 36.7838 6.24434 36.8461 6.31391C36.9083 6.39044 36.9636 6.46697 37.0259 6.5435C37.0881 6.62699 37.1486 6.71047 37.2057 6.787C37.2679 6.87744 37.3302 6.96615 37.3855 7.04964C37.4478 7.1453 37.5083 7.24096 37.5653 7.33836C37.6276 7.44793 37.6898 7.55577 37.7451 7.65143C37.8126 7.78014 37.8679 7.89493 37.9249 8.00277C38.0062 8.17496 38.0667 8.31585 38.1048 8.40629C38.1359 8.48282 38.148 8.52804 38.148 8.52804C38.148 8.52804 38.1912 8.54021 38.2777 8.57326C38.3278 8.59239 38.3831 8.61153 38.4575 8.63762C38.5128 8.65675 38.5681 8.68284 38.6373 8.70197C38.6926 8.7211 38.7479 8.74719 38.8171 8.77154C38.8724 8.79763 38.9347 8.81676 38.9969 8.84111C39.0522 8.8672 39.1145 8.89155 39.1767 8.91764C39.232 8.94373 39.2943 8.96808 39.3565 9.00113C39.4119 9.02722 39.4741 9.05157 39.5363 9.08461C39.5917 9.1107 39.6539 9.14201 39.7162 9.17506C39.7715 9.20637 39.8337 9.23246 39.896 9.26376C39.9513 9.29507 40.0135 9.32812 40.0758 9.35942C40.1311 9.39073 40.1934 9.42378 40.2556 9.45509C40.3109 9.48639 40.3732 9.51944 40.4354 9.5577C40.4907 9.58901 40.553 9.62728 40.6152 9.66032C40.6706 9.69163 40.7328 9.72989 40.795 9.7699C40.8504 9.80816 40.9126 9.83947 40.9748 9.87948C41.0302 9.91774 41.0924 9.956 41.1547 9.99427C41.21 10.0325 41.2722 10.0708 41.3345 10.116C41.3898 10.1543 41.452 10.1995 41.5143 10.2378C41.5765 10.283 41.6319 10.3213 41.6941 10.3665C41.7563 10.4117 41.8117 10.4552 41.8739 10.5004C41.9362 10.5456 41.9915 10.5908 42.0537 10.6413C42.116 10.6865 42.1713 10.7369 42.2335 10.7822C42.2958 10.8326 42.3511 10.8778 42.4133 10.93C42.4756 10.9805 42.5309 11.0326 42.5932 11.0831C42.6554 11.1335 42.7107 11.1926 42.773 11.2431C42.8352 11.3005 42.8905 11.3579 42.9528 11.4153C43.015 11.4727 43.0704 11.5301 43.1326 11.5944C43.1948 11.6588 43.2502 11.7162 43.3124 11.7805C43.3747 11.8449 43.43 11.9092 43.4922 11.9788C43.5545 12.0484 43.6098 12.1127 43.672 12.184C43.7343 12.2536 43.7896 12.3319 43.8519 12.4015C43.9141 12.478 43.9694 12.5545 44.0317 12.631C44.0939 12.7145 44.1492 12.798 44.2115 12.8798C44.2737 12.9702 44.329 13.0589 44.3913 13.1494C44.4535 13.245 44.5089 13.3407 44.5711 13.4381C44.6333 13.5407 44.6887 13.6485 44.7509 13.7581C44.8132 13.8729 44.8685 13.9877 44.9307 14.1094C44.993 14.2382 45.0483 14.3721 45.1105 14.506C45.1728 14.6539 45.2333 14.8069 45.2904 14.9669C45.3457 15.1269 45.401 15.287 45.4442 15.4591C45.4511 15.4852 45.4563 15.5044 45.4633 15.5287C45.5307 15.7583 45.586 15.9827 45.6431 16.2001C45.7105 16.494 45.7727 16.7758 45.8229 17.0384C46.0891 18.5221 46.0269 19.6561 45.8229 20.4944C45.7727 20.7049 45.7122 20.9032 45.6431 21.0771C45.5877 21.2249 45.5255 21.3641 45.4633 21.4928C45.4079 21.6076 45.3457 21.7171 45.2834 21.8128C45.2212 21.9085 45.1659 21.9989 45.1036 22.0754C45.0414 22.1589 44.9861 22.2285 44.9238 22.2929C44.8616 22.3624 44.8011 22.4268 44.744 22.479C44.6766 22.5433 44.6143 22.5938 44.5642 22.632C44.4847 22.6964 44.4276 22.7277 44.4276 22.7277C44.4708 22.599 44.514 22.4529 44.5642 22.2737C44.6316 22.025 44.6939 21.7241 44.744 21.371C44.8425 20.6666 44.8806 19.7778 44.744 18.729C44.7008 18.402 44.6455 18.0629 44.5642 17.7115C44.514 17.482 44.4535 17.2437 44.3844 17.0019C44.329 16.8106 44.2737 16.6175 44.2046 16.4262C44.1492 16.2592 44.0939 16.094 44.0247 15.927C43.9694 15.7792 43.9141 15.6261 43.8449 15.4783C43.7948 15.3635 43.7464 15.2417 43.6962 15.1269C43.6893 15.1078 43.6772 15.0887 43.672 15.0695C43.6167 14.9478 43.5614 14.826 43.4922 14.7112C43.4369 14.6017 43.3747 14.5008 43.3124 14.3982C43.2571 14.3025 43.1948 14.2121 43.1326 14.1164C43.0773 14.0329 43.015 13.9494 42.9528 13.8677C42.8975 13.7912 42.8352 13.7146 42.773 13.6381C42.7176 13.5685 42.6554 13.4972 42.5932 13.4276C42.5378 13.3581 42.4756 13.2937 42.4133 13.2294C42.358 13.165 42.2958 13.1007 42.2335 13.0433C42.1782 12.9859 42.116 12.9215 42.0537 12.8641C41.9984 12.8067 41.9362 12.7493 41.8739 12.6971C41.8186 12.6467 41.7563 12.5876 41.6941 12.5371C41.6388 12.4867 41.5765 12.4345 41.5143 12.3841C41.459 12.3336 41.3967 12.2884 41.3345 12.2362C41.2791 12.191 41.2169 12.1406 41.1547 12.0953C41.0993 12.0501 41.0371 12.0066 40.9748 11.9614C40.9195 11.9162 40.8573 11.871 40.795 11.8327C40.7328 11.7875 40.6775 11.7492 40.6152 11.711C40.553 11.6727 40.4977 11.6275 40.4354 11.5892C40.3732 11.5509 40.3178 11.5127 40.2556 11.4744C40.1934 11.4361 40.138 11.3979 40.0758 11.3648C40.0135 11.3266 39.9582 11.2953 39.896 11.2553C39.8337 11.217 39.7784 11.1857 39.7162 11.1526C39.6539 11.1213 39.5986 11.0831 39.5363 11.05C39.4741 11.0187 39.4188 10.9857 39.3565 10.9544C39.2943 10.9231 39.239 10.89 39.1767 10.8587C39.1145 10.8274 39.0591 10.7943 38.9969 10.77C38.9347 10.7387 38.8793 10.7126 38.8171 10.6796C38.7549 10.6482 38.6995 10.6222 38.6373 10.5961C38.575 10.57 38.5197 10.5387 38.4575 10.5126C38.3952 10.4865 38.3399 10.4621 38.2777 10.4361C38.2154 10.41 38.1601 10.3856 38.0978 10.3595C38.0356 10.3334 37.9803 10.3091 37.918 10.283C37.8558 10.2569 37.8005 10.2326 37.7382 10.2134C37.676 10.1873 37.6206 10.1682 37.5584 10.1438C37.4962 10.1178 37.4408 10.0986 37.3786 10.0795C37.3163 10.0534 37.2558 10.0343 37.1988 10.0151C37.1365 9.98905 37.076 9.96992 37.019 9.95079C36.9515 9.9247 36.8893 9.90556 36.8391 9.89339C36.7458 9.8673 36.7026 9.84817 36.7026 9.84817C36.6905 9.82208 36.6784 9.79773 36.6663 9.77164C36.6109 9.64989 36.5487 9.53509 36.4864 9.4203C36.4311 9.30551 36.3689 9.19593 36.3066 9.08809C36.2513 8.98547 36.1891 8.87764 36.1268 8.78024C36.0715 8.68458 36.0092 8.58891 35.947 8.49151C35.8917 8.40107 35.8294 8.31237 35.7672 8.22192C35.7119 8.13844 35.6496 8.05495 35.5874 7.9732C35.5321 7.88972 35.4698 7.81319 35.4076 7.73666C35.3522 7.66013 35.29 7.58882 35.2278 7.51925C35.1724 7.44967 35.1102 7.37836 35.0479 7.31401C34.9926 7.24965 34.9304 7.1853 34.8681 7.12269C34.8128 7.05833 34.7506 7.00093 34.6883 6.94354C34.633 6.88614 34.5707 6.82874 34.5085 6.77657C34.4532 6.72613 34.3909 6.66699 34.3287 6.61655C34.2734 6.56611 34.2111 6.52089 34.1489 6.46871C34.0866 6.42349 34.0313 6.38 33.9691 6.33478C33.9068 6.28956 33.8515 6.2513 33.7892 6.20608C33.727 6.16781 33.6717 6.12955 33.6094 6.09128C33.5472 6.05302 33.4919 6.01475 33.4296 5.98171C33.3674 5.9504 33.3121 5.91213 33.2498 5.87909C33.1876 5.84778 33.1322 5.81473 33.07 5.78864C33.0078 5.75734 32.9524 5.73125 32.8902 5.70516C32.8279 5.67907 32.7726 5.65472 32.7104 5.62863C32.6481 5.60254 32.5928 5.58341 32.5306 5.55906C32.4683 5.53992 32.413 5.51383 32.3507 5.50166C32.2885 5.48253 32.2332 5.46339 32.1709 5.45122C32.1087 5.43209 32.0534 5.41991 31.9911 5.406C31.9289 5.39382 31.8736 5.37991 31.8113 5.36773C31.7491 5.35556 31.6937 5.34164 31.6315 5.33643C31.5693 5.32425 31.5139 5.31729 31.4517 5.31034C31.3894 5.30338 31.3341 5.29816 31.2719 5.2912C31.2096 5.28425 31.1543 5.27903 31.0921 5.27903C31.0298 5.27207 30.9745 5.27207 30.9122 5.27207C30.85 5.27207 30.7947 5.27207 30.7324 5.26511C30.6702 5.26511 30.6149 5.26511 30.5526 5.26511C30.4904 5.26511 30.435 5.27207 30.3728 5.27207C30.3106 5.27903 30.2552 5.27903 30.193 5.28425C30.1308 5.2912 30.0754 5.29642 30.0132 5.30338C29.9509 5.31034 29.8956 5.31555 29.8334 5.32947C29.7711 5.33643 29.7158 5.3486 29.6536 5.35556C29.5913 5.36773 29.536 5.37469 29.4737 5.38687C29.4115 5.39904 29.3562 5.41295 29.2939 5.42513C29.2317 5.4373 29.1764 5.45122 29.1141 5.47035C29.0519 5.48253 28.9965 5.50166 28.9343 5.51557C28.8721 5.53471 28.8167 5.54688 28.7545 5.56601C28.6922 5.58515 28.6369 5.60428 28.5747 5.62341C28.5124 5.64254 28.4571 5.66167 28.3949 5.68776C28.3326 5.7069 28.2773 5.73299 28.2151 5.75212C28.1528 5.77821 28.0975 5.79734 28.0352 5.82169C27.973 5.84778 27.9177 5.87213 27.8554 5.89822C27.7932 5.92431 27.7379 5.94866 27.6756 5.97475C27.6134 6.00084 27.558 6.03215 27.4958 6.05823C27.4336 6.08954 27.3782 6.11563 27.316 6.14868C27.2537 6.17999 27.1984 6.21303 27.1362 6.24434C27.0739 6.27565 27.0134 6.31391 26.9564 6.34696C26.8941 6.38522 26.8319 6.41653 26.7765 6.44958C26.7091 6.48784 26.6521 6.52611 26.5967 6.56437C26.5155 6.61481 26.4601 6.65307 26.4169 6.68612C26.3806 6.71221 26.3616 6.72439 26.3616 6.72439C26.3236 6.67395 26.2803 6.62177 26.2371 6.56437C26.1818 6.4948 26.1265 6.42349 26.0573 6.34696C26.002 6.2826 25.9466 6.21303 25.8775 6.14172C25.8222 6.07737 25.7599 6.01301 25.6977 5.94344C25.6423 5.87909 25.5801 5.82169 25.5179 5.75734C25.4625 5.69994 25.4003 5.64254 25.338 5.57819C25.2827 5.52079 25.2205 5.46339 25.1582 5.406C25.1029 5.35556 25.0407 5.29642 24.9784 5.23903C24.9231 5.18859 24.8609 5.13641 24.7986 5.07901C24.7433 5.02857 24.681 4.97639 24.6188 4.92595C24.5635 4.87551 24.5012 4.83029 24.439 4.77811C24.3837 4.73289 24.3214 4.68245 24.2592 4.63723C24.2038 4.59201 24.1416 4.54852 24.0794 4.5033C24.024 4.45808 23.9618 4.41286 23.8995 4.37459C23.8442 4.32937 23.782 4.29111 23.7197 4.24589C23.6644 4.20762 23.6022 4.1624 23.5399 4.12413C23.4846 4.08587 23.4223 4.04761 23.3601 4.00934C23.3048 3.97108 23.2425 3.93281 23.1803 3.89976C23.125 3.8615 23.0627 3.83019 23.0005 3.79019C22.9452 3.75888 22.8829 3.72062 22.8207 3.68757C22.7653 3.65626 22.7031 3.62322 22.6409 3.59191C22.5855 3.5606 22.5233 3.52755 22.461 3.49625C22.4057 3.46494 22.3435 3.43885 22.2812 3.4058C22.2259 3.3745 22.1637 3.34841 22.1014 3.32232C22.0461 3.29623 21.9838 3.26492 21.9216 3.23883C21.8663 3.21274 21.804 3.18839 21.7418 3.1623C21.6865 3.13621 21.6242 3.11186 21.562 3.08577C21.5067 3.05968 21.4444 3.04055 21.3822 3.0162C21.3268 2.99707 21.2646 2.97098 21.2024 2.95185C21.147 2.93271 21.0848 2.91358 21.0225 2.88749C20.9672 2.86836 20.905 2.84923 20.8427 2.8301C20.7874 2.81096 20.7252 2.79183 20.6629 2.7727C20.6076 2.75357 20.5453 2.74139 20.4831 2.72226C20.4278 2.70313 20.3655 2.69095 20.3033 2.67704C20.248 2.66486 20.1857 2.64573 20.1235 2.63182C20.0681 2.61964 20.0059 2.60573 19.9437 2.59355C19.8883 2.58138 19.8261 2.56746 19.7638 2.55529C19.7085 2.54311 19.6463 2.53615 19.584 2.52398C19.5287 2.5118 19.4665 2.50485 19.4042 2.49267C19.3489 2.48571 19.2867 2.47354 19.2244 2.46658C19.1691 2.45963 19.1068 2.45441 19.0446 2.44049C18.9893 2.43354 18.927 2.42832 18.8648 2.42136C18.8095 2.4144 18.7472 2.40919 18.685 2.40919C18.6296 2.40223 18.5674 2.40223 18.5052 2.39701C18.4498 2.39005 18.3876 2.39005 18.3253 2.39005C18.27 2.39005 18.2078 2.3831 18.1455 2.3831C18.0902 2.3831 18.028 2.3831 17.9657 2.3831C17.9104 2.3831 17.8482 2.3831 17.7859 2.3831C17.7306 2.3831 17.6683 2.39005 17.6061 2.39005C17.5508 2.39005 17.4885 2.39701 17.4263 2.39701C17.371 2.40397 17.3087 2.40397 17.2465 2.40919C17.1911 2.41614 17.1289 2.42136 17.0667 2.42136C17.0044 2.42832 16.9491 2.43354 16.8868 2.44049C16.8315 2.44745 16.7693 2.45267 16.707 2.46658C16.6517 2.47354 16.5895 2.48571 16.5272 2.49267C16.465 2.49963 16.4096 2.5118 16.3474 2.51876C16.2921 2.53094 16.2298 2.53789 16.1676 2.55007C16.1123 2.56224 16.05 2.57616 15.9878 2.58138C15.9325 2.59355 15.8702 2.60747 15.808 2.61964C15.7526 2.63182 15.6904 2.64573 15.6282 2.66486C15.5659 2.67704 15.5106 2.69617 15.4483 2.71008C15.393 2.72226 15.3308 2.74139 15.2685 2.76052C15.2132 2.77966 15.151 2.79183 15.0887 2.81096C15.0265 2.8301 14.9711 2.84923 14.9089 2.86836C14.8536 2.88749 14.7913 2.90663 14.7291 2.92576C14.6668 2.94489 14.6115 2.96402 14.5493 2.99011C14.494 3.00924 14.4317 3.03533 14.3695 3.05447C14.3141 3.0736 14.2519 3.09969 14.1897 3.12404C14.1274 3.15013 14.0721 3.16926 14.0098 3.19361C13.9545 3.2197 13.8923 3.24405 13.83 3.27014C13.7747 3.29623 13.7246 3.31536 13.6692 3.33971C13.6623 3.33971 13.6571 3.34667 13.6502 3.34667C13.588 3.37276 13.5326 3.40406 13.4704 3.43015C13.4082 3.45624 13.3528 3.48755 13.2906 3.51364C13.2283 3.54495 13.173 3.57104 13.1108 3.60408C13.0485 3.63539 12.9932 3.66844 12.931 3.69975C12.8687 3.73105 12.8134 3.7641 12.7511 3.79541C12.6889 3.82671 12.6336 3.85976 12.5713 3.89803C12.5091 3.92933 12.4538 3.9676 12.3915 4.00064C12.3293 4.03891 12.274 4.07022 12.2117 4.11022C12.1495 4.14848 12.0941 4.18675 12.0319 4.22501C11.9697 4.26328 11.9143 4.30154 11.8521 4.34676C11.7898 4.38503 11.7345 4.43025 11.6723 4.46852C11.61 4.51374 11.5547 4.552 11.4925 4.59722C11.4302 4.64245 11.3749 4.68767 11.3126 4.73115C11.2504 4.77637 11.1951 4.82159 11.1328 4.87203C11.0706 4.92247 11.0153 4.96769 10.953 5.01987C10.8908 5.07031 10.8355 5.12249 10.7732 5.17293C10.711 5.22337 10.6556 5.28251 10.5934 5.33295C10.5312 5.39034 10.4758 5.44252 10.4136 5.49992C10.3513 5.55732 10.296 5.61471 10.2338 5.67211C10.1715 5.72951 10.1162 5.79386 10.054 5.85126C9.99171 5.91561 9.93639 5.97997 9.87414 6.03736C9.8119 6.10172 9.75657 6.17129 9.69433 6.23564C9.63209 6.30521 9.57676 6.37653 9.51452 6.44088C9.45228 6.51045 9.39695 6.58872 9.33471 6.65829C9.27246 6.73482 9.21714 6.81135 9.15489 6.88788C9.09265 6.96441 9.03732 7.0479 8.97508 7.12442C8.91284 7.20791 8.85751 7.2914 8.79527 7.37314C8.73302 7.46359 8.6777 7.55229 8.61545 7.64274C8.55321 7.7384 8.49788 7.83406 8.43564 7.9245C8.3734 8.02712 8.31807 8.12278 8.25583 8.2254C8.19359 8.33498 8.13826 8.44281 8.07602 8.54543C8.01377 8.66023 7.95845 8.77502 7.8962 8.89155C7.83396 9.0133 7.77863 9.14027 7.71639 9.26202C7.65415 9.39595 7.59363 9.53161 7.53658 9.66554C7.47433 9.81338 7.41382 9.95948 7.35676 10.1073C7.29452 10.2743 7.23401 10.4395 7.17695 10.5943C7.10952 10.7856 7.0542 10.9718 6.99714 11.1509C6.92971 11.3805 6.87438 11.5996 6.81733 11.8031C6.74298 12.1162 6.68074 12.391 6.63751 12.6293C6.54415 13.1354 6.52686 13.4363 6.52686 13.4363C6.50784 13.4433 6.48364 13.4485 6.46462 13.4485C6.40237 13.4607 6.34705 13.4746 6.2848 13.4868C6.22256 13.499 6.16723 13.5129 6.10499 13.532C6.04275 13.5442 5.98742 13.5633 5.92518 13.5772C5.86294 13.5964 5.80761 13.6085 5.74537 13.6277C5.68312 13.6468 5.6278 13.659 5.56555 13.6781C5.50331 13.6972 5.44798 13.7164 5.38574 13.7355C5.3235 13.7546 5.26817 13.7738 5.20593 13.7929C5.14368 13.812 5.08836 13.8381 5.02611 13.8573C4.96387 13.8833 4.90854 13.9025 4.8463 13.9268C4.78406 13.9529 4.72873 13.972 4.66649 13.9964C4.60425 14.0225 4.54892 14.0468 4.48668 14.0729C4.42443 14.099 4.36911 14.1303 4.30686 14.1564C4.24462 14.1877 4.18929 14.2138 4.12705 14.2469C4.06481 14.2782 4.00948 14.3112 3.94724 14.3425C3.88499 14.3738 3.82967 14.4121 3.76742 14.4451C3.70518 14.4834 3.64985 14.5147 3.58761 14.5547C3.52537 14.593 3.47004 14.6312 3.4078 14.6695C3.34556 14.7078 3.29023 14.753 3.22799 14.7982C3.16574 14.8434 3.11042 14.8887 3.04817 14.9321C2.98593 14.9774 2.9306 15.0278 2.86836 15.08C2.80612 15.1304 2.75079 15.1826 2.68855 15.24C2.6263 15.2974 2.57098 15.3548 2.50873 15.4122C2.44649 15.4765 2.39116 15.5339 2.32892 15.5983C2.26668 15.6626 2.21135 15.7322 2.14911 15.8035C2.08687 15.8731 2.03154 15.9514 1.9693 16.0279C1.90705 16.1114 1.85173 16.1879 1.78948 16.2714C1.72724 16.3618 1.66673 16.4575 1.60967 16.5462C1.54743 16.6488 1.48691 16.7567 1.42986 16.8593C1.36761 16.981 1.3071 17.1028 1.25004 17.2245C1.1878 17.3724 1.12729 17.5185 1.07023 17.6663C1.0028 17.8576 0.940559 18.0437 0.890419 18.2351C0.810887 18.529 0.753831 18.823 0.710606 19.1047C0.556728 20.1674 0.643177 21.0823 0.710606 21.5554C0.741728 21.7728 0.765933 21.8946 0.765933 21.8946C0.746915 21.8632 0.729625 21.8302 0.710606 21.7989C0.648364 21.6911 0.58785 21.5745 0.530794 21.4667C0.463364 21.3258 0.408037 21.1849 0.350981 21.044C0.283551 20.8353 0.223037 20.644 0.179813 20.444Z" fill="url(#paint0_linear)"/>
<defs>
<linearGradient id="paint0_linear" x1="0" y1="11.6754" x2="45.8523" y2="11.6754" gradientUnits="userSpaceOnUse">
<stop stop-color="#4DB849"/>
<stop offset="0.5312" stop-color="#FFE500"/>
<stop offset="1" stop-color="#F6841F"/>
</linearGradient>
</defs>
</svg>
