<svg width="179" height="54" viewBox="0 0 179 54" fill="none" xmlns="http://www.w3.org/2000/svg">
<path d="M172.171 53.3597H6.93373C3.2324 53.3597 0.324219 50.3071 0.324219 46.7237V6.90794C0.324219 3.1918 3.36459 0.271973 6.93373 0.271973H172.171C175.873 0.271973 178.781 3.32452 178.781 6.90794V46.7237C178.781 50.3071 175.873 53.3597 172.171 53.3597Z" fill="black"/>
<path d="M55.9761 19.2508H55.0508V16.5964H55.8439C56.5049 16.0655 56.9014 15.0037 56.9014 13.5438V9.56226H62.1891V16.5964H63.1144V19.2508H62.1891V17.5254H56.1083V19.2508H55.9761ZM57.8268 13.5438C57.8268 14.7383 57.5624 15.8001 57.0336 16.5964H60.9993V10.624H57.6946V13.5438H57.8268Z" fill="white" stroke="white" stroke-width="0.2" stroke-miterlimit="10"/>
<path d="M70.9137 16.4638C70.1205 17.2601 69.1952 17.6583 68.0055 17.6583C66.8158 17.6583 65.8904 17.2601 65.0973 16.4638C64.3042 15.6675 63.9076 14.7385 63.9076 13.544C63.9076 12.3495 64.3042 11.4205 65.0973 10.6242C65.8904 9.82784 66.8158 9.42969 68.0055 9.42969C69.1952 9.42969 70.1205 9.82784 70.9137 10.6242C71.7068 11.4205 72.1034 12.3495 72.1034 13.544C72.1034 14.7385 71.7068 15.6675 70.9137 16.4638ZM65.8904 15.8002C66.4192 16.3311 67.2123 16.7292 68.0055 16.7292C68.7986 16.7292 69.5918 16.4638 70.1205 15.8002C70.6493 15.2693 71.0459 14.473 71.0459 13.544C71.0459 12.6149 70.7815 11.8186 70.1205 11.2878C69.5918 10.7569 68.7986 10.3587 68.0055 10.3587C67.2123 10.3587 66.4192 10.6242 65.8904 11.2878C65.3617 11.8186 64.9651 12.6149 64.9651 13.544C64.9651 14.473 65.2295 15.2693 65.8904 15.8002Z" fill="white" stroke="white" stroke-width="0.2" stroke-miterlimit="10"/>
<path d="M77.2588 17.6583C76.0691 17.6583 75.1437 17.2601 74.3506 16.4638C73.5575 15.6675 73.1609 14.7385 73.1609 13.544C73.1609 12.3495 73.5575 11.4205 74.3506 10.6242C75.1437 9.82784 76.0691 9.42969 77.2588 9.42969C78.4485 9.42969 79.3738 9.82785 80.167 10.7569L79.506 11.4205C78.9773 10.7569 78.1841 10.3587 77.2588 10.3587C76.3334 10.3587 75.6725 10.6242 75.0116 11.2878C74.3506 11.8186 74.0862 12.6149 74.0862 13.544C74.0862 14.473 74.3506 15.2693 75.0116 15.8002C75.5403 16.3311 76.3334 16.7292 77.2588 16.7292C78.1841 16.7292 78.9773 16.3311 79.6382 15.5348L80.2992 16.1984C79.9026 16.5965 79.506 16.9947 78.9773 17.2601C78.4485 17.5256 77.9197 17.6583 77.2588 17.6583Z" fill="white" stroke="white" stroke-width="0.2" stroke-miterlimit="10"/>
<path d="M84.5292 17.5254H83.4717V10.4913H81.2245V9.56226H86.6443V10.4913H84.3971V17.5254H84.5292Z" fill="white" stroke="white" stroke-width="0.2" stroke-miterlimit="10"/>
<path d="M93.6503 9.56226L90.6099 16.3309C90.2134 17.26 89.5524 17.7909 88.7593 17.7909C88.4949 17.7909 88.2305 17.7909 87.9661 17.6581L88.2305 16.7291C88.3627 16.8618 88.6271 16.8618 88.7593 16.8618C89.0236 16.8618 89.1558 16.8618 89.288 16.7291C89.4202 16.5964 89.5524 16.4637 89.6846 16.1982L89.949 15.5346L87.3052 9.69498H88.4949L90.4777 14.2074L92.3284 9.69498H93.6503V9.56226Z" fill="white" stroke="white" stroke-width="0.2" stroke-miterlimit="10"/>
<path d="M94.84 17.5254V9.56226H100.524V17.5254H99.4666V10.4913H95.7653V17.5254H94.84Z" fill="white" stroke="white" stroke-width="0.2" stroke-miterlimit="10"/>
<path d="M102.375 17.5254V9.56226H103.432V13.013H107.398V9.56226H108.456V17.5254H107.398V13.942H103.432V17.5254H102.375Z" fill="white" stroke="white" stroke-width="0.2" stroke-miterlimit="10"/>
<path d="M116.784 16.4638C115.991 17.2601 115.065 17.6583 113.875 17.6583C112.686 17.6583 111.76 17.2601 110.967 16.4638C110.174 15.6675 109.778 14.7385 109.778 13.544C109.778 12.3495 110.174 11.4205 110.967 10.6242C111.76 9.82784 112.686 9.42969 113.875 9.42969C115.065 9.42969 115.991 9.82784 116.784 10.6242C117.577 11.4205 117.973 12.3495 117.973 13.544C117.841 14.7385 117.445 15.6675 116.784 16.4638ZM111.628 15.8002C112.157 16.3311 112.95 16.7292 113.743 16.7292C114.536 16.7292 115.33 16.4638 115.858 15.8002C116.387 15.2693 116.784 14.473 116.784 13.544C116.784 12.6149 116.519 11.8186 115.858 11.2878C115.33 10.7569 114.536 10.3587 113.743 10.3587C112.95 10.3587 112.157 10.6242 111.628 11.2878C111.099 11.8186 110.703 12.6149 110.703 13.544C110.703 14.473 111.099 15.2693 111.628 15.8002Z" fill="white" stroke="white" stroke-width="0.2" stroke-miterlimit="10"/>
<path d="M122.071 17.5254V9.56226H124.979C125.64 9.56226 126.169 9.82769 126.566 10.2259C126.962 10.624 127.227 11.1549 127.227 11.8185C127.227 12.2166 127.094 12.4821 126.962 12.8802C126.83 13.1457 126.566 13.4111 126.169 13.5438C126.566 13.6766 126.83 13.942 127.094 14.2074C127.359 14.4729 127.491 14.871 127.491 15.4019C127.491 16.0655 127.227 16.5964 126.83 16.9945C126.301 17.3927 125.773 17.6581 125.112 17.6581H122.071V17.5254ZM123.129 13.013H124.979C125.376 13.013 125.64 12.8802 125.905 12.6148C126.169 12.3494 126.301 12.0839 126.301 11.8185C126.301 11.553 126.169 11.2876 125.905 11.0222C125.64 10.7567 125.376 10.624 124.979 10.624H123.129V13.013ZM123.129 16.5964H125.244C125.64 16.5964 125.905 16.4637 126.169 16.1982C126.433 15.9328 126.566 15.6673 126.566 15.2692C126.566 15.0037 126.433 14.6056 126.169 14.3401C125.905 14.0747 125.64 13.942 125.244 13.942H123.261V16.5964H123.129Z" fill="white" stroke="white" stroke-width="0.2" stroke-miterlimit="10"/>
<path d="M172.171 1.33373C175.212 1.33373 177.723 3.85539 177.723 6.90794V46.7237C177.723 49.7763 175.212 52.2979 172.171 52.2979H6.93373C3.89335 52.2979 1.38174 49.7763 1.38174 46.7237V6.90794C1.38174 3.85539 3.89335 1.33373 6.93373 1.33373H172.171ZM172.171 0.271973H6.93373C3.2324 0.271973 0.324219 3.32452 0.324219 6.90794V46.7237C0.324219 50.4399 3.36459 53.3597 6.93373 53.3597H172.171C175.873 53.3597 178.781 50.3071 178.781 46.7237V6.90794C178.781 3.32452 175.873 0.271973 172.171 0.271973Z" fill="#A6A6A6"/>
<path d="M90.3456 29.2046C87.1731 29.2046 84.6615 31.5936 84.6615 34.9115C84.6615 38.0968 87.1731 40.6185 90.3456 40.6185C93.5182 40.6185 96.0298 38.2295 96.0298 34.9115C96.0298 31.4608 93.5182 29.2046 90.3456 29.2046ZM90.3456 38.2295C88.6272 38.2295 87.1731 36.7696 87.1731 34.7788C87.1731 32.788 88.6272 31.3281 90.3456 31.3281C92.0641 31.3281 93.5182 32.6553 93.5182 34.7788C93.5182 36.7696 92.0641 38.2295 90.3456 38.2295ZM78.052 29.2046C74.8794 29.2046 72.3678 31.5936 72.3678 34.9115C72.3678 38.0968 74.8794 40.6185 78.052 40.6185C81.2245 40.6185 83.7361 38.2295 83.7361 34.9115C83.7361 31.4608 81.2245 29.2046 78.052 29.2046ZM78.052 38.2295C76.3335 38.2295 74.8794 36.7696 74.8794 34.7788C74.8794 32.788 76.3335 31.3281 78.052 31.3281C79.7704 31.3281 81.2245 32.6553 81.2245 34.7788C81.2245 36.7696 79.7704 38.2295 78.052 38.2295ZM63.3789 30.93V33.3189H69.063C68.9308 34.6461 68.4021 35.7079 67.7411 36.3715C66.948 37.1678 65.6261 38.0968 63.3789 38.0968C59.8097 38.0968 57.1659 35.3097 57.1659 31.7263C57.1659 28.1429 59.9419 25.3557 63.3789 25.3557C65.2295 25.3557 66.6836 26.1521 67.7411 27.0811L69.4596 25.3557C68.0055 24.0286 66.1548 22.9668 63.511 22.9668C58.7522 22.9668 54.6543 26.9484 54.6543 31.7263C54.6543 36.5042 58.7522 40.4858 63.511 40.4858C66.1548 40.4858 68.0055 39.6894 69.5918 37.9641C71.1781 36.3715 71.7068 34.1152 71.7068 32.3899C71.7068 31.859 71.7068 31.3281 71.5746 30.93H63.3789ZM123.393 32.788C122.864 31.4608 121.543 29.2046 118.634 29.2046C115.726 29.2046 113.347 31.4608 113.347 34.9115C113.347 38.0968 115.726 40.6185 118.899 40.6185C121.41 40.6185 122.997 39.0258 123.525 38.0968L121.675 36.7696C121.014 37.6986 120.221 38.3622 118.899 38.3622C117.577 38.3622 116.784 37.8314 116.123 36.6369L123.658 33.4516L123.393 32.788ZM115.726 34.6461C115.726 32.5226 117.445 31.3281 118.634 31.3281C119.56 31.3281 120.485 31.859 120.749 32.5226L115.726 34.6461ZM109.513 40.0876H112.025V23.4977H109.513V40.0876ZM105.548 30.3991C104.887 29.7355 103.829 29.0719 102.507 29.0719C99.7312 29.0719 97.0873 31.5936 97.0873 34.7788C97.0873 37.9641 99.599 40.353 102.507 40.353C103.829 40.353 104.887 39.6894 105.415 39.0258H105.548V39.8222C105.548 41.9457 104.358 43.1401 102.507 43.1401C101.053 43.1401 99.9955 42.0784 99.7311 41.1493L97.6161 42.0784C98.2771 43.5383 99.8633 45.3964 102.639 45.3964C105.548 45.3964 107.927 43.671 107.927 39.5567V29.47H105.548V30.3991ZM102.639 38.2295C100.921 38.2295 99.4668 36.7696 99.4668 34.7788C99.4668 32.788 100.921 31.3281 102.639 31.3281C104.358 31.3281 105.68 32.788 105.68 34.7788C105.68 36.7696 104.358 38.2295 102.639 38.2295ZM134.894 23.4977H128.945V40.0876H131.457V33.8498H134.894C137.67 33.8498 140.314 31.859 140.314 28.6737C140.314 25.4885 137.67 23.4977 134.894 23.4977ZM135.026 31.4608H131.457V25.7539H135.026C136.877 25.7539 137.934 27.3465 137.934 28.541C137.802 30.0009 136.744 31.4608 135.026 31.4608ZM150.228 29.0719C148.377 29.0719 146.526 29.8682 145.866 31.5936L148.113 32.5226C148.642 31.5936 149.435 31.3281 150.36 31.3281C151.682 31.3281 152.872 32.1244 153.004 33.4516V33.5843C152.607 33.3189 151.55 32.9207 150.492 32.9207C148.113 32.9207 145.733 34.2479 145.733 36.6369C145.733 38.8931 147.716 40.353 149.831 40.353C151.55 40.353 152.343 39.5567 153.004 38.7604H153.136V40.0876H155.515V33.7171C155.251 30.7972 153.004 29.0719 150.228 29.0719ZM149.963 38.2295C149.17 38.2295 147.981 37.8314 147.981 36.7696C147.981 35.4424 149.435 35.0443 150.624 35.0443C151.682 35.0443 152.211 35.3097 152.872 35.5751C152.607 37.1678 151.285 38.2295 149.963 38.2295ZM163.843 29.47L161.067 36.6369H160.935L158.027 29.47H155.383L159.745 39.5567L157.234 45.1309H159.745L166.487 29.47H163.843ZM141.635 40.0876H144.147V23.4977H141.635V40.0876Z" fill="white"/>
<path d="M172.171 1.33373C175.212 1.33373 177.723 3.85539 177.723 6.90794V46.7237C177.723 49.7763 175.212 52.2979 172.171 52.2979H6.93373C3.89335 52.2979 1.38174 49.7763 1.38174 46.7237V6.90794C1.38174 3.85539 3.89335 1.33373 6.93373 1.33373H172.171ZM172.171 0.271973H6.93373C3.2324 0.271973 0.324219 3.32452 0.324219 6.90794V46.7237C0.324219 50.4399 3.36459 53.3597 6.93373 53.3597H172.171C175.873 53.3597 178.781 50.3071 178.781 46.7237V6.90794C178.781 3.32452 175.873 0.271973 172.171 0.271973Z" fill="#A6A6A6"/>
<path d="M14.0731 10.2257C13.6765 10.6239 13.4121 11.2875 13.4121 12.0838V41.4147C13.4121 42.2111 13.6765 42.8747 14.0731 43.2728L14.2053 43.4055L30.5968 26.9483V26.8156V26.6829L14.0731 10.2257Z" fill="url(#paint0_linear)"/>
<path d="M36.0167 32.5228L30.5969 27.0813V26.8159V26.6832L36.0167 21.2417L36.1489 21.3744L42.6262 25.0906C44.4769 26.1523 44.4769 27.8777 42.6262 28.9394L36.0167 32.5228Z" fill="url(#paint1_linear)"/>
<path d="M36.1489 32.3898L30.5969 26.8156L14.0731 43.4055C14.7341 44.0691 15.6594 44.0691 16.8491 43.5382L36.1489 32.3898Z" fill="url(#paint2_linear)"/>
<path d="M36.1489 21.2417L16.8491 10.226C15.6594 9.56236 14.7341 9.69508 14.0731 10.3587L30.5969 26.8159L36.1489 21.2417Z" fill="url(#paint3_linear)"/>
<path opacity="0.2" d="M36.0167 32.2573L16.8491 43.1403C15.7916 43.8039 14.8663 43.6712 14.2053 43.1403L14.0731 43.273L14.2053 43.4057C14.8663 43.9366 15.7916 44.0693 16.8491 43.4057L36.0167 32.2573Z" fill="black"/>
<path opacity="0.12" d="M14.0731 43.1403C13.6765 42.7421 13.5443 42.0785 13.5443 41.2822V41.4149C13.5443 42.2113 13.8087 42.8749 14.2053 43.273V43.1403H14.0731Z" fill="black"/>
<path opacity="0.12" d="M42.6261 28.5409L36.0166 32.257L36.1488 32.3898L42.6261 28.6736C43.5514 28.1427 43.948 27.4791 43.948 26.8156C43.948 27.4791 43.4193 28.01 42.6261 28.5409Z" fill="black"/>
<path opacity="0.25" d="M16.8491 10.3585L42.6261 25.0904C43.4193 25.6213 43.948 26.1521 43.948 26.8157C43.948 26.1521 43.5515 25.4885 42.6261 24.9577L16.8491 10.2258C14.9984 9.16407 13.5443 10.0931 13.5443 12.2166V12.3493C13.5443 10.2258 14.9984 9.29679 16.8491 10.3585Z" fill="white"/>
<defs>
<linearGradient id="paint0_linear" x1="29.1423" y1="11.8312" x2="6.86904" y2="34.0157" gradientUnits="userSpaceOnUse">
<stop stop-color="#00A0FF"/>
<stop offset="0.00657445" stop-color="#00A1FF"/>
<stop offset="0.2601" stop-color="#00BEFF"/>
<stop offset="0.5122" stop-color="#00D2FF"/>
<stop offset="0.7604" stop-color="#00DFFF"/>
<stop offset="1" stop-color="#00E3FF"/>
</linearGradient>
<linearGradient id="paint1_linear" x1="45.0511" y1="26.8178" x2="13.0652" y2="26.8178" gradientUnits="userSpaceOnUse">
<stop stop-color="#FFE000"/>
<stop offset="0.4087" stop-color="#FFBD00"/>
<stop offset="0.7754" stop-color="#FFA500"/>
<stop offset="1" stop-color="#FF9C00"/>
</linearGradient>
<linearGradient id="paint2_linear" x1="33.1442" y1="29.8629" x2="2.93978" y2="59.9469" gradientUnits="userSpaceOnUse">
<stop stop-color="#FF3A44"/>
<stop offset="1" stop-color="#C31162"/>
</linearGradient>
<linearGradient id="paint3_linear" x1="9.97166" y1="0.505862" x2="23.4593" y2="13.9396" gradientUnits="userSpaceOnUse">
<stop stop-color="#32A071"/>
<stop offset="0.0685" stop-color="#2DA771"/>
<stop offset="0.4762" stop-color="#15CF74"/>
<stop offset="0.8009" stop-color="#06E775"/>
<stop offset="1" stop-color="#00F076"/>
</linearGradient>
</defs>
</svg>
