<svg width="33" height="24" viewBox="0 0 33 24" fill="none" xmlns="http://www.w3.org/2000/svg">
<path d="M24.4656 9.54126H22.7856C22.2868 7.60926 21.256 5.85591 19.8105 4.48045C18.365 3.105 16.5626 2.16258 14.6082 1.76029C12.6538 1.35801 10.6258 1.51198 8.75451 2.20472C6.88326 2.89745 5.24383 4.10117 4.02251 5.6791C2.80119 7.25703 2.04696 9.1459 1.84552 11.1311C1.64407 13.1162 2.0035 15.1181 2.88294 16.9092C3.76239 18.7003 5.1266 20.2088 6.82055 21.2633C8.5145 22.3179 10.4703 22.8761 12.4656 22.8746H24.4656C26.2338 22.8746 27.9294 22.1722 29.1797 20.922C30.4299 19.6717 31.1323 17.976 31.1323 16.2079C31.1323 14.4398 30.4299 12.7441 29.1797 11.4939C27.9294 10.2436 26.2338 9.54126 24.4656 9.54126Z" stroke="white" stroke-width="2" stroke-linecap="round" stroke-linejoin="round"/>
</svg>
