<svg width="158" height="53" viewBox="0 0 158 53" fill="none" xmlns="http://www.w3.org/2000/svg">
<path d="M145.328 0H12.5397C12.1437 0 11.6157 0 11.0877 0C10.6917 0 10.2957 0 9.89975 0C8.97577 0 8.18379 0.1325 7.25982 0.265C6.33584 0.3975 5.54386 0.6625 4.75188 1.06C3.9599 1.4575 3.29992 1.9875 2.63993 2.65C1.97995 3.3125 1.45196 3.975 1.05597 4.77C0.659983 5.565 0.39599 6.4925 0.263993 7.2875C0.131997 8.215 0 9.1425 0 9.9375C0 10.335 0 10.7325 0 11.13C0 11.66 0 12.0575 0 12.5875V40.28C0 40.81 0 41.2075 0 41.7375C0 42.135 0 42.5325 0 42.93C0 43.8575 0.131997 44.6525 0.263993 45.58C0.39599 46.5075 0.659983 47.3025 1.05597 48.0975C1.45196 49.025 1.97995 49.6875 2.63993 50.35C3.29992 51.0125 3.9599 51.5425 4.75188 51.94C5.54386 52.3375 6.33584 52.6025 7.25982 52.735C8.18379 52.8675 8.97577 53 9.89975 53C10.2957 53 10.6917 53 11.0877 53C11.6157 53 12.0117 53 12.5397 53H145.328C145.856 53 146.252 53 146.78 53C147.176 53 147.572 53 147.968 53C148.892 53 149.684 52.8675 150.608 52.735C151.532 52.6025 152.324 52.3375 153.116 51.94C153.908 51.5425 154.568 51.0125 155.228 50.35C155.888 49.6875 156.416 49.025 156.812 48.23C157.208 47.435 157.472 46.64 157.604 45.7125C157.736 44.785 157.868 43.99 157.868 43.0625C157.868 42.665 157.868 42.2675 157.868 41.87C157.868 41.34 157.868 40.9425 157.868 40.4125V12.5875C157.868 12.0575 157.868 11.66 157.868 11.13C157.868 10.7325 157.868 10.335 157.868 9.9375C157.868 9.01 157.736 8.215 157.604 7.2875C157.472 6.36 157.208 5.565 156.812 4.77C156.416 3.975 155.888 3.3125 155.228 2.65C154.568 1.9875 153.908 1.4575 153.116 1.06C152.324 0.6625 151.532 0.3975 150.608 0.265C149.684 0.1325 148.892 0 147.968 0C147.572 0 147.176 0 146.78 0C146.384 0 145.856 0 145.328 0Z" fill="#B7B7B7"/>
<path d="M11.0877 51.8076C10.6917 51.8076 10.2957 51.8076 9.89968 51.8076C9.1077 51.8076 8.31572 51.8076 7.39175 51.5426C6.59977 51.4101 5.80779 51.1451 5.1478 50.8801C4.48782 50.4826 3.82784 50.0851 3.29985 49.5551C2.77186 49.0251 2.24388 48.3626 1.97988 47.7001C1.58389 47.0376 1.4519 46.3751 1.3199 45.4476C1.1879 44.5201 1.05591 43.5926 1.05591 42.9301C1.05591 42.6651 1.05591 41.7376 1.05591 41.7376V11.1301C1.05591 11.1301 1.05591 10.2026 1.05591 9.93763C1.05591 9.27513 1.05591 8.34763 1.3199 7.42013C1.58389 6.75763 1.71589 5.96263 2.11188 5.30013C2.50787 4.63763 2.90386 3.97513 3.43185 3.44513C3.95983 2.91513 4.61982 2.51763 5.2798 2.12013C5.93978 1.72263 6.73176 1.59013 7.52374 1.45763C8.31572 1.19263 9.2397 1.19263 9.89968 1.19263H11.0877H146.78H147.968C148.628 1.19263 149.552 1.19263 150.476 1.45763C151.268 1.59013 151.928 1.85513 152.72 2.12013C153.38 2.51763 154.04 2.91513 154.568 3.44513C155.096 3.97513 155.624 4.63763 155.888 5.30013C156.284 5.96263 156.416 6.75763 156.548 7.42013C156.68 8.21513 156.812 9.14263 156.812 9.93763C156.812 10.3351 156.812 10.7326 156.812 11.1301C156.812 11.6601 156.812 12.0576 156.812 12.5876V40.2801C156.812 40.8101 156.812 41.2076 156.812 41.7376C156.812 42.1351 156.812 42.5326 156.812 42.9301C156.812 43.7251 156.68 44.5201 156.548 45.4476C156.416 46.2426 156.152 47.0376 155.888 47.7001C155.492 48.3626 155.096 49.0251 154.568 49.5551C154.04 50.0851 153.38 50.6151 152.72 50.8801C152.06 51.2776 151.4 51.4101 150.476 51.5426C149.684 51.6751 148.76 51.6751 147.968 51.8076C147.572 51.8076 147.176 51.8076 146.78 51.8076H145.328H11.0877Z" fill="#000001"/>
<path d="M32.7353 26.8977C32.7353 23.1877 35.7712 21.4652 35.9032 21.3327C34.1872 18.8152 31.5473 18.5502 30.6233 18.4177C28.3794 18.1527 26.2674 19.7427 25.0795 19.7427C23.8915 19.7427 22.1755 18.4177 20.3276 18.4177C17.9516 18.4177 15.7077 19.8752 14.3877 21.9952C11.8798 26.3677 13.7278 32.9927 16.2357 36.5702C17.4237 38.2927 18.8756 40.2802 20.7236 40.2802C22.5715 40.1477 23.2315 39.0877 25.4755 39.0877C27.7194 39.0877 28.2474 40.2802 30.2273 40.2802C32.2073 40.2802 33.3953 38.5577 34.5832 36.7027C36.0352 34.7152 36.5632 32.7277 36.5632 32.5952C36.5632 32.7277 32.7353 31.2702 32.7353 26.8977Z" fill="white"/>
<path d="M29.0395 16.1651C29.9635 14.9726 30.7555 13.2501 30.4915 11.5276C29.0395 11.5276 27.3236 12.4551 26.2676 13.7801C25.3436 14.8401 24.5516 16.5626 24.8156 18.2851C26.3996 18.2851 28.1155 17.3576 29.0395 16.1651Z" fill="white"/>
<path d="M55.8348 35.9077H49.631L48.179 40.4127H45.5391L51.4789 23.9827H54.1188L60.0587 40.4127H57.4188L55.8348 35.9077ZM50.2909 33.9202H55.3068L52.7989 26.6327H52.6669L50.2909 33.9202Z" fill="white"/>
<path d="M72.8623 34.4501C72.8623 38.1601 70.8823 40.5451 67.8464 40.5451C66.1305 40.5451 64.8105 39.7501 64.1505 38.4251V44.3876H61.6426V28.4876H64.0185V30.4751C64.6785 29.1501 66.1305 28.3551 67.8464 28.3551C70.7504 28.2226 72.8623 30.7401 72.8623 34.4501ZM70.2224 34.4501C70.2224 32.0651 69.0344 30.4751 67.0544 30.4751C65.2065 30.4751 63.8865 32.0651 63.8865 34.4501C63.8865 36.8351 65.2065 38.4251 67.0544 38.4251C69.0344 38.4251 70.2224 36.8351 70.2224 34.4501Z" fill="white"/>
<path d="M85.9302 34.4501C85.9302 38.1601 83.9502 40.5451 80.9143 40.5451C79.1983 40.5451 77.8784 39.7501 77.2184 38.4251V44.3876H74.7104V28.4876H77.0864V30.4751C77.7464 29.1501 79.1983 28.3551 80.9143 28.3551C83.9502 28.2226 85.9302 30.7401 85.9302 34.4501ZM83.4222 34.4501C83.4222 32.0651 82.2343 30.4751 80.2543 30.4751C78.4064 30.4751 77.0864 32.0651 77.0864 34.4501C77.0864 36.8351 78.4064 38.4251 80.2543 38.4251C82.2343 38.4251 83.4222 36.8351 83.4222 34.4501Z" fill="white"/>
<path d="M94.6419 35.775C94.7739 37.365 96.3578 38.425 98.6018 38.425C100.714 38.425 102.166 37.365 102.166 35.9075C102.166 34.5825 101.242 33.92 99.1298 33.39L97.0178 32.86C93.9819 32.065 92.6619 30.74 92.6619 28.4875C92.6619 25.705 95.1699 23.7175 98.6018 23.7175C102.034 23.7175 104.41 25.705 104.542 28.4875H102.034C101.902 26.8975 100.582 25.8375 98.6018 25.8375C96.6218 25.8375 95.3019 26.8975 95.3019 28.355C95.3019 29.5475 96.2259 30.21 98.3378 30.74L100.186 31.1375C103.486 31.9325 104.938 33.2575 104.938 35.6425C104.938 38.69 102.43 40.6775 98.6018 40.6775C94.9059 40.6775 92.5299 38.8225 92.3979 35.775H94.6419V35.775Z" fill="white"/>
<path d="M109.953 25.5728V28.3553H112.197V30.3428H109.953V36.9678C109.953 38.0278 110.349 38.4253 111.405 38.4253C111.669 38.4253 112.065 38.4253 112.197 38.4253V40.4128C111.933 40.5453 111.405 40.5453 110.877 40.5453C108.502 40.5453 107.578 39.6178 107.578 37.3653V30.4753H105.862V28.4878H107.578V25.7053H109.953V25.5728Z" fill="white"/>
<path d="M113.649 34.45C113.649 30.74 115.893 28.355 119.325 28.355C122.757 28.355 125.001 30.74 125.001 34.45C125.001 38.2925 122.757 40.545 119.325 40.545C115.761 40.545 113.649 38.16 113.649 34.45ZM122.493 34.45C122.493 31.8 121.305 30.3425 119.325 30.3425C117.345 30.3425 116.157 31.8 116.157 34.45C116.157 37.1 117.345 38.5575 119.325 38.5575C121.305 38.5575 122.493 36.9675 122.493 34.45Z" fill="white"/>
<path d="M126.981 28.355H129.357V30.475C129.753 29.15 130.809 28.355 132.261 28.355C132.657 28.355 132.921 28.355 133.053 28.4875V30.74C132.921 30.6075 132.393 30.6075 131.997 30.6075C130.413 30.6075 129.489 31.6675 129.489 33.39V40.545H126.981V28.355V28.355Z" fill="white"/>
<path d="M144.405 36.8352C144.009 38.9552 141.897 40.5452 139.257 40.5452C135.825 40.5452 133.581 38.1602 133.581 34.4502C133.581 30.7402 135.693 28.2227 139.125 28.2227C142.425 28.2227 144.537 30.4752 144.537 34.1852V34.9802H136.089V35.1127C136.089 37.1002 137.409 38.5577 139.257 38.5577C140.577 38.5577 141.633 37.8952 142.029 36.8352H144.405V36.8352ZM136.089 33.2577H142.029C142.029 31.4027 140.841 30.2102 139.125 30.2102C137.409 30.2102 136.221 31.5352 136.089 33.2577Z" fill="white"/>
<path d="M48.4427 14.9723H49.4987C50.4226 14.9723 50.9506 14.4423 50.9506 13.6473C50.9506 12.8523 50.4226 12.4548 49.4987 12.4548C48.5747 12.4548 47.9147 12.9848 47.9147 13.6473H46.7267C46.8587 12.1898 47.9147 11.3948 49.4987 11.3948C51.0826 11.3948 52.1386 12.3223 52.1386 13.5148C52.1386 14.4423 51.6106 15.1048 50.6866 15.3698V15.5023C51.7426 15.6348 52.4026 16.2973 52.4026 17.3573C52.4026 18.6823 51.0826 19.7423 49.4987 19.7423C47.7827 19.7423 46.5947 18.8148 46.5947 17.3573H47.7827C47.9147 18.1523 48.5747 18.5498 49.6307 18.5498C50.6866 18.5498 51.3466 18.0198 51.3466 17.2248C51.3466 16.4298 50.6866 15.8998 49.6307 15.8998H48.5747V14.9723H48.4427Z" fill="white"/>
<path d="M53.8545 17.7548C53.8545 16.6948 54.6465 16.0323 56.0984 16.0323L57.6824 15.8998V15.3698C57.6824 14.7073 57.2864 14.4423 56.4944 14.4423C55.8344 14.4423 55.4385 14.7073 55.3065 15.1048H54.1185C54.2505 14.0448 55.1745 13.3823 56.4944 13.3823C57.9464 13.3823 58.8704 14.1773 58.8704 15.3698V19.4773H57.6824V18.6823H57.5504C57.1544 19.3448 56.4944 19.6098 55.7024 19.6098C54.7785 19.6098 53.8545 18.8148 53.8545 17.7548ZM57.6824 17.2248V16.6948L56.2304 16.8273C55.4384 16.8273 55.0425 17.2248 55.0425 17.6223C55.0425 18.1523 55.5704 18.4173 56.0984 18.4173C57.0224 18.5498 57.6824 18.0198 57.6824 17.2248Z" fill="white"/>
<path d="M62.0383 14.4421V19.4771H60.8503V13.5146H64.8102V14.4421H62.0383V14.4421Z" fill="white"/>
<path d="M71.806 16.43C71.806 18.285 70.882 19.4775 69.2981 19.4775C68.5061 19.4775 67.7141 19.08 67.4501 18.4175H67.3181V21.3325H66.1301V13.3825H67.3181V14.31H67.4501C67.8461 13.6475 68.5061 13.25 69.2981 13.25C70.882 13.3825 71.806 14.575 71.806 16.43ZM70.618 16.43C70.618 15.105 69.958 14.4425 69.0341 14.4425C68.1101 14.4425 67.4501 15.2375 67.4501 16.43C67.4501 17.6225 68.1101 18.4175 69.0341 18.4175C70.09 18.55 70.618 17.755 70.618 16.43Z" fill="white"/>
<path d="M73.39 21.5971V20.5371C73.522 20.5371 73.654 20.5371 73.786 20.5371C74.314 20.5371 74.71 20.2721 74.842 19.7421L74.974 19.4771L72.8621 13.5146H74.182L75.634 18.2846H75.766L77.2179 13.5146H78.4059L76.162 19.7421C75.634 21.1996 75.106 21.5971 73.918 21.5971C73.786 21.5971 73.522 21.5971 73.39 21.5971Z" fill="white"/>
<path d="M79.3298 17.7548H80.5178C80.6498 18.2848 81.1778 18.5498 81.8378 18.5498C82.6297 18.5498 83.1577 18.1523 83.1577 17.6223C83.1577 17.0923 82.7617 16.8273 81.8378 16.8273H80.9138V15.8998H81.8378C82.4977 15.8998 82.8937 15.6348 82.8937 15.1048C82.8937 14.7073 82.4977 14.3098 81.8378 14.3098C81.1778 14.3098 80.6498 14.5748 80.6498 15.1048H79.4618C79.5938 14.0448 80.5178 13.3823 81.8378 13.3823C83.2897 13.3823 84.0817 14.0448 84.0817 14.9723C84.0817 15.6348 83.6857 16.0323 83.1577 16.1648V16.2973C83.9497 16.4298 84.3457 16.9598 84.3457 17.6223C84.3457 18.8148 83.4217 19.4773 81.9698 19.4773C80.5178 19.6098 79.4618 18.9473 79.3298 17.7548Z" fill="white"/>
<path d="M85.9297 19.4771V13.5146H87.1177V17.6221L89.8896 13.5146H91.0776V19.4771H89.8896V15.3696H89.7576L86.9857 19.4771H85.9297Z" fill="white"/>
<path d="M97.4134 14.4421H95.5655V19.4771H94.3775V14.4421H92.5295V13.5146H97.4134V14.4421V14.4421Z" fill="white"/>
<path d="M103.749 17.8873C103.485 18.9473 102.561 19.6098 101.109 19.6098C99.3934 19.6098 98.3374 18.4173 98.3374 16.5623C98.3374 14.7073 99.3934 13.3823 101.109 13.3823C102.825 13.3823 103.749 14.5748 103.749 16.4298V16.8273H99.5254C99.5254 17.8873 100.185 18.5498 101.109 18.5498C101.769 18.5498 102.297 18.2848 102.561 17.8873H103.749ZM99.6574 15.8998H102.693C102.693 14.9723 102.033 14.3098 101.241 14.3098C100.317 14.4423 99.6574 14.9723 99.6574 15.8998Z" fill="white"/>
<path d="M108.765 13.5146H111.405C112.593 13.5146 113.253 14.0446 113.253 14.9721C113.253 15.6346 112.857 16.1646 112.197 16.2971V16.4296C112.989 16.5621 113.517 17.0921 113.517 17.7546C113.517 18.8146 112.725 19.4771 111.405 19.4771H108.633V13.5146H108.765ZM109.953 14.4421V15.8996H111.141C111.801 15.8996 112.197 15.6346 112.197 15.1046C112.197 14.5746 111.933 14.3096 111.273 14.3096H109.953V14.4421ZM109.953 16.8271V18.5496H111.405C112.065 18.5496 112.461 18.2846 112.461 17.6221C112.461 16.9596 112.065 16.6946 111.273 16.6946H109.953V16.8271Z" fill="white"/>
</svg>
