<svg width="23" height="26" viewBox="0 0 23 26" fill="none" xmlns="http://www.w3.org/2000/svg">
<path fill-rule="evenodd" clip-rule="evenodd" d="M9.6599 1.29907C10.1334 1.02265 10.6712 0.876709 11.2192 0.876709C11.7672 0.876709 12.305 1.02265 12.7785 1.29907C12.7791 1.29942 12.7797 1.29977 12.7803 1.30012L20.7072 5.88736C21.0991 6.11649 21.4351 6.42813 21.6936 6.79908C21.7486 6.85202 21.7974 6.91333 21.8379 6.98248C21.8764 7.04812 21.905 7.11681 21.9243 7.18683C22.1445 7.62566 22.2598 8.11096 22.2603 8.60367V17.7799C22.2597 18.329 22.1166 18.8689 21.8446 19.3455C21.5725 19.8222 21.1806 20.2194 20.7072 20.4962L20.704 20.4981L12.7803 25.0834C12.7797 25.0838 12.7791 25.0841 12.7786 25.0844C12.3051 25.3609 11.7673 25.5068 11.2192 25.5068C10.6711 25.5068 10.1333 25.3609 9.65983 25.0844C9.65925 25.0841 9.65867 25.0838 9.65809 25.0834L1.73444 20.4981L1.73115 20.4962C1.25777 20.2194 0.865905 19.8222 0.593809 19.3455C0.321753 18.8689 0.178657 18.329 0.178101 17.7799V8.60367C0.178599 8.11135 0.293685 7.62642 0.513569 7.18786C0.532847 7.11748 0.561582 7.04845 0.600225 6.98248C0.640912 6.91303 0.689938 6.85149 0.745289 6.7984C1.00368 6.42774 1.33952 6.11635 1.73115 5.88736L1.73444 5.88544L9.65809 1.30012C9.65869 1.29977 9.6593 1.29942 9.6599 1.29907ZM1.87673 8.7146V17.7786C1.87706 18.0337 1.94364 18.2838 2.06904 18.5035C2.19419 18.7227 2.37318 18.9036 2.58708 19.029C2.58756 19.0292 2.58804 19.0295 2.58852 19.0298L10.3699 23.5328V13.69L1.87673 8.7146ZM12.0685 13.6899V23.5328L19.8499 19.0298C19.8504 19.0295 19.8509 19.0292 19.8514 19.0289C20.0652 18.9035 20.2442 18.7227 20.3693 18.5035C20.4948 18.2837 20.5614 18.0335 20.5617 17.7782V8.71446L12.0685 13.6899ZM19.6859 7.25886L11.9229 2.76651C11.7083 2.64099 11.4656 2.57534 11.2192 2.57534C10.9728 2.57534 10.7301 2.64098 10.5155 2.7665L10.5122 2.76842L8.02323 4.20874L16.3284 9.22575L19.6859 7.25886ZM14.6606 10.2028L6.53347 5.2933C6.47269 5.25658 6.41816 5.21346 6.37022 5.16532L2.75238 7.25893L11.2191 12.2189L14.6606 10.2028Z" fill="white"/>
</svg>
