<svg width="26" height="29" viewBox="0 0 26 29" fill="none" xmlns="http://www.w3.org/2000/svg">
<path fill-rule="evenodd" clip-rule="evenodd" d="M11.1641 0.497292C11.7215 0.171836 12.3547 0 13 0C13.6453 0 14.2785 0.171836 14.8359 0.497292C14.8367 0.497706 14.8374 0.498121 14.8381 0.498536L24.1714 5.89963C24.6328 6.16941 25.0284 6.53635 25.3327 6.97312C25.3976 7.03545 25.455 7.10763 25.5027 7.18906C25.548 7.26634 25.5817 7.34721 25.6044 7.42965C25.8637 7.94635 25.9994 8.51775 26 9.09788V19.9021C25.9993 20.5486 25.8309 21.1843 25.5105 21.7455C25.1902 22.3068 24.7288 22.7745 24.1714 23.1004L24.1675 23.1026L14.8381 28.5015C14.8374 28.5019 14.8367 28.5023 14.836 28.5027C14.2785 28.8281 13.6453 29 13 29C12.3547 29 11.7215 28.8281 11.164 28.5027C11.1633 28.5023 11.1626 28.5019 11.1619 28.5015L1.83246 23.1026L1.82859 23.1004C1.27123 22.7745 0.809834 22.3068 0.489463 21.7455C0.169139 21.1843 0.000654817 20.5486 0 19.9021V9.09788C0.000587106 8.51821 0.136091 7.94725 0.394987 7.43087C0.417685 7.34801 0.451519 7.26672 0.497018 7.18906C0.544923 7.10728 0.602648 7.03483 0.667819 6.97231C0.972049 6.53589 1.36748 6.16925 1.82859 5.89964L1.83246 5.89738L11.1619 0.498536C11.1626 0.498121 11.1633 0.497706 11.1641 0.497292ZM2 9.22848V19.9006C2.00038 20.201 2.07878 20.4954 2.22643 20.7541C2.37378 21.0122 2.58453 21.2252 2.83638 21.3728C2.83694 21.3732 2.83751 21.3735 2.83807 21.3738L12 26.6757V15.0866L2 9.22848ZM14 15.0865V26.6757L23.1619 21.3738C23.1625 21.3735 23.1631 21.3731 23.1637 21.3728C23.4155 21.2251 23.6262 21.0122 23.7736 20.7541C23.9213 20.4953 23.9997 20.2007 24 19.9001V9.22832L14 15.0865ZM22.9689 7.51447L13.8286 2.22508C13.5758 2.0773 13.2901 2 13 2C12.7099 2 12.4242 2.07729 12.1714 2.22508L12.1675 2.22734L9.23701 3.92319L19.0156 9.83032L22.9689 7.51447ZM17.052 10.9807L7.48293 5.20017C7.41137 5.15695 7.34717 5.10617 7.29072 5.04949L3.031 7.51455L12.9999 13.3545L17.052 10.9807Z" fill="white"/>
</svg>
