<svg width="553" height="342" viewBox="0 0 553 342" fill="none" xmlns="http://www.w3.org/2000/svg">
<path d="M459.222 32.7887C453.502 32.7887 448.417 35.4758 445.177 39.6249C445.487 37.7871 445.67 35.8935 445.67 33.9721C445.67 15.2039 430.286 0 411.297 0C394.096 0 379.854 12.4889 377.318 28.7789C372.979 24.0311 366.724 21.0377 359.737 21.0377C346.636 21.0377 336 31.5356 336 44.4979C336 46.7535 336.338 48.9255 336.944 51H381.544H382.516H441.035C441.176 50.7494 441.303 50.4988 441.444 50.2482C441.444 50.2899 441.444 50.3317 441.444 50.3735C441.444 50.5823 441.472 50.7911 441.472 50.9861H476.972C476.986 50.7772 477 50.5823 477 50.3735C477 40.6552 469.041 32.7887 459.222 32.7887Z" fill="#EEEFF2"/>
<path d="M540.758 290.137C535.102 290.137 530.516 285.552 530.516 279.895C530.516 274.239 535.102 269.653 540.758 269.653C546.415 269.653 551 274.239 551 279.895C551 285.552 546.415 290.137 540.758 290.137Z" stroke="#FF6600" stroke-width="3" stroke-miterlimit="10"/>
<path d="M12.2419 188.484C6.58547 188.484 2 183.898 2 178.242C2 172.585 6.58547 168 12.2419 168C17.8984 168 22.4839 172.585 22.4839 178.242C22.4839 183.898 17.8984 188.484 12.2419 188.484Z" stroke="#207A00" stroke-width="3" stroke-miterlimit="10"/>
<path d="M221.608 38.2978H212.328" stroke="#FF6600" stroke-width="3" stroke-miterlimit="10"/>
<path d="M206.28 38.2978H197" stroke="#FF6600" stroke-width="3" stroke-miterlimit="10"/>
<path d="M209.314 26V35.2827" stroke="#FF6600" stroke-width="3" stroke-miterlimit="10"/>
<path d="M209.314 41.3331V50.6158" stroke="#FF6600" stroke-width="3" stroke-miterlimit="10"/>
<path d="M501.673 171.754H492.852" stroke="#207A00" stroke-width="3" stroke-miterlimit="10"/>
<path d="M487.103 171.754H478.282" stroke="#207A00" stroke-width="3" stroke-miterlimit="10"/>
<path d="M489.987 160.065V168.888" stroke="#207A00" stroke-width="3" stroke-miterlimit="10"/>
<path d="M489.987 174.639V183.463" stroke="#207A00" stroke-width="3" stroke-miterlimit="10"/>
<path d="M248.227 322.689H173.61L177.879 291.527H244.567L248.227 322.689Z" fill="#808285"/>
<path d="M63.7711 266.045V285.289C63.7711 289.197 67.0644 292.394 71.0906 292.394H350.746C354.768 292.394 358.061 289.197 358.061 285.289V266.045H63.7711Z" fill="#E0E0E0"/>
<path d="M358.066 102.645C358.066 98.7369 354.773 95.5403 350.752 95.5403H71.091C67.0648 95.5403 63.7715 98.7369 63.7715 102.645V266.045H358.066V102.645Z" fill="#403F41"/>
<path d="M347.646 104.918H74.1907V256.462H347.646V104.918Z" fill="white"/>
<path d="M316.608 213.7H164.592V218.576H316.608V213.7Z" fill="#E6E6E6"/>
<path d="M258.745 222.703H164.592V227.579H258.745V222.703Z" fill="#E6E6E6"/>
<path d="M316.608 231.347H164.592V236.224H316.608V231.347Z" fill="#E6E6E6"/>
<path d="M258.745 240.333H164.592V245.209H258.745V240.333Z" fill="#E6E6E6"/>
<path d="M347.646 104.918H74.1907V117.671H347.646V104.918Z" fill="#FF6600"/>
<mask id="mask0" mask-type="alpha" maskUnits="userSpaceOnUse" x="73" y="104" width="268" height="14">
<path d="M340.941 104.696H73.5788V117.149H340.941V104.696Z" fill="url(#paint0_linear)"/>
</mask>
<g mask="url(#mask0)">
<g style="mix-blend-mode:color-burn">
<rect width="151.261" height="125.306" transform="matrix(-1 0 0 1 225.206 94.3385)"/>
</g>
<g style="mix-blend-mode:color-burn">
<rect width="151.261" height="125.306" transform="matrix(-1 0 0 1 376.467 94.3385)"/>
</g>
</g>
<path d="M93.3212 110.92C93.3212 111.955 92.4806 112.795 91.4459 112.795C90.4113 112.795 89.5706 111.955 89.5706 110.92C89.5706 109.885 90.4113 109.045 91.4459 109.045C92.4806 109.045 93.3212 109.885 93.3212 110.92Z" fill="white"/>
<path d="M102.62 110.92C102.62 111.954 101.779 112.795 100.744 112.795C99.7098 112.795 98.8692 111.954 98.8692 110.92C98.8692 109.885 99.7098 109.044 100.744 109.044C101.779 109.044 102.62 109.885 102.62 110.92Z" fill="white"/>
<path d="M111.932 110.92C111.932 111.954 111.091 112.795 110.056 112.795C109.022 112.795 108.181 111.954 108.181 110.92C108.181 109.885 109.022 109.044 110.056 109.044C111.091 109.044 111.932 109.885 111.932 110.92Z" fill="white"/>
<path d="M173.61 322.689H248.227L261.352 325.7L160.484 325.77L173.61 322.689Z" fill="#D1D5DA"/>
<path d="M260.663 327.372H161.17L160.509 325.769L261.353 325.7L260.663 327.372Z" fill="#818489"/>
<path d="M217.689 280.976C217.689 284.288 215.005 286.978 211.688 286.978C208.37 286.978 205.686 284.293 205.686 280.976C205.686 277.659 208.37 274.974 211.688 274.974C215 274.974 217.689 277.659 217.689 280.976Z" fill="#FF6600"/>
<path d="M164.746 138.497H164.217V191.844H164.746V138.497Z" fill="#E0E0E0"/>
<path d="M202.408 138.497H201.88V191.844H202.408V138.497Z" fill="#E0E0E0"/>
<path d="M240.07 138.497H239.541V191.844H240.07V138.497Z" fill="#E0E0E0"/>
<path d="M277.735 138.497H277.206V191.844H277.735V138.497Z" fill="#E0E0E0"/>
<path d="M315.396 138.497H314.868V191.844H315.396V138.497Z" fill="#E0E0E0"/>
<path d="M170.473 195.005H164.481V196.858H170.473V195.005Z" fill="#B8B8B8"/>
<path d="M173.502 131.926H164.482V133.316H173.502V131.926Z" fill="#D9D9D9"/>
<path d="M177.277 134.495H164.481V135.885H177.277V134.495Z" fill="#D9D9D9"/>
<path d="M212.331 131.926H201.739V133.316H212.331V131.926Z" fill="#D9D9D9"/>
<path d="M208.511 134.495H201.739V135.885H208.511V134.495Z" fill="#D9D9D9"/>
<path d="M246.636 131.926H240.073V133.316H246.636V131.926Z" fill="#D9D9D9"/>
<path d="M247.724 134.495H240.073V135.885H247.724V134.495Z" fill="#D9D9D9"/>
<path d="M287.294 131.926H277.734V133.316H287.294V131.926Z" fill="#D9D9D9"/>
<path d="M285.385 134.495H277.734V135.885H285.385V134.495Z" fill="#D9D9D9"/>
<path d="M320.843 131.926H315.134V133.316H320.843V131.926Z" fill="#D9D9D9"/>
<path d="M319.703 134.495H315.134V135.885H319.703V134.495Z" fill="#D9D9D9"/>
<path d="M208.137 195.005H202.144V196.858H208.137V195.005Z" fill="#B8B8B8"/>
<path d="M246.065 195.005H240.073V196.858H246.065V195.005Z" fill="#B8B8B8"/>
<path d="M283.726 195.005H277.734V196.858H283.726V195.005Z" fill="#B8B8B8"/>
<path d="M321.388 195.005H315.396V196.858H321.388V195.005Z" fill="#B8B8B8"/>
<path d="M302.082 175.995C290.336 175.995 280.123 171.121 269.478 166.038C256.334 159.764 242.744 153.277 224.637 155.053C213.073 156.186 205.816 160.707 199.413 164.694C193.616 168.306 188.135 171.479 180.709 171.752C169.099 172.176 164.825 167.59 164.501 167.023C164.485 166.995 164.481 166.964 164.481 166.932C164.481 166.434 166.205 165.759 166.61 166.047C168.776 167.591 172.956 169.366 180.697 169.33C187.386 169.298 192.323 166.223 198.037 162.662C204.681 158.526 212.209 153.836 224.379 152.641C243.212 150.793 257.136 157.44 270.598 163.868C284.236 170.377 297.271 176.495 313.511 171.918C314.316 171.691 315.132 172.285 315.132 173.121C315.132 173.656 314.786 174.132 314.274 174.287C309.822 175.629 306.153 175.995 302.082 175.995Z" fill="url(#paint1_linear)"/>
<path d="M231.568 175.391C222.898 175.391 216.019 169.792 209.288 164.314C204.182 160.159 198.887 155.911 192.772 153.815C174.113 147.419 164.566 159.098 164.481 159.199V155.646C164.581 155.526 166.285 153.403 171.21 151.376C175.694 149.532 183.22 148.058 193.601 151.526C200.177 153.721 205.638 158.167 210.919 162.464C221.633 171.183 230.884 178.714 246.955 166.918C259.125 157.986 270.598 149.47 281.886 146.361C292.926 143.318 304.437 145.545 315.212 155.89L315.132 159.117C292.245 137.048 272.755 151.032 248.485 168.846C242.06 173.562 236.521 175.391 231.568 175.391Z" fill="#FF6600"/>
<path d="M141.808 240.559H87.5904V244.862H141.808V240.559Z" fill="#E6E6E6"/>
<path d="M141.808 231.514H87.5904V235.817H141.808V231.514Z" fill="#E6E6E6"/>
<path d="M141.808 222.909H87.5904V227.212H141.808V222.909Z" fill="#E6E6E6"/>
<path fill-rule="evenodd" clip-rule="evenodd" d="M112.931 194.791C112.004 194.733 110.936 194.572 110.097 194.331C109.942 194.287 109.287 194.046 109.118 193.973C106.188 192.629 104.148 189.686 104.148 186.283C104.148 181.609 107.984 177.797 112.696 177.797C117.371 177.797 121.177 181.543 121.243 186.159H124.328C124.262 179.849 119.071 174.737 112.696 174.737C106.276 174.737 101.056 179.915 101.056 186.283C101.056 190.672 103.545 194.492 107.189 196.442C107.844 196.785 108.794 197.143 109.11 197.238C110.148 197.544 111.422 197.749 112.556 197.837C112.939 197.866 114.286 197.88 114.676 197.88H135.945V194.828H114.72C114.441 194.82 113.204 194.806 112.931 194.791ZM114.72 190C114.499 190 113.322 189.993 113.101 189.978C112.733 189.949 112.202 189.891 111.856 189.818C111.466 189.715 111.106 189.577 110.944 189.489C109.795 188.876 109.015 187.671 109.015 186.283C109.015 184.267 110.664 182.631 112.696 182.631C114.691 182.631 116.303 184.202 116.369 186.166H119.336C119.277 182.58 116.325 179.688 112.696 179.688C109.022 179.688 106.04 182.639 106.04 186.283C106.04 188.854 107.528 191.074 109.685 192.162C110.016 192.352 110.642 192.556 110.818 192.6C111.429 192.761 112.247 192.87 112.917 192.914C113.16 192.936 114.367 192.943 114.625 192.943V192.951H135.945V190.008H114.72V190ZM99.1569 197.858H96.0501V177.797H91.5077V174.715H99.1643V197.858H99.1569ZM88.0917 179.338V182.303H91.5077V197.858H94.4967V179.338H88.0917Z" fill="#FF6600"/>
<path d="M130.461 174.926C129.342 174.926 128.414 175.81 128.414 176.927C128.414 178.038 129.342 178.958 130.461 178.958C131.617 178.958 132.508 178.038 132.508 176.927C132.508 175.817 131.617 174.926 130.461 174.926ZM130.461 178.629C129.533 178.629 128.738 177.906 128.738 176.927C128.738 175.993 129.533 175.255 130.461 175.255C131.389 175.255 132.176 175.993 132.176 176.927C132.184 177.913 131.389 178.629 130.461 178.629Z" fill="#FF6600"/>
<path d="M131.241 177.476C131.241 177.25 131.211 177.045 130.946 176.965C131.27 176.855 131.3 176.644 131.3 176.512C131.3 175.994 130.829 175.928 130.637 175.928H129.746V177.929H130.122V177.104H130.416C130.836 177.104 130.873 177.293 130.873 177.476C130.873 177.819 130.873 177.878 130.954 177.929H131.329C131.241 177.849 131.27 177.783 131.241 177.476ZM130.556 176.819H130.115V176.183H130.49C130.748 176.183 130.924 176.264 130.924 176.505C130.932 176.636 130.865 176.819 130.556 176.819Z" fill="#FF6600"/>
<path d="M474.792 312.603H396.184V327.514H474.792V312.603Z" fill="#FFD337"/>
<path d="M456.845 312.603H396.184V327.514H456.845V312.603Z" fill="#F7C219"/>
<path d="M412.988 312.603H396.184V327.514H412.988V312.603Z" fill="#F2B303"/>
<path opacity="0.49" d="M474.791 325.23H396.184V327.514H474.791V325.23Z" fill="#D69005"/>
<path d="M483.403 297.681H404.796V312.592H483.403V297.681Z" fill="#FFD337"/>
<path d="M465.457 297.681H404.796V312.592H465.457V297.681Z" fill="#F7C219"/>
<path d="M421.599 297.681H404.796V312.592H421.599V297.681Z" fill="#F2B303"/>
<path opacity="0.49" d="M483.403 310.319H404.795V312.603H483.403V310.319Z" fill="#D69005"/>
<path d="M474.792 282.839H396.184V297.75H474.792V282.839Z" fill="#FFD337"/>
<path d="M456.845 282.839H396.184V297.75H456.845V282.839Z" fill="#F7C219"/>
<path d="M412.988 282.839H396.184V297.75H412.988V282.839Z" fill="#F2B303"/>
<path opacity="0.49" d="M474.791 295.466H396.184V297.75H474.791V295.466Z" fill="#D69005"/>
<path d="M468.099 270.179H389.491V285.09H468.099V270.179Z" fill="#FFD337"/>
<path d="M450.152 270.179H389.491V285.09H450.152V270.179Z" fill="#F7C219"/>
<path d="M406.295 270.179H389.491V285.09H406.295V270.179Z" fill="#F2B303"/>
<path opacity="0.49" d="M468.098 282.805H389.491V285.089H468.098V282.805Z" fill="#D69005"/>
<path d="M476.977 255.337H398.369V270.248H476.977V255.337Z" fill="#FED103"/>
<path d="M459.03 255.337H398.369V270.248H459.03V255.337Z" fill="#F7C219"/>
<path d="M415.173 255.337H398.369V270.248H415.173V255.337Z" fill="#F2B303"/>
<path opacity="0.49" d="M476.976 267.963H398.368V270.247H476.976V267.963Z" fill="#D69005"/>
<path d="M414.617 321.951C414.617 325.004 412.148 327.479 409.102 327.479H298.789C295.743 327.479 293.273 325.004 293.273 321.951V174.659C293.273 171.605 295.743 169.13 298.789 169.13H409.102C412.148 169.13 414.617 171.605 414.617 174.659V321.951Z" fill="#403F41"/>
<rect x="302.74" y="179.457" width="101.55" height="36.145" rx="7" fill="#D1D1D1"/>
<rect x="379.347" y="267.705" width="24.5949" height="48.37" rx="7" fill="#FF6600"/>
<rect x="303.009" y="239.582" width="22.1315" height="22.5066" rx="7" fill="#D1D1D1"/>
<rect x="328.141" y="239.582" width="22.1315" height="22.5066" rx="7" fill="#D1D1D1"/>
<rect x="353.274" y="239.582" width="22.1315" height="22.5066" rx="7" fill="#D1D1D1"/>
<rect x="378.406" y="239.582" width="24.7573" height="22.5066" rx="7" fill="#FED904"/>
<rect x="303.009" y="266.215" width="22.1315" height="22.5066" rx="7" fill="#D1D1D1"/>
<rect x="328.141" y="266.215" width="22.1315" height="22.5066" rx="7" fill="#D1D1D1"/>
<rect x="353.274" y="266.215" width="22.1315" height="22.5066" rx="7" fill="#D1D1D1"/>
<rect x="303.009" y="292.473" width="22.1315" height="22.5066" rx="7" fill="#D1D1D1"/>
<rect x="328.141" y="292.473" width="22.1315" height="22.5066" rx="7" fill="#D1D1D1"/>
<rect x="353.274" y="292.473" width="22.1315" height="22.5066" rx="7" fill="#D1D1D1"/>
<path d="M375.78 229.907C375.78 232.972 373.321 235.457 370.288 235.457H308.5C305.467 235.457 303.009 232.972 303.009 229.907V229.753C303.009 226.688 305.467 224.203 308.5 224.203H370.288C373.321 224.203 375.78 226.688 375.78 229.753V229.907Z" fill="#FF6600"/>
<path d="M403.538 229.911C403.538 232.973 400.911 235.456 397.67 235.456H384.649C381.408 235.456 378.781 232.973 378.781 229.911V229.372C378.781 226.31 381.408 223.827 384.649 223.827H397.666C400.907 223.827 403.534 226.31 403.534 229.372V229.911H403.538Z" fill="#FF6600"/>
<path d="M261.175 231.767C263.484 230.136 264.03 226.941 262.398 224.636L254.582 213.581C252.951 211.273 249.757 210.726 247.448 212.357L244.576 214.39C242.268 216.021 241.721 219.216 243.354 221.521L251.169 232.576C252.8 234.884 255.995 235.431 258.304 233.8L261.175 231.767Z" fill="#403F41"/>
<path d="M331.41 334.684C332.177 334.139 332.361 333.076 331.818 332.306L326.712 325.081C326.168 324.31 325.104 324.129 324.334 324.673C323.563 325.216 323.382 326.28 323.926 327.051L329.036 334.273C329.575 335.046 330.639 335.227 331.41 334.684Z" fill="#403F41"/>
<path d="M314.115 325.228C313.657 324.901 313.239 324.498 312.896 324.012L250.026 235.11C249.966 235.025 249.915 234.94 249.863 234.854C248.442 232.573 249.024 229.551 251.248 227.979L258.038 223.178C260.346 221.547 263.538 222.093 265.169 224.401L328.036 313.303C328.396 313.815 328.645 314.371 328.797 314.944C328.896 315.177 328.987 315.415 329.071 315.652C331.242 321.697 329.35 328.632 328.128 329.498C326.603 330.575 319.042 329.829 314.115 325.228Z" fill="url(#paint2_linear)"/>
<path d="M252.965 239.263L268.109 228.553L271.434 233.254L256.289 243.964L252.965 239.263Z" fill="#403F41"/>
<path d="M279.305 264.078C280.25 263.411 280.476 262.1 279.809 261.155L258.266 230.691C257.595 229.745 256.288 229.52 255.342 230.19C254.397 230.857 254.172 232.165 254.842 233.114L276.382 263.574C277.052 264.523 278.356 264.747 279.305 264.078Z" fill="#403F41"/>
<path d="M80.0629 329.154C102.171 329.154 120.093 326.771 120.093 323.831C120.093 320.892 102.171 318.509 80.0629 318.509C57.9551 318.509 40.0331 320.892 40.0331 323.831C40.0331 326.771 57.9551 329.154 80.0629 329.154Z" fill="#C3C3C3"/>
<path d="M49.4516 235.069C50.9347 240.274 43.8851 255.764 47.3521 266.001C50.8192 276.239 56.665 280.829 56.665 280.829L64.1095 278.323L71.554 275.816C71.554 275.816 73.4127 268.633 69.9456 258.396C66.4786 248.159 51.4452 240.101 49.4516 235.069Z" fill="url(#paint3_linear)"/>
<path d="M64.1001 278.322L71.5446 275.816C71.5446 275.816 73.4033 268.632 69.9363 258.395C66.4693 248.158 51.4454 240.101 49.4519 235.069L64.1001 278.322Z" fill="#439533"/>
<path d="M109.973 236.709C108.49 241.914 115.539 257.404 112.072 267.641C108.605 277.878 102.759 282.468 102.759 282.468L95.315 279.962L87.8705 277.455C87.8705 277.455 86.0118 270.272 89.4788 260.035C92.9459 249.798 107.979 241.741 109.973 236.709Z" fill="#439533"/>
<path d="M95.3245 279.962L87.88 277.455C87.88 277.455 86.0213 270.272 89.4883 260.035C92.9554 249.798 107.979 241.741 109.973 236.709L95.3245 279.962Z" fill="#00580D"/>
<path d="M80.0583 206.153C79.6345 214.528 61.5771 233.801 61.5771 250.55C61.5771 267.298 67.8755 276.939 67.8755 276.939H80.0583H92.241C92.241 276.939 98.5395 267.307 98.5395 250.55C98.5395 233.792 80.482 214.528 80.0583 206.153Z" fill="url(#paint4_linear)"/>
<path d="M80.058 276.939H92.2408C92.2408 276.939 98.5392 267.307 98.5392 250.549C98.5392 233.792 80.4817 214.527 80.058 206.153V276.939Z" fill="#439533"/>
<path d="M47.3135 272.781C55.4996 272.781 55.4996 275.259 63.6856 275.259C71.8717 275.259 71.8717 272.781 80.0577 272.781C88.2438 272.781 88.2438 275.259 96.4298 275.259C104.616 275.259 104.616 272.781 112.802 272.781V278.86H47.3135V272.781Z" fill="#48372A"/>
<path d="M47.3135 278.86H112.802V301.101C112.802 314.44 101.958 325.263 88.5712 325.263H71.5442C58.1672 325.263 47.3135 314.45 47.3135 301.101V278.86Z" fill="#F1F1F1"/>
<path d="M112.802 278.86H47.3135V282.865H112.802V278.86Z" fill="#B7B7B7"/>
<path d="M79.9075 340.047C79.8289 340.338 42.6321 349.32 33.8222 317.535C24.9807 285.735 79.9075 340.047 79.9075 340.047Z" fill="#008D0E"/>
<defs>
<linearGradient id="paint0_linear" x1="77.0618" y1="110.701" x2="80.1509" y2="82.1799" gradientUnits="userSpaceOnUse">
<stop stop-color="#00580D"/>
<stop offset="1" stop-color="#009516" stop-opacity="0"/>
</linearGradient>
<linearGradient id="paint1_linear" x1="239.806" y1="152.327" x2="239.806" y2="175.995" gradientUnits="userSpaceOnUse">
<stop stop-color="#008D0E"/>
<stop offset="1" stop-color="#004207"/>
</linearGradient>
<linearGradient id="paint2_linear" x1="289.576" y1="222.239" x2="289.576" y2="329.933" gradientUnits="userSpaceOnUse">
<stop stop-color="#40A800"/>
<stop offset="1" stop-color="#178A00"/>
</linearGradient>
<linearGradient id="paint3_linear" x1="55.3632" y1="263.653" x2="76.4277" y2="257.3" gradientUnits="userSpaceOnUse">
<stop stop-color="#00580D"/>
<stop offset="1" stop-color="#009516"/>
</linearGradient>
<linearGradient id="paint4_linear" x1="74.5099" y1="250.37" x2="105.182" y2="241.759" gradientUnits="userSpaceOnUse">
<stop stop-color="#00580D"/>
<stop offset="1" stop-color="#009516"/>
</linearGradient>
</defs>
</svg>
