<svg width="224" height="48" viewBox="0 0 224 48" fill="none" xmlns="http://www.w3.org/2000/svg">
<path d="M36.527 27.61C36.241 27.8093 35.864 27.9523 35.396 28.039C34.928 28.1343 34.447 28.182 33.953 28.182C33.3723 28.182 32.8133 28.0953 32.276 27.922C31.7473 27.7487 31.275 27.4713 30.859 27.09C30.4517 26.7087 30.1267 26.219 29.884 25.621C29.6413 25.023 29.52 24.2993 29.52 23.45C29.52 22.566 29.6587 21.825 29.936 21.227C30.2133 20.6203 30.5687 20.135 31.002 19.771C31.4353 19.3983 31.9163 19.1297 32.445 18.965C32.9737 18.8003 33.4937 18.718 34.005 18.718C34.5683 18.718 35.0407 18.7527 35.422 18.822C35.812 18.8913 36.1327 18.9737 36.384 19.069L36.007 20.681C35.7903 20.5857 35.5347 20.5163 35.24 20.473C34.954 20.4297 34.59 20.408 34.148 20.408C33.758 20.408 33.4027 20.473 33.082 20.603C32.77 20.7243 32.5013 20.9107 32.276 21.162C32.0507 21.4133 31.873 21.7297 31.743 22.111C31.6217 22.4923 31.561 22.9387 31.561 23.45C31.561 23.9007 31.6173 24.3123 31.73 24.685C31.8427 25.0577 32.0117 25.3783 32.237 25.647C32.4623 25.9157 32.7483 26.1237 33.095 26.271C33.4417 26.4183 33.8447 26.492 34.304 26.492C34.7287 26.492 35.084 26.453 35.37 26.375C35.6647 26.297 35.9247 26.1973 36.15 26.076L36.527 27.61ZM44.2675 24.971L44.3975 23.489H44.1895L43.5785 24.659V24.646L42.2005 26.765H41.5635L40.0425 24.646V24.659L39.4315 23.489H39.2495L39.4445 24.958V28H37.8325V21.175H39.7435L41.4465 23.723V23.71L41.9015 24.581H42.0445L42.4995 23.684V23.697L44.0855 21.175H45.9965V28H44.2675V24.971ZM47.4845 24.594C47.4845 23.4673 47.7835 22.5833 48.3815 21.942C48.9795 21.3007 49.8331 20.98 50.9425 20.98C51.5231 20.98 52.0301 21.071 52.4635 21.253C52.8968 21.435 53.2565 21.6907 53.5425 22.02C53.8285 22.3407 54.0408 22.722 54.1795 23.164C54.3268 23.5973 54.4005 24.074 54.4005 24.594C54.4005 25.1487 54.3225 25.6513 54.1665 26.102C54.0105 26.544 53.7851 26.921 53.4905 27.233C53.1958 27.545 52.8318 27.7833 52.3985 27.948C51.9738 28.1127 51.4885 28.195 50.9425 28.195C50.3531 28.195 49.8418 28.104 49.4085 27.922C48.9751 27.74 48.6155 27.4887 48.3295 27.168C48.0435 26.8387 47.8311 26.4573 47.6925 26.024C47.5538 25.582 47.4845 25.1053 47.4845 24.594ZM49.3565 24.594C49.3565 24.88 49.3868 25.1487 49.4475 25.4C49.5081 25.6513 49.5991 25.8723 49.7205 26.063C49.8505 26.245 50.0151 26.3923 50.2145 26.505C50.4138 26.6177 50.6565 26.674 50.9425 26.674C51.9998 26.674 52.5285 25.9807 52.5285 24.594C52.5285 24.2907 52.4981 24.0133 52.4375 23.762C52.3855 23.502 52.2945 23.281 52.1645 23.099C52.0431 22.9083 51.8785 22.761 51.6705 22.657C51.4711 22.553 51.2285 22.501 50.9425 22.501C50.4485 22.501 50.0585 22.6657 49.7725 22.995C49.4951 23.3243 49.3565 23.8573 49.3565 24.594ZM61.075 22.787H58.956V28H57.058V22.787H54.939V21.175H61.075V22.787ZM62.1186 21.175H63.4186L63.6396 22.02H63.7956C64.0643 21.6733 64.3763 21.4133 64.7316 21.24C65.087 21.0667 65.503 20.98 65.9796 20.98C66.8983 20.98 67.5873 21.2573 68.0466 21.812C68.506 22.358 68.7356 23.229 68.7356 24.425C68.7356 24.997 68.662 25.517 68.5146 25.985C68.3673 26.4443 68.1506 26.843 67.8646 27.181C67.5786 27.5103 67.2233 27.766 66.7986 27.948C66.3826 28.1213 65.9016 28.208 65.3556 28.208C65.061 28.208 64.8053 28.1777 64.5886 28.117C64.372 28.065 64.1553 27.9913 63.9386 27.896V30.587H62.1186V21.175ZM65.4206 22.501C65.0046 22.501 64.684 22.5963 64.4586 22.787C64.2333 22.969 64.06 23.255 63.9386 23.645V26.297C64.086 26.4183 64.2506 26.5137 64.4326 26.583C64.6146 26.6523 64.8443 26.687 65.1216 26.687C65.711 26.687 66.1486 26.505 66.4346 26.141C66.7206 25.7683 66.8636 25.179 66.8636 24.373C66.8636 23.7923 66.751 23.3373 66.5256 23.008C66.309 22.67 65.9406 22.501 65.4206 22.501ZM76.0552 27.376C75.7606 27.6013 75.3576 27.7963 74.8462 27.961C74.3436 28.117 73.8019 28.195 73.2212 28.195C72.0512 28.195 71.1932 27.8743 70.6472 27.233C70.1012 26.5917 69.8282 25.712 69.8282 24.594C69.8282 23.4067 70.1359 22.5097 70.7512 21.903C71.3666 21.2877 72.2332 20.98 73.3512 20.98C73.7152 20.98 74.0749 21.0277 74.4302 21.123C74.7856 21.2097 75.1019 21.3613 75.3792 21.578C75.6566 21.786 75.8776 22.072 76.0422 22.436C76.2156 22.7913 76.3022 23.2333 76.3022 23.762C76.3022 23.944 76.2892 24.1433 76.2632 24.36C76.2459 24.5767 76.2112 24.802 76.1592 25.036H71.6092C71.6526 25.6253 71.8216 26.063 72.1162 26.349C72.4196 26.6263 72.9092 26.765 73.5852 26.765C73.9926 26.765 74.3566 26.7087 74.6772 26.596C75.0066 26.4747 75.2579 26.3533 75.4312 26.232L76.0552 27.376ZM73.3252 22.41C72.7879 22.41 72.3892 22.5573 72.1292 22.852C71.8692 23.138 71.7176 23.5063 71.6742 23.957H74.6122C74.6469 23.4803 74.5602 23.1033 74.3522 22.826C74.1442 22.5487 73.8019 22.41 73.3252 22.41ZM83.241 22.787H81.122V28H79.224V22.787H77.105V21.175H83.241V22.787ZM86.1046 26.479C86.2693 26.5137 86.4296 26.5397 86.5856 26.557C86.7416 26.5657 86.889 26.57 87.0276 26.57C87.9983 26.57 88.4836 26.258 88.4836 25.634C88.4836 25.0533 88.0156 24.763 87.0796 24.763C86.7243 24.763 86.3993 24.802 86.1046 24.88V26.479ZM86.1046 23.619C86.3646 23.5757 86.629 23.5453 86.8976 23.528C87.1663 23.5107 87.3916 23.502 87.5736 23.502C88.0763 23.502 88.5053 23.5583 88.8606 23.671C89.216 23.775 89.502 23.9223 89.7186 24.113C89.944 24.3037 90.1043 24.529 90.1996 24.789C90.3036 25.049 90.3556 25.3263 90.3556 25.621C90.3556 26.0283 90.2906 26.388 90.1606 26.7C90.0306 27.0033 89.827 27.259 89.5496 27.467C89.2723 27.675 88.9083 27.831 88.4576 27.935C88.0156 28.039 87.4783 28.091 86.8456 28.091C86.2996 28.091 85.823 28.0823 85.4156 28.065C85.0083 28.0563 84.6313 28.039 84.2846 28.013V21.175H86.1046V23.619ZM94.7583 21.175C95.1136 21.149 95.5296 21.123 96.0063 21.097C96.4829 21.071 97.0073 21.058 97.5793 21.058C98.6539 21.058 99.4166 21.201 99.8673 21.487C100.318 21.773 100.543 22.1977 100.543 22.761C100.543 23.0817 100.444 23.3893 100.244 23.684C100.045 23.9787 99.7329 24.1997 99.3083 24.347V24.451C99.8456 24.5637 100.236 24.7587 100.478 25.036C100.73 25.3047 100.855 25.6557 100.855 26.089C100.855 26.765 100.569 27.272 99.9973 27.61C99.4253 27.948 98.5153 28.117 97.2673 28.117C96.8599 28.117 96.4266 28.104 95.9673 28.078C95.5166 28.0607 95.1136 28.0347 94.7583 28V21.175ZM96.5393 26.609C96.7126 26.6437 96.8599 26.6653 96.9813 26.674C97.1113 26.6827 97.2629 26.687 97.4363 26.687C98.0256 26.687 98.4329 26.6177 98.6583 26.479C98.8923 26.3317 99.0093 26.1237 99.0093 25.855C99.0093 25.6123 98.9096 25.4173 98.7103 25.27C98.5109 25.114 98.1469 25.036 97.6183 25.036H96.5393V26.609ZM97.6443 23.957C97.9909 23.957 98.2726 23.892 98.4893 23.762C98.7059 23.6233 98.8143 23.4457 98.8143 23.229C98.8143 22.995 98.7189 22.813 98.5283 22.683C98.3463 22.553 98.0126 22.488 97.5273 22.488C97.3539 22.488 97.2109 22.4923 97.0983 22.501C96.9856 22.5097 96.8816 22.5183 96.7863 22.527C96.7516 22.527 96.7083 22.5313 96.6563 22.54C96.6043 22.54 96.5653 22.54 96.5393 22.54V23.957H97.6443ZM106.785 24.919L106.863 23.762L106.044 24.906L103.353 28H102.261V21.175H104.081V24.386L104.016 25.322H104.172C104.276 25.1747 104.38 25.0187 104.484 24.854C104.597 24.6893 104.705 24.5333 104.809 24.386L107.513 21.175H108.605V28H106.785V24.919ZM117.742 29.547H116.468L116.234 28H111.06L110.813 29.547H109.539V26.388H110.397C110.475 26.284 110.579 26.1107 110.709 25.868C110.848 25.6253 110.978 25.296 111.099 24.88C111.229 24.464 111.337 23.9527 111.424 23.346C111.519 22.7307 111.571 22.007 111.58 21.175H116.65V26.388H117.742V29.547ZM114.83 26.479V22.696H113.127C113.11 23.034 113.075 23.385 113.023 23.749C112.971 24.113 112.906 24.464 112.828 24.802C112.75 25.14 112.659 25.4563 112.555 25.751C112.451 26.0457 112.338 26.2883 112.217 26.479H114.83ZM124.78 27.376C124.485 27.6013 124.082 27.7963 123.571 27.961C123.068 28.117 122.527 28.195 121.946 28.195C120.776 28.195 119.918 27.8743 119.372 27.233C118.826 26.5917 118.553 25.712 118.553 24.594C118.553 23.4067 118.861 22.5097 119.476 21.903C120.091 21.2877 120.958 20.98 122.076 20.98C122.44 20.98 122.8 21.0277 123.155 21.123C123.51 21.2097 123.827 21.3613 124.104 21.578C124.381 21.786 124.602 22.072 124.767 22.436C124.94 22.7913 125.027 23.2333 125.027 23.762C125.027 23.944 125.014 24.1433 124.988 24.36C124.971 24.5767 124.936 24.802 124.884 25.036H120.334C120.377 25.6253 120.546 26.063 120.841 26.349C121.144 26.6263 121.634 26.765 122.31 26.765C122.717 26.765 123.081 26.7087 123.402 26.596C123.731 26.4747 123.983 26.3533 124.156 26.232L124.78 27.376ZM122.05 22.41C121.513 22.41 121.114 22.5573 120.854 22.852C120.594 23.138 120.442 23.5063 120.399 23.957H123.337C123.372 23.4803 123.285 23.1033 123.077 22.826C122.869 22.5487 122.527 22.41 122.05 22.41ZM126.195 24.594C126.195 23.4673 126.494 22.5833 127.092 21.942C127.69 21.3007 128.544 20.98 129.653 20.98C130.234 20.98 130.741 21.071 131.174 21.253C131.608 21.435 131.967 21.6907 132.253 22.02C132.539 22.3407 132.752 22.722 132.89 23.164C133.038 23.5973 133.111 24.074 133.111 24.594C133.111 25.1487 133.033 25.6513 132.877 26.102C132.721 26.544 132.496 26.921 132.201 27.233C131.907 27.545 131.543 27.7833 131.109 27.948C130.685 28.1127 130.199 28.195 129.653 28.195C129.064 28.195 128.553 28.104 128.119 27.922C127.686 27.74 127.326 27.4887 127.04 27.168C126.754 26.8387 126.542 26.4573 126.403 26.024C126.265 25.582 126.195 25.1053 126.195 24.594ZM128.067 24.594C128.067 24.88 128.098 25.1487 128.158 25.4C128.219 25.6513 128.31 25.8723 128.431 26.063C128.561 26.245 128.726 26.3923 128.925 26.505C129.125 26.6177 129.367 26.674 129.653 26.674C130.711 26.674 131.239 25.9807 131.239 24.594C131.239 24.2907 131.209 24.0133 131.148 23.762C131.096 23.502 131.005 23.281 130.875 23.099C130.754 22.9083 130.589 22.761 130.381 22.657C130.182 22.553 129.939 22.501 129.653 22.501C129.159 22.501 128.769 22.6657 128.483 22.995C128.206 23.3243 128.067 23.8573 128.067 24.594ZM134.206 24.594C134.206 23.4673 134.505 22.5833 135.103 21.942C135.701 21.3007 136.555 20.98 137.664 20.98C138.245 20.98 138.752 21.071 139.185 21.253C139.618 21.435 139.978 21.6907 140.264 22.02C140.55 22.3407 140.762 22.722 140.901 23.164C141.048 23.5973 141.122 24.074 141.122 24.594C141.122 25.1487 141.044 25.6513 140.888 26.102C140.732 26.544 140.507 26.921 140.212 27.233C139.917 27.545 139.553 27.7833 139.12 27.948C138.695 28.1127 138.21 28.195 137.664 28.195C137.075 28.195 136.563 28.104 136.13 27.922C135.697 27.74 135.337 27.4887 135.051 27.168C134.765 26.8387 134.553 26.4573 134.414 26.024C134.275 25.582 134.206 25.1053 134.206 24.594ZM136.078 24.594C136.078 24.88 136.108 25.1487 136.169 25.4C136.23 25.6513 136.321 25.8723 136.442 26.063C136.572 26.245 136.737 26.3923 136.936 26.505C137.135 26.6177 137.378 26.674 137.664 26.674C138.721 26.674 139.25 25.9807 139.25 24.594C139.25 24.2907 139.22 24.0133 139.159 23.762C139.107 23.502 139.016 23.281 138.886 23.099C138.765 22.9083 138.6 22.761 138.392 22.657C138.193 22.553 137.95 22.501 137.664 22.501C137.17 22.501 136.78 22.6657 136.494 22.995C136.217 23.3243 136.078 23.8573 136.078 24.594ZM147.797 22.787H145.678V28H143.78V22.787H141.661V21.175H147.797V22.787ZM149.529 25.166V23.944H150.374C150.764 23.944 151.072 23.8833 151.297 23.762C151.523 23.632 151.635 23.4587 151.635 23.242C151.635 22.9907 151.536 22.8173 151.336 22.722C151.137 22.618 150.825 22.566 150.4 22.566C150.028 22.566 149.685 22.6137 149.373 22.709C149.07 22.7957 148.819 22.8867 148.619 22.982C148.55 22.748 148.489 22.527 148.437 22.319C148.394 22.1023 148.338 21.877 148.268 21.643C148.554 21.4697 148.94 21.3267 149.425 21.214C149.911 21.1013 150.426 21.045 150.972 21.045C151.813 21.045 152.437 21.1923 152.844 21.487C153.26 21.773 153.468 22.189 153.468 22.735C153.468 22.891 153.442 23.047 153.39 23.203C153.347 23.359 153.278 23.5107 153.182 23.658C153.087 23.7967 152.966 23.9267 152.818 24.048C152.671 24.1607 152.498 24.2517 152.298 24.321V24.425C152.836 24.5377 153.213 24.7327 153.429 25.01C153.646 25.2787 153.754 25.6427 153.754 26.102C153.754 26.388 153.689 26.6567 153.559 26.908C153.438 27.1507 153.247 27.3673 152.987 27.558C152.727 27.7487 152.398 27.896 151.999 28C151.609 28.1127 151.146 28.169 150.608 28.169C150.088 28.169 149.625 28.1127 149.217 28C148.81 27.8873 148.476 27.7617 148.216 27.623C148.277 27.389 148.342 27.155 148.411 26.921C148.481 26.687 148.55 26.453 148.619 26.219C148.853 26.3403 149.135 26.4443 149.464 26.531C149.802 26.609 150.166 26.648 150.556 26.648C151.475 26.648 151.934 26.3837 151.934 25.855C151.934 25.7337 151.904 25.6297 151.843 25.543C151.791 25.4563 151.7 25.387 151.57 25.335C151.44 25.2743 151.263 25.231 151.037 25.205C150.821 25.179 150.543 25.166 150.205 25.166H149.529ZM156.983 26.479C157.147 26.5137 157.308 26.5397 157.464 26.557C157.628 26.5657 157.78 26.57 157.919 26.57C158.387 26.57 158.72 26.4963 158.92 26.349C159.119 26.2017 159.219 25.9633 159.219 25.634C159.219 25.3567 159.119 25.1443 158.92 24.997C158.72 24.841 158.404 24.763 157.971 24.763C157.607 24.763 157.277 24.802 156.983 24.88V26.479ZM156.983 23.619C157.251 23.5757 157.516 23.5453 157.776 23.528C158.044 23.5107 158.27 23.502 158.452 23.502C158.946 23.502 159.357 23.5583 159.687 23.671C160.025 23.775 160.298 23.9223 160.506 24.113C160.714 24.3037 160.861 24.529 160.948 24.789C161.043 25.049 161.091 25.3263 161.091 25.621C161.091 26.0283 161.03 26.388 160.909 26.7C160.796 27.0033 160.605 27.259 160.337 27.467C160.077 27.675 159.734 27.831 159.31 27.935C158.894 28.039 158.382 28.091 157.776 28.091C157.204 28.091 156.71 28.0823 156.294 28.065C155.886 28.0563 155.509 28.039 155.163 28.013V21.175H156.983V23.619ZM162.066 21.175H163.886V28H162.066V21.175ZM165.763 21.175C166.118 21.149 166.534 21.123 167.011 21.097C167.488 21.071 168.012 21.058 168.584 21.058C169.659 21.058 170.421 21.201 170.872 21.487C171.323 21.773 171.548 22.1977 171.548 22.761C171.548 23.0817 171.448 23.3893 171.249 23.684C171.05 23.9787 170.738 24.1997 170.313 24.347V24.451C170.85 24.5637 171.24 24.7587 171.483 25.036C171.734 25.3047 171.86 25.6557 171.86 26.089C171.86 26.765 171.574 27.272 171.002 27.61C170.43 27.948 169.52 28.117 168.272 28.117C167.865 28.117 167.431 28.104 166.972 28.078C166.521 28.0607 166.118 28.0347 165.763 28V21.175ZM167.544 26.609C167.717 26.6437 167.865 26.6653 167.986 26.674C168.116 26.6827 168.268 26.687 168.441 26.687C169.03 26.687 169.438 26.6177 169.663 26.479C169.897 26.3317 170.014 26.1237 170.014 25.855C170.014 25.6123 169.914 25.4173 169.715 25.27C169.516 25.114 169.152 25.036 168.623 25.036H167.544V26.609ZM168.649 23.957C168.996 23.957 169.277 23.892 169.494 23.762C169.711 23.6233 169.819 23.4457 169.819 23.229C169.819 22.995 169.724 22.813 169.533 22.683C169.351 22.553 169.017 22.488 168.532 22.488C168.359 22.488 168.216 22.4923 168.103 22.501C167.99 22.5097 167.886 22.5183 167.791 22.527C167.756 22.527 167.713 22.5313 167.661 22.54C167.609 22.54 167.57 22.54 167.544 22.54V23.957H168.649Z" fill="#FF6500"/>
<path d="M186.278 19.8574L193.405 24.3574L186.278 28.8574V19.8574Z" stroke="#F76201" stroke-width="2" stroke-linecap="round" stroke-linejoin="round"/>
<rect x="1" y="1" width="222" height="46" rx="23" stroke="#F76201" stroke-width="2"/>
</svg>
