<svg width="319" height="48" viewBox="0 0 319 48" fill="none" xmlns="http://www.w3.org/2000/svg">
<rect width="319" height="48" rx="24" fill="url(#paint0_linear)"/>
<path d="M53.734 22.02H49.982V30H47.91V20.2H55.806V30H53.734V22.02ZM57.3087 26.332C57.3087 25.1187 57.6307 24.1667 58.2747 23.476C58.9187 22.7853 59.838 22.44 61.0327 22.44C61.658 22.44 62.204 22.538 62.6707 22.734C63.1374 22.93 63.5247 23.2053 63.8327 23.56C64.1407 23.9053 64.3694 24.316 64.5187 24.792C64.6774 25.2587 64.7567 25.772 64.7567 26.332C64.7567 26.9293 64.6727 27.4707 64.5047 27.956C64.3367 28.432 64.094 28.838 63.7767 29.174C63.4594 29.51 63.0674 29.7667 62.6007 29.944C62.1434 30.1213 61.6207 30.21 61.0327 30.21C60.398 30.21 59.8474 30.112 59.3807 29.916C58.914 29.72 58.5267 29.4493 58.2187 29.104C57.9107 28.7493 57.682 28.3387 57.5327 27.872C57.3834 27.396 57.3087 26.8827 57.3087 26.332ZM59.3247 26.332C59.3247 26.64 59.3574 26.9293 59.4227 27.2C59.488 27.4707 59.586 27.7087 59.7167 27.914C59.8567 28.11 60.034 28.2687 60.2487 28.39C60.4634 28.5113 60.7247 28.572 61.0327 28.572C62.1714 28.572 62.7407 27.8253 62.7407 26.332C62.7407 26.0053 62.708 25.7067 62.6427 25.436C62.5867 25.156 62.4887 24.918 62.3487 24.722C62.218 24.5167 62.0407 24.358 61.8167 24.246C61.602 24.134 61.3407 24.078 61.0327 24.078C60.5007 24.078 60.0807 24.2553 59.7727 24.61C59.474 24.9647 59.3247 25.5387 59.3247 26.332ZM71.0177 24.386H68.3157V30H66.3557V22.65H72.9777V30H71.0177V24.386ZM74.9963 22.65H76.3963L76.6343 23.56H76.8023C77.0916 23.1867 77.4276 22.9067 77.8103 22.72C78.1929 22.5333 78.6409 22.44 79.1543 22.44C80.1436 22.44 80.8856 22.7387 81.3803 23.336C81.8749 23.924 82.1223 24.862 82.1223 26.15C82.1223 26.766 82.0429 27.326 81.8843 27.83C81.7256 28.3247 81.4923 28.754 81.1843 29.118C80.8763 29.4727 80.4936 29.748 80.0363 29.944C79.5883 30.1307 79.0703 30.224 78.4823 30.224C78.1649 30.224 77.8896 30.1913 77.6563 30.126C77.4229 30.07 77.1896 29.9907 76.9563 29.888V32.786H74.9963V22.65ZM78.5523 24.078C78.1043 24.078 77.7589 24.1807 77.5163 24.386C77.2736 24.582 77.0869 24.89 76.9563 25.31V28.166C77.1149 28.2967 77.2923 28.3993 77.4883 28.474C77.6843 28.5487 77.9316 28.586 78.2303 28.586C78.8649 28.586 79.3363 28.39 79.6443 27.998C79.9523 27.5967 80.1063 26.962 80.1063 26.094C80.1063 25.4687 79.9849 24.9787 79.7423 24.624C79.5089 24.26 79.1123 24.078 78.5523 24.078ZM83.2989 26.332C83.2989 25.1187 83.6209 24.1667 84.2649 23.476C84.9089 22.7853 85.8283 22.44 87.0229 22.44C87.6483 22.44 88.1943 22.538 88.6609 22.734C89.1276 22.93 89.5149 23.2053 89.8229 23.56C90.1309 23.9053 90.3596 24.316 90.5089 24.792C90.6676 25.2587 90.7469 25.772 90.7469 26.332C90.7469 26.9293 90.6629 27.4707 90.4949 27.956C90.3269 28.432 90.0843 28.838 89.7669 29.174C89.4496 29.51 89.0576 29.7667 88.5909 29.944C88.1336 30.1213 87.6109 30.21 87.0229 30.21C86.3883 30.21 85.8376 30.112 85.3709 29.916C84.9043 29.72 84.5169 29.4493 84.2089 29.104C83.9009 28.7493 83.6723 28.3387 83.5229 27.872C83.3736 27.396 83.2989 26.8827 83.2989 26.332ZM85.3149 26.332C85.3149 26.64 85.3476 26.9293 85.4129 27.2C85.4783 27.4707 85.5763 27.7087 85.7069 27.914C85.8469 28.11 86.0243 28.2687 86.2389 28.39C86.4536 28.5113 86.7149 28.572 87.0229 28.572C88.1616 28.572 88.7309 27.8253 88.7309 26.332C88.7309 26.0053 88.6983 25.7067 88.6329 25.436C88.5769 25.156 88.4789 24.918 88.3389 24.722C88.2083 24.5167 88.0309 24.358 87.8069 24.246C87.5923 24.134 87.3309 24.078 87.0229 24.078C86.4909 24.078 86.0709 24.2553 85.7629 24.61C85.4643 24.9647 85.3149 25.5387 85.3149 26.332ZM93.6479 24.204C93.9652 23.784 94.3292 23.476 94.7399 23.28C95.1599 23.084 95.6639 22.986 96.2519 22.986C97.2132 22.986 97.9739 23.2473 98.5339 23.77C99.0939 24.2927 99.3739 25.114 99.3739 26.234C99.3739 27.5407 99.0519 28.53 98.4079 29.202C97.7732 29.874 96.8679 30.21 95.6919 30.21C94.4599 30.21 93.5219 29.8367 92.8779 29.09C92.2432 28.3433 91.9259 27.1813 91.9259 25.604C91.9259 24.764 91.9772 24.0547 92.0799 23.476C92.1919 22.888 92.3412 22.4027 92.5279 22.02C92.7239 21.628 92.9572 21.3247 93.2279 21.11C93.4986 20.886 93.7972 20.718 94.1239 20.606C94.4599 20.4847 94.8192 20.4053 95.2019 20.368C95.5846 20.3213 95.9859 20.2793 96.4059 20.242C96.9379 20.1953 97.3952 20.144 97.7779 20.088C98.1699 20.0227 98.4686 19.9153 98.6739 19.766L98.7439 21.46C98.5292 21.6187 98.2306 21.726 97.8479 21.782C97.4652 21.8287 96.9332 21.8753 96.2519 21.922C95.8412 21.95 95.4772 21.9827 95.1599 22.02C94.8426 22.0573 94.5672 22.1507 94.3339 22.3C94.1006 22.44 93.9139 22.6593 93.7739 22.958C93.6339 23.2567 93.5312 23.6767 93.4659 24.218H93.5919L93.6479 24.204ZM93.9419 26.486C93.9419 26.7847 93.9746 27.06 94.0399 27.312C94.1146 27.564 94.2219 27.7833 94.3619 27.97C94.5019 28.1567 94.6792 28.306 94.8939 28.418C95.1086 28.5207 95.3606 28.572 95.6499 28.572C96.2659 28.572 96.7046 28.39 96.9659 28.026C97.2272 27.662 97.3579 27.1533 97.3579 26.5C97.3579 25.884 97.2319 25.4173 96.9799 25.1C96.7372 24.7827 96.3266 24.624 95.7479 24.624C95.1319 24.624 94.6746 24.792 94.3759 25.128C94.0866 25.4547 93.9419 25.9073 93.9419 26.486ZM100.553 26.332C100.553 25.1187 100.875 24.1667 101.519 23.476C102.163 22.7853 103.082 22.44 104.277 22.44C104.902 22.44 105.448 22.538 105.915 22.734C106.382 22.93 106.769 23.2053 107.077 23.56C107.385 23.9053 107.614 24.316 107.763 24.792C107.922 25.2587 108.001 25.772 108.001 26.332C108.001 26.9293 107.917 27.4707 107.749 27.956C107.581 28.432 107.338 28.838 107.021 29.174C106.704 29.51 106.312 29.7667 105.845 29.944C105.388 30.1213 104.865 30.21 104.277 30.21C103.642 30.21 103.092 30.112 102.625 29.916C102.158 29.72 101.771 29.4493 101.463 29.104C101.155 28.7493 100.926 28.3387 100.777 27.872C100.628 27.396 100.553 26.8827 100.553 26.332ZM102.569 26.332C102.569 26.64 102.602 26.9293 102.667 27.2C102.732 27.4707 102.83 27.7087 102.961 27.914C103.101 28.11 103.278 28.2687 103.493 28.39C103.708 28.5113 103.969 28.572 104.277 28.572C105.416 28.572 105.985 27.8253 105.985 26.332C105.985 26.0053 105.952 25.7067 105.887 25.436C105.831 25.156 105.733 24.918 105.593 24.722C105.462 24.5167 105.285 24.358 105.061 24.246C104.846 24.134 104.585 24.078 104.277 24.078C103.745 24.078 103.325 24.2553 103.017 24.61C102.718 24.9647 102.569 25.5387 102.569 26.332ZM109.6 22.65C109.982 22.622 110.43 22.594 110.944 22.566C111.457 22.538 112.022 22.524 112.638 22.524C113.795 22.524 114.616 22.678 115.102 22.986C115.587 23.294 115.83 23.7513 115.83 24.358C115.83 24.7033 115.722 25.0347 115.508 25.352C115.293 25.6693 114.957 25.9073 114.5 26.066V26.178C115.078 26.2993 115.498 26.5093 115.76 26.808C116.03 27.0973 116.166 27.4753 116.166 27.942C116.166 28.67 115.858 29.216 115.242 29.58C114.626 29.944 113.646 30.126 112.302 30.126C111.863 30.126 111.396 30.112 110.902 30.084C110.416 30.0653 109.982 30.0373 109.6 30V22.65ZM111.518 28.502C111.704 28.5393 111.863 28.5627 111.994 28.572C112.134 28.5813 112.297 28.586 112.484 28.586C113.118 28.586 113.557 28.5113 113.8 28.362C114.052 28.2033 114.178 27.9793 114.178 27.69C114.178 27.4287 114.07 27.2187 113.856 27.06C113.641 26.892 113.249 26.808 112.68 26.808H111.518V28.502ZM112.708 25.646C113.081 25.646 113.384 25.576 113.618 25.436C113.851 25.2867 113.968 25.0953 113.968 24.862C113.968 24.61 113.865 24.414 113.66 24.274C113.464 24.134 113.104 24.064 112.582 24.064C112.395 24.064 112.241 24.0687 112.12 24.078C111.998 24.0873 111.886 24.0967 111.784 24.106C111.746 24.106 111.7 24.1107 111.644 24.12C111.588 24.12 111.546 24.12 111.518 24.12V25.646H112.708ZM117.61 23.154C118.03 22.9673 118.543 22.8133 119.15 22.692C119.766 22.5707 120.401 22.51 121.054 22.51C121.567 22.51 121.997 22.5707 122.342 22.692C122.697 22.8133 122.977 22.9907 123.182 23.224C123.387 23.448 123.532 23.7233 123.616 24.05C123.709 24.3673 123.756 24.722 123.756 25.114C123.756 25.59 123.737 26.0613 123.7 26.528C123.663 26.9947 123.644 27.4893 123.644 28.012C123.644 28.3667 123.667 28.712 123.714 29.048C123.761 29.384 123.835 29.706 123.938 30.014H122.342L122.02 28.922H121.852C121.609 29.2487 121.301 29.5287 120.928 29.762C120.555 29.9953 120.074 30.112 119.486 30.112C119.131 30.112 118.805 30.0607 118.506 29.958C118.217 29.8553 117.965 29.7107 117.75 29.524C117.545 29.328 117.381 29.0993 117.26 28.838C117.148 28.5767 117.092 28.292 117.092 27.984C117.092 27.1533 117.367 26.528 117.918 26.108C118.478 25.6787 119.323 25.464 120.452 25.464C120.713 25.464 120.975 25.4873 121.236 25.534C121.497 25.5713 121.679 25.5993 121.782 25.618C121.81 25.422 121.824 25.254 121.824 25.114C121.824 24.7593 121.735 24.498 121.558 24.33C121.381 24.162 121.049 24.078 120.564 24.078C120.116 24.078 119.677 24.134 119.248 24.246C118.828 24.3487 118.455 24.4793 118.128 24.638L117.61 23.154ZM120.172 28.544C120.611 28.544 120.961 28.4413 121.222 28.236C121.483 28.0307 121.675 27.816 121.796 27.592V26.752C121.749 26.7333 121.675 26.7147 121.572 26.696C121.479 26.6773 121.371 26.6587 121.25 26.64C121.138 26.6213 121.021 26.6073 120.9 26.598C120.788 26.5887 120.685 26.584 120.592 26.584C120.088 26.584 119.715 26.6773 119.472 26.864C119.229 27.0413 119.108 27.2653 119.108 27.536C119.108 27.872 119.201 28.124 119.388 28.292C119.584 28.46 119.845 28.544 120.172 28.544ZM131.499 24.386H129.217V30H127.173V24.386H124.891V22.65H131.499V24.386ZM134.583 28.362C134.761 28.3993 134.933 28.4273 135.101 28.446C135.269 28.4553 135.428 28.46 135.577 28.46C136.623 28.46 137.145 28.124 137.145 27.452C137.145 26.8267 136.641 26.514 135.633 26.514C135.251 26.514 134.901 26.556 134.583 26.64V28.362ZM134.583 25.282C134.863 25.2353 135.148 25.2027 135.437 25.184C135.727 25.1653 135.969 25.156 136.165 25.156C136.707 25.156 137.169 25.2167 137.551 25.338C137.934 25.45 138.242 25.6087 138.475 25.814C138.718 26.0193 138.891 26.262 138.993 26.542C139.105 26.822 139.161 27.1207 139.161 27.438C139.161 27.8767 139.091 28.264 138.951 28.6C138.811 28.9267 138.592 29.202 138.293 29.426C137.995 29.65 137.603 29.818 137.117 29.93C136.641 30.042 136.063 30.098 135.381 30.098C134.793 30.098 134.28 30.0887 133.841 30.07C133.403 30.0607 132.997 30.042 132.623 30.014V22.65H134.583V25.282ZM144.239 28.362H146.339V22.972L146.577 22.006L145.849 22.846L144.477 23.742L143.693 22.594L147.123 20.032H148.229V28.362H150.287V30H144.239V28.362ZM159.398 27.298H157.732V30H155.898V27.298H151.292V26.206L156.108 20.13H157.732V25.772H159.398V27.298ZM155.898 23.756L156.01 22.622H155.954L155.45 23.574L153.896 25.38L153.112 25.898L154.092 25.772H155.898V23.756ZM172.141 31.666H170.769L170.517 30H164.945L164.679 31.666H163.307V28.264H164.231C164.315 28.152 164.427 27.9653 164.567 27.704C164.716 27.4427 164.856 27.088 164.987 26.64C165.127 26.192 165.243 25.6413 165.337 24.988C165.439 24.3253 165.495 23.546 165.505 22.65H170.965V28.264H172.141V31.666ZM169.005 28.362V24.288H167.171C167.152 24.652 167.115 25.03 167.059 25.422C167.003 25.814 166.933 26.192 166.849 26.556C166.765 26.92 166.667 27.2607 166.555 27.578C166.443 27.8953 166.321 28.1567 166.191 28.362H169.005ZM178.18 27.158H175.394V30H173.434V22.65H175.394V25.38H178.18V22.65H180.14V30H178.18V27.158ZM188.442 29.328C188.125 29.5707 187.691 29.7807 187.14 29.958C186.599 30.126 186.016 30.21 185.39 30.21C184.13 30.21 183.206 29.8647 182.618 29.174C182.03 28.4833 181.736 27.536 181.736 26.332C181.736 25.0533 182.068 24.0873 182.73 23.434C183.393 22.7713 184.326 22.44 185.53 22.44C185.922 22.44 186.31 22.4913 186.692 22.594C187.075 22.6873 187.416 22.8507 187.714 23.084C188.013 23.308 188.251 23.616 188.428 24.008C188.615 24.3907 188.708 24.8667 188.708 25.436C188.708 25.632 188.694 25.8467 188.666 26.08C188.648 26.3133 188.61 26.556 188.554 26.808H183.654C183.701 27.4427 183.883 27.914 184.2 28.222C184.527 28.5207 185.054 28.67 185.782 28.67C186.221 28.67 186.613 28.6093 186.958 28.488C187.313 28.3573 187.584 28.2267 187.77 28.096L188.442 29.328ZM185.502 23.98C184.924 23.98 184.494 24.1387 184.214 24.456C183.934 24.764 183.771 25.1607 183.724 25.646H186.888C186.926 25.1327 186.832 24.7267 186.608 24.428C186.384 24.1293 186.016 23.98 185.502 23.98ZM195.341 26.682L195.425 25.436L194.543 26.668L191.645 30H190.469V22.65H192.429V26.108L192.359 27.116H192.527C192.639 26.9573 192.751 26.7893 192.863 26.612C192.984 26.4347 193.101 26.2667 193.213 26.108L196.125 22.65H197.301V30H195.341V26.682ZM192.989 19.612C193.064 20.004 193.194 20.27 193.381 20.41C193.568 20.55 193.81 20.62 194.109 20.62C194.417 20.62 194.66 20.55 194.837 20.41C195.024 20.2607 195.154 19.9993 195.229 19.626L196.685 20.004C196.564 20.62 196.26 21.082 195.775 21.39C195.29 21.698 194.711 21.852 194.039 21.852C193.712 21.852 193.4 21.8193 193.101 21.754C192.812 21.6887 192.546 21.5813 192.303 21.432C192.06 21.2827 191.85 21.0913 191.673 20.858C191.505 20.6247 191.388 20.34 191.323 20.004L192.989 19.612ZM204.486 24.204C204.803 23.784 205.167 23.476 205.578 23.28C205.998 23.084 206.502 22.986 207.09 22.986C208.051 22.986 208.812 23.2473 209.372 23.77C209.932 24.2927 210.212 25.114 210.212 26.234C210.212 27.5407 209.89 28.53 209.246 29.202C208.611 29.874 207.706 30.21 206.53 30.21C205.298 30.21 204.36 29.8367 203.716 29.09C203.081 28.3433 202.764 27.1813 202.764 25.604C202.764 24.764 202.815 24.0547 202.918 23.476C203.03 22.888 203.179 22.4027 203.366 22.02C203.562 21.628 203.795 21.3247 204.066 21.11C204.336 20.886 204.635 20.718 204.962 20.606C205.298 20.4847 205.657 20.4053 206.04 20.368C206.422 20.3213 206.824 20.2793 207.244 20.242C207.776 20.1953 208.233 20.144 208.616 20.088C209.008 20.0227 209.306 19.9153 209.512 19.766L209.582 21.46C209.367 21.6187 209.068 21.726 208.686 21.782C208.303 21.8287 207.771 21.8753 207.09 21.922C206.679 21.95 206.315 21.9827 205.998 22.02C205.68 22.0573 205.405 22.1507 205.172 22.3C204.938 22.44 204.752 22.6593 204.612 22.958C204.472 23.2567 204.369 23.6767 204.304 24.218H204.43L204.486 24.204ZM204.78 26.486C204.78 26.7847 204.812 27.06 204.878 27.312C204.952 27.564 205.06 27.7833 205.2 27.97C205.34 28.1567 205.517 28.306 205.732 28.418C205.946 28.5207 206.198 28.572 206.488 28.572C207.104 28.572 207.542 28.39 207.804 28.026C208.065 27.662 208.196 27.1533 208.196 26.5C208.196 25.884 208.07 25.4173 207.818 25.1C207.575 24.7827 207.164 24.624 206.586 24.624C205.97 24.624 205.512 24.792 205.214 25.128C204.924 25.4547 204.78 25.9073 204.78 26.486ZM218.097 29.328C217.779 29.5707 217.345 29.7807 216.795 29.958C216.253 30.126 215.67 30.21 215.045 30.21C213.785 30.21 212.861 29.8647 212.273 29.174C211.685 28.4833 211.391 27.536 211.391 26.332C211.391 25.0533 211.722 24.0873 212.385 23.434C213.047 22.7713 213.981 22.44 215.185 22.44C215.577 22.44 215.964 22.4913 216.347 22.594C216.729 22.6873 217.07 22.8507 217.369 23.084C217.667 23.308 217.905 23.616 218.083 24.008C218.269 24.3907 218.363 24.8667 218.363 25.436C218.363 25.632 218.349 25.8467 218.321 26.08C218.302 26.3133 218.265 26.556 218.209 26.808H213.309C213.355 27.4427 213.537 27.914 213.855 28.222C214.181 28.5207 214.709 28.67 215.437 28.67C215.875 28.67 216.267 28.6093 216.613 28.488C216.967 28.3573 217.238 28.2267 217.425 28.096L218.097 29.328ZM215.157 23.98C214.578 23.98 214.149 24.1387 213.869 24.456C213.589 24.764 213.425 25.1607 213.379 25.646H216.543C216.58 25.1327 216.487 24.7267 216.263 24.428C216.039 24.1293 215.67 23.98 215.157 23.98ZM225.585 29.552C225.268 29.7667 224.885 29.93 224.437 30.042C223.999 30.154 223.541 30.21 223.065 30.21C222.431 30.21 221.894 30.1167 221.455 29.93C221.026 29.7433 220.671 29.4773 220.391 29.132C220.121 28.7867 219.925 28.3807 219.803 27.914C219.682 27.438 219.621 26.9107 219.621 26.332C219.621 25.1093 219.92 24.1573 220.517 23.476C221.124 22.7853 222.001 22.44 223.149 22.44C223.709 22.44 224.167 22.4867 224.521 22.58C224.885 22.664 225.207 22.776 225.487 22.916L225.011 24.484C224.769 24.3813 224.526 24.3067 224.283 24.26C224.05 24.204 223.775 24.176 223.457 24.176C222.869 24.176 222.417 24.3487 222.099 24.694C221.791 25.03 221.637 25.576 221.637 26.332C221.637 26.6307 221.675 26.9107 221.749 27.172C221.824 27.424 221.941 27.648 222.099 27.844C222.258 28.04 222.459 28.194 222.701 28.306C222.944 28.418 223.229 28.474 223.555 28.474C223.947 28.474 224.255 28.4413 224.479 28.376C224.713 28.3013 224.932 28.2033 225.137 28.082L225.585 29.552ZM231.703 24.386H229.001V30H227.041V22.65H233.663V30H231.703V24.386ZM240.092 24.386H238.37C238.342 25.17 238.281 25.9073 238.188 26.598C238.104 27.2887 237.964 27.8953 237.768 28.418C237.572 28.9313 237.31 29.3373 236.984 29.636C236.666 29.9347 236.256 30.084 235.752 30.084C235.164 30.084 234.748 30.0187 234.506 29.888L234.786 28.152C234.944 28.1987 235.089 28.222 235.22 28.222C235.444 28.222 235.64 28.1427 235.808 27.984C235.976 27.8253 236.116 27.5407 236.228 27.13C236.34 26.71 236.428 26.1407 236.494 25.422C236.568 24.7033 236.624 23.7793 236.662 22.65H242.052V30H240.092V24.386ZM243.993 23.154C244.413 22.9673 244.926 22.8133 245.533 22.692C246.149 22.5707 246.783 22.51 247.437 22.51C247.95 22.51 248.379 22.5707 248.725 22.692C249.079 22.8133 249.359 22.9907 249.565 23.224C249.77 23.448 249.915 23.7233 249.999 24.05C250.092 24.3673 250.139 24.722 250.139 25.114C250.139 25.59 250.12 26.0613 250.083 26.528C250.045 26.9947 250.027 27.4893 250.027 28.012C250.027 28.3667 250.05 28.712 250.097 29.048C250.143 29.384 250.218 29.706 250.321 30.014H248.725L248.403 28.922H248.235C247.992 29.2487 247.684 29.5287 247.311 29.762C246.937 29.9953 246.457 30.112 245.869 30.112C245.514 30.112 245.187 30.0607 244.889 29.958C244.599 29.8553 244.347 29.7107 244.133 29.524C243.927 29.328 243.764 29.0993 243.643 28.838C243.531 28.5767 243.475 28.292 243.475 27.984C243.475 27.1533 243.75 26.528 244.301 26.108C244.861 25.6787 245.705 25.464 246.835 25.464C247.096 25.464 247.357 25.4873 247.619 25.534C247.88 25.5713 248.062 25.5993 248.165 25.618C248.193 25.422 248.207 25.254 248.207 25.114C248.207 24.7593 248.118 24.498 247.941 24.33C247.763 24.162 247.432 24.078 246.947 24.078C246.499 24.078 246.06 24.134 245.631 24.246C245.211 24.3487 244.837 24.4793 244.511 24.638L243.993 23.154ZM246.555 28.544C246.993 28.544 247.343 28.4413 247.605 28.236C247.866 28.0307 248.057 27.816 248.179 27.592V26.752C248.132 26.7333 248.057 26.7147 247.955 26.696C247.861 26.6773 247.754 26.6587 247.633 26.64C247.521 26.6213 247.404 26.6073 247.283 26.598C247.171 26.5887 247.068 26.584 246.975 26.584C246.471 26.584 246.097 26.6773 245.855 26.864C245.612 27.0413 245.491 27.2653 245.491 27.536C245.491 27.872 245.584 28.124 245.771 28.292C245.967 28.46 246.228 28.544 246.555 28.544ZM257.882 24.386H255.6V30H253.556V24.386H251.274V22.65H257.882V24.386ZM263.752 27.158H260.966V30H259.006V22.65H260.966V25.38H263.752V22.65H265.712V30H263.752V27.158ZM267.309 26.332C267.309 25.1187 267.631 24.1667 268.275 23.476C268.919 22.7853 269.838 22.44 271.033 22.44C271.658 22.44 272.204 22.538 272.671 22.734C273.137 22.93 273.525 23.2053 273.833 23.56C274.141 23.9053 274.369 24.316 274.519 24.792C274.677 25.2587 274.757 25.772 274.757 26.332C274.757 26.9293 274.673 27.4707 274.505 27.956C274.337 28.432 274.094 28.838 273.777 29.174C273.459 29.51 273.067 29.7667 272.601 29.944C272.143 30.1213 271.621 30.21 271.033 30.21C270.398 30.21 269.847 30.112 269.381 29.916C268.914 29.72 268.527 29.4493 268.219 29.104C267.911 28.7493 267.682 28.3387 267.533 27.872C267.383 27.396 267.309 26.8827 267.309 26.332ZM269.325 26.332C269.325 26.64 269.357 26.9293 269.423 27.2C269.488 27.4707 269.586 27.7087 269.717 27.914C269.857 28.11 270.034 28.2687 270.249 28.39C270.463 28.5113 270.725 28.572 271.033 28.572C272.171 28.572 272.741 27.8253 272.741 26.332C272.741 26.0053 272.708 25.7067 272.643 25.436C272.587 25.156 272.489 24.918 272.349 24.722C272.218 24.5167 272.041 24.358 271.817 24.246C271.602 24.134 271.341 24.078 271.033 24.078C270.501 24.078 270.081 24.2553 269.773 24.61C269.474 24.9647 269.325 25.5387 269.325 26.332Z" fill="white"/>
<defs>
<linearGradient id="paint0_linear" x1="159.5" y1="0" x2="159.5" y2="48" gradientUnits="userSpaceOnUse">
<stop stop-color="#F76201"/>
<stop offset="1" stop-color="#FF4D00"/>
</linearGradient>
</defs>
</svg>
