<svg width="1164" height="193" viewBox="0 0 1164 193" fill="none" xmlns="http://www.w3.org/2000/svg">
<path d="M830.112 83.36C830.112 83.6267 830.069 83.8987 829.984 84.176C829.899 84.4533 829.771 84.7147 829.6 84.96C829.429 85.1947 829.211 85.4027 828.944 85.584C828.677 85.7653 828.363 85.904 828 86V86.064C828.32 86.1173 828.624 86.208 828.912 86.336C829.211 86.464 829.472 86.64 829.696 86.864C829.92 87.088 830.101 87.36 830.24 87.68C830.379 88 830.448 88.3787 830.448 88.816C830.448 89.392 830.325 89.8933 830.08 90.32C829.845 90.736 829.531 91.0773 829.136 91.344C828.752 91.6107 828.309 91.808 827.808 91.936C827.307 92.064 826.795 92.128 826.272 92.128C826.091 92.128 825.877 92.128 825.632 92.128C825.387 92.128 825.131 92.1173 824.864 92.096C824.597 92.0853 824.331 92.064 824.064 92.032C823.797 92.0107 823.563 91.9733 823.36 91.92V80.896C823.755 80.832 824.213 80.7787 824.736 80.736C825.259 80.6933 825.829 80.672 826.448 80.672C826.864 80.672 827.285 80.7093 827.712 80.784C828.149 80.848 828.544 80.9813 828.896 81.184C829.248 81.376 829.536 81.648 829.76 82C829.995 82.352 830.112 82.8053 830.112 83.36ZM826.4 90.976C826.741 90.976 827.072 90.9387 827.392 90.864C827.712 90.7787 827.995 90.6507 828.24 90.48C828.485 90.2987 828.677 90.08 828.816 89.824C828.965 89.568 829.04 89.264 829.04 88.912C829.04 88.4747 828.949 88.1227 828.768 87.856C828.597 87.5893 828.368 87.3813 828.08 87.232C827.803 87.0827 827.488 86.9813 827.136 86.928C826.784 86.8747 826.432 86.848 826.08 86.848H824.688V90.864C824.763 90.8853 824.869 90.9013 825.008 90.912C825.147 90.9227 825.296 90.9333 825.456 90.944C825.616 90.9547 825.781 90.9653 825.952 90.976C826.123 90.976 826.272 90.976 826.4 90.976ZM825.52 85.728C825.701 85.728 825.92 85.7227 826.176 85.712C826.432 85.7013 826.645 85.6853 826.816 85.664C827.072 85.5787 827.312 85.4773 827.536 85.36C827.76 85.232 827.957 85.088 828.128 84.928C828.309 84.7573 828.448 84.5653 828.544 84.352C828.651 84.128 828.704 83.888 828.704 83.632C828.704 83.28 828.635 82.992 828.496 82.768C828.368 82.5333 828.192 82.3467 827.968 82.208C827.744 82.0693 827.488 81.9733 827.2 81.92C826.912 81.856 826.619 81.824 826.32 81.824C825.968 81.824 825.643 81.8347 825.344 81.856C825.056 81.8667 824.837 81.888 824.688 81.92V85.728H825.52ZM832.128 88C832.128 86.6453 832.426 85.6107 833.024 84.896C833.632 84.1707 834.501 83.808 835.632 83.808C836.229 83.808 836.746 83.9093 837.184 84.112C837.632 84.304 838 84.5867 838.288 84.96C838.576 85.3227 838.789 85.7653 838.928 86.288C839.066 86.8 839.136 87.3707 839.136 88C839.136 89.3547 838.832 90.3947 838.224 91.12C837.626 91.8347 836.762 92.192 835.632 92.192C835.034 92.192 834.512 92.096 834.064 91.904C833.626 91.7013 833.264 91.4187 832.976 91.056C832.688 90.6827 832.474 90.24 832.336 89.728C832.197 89.2053 832.128 88.6293 832.128 88ZM833.456 88C833.456 88.4053 833.493 88.7947 833.568 89.168C833.653 89.5413 833.781 89.8667 833.952 90.144C834.122 90.4213 834.346 90.6453 834.624 90.816C834.901 90.9867 835.237 91.072 835.632 91.072C837.082 91.0827 837.808 90.0587 837.808 88C837.808 87.584 837.765 87.1893 837.68 86.816C837.605 86.4427 837.482 86.1173 837.312 85.84C837.141 85.5627 836.917 85.344 836.64 85.184C836.362 85.0133 836.026 84.928 835.632 84.928C834.181 84.9173 833.456 85.9413 833.456 88ZM841.922 88.432V87.392H843.042C843.234 87.392 843.421 87.36 843.602 87.296C843.794 87.232 843.965 87.1467 844.114 87.04C844.263 86.9227 844.381 86.7893 844.466 86.64C844.562 86.48 844.61 86.3147 844.61 86.144C844.61 85.728 844.466 85.4347 844.178 85.264C843.89 85.0933 843.458 85.008 842.882 85.008C842.466 85.008 842.082 85.072 841.73 85.2C841.389 85.328 841.122 85.4507 840.93 85.568L840.562 84.576C840.882 84.3947 841.255 84.2347 841.682 84.096C842.119 83.9573 842.637 83.888 843.234 83.888C845.005 83.888 845.89 84.544 845.89 85.856C845.89 86.2293 845.767 86.5973 845.522 86.96C845.287 87.312 844.946 87.5627 844.498 87.712V87.776C845.127 87.8933 845.565 88.1173 845.81 88.448C846.066 88.7787 846.194 89.216 846.194 89.76C846.194 90.1013 846.125 90.416 845.986 90.704C845.847 90.992 845.639 91.2427 845.362 91.456C845.085 91.6693 844.733 91.84 844.306 91.968C843.89 92.0853 843.405 92.144 842.85 92.144C842.306 92.144 841.853 92.096 841.49 92C841.138 91.904 840.818 91.7867 840.53 91.648L840.898 90.592C841.143 90.7307 841.437 90.8373 841.778 90.912C842.13 90.9867 842.509 91.024 842.914 91.024C843.565 91.024 844.061 90.912 844.402 90.688C844.743 90.464 844.914 90.1227 844.914 89.664C844.914 89.28 844.754 88.9813 844.434 88.768C844.114 88.544 843.586 88.432 842.85 88.432H841.922ZM854.824 87.248L854.92 85.728H854.84L854.264 86.96L852.328 90.096H851.88L849.864 86.96L849.336 85.728H849.272L849.4 87.232V92H848.216V84H849.48L851.72 87.584L852.184 88.512H852.216L852.696 87.552L854.792 84H856.072V92H854.824V87.248ZM858.081 88C858.081 86.6453 858.38 85.6107 858.977 84.896C859.585 84.1707 860.454 83.808 861.585 83.808C862.182 83.808 862.7 83.9093 863.137 84.112C863.585 84.304 863.953 84.5867 864.241 84.96C864.529 85.3227 864.742 85.7653 864.881 86.288C865.02 86.8 865.089 87.3707 865.089 88C865.089 89.3547 864.785 90.3947 864.177 91.12C863.58 91.8347 862.716 92.192 861.585 92.192C860.988 92.192 860.465 92.096 860.017 91.904C859.58 91.7013 859.217 91.4187 858.929 91.056C858.641 90.6827 858.428 90.24 858.289 89.728C858.15 89.2053 858.081 88.6293 858.081 88ZM859.409 88C859.409 88.4053 859.446 88.7947 859.521 89.168C859.606 89.5413 859.734 89.8667 859.905 90.144C860.076 90.4213 860.3 90.6453 860.577 90.816C860.854 90.9867 861.19 91.072 861.585 91.072C863.036 91.0827 863.761 90.0587 863.761 88C863.761 87.584 863.718 87.1893 863.633 86.816C863.558 86.4427 863.436 86.1173 863.265 85.84C863.094 85.5627 862.87 85.344 862.593 85.184C862.316 85.0133 861.98 84.928 861.585 84.928C860.134 84.9173 859.409 85.9413 859.409 88ZM869.621 88.464L867.269 92H865.797L868.325 88.336L868.869 87.856L868.053 87.248L865.973 84H867.333L869.541 87.456H870.373V84H871.621V87.616L872.373 87.392L874.597 84H875.941L873.765 87.248L873.141 87.76L873.957 88.4L876.325 92H874.805L872.453 88.4H871.621V92H870.373V88.24L869.621 88.464ZM882.456 88.464H878.84V92H877.56V84H878.84V87.344H882.456V84H883.736V92H882.456V88.464ZM885.753 88C885.753 86.6453 886.051 85.6107 886.649 84.896C887.257 84.1707 888.126 83.808 889.257 83.808C889.854 83.808 890.371 83.9093 890.809 84.112C891.257 84.304 891.625 84.5867 891.913 84.96C892.201 85.3227 892.414 85.7653 892.553 86.288C892.691 86.8 892.761 87.3707 892.761 88C892.761 89.3547 892.457 90.3947 891.849 91.12C891.251 91.8347 890.387 92.192 889.257 92.192C888.659 92.192 888.137 92.096 887.689 91.904C887.251 91.7013 886.889 91.4187 886.601 91.056C886.313 90.6827 886.099 90.24 885.961 89.728C885.822 89.2053 885.753 88.6293 885.753 88ZM887.081 88C887.081 88.4053 887.118 88.7947 887.193 89.168C887.278 89.5413 887.406 89.8667 887.577 90.144C887.747 90.4213 887.971 90.6453 888.249 90.816C888.526 90.9867 888.862 91.072 889.257 91.072C890.707 91.0827 891.433 90.0587 891.433 88C891.433 87.584 891.39 87.1893 891.305 86.816C891.23 86.4427 891.107 86.1173 890.937 85.84C890.766 85.5627 890.542 85.344 890.265 85.184C889.987 85.0133 889.651 84.928 889.257 84.928C887.806 84.9173 887.081 85.9413 887.081 88ZM900.235 91.472C899.915 91.7067 899.536 91.8827 899.099 92C898.662 92.128 898.203 92.192 897.723 92.192C897.104 92.192 896.582 92.096 896.155 91.904C895.728 91.7013 895.376 91.4187 895.099 91.056C894.832 90.6827 894.635 90.24 894.507 89.728C894.39 89.2053 894.331 88.6293 894.331 88C894.331 86.6453 894.63 85.6107 895.227 84.896C895.824 84.1707 896.683 83.808 897.803 83.808C898.315 83.808 898.747 83.8507 899.099 83.936C899.462 84.0107 899.787 84.1227 900.075 84.272L899.707 85.376C899.462 85.2373 899.19 85.1307 898.891 85.056C898.592 84.9707 898.272 84.928 897.931 84.928C896.416 84.928 895.659 85.952 895.659 88C895.659 88.4053 895.696 88.7947 895.771 89.168C895.856 89.5307 895.99 89.856 896.171 90.144C896.363 90.4213 896.608 90.6453 896.907 90.816C897.216 90.9867 897.595 91.072 898.043 91.072C898.427 91.072 898.768 91.0133 899.067 90.896C899.376 90.7787 899.627 90.6453 899.819 90.496L900.235 91.472ZM906.836 85.12H904.34V92H903.06V85.12H900.564V84H906.836V85.12ZM909.387 90.88C909.782 90.944 910.16 90.976 910.523 90.976C911.195 90.976 911.691 90.848 912.011 90.592C912.331 90.3253 912.491 89.952 912.491 89.472C912.491 89.0453 912.336 88.6933 912.027 88.416C911.718 88.1387 911.232 88 910.571 88C910.39 88 910.192 88.0053 909.979 88.016C909.766 88.0267 909.568 88.0587 909.387 88.112V90.88ZM909.387 87.056C909.643 87.0133 909.888 86.9867 910.123 86.976C910.358 86.9547 910.582 86.944 910.795 86.944C911.35 86.944 911.819 87.008 912.203 87.136C912.587 87.2533 912.896 87.4187 913.131 87.632C913.376 87.8453 913.552 88.1013 913.659 88.4C913.766 88.688 913.819 88.9973 913.819 89.328C913.819 90.2987 913.526 91.0027 912.939 91.44C912.363 91.8773 911.462 92.096 910.235 92.096C909.552 92.096 908.843 92.064 908.107 92V84H909.387V87.056ZM924.224 87.264L924.272 86.272H924.224L923.568 87.296L919.968 92H919.232V84H920.512V88.88L920.464 89.824H920.528L921.152 88.832L924.752 84H925.504V92H924.224V87.264ZM932.862 88.464H929.246V92H927.966V84H929.246V87.344H932.862V84H934.142V92H932.862V88.464ZM941.695 85.12H939.199V92H937.919V85.12H935.423V84H941.695V85.12ZM948.556 91.36C948.236 91.616 947.831 91.8187 947.34 91.968C946.86 92.1173 946.348 92.192 945.804 92.192C945.196 92.192 944.668 92.096 944.22 91.904C943.772 91.7013 943.404 91.4187 943.116 91.056C942.828 90.6827 942.615 90.24 942.476 89.728C942.338 89.216 942.268 88.64 942.268 88C942.268 86.6347 942.572 85.5947 943.18 84.88C943.788 84.1653 944.658 83.808 945.788 83.808C946.151 83.808 946.514 83.8507 946.876 83.936C947.239 84.0107 947.564 84.16 947.852 84.384C948.14 84.608 948.375 84.928 948.556 85.344C948.738 85.7493 948.828 86.288 948.828 86.96C948.828 87.312 948.796 87.7013 948.732 88.128H943.596C943.596 88.5973 943.644 89.0133 943.74 89.376C943.836 89.7387 943.986 90.048 944.188 90.304C944.391 90.5493 944.652 90.7413 944.972 90.88C945.303 91.008 945.703 91.072 946.172 91.072C946.535 91.072 946.898 91.008 947.26 90.88C947.623 90.752 947.895 90.6027 948.076 90.432L948.556 91.36ZM945.804 84.928C945.175 84.928 944.668 85.0933 944.284 85.424C943.911 85.7547 943.687 86.32 943.612 87.12H947.58C947.58 86.3093 947.426 85.744 947.116 85.424C946.807 85.0933 946.37 84.928 945.804 84.928ZM955.513 85.12H952.121V92H950.841V84H955.513V85.12ZM956.748 84H957.628L957.868 84.96H957.932C958.177 84.5867 958.492 84.304 958.876 84.112C959.27 83.9093 959.718 83.808 960.22 83.808C961.286 83.808 962.081 84.1227 962.604 84.752C963.126 85.3813 963.388 86.4107 963.388 87.84C963.388 88.512 963.297 89.12 963.116 89.664C962.945 90.1973 962.7 90.6507 962.38 91.024C962.06 91.3973 961.67 91.6853 961.212 91.888C960.764 92.0907 960.262 92.192 959.708 92.192C959.313 92.192 958.998 92.1653 958.764 92.112C958.54 92.0693 958.294 91.9893 958.028 91.872V95.2H956.748V84ZM959.98 84.928C959.436 84.928 959.004 85.072 958.684 85.36C958.374 85.6373 958.156 86.064 958.028 86.64V90.608C958.22 90.7573 958.438 90.8747 958.684 90.96C958.929 91.0347 959.254 91.072 959.66 91.072C960.396 91.072 960.977 90.8 961.404 90.256C961.841 89.7013 962.06 88.8907 962.06 87.824C962.06 87.3867 962.022 86.992 961.948 86.64C961.873 86.2773 961.75 85.9733 961.58 85.728C961.42 85.472 961.206 85.2747 960.94 85.136C960.684 84.9973 960.364 84.928 959.98 84.928ZM965.276 84.592C965.681 84.3467 966.151 84.1653 966.684 84.048C967.228 83.9307 967.793 83.872 968.38 83.872C968.935 83.872 969.377 83.9467 969.708 84.096C970.049 84.2453 970.305 84.4427 970.476 84.688C970.657 84.9227 970.775 85.184 970.828 85.472C970.892 85.76 970.924 86.048 970.924 86.336C970.924 86.976 970.908 87.6 970.876 88.208C970.844 88.816 970.828 89.392 970.828 89.936C970.828 90.3307 970.844 90.704 970.876 91.056C970.908 91.408 970.967 91.7333 971.052 92.032H970.108L969.772 90.912H969.692C969.596 91.0613 969.473 91.2107 969.324 91.36C969.185 91.4987 969.015 91.6267 968.812 91.744C968.609 91.8507 968.375 91.9413 968.108 92.016C967.841 92.0907 967.537 92.128 967.196 92.128C966.855 92.128 966.535 92.0747 966.236 91.968C965.948 91.8613 965.697 91.712 965.484 91.52C965.271 91.3173 965.1 91.0773 964.972 90.8C964.855 90.5227 964.796 90.208 964.796 89.856C964.796 89.3867 964.892 88.9973 965.084 88.688C965.276 88.368 965.543 88.1173 965.884 87.936C966.236 87.744 966.652 87.6107 967.132 87.536C967.623 87.4507 968.161 87.408 968.748 87.408C968.897 87.408 969.041 87.408 969.18 87.408C969.329 87.408 969.479 87.4187 969.628 87.44C969.66 87.12 969.676 86.832 969.676 86.576C969.676 85.9893 969.559 85.5787 969.324 85.344C969.089 85.1093 968.663 84.992 968.044 84.992C967.863 84.992 967.665 85.008 967.452 85.04C967.249 85.0613 967.036 85.0987 966.812 85.152C966.599 85.1947 966.391 85.2533 966.188 85.328C965.996 85.392 965.825 85.4667 965.676 85.552L965.276 84.592ZM967.548 91.008C967.847 91.008 968.113 90.9707 968.348 90.896C968.583 90.8107 968.785 90.7093 968.956 90.592C969.127 90.464 969.265 90.3253 969.372 90.176C969.489 90.0267 969.575 89.8827 969.628 89.744V88.416C969.479 88.4053 969.324 88.4 969.164 88.4C969.015 88.3893 968.865 88.384 968.716 88.384C968.385 88.384 968.06 88.4053 967.74 88.448C967.431 88.48 967.153 88.5493 966.908 88.656C966.673 88.752 966.481 88.8907 966.332 89.072C966.193 89.2427 966.124 89.4613 966.124 89.728C966.124 90.1013 966.257 90.4107 966.524 90.656C966.791 90.8907 967.132 91.008 967.548 91.008ZM980.525 94.032H979.661L979.421 92H973.341V84H974.621V90.88H978.093V84H979.373V90.88H980.525V94.032ZM987.099 87.264L987.147 86.272H987.099L986.443 87.296L982.843 92H982.107V84H983.387V88.88L983.339 89.824H983.403L984.027 88.832L987.627 84H988.379V92H987.099V87.264ZM995.833 87.264L995.881 86.272H995.833L995.177 87.296L991.577 92H990.841V84H992.121V88.88L992.073 89.824H992.137L992.761 88.832L996.361 84H997.113V92H995.833V87.264ZM1009.3 91.472C1008.98 91.7067 1008.6 91.8827 1008.16 92C1007.72 92.128 1007.27 92.192 1006.79 92.192C1006.17 92.192 1005.64 92.096 1005.22 91.904C1004.79 91.7013 1004.44 91.4187 1004.16 91.056C1003.89 90.6827 1003.7 90.24 1003.57 89.728C1003.45 89.2053 1003.39 88.6293 1003.39 88C1003.39 86.6453 1003.69 85.6107 1004.29 84.896C1004.89 84.1707 1005.75 83.808 1006.87 83.808C1007.38 83.808 1007.81 83.8507 1008.16 83.936C1008.52 84.0107 1008.85 84.1227 1009.14 84.272L1008.77 85.376C1008.52 85.2373 1008.25 85.1307 1007.95 85.056C1007.65 84.9707 1007.33 84.928 1006.99 84.928C1005.48 84.928 1004.72 85.952 1004.72 88C1004.72 88.4053 1004.76 88.7947 1004.83 89.168C1004.92 89.5307 1005.05 89.856 1005.23 90.144C1005.43 90.4213 1005.67 90.6453 1005.97 90.816C1006.28 90.9867 1006.66 91.072 1007.11 91.072C1007.49 91.072 1007.83 91.0133 1008.13 90.896C1008.44 90.7787 1008.69 90.6453 1008.88 90.496L1009.3 91.472ZM1022.21 83.36C1022.21 83.6267 1022.16 83.8987 1022.08 84.176C1021.99 84.4533 1021.86 84.7147 1021.69 84.96C1021.52 85.1947 1021.3 85.4027 1021.04 85.584C1020.77 85.7653 1020.46 85.904 1020.09 86V86.064C1020.41 86.1173 1020.72 86.208 1021.01 86.336C1021.3 86.464 1021.57 86.64 1021.79 86.864C1022.01 87.088 1022.2 87.36 1022.33 87.68C1022.47 88 1022.54 88.3787 1022.54 88.816C1022.54 89.392 1022.42 89.8933 1022.17 90.32C1021.94 90.736 1021.62 91.0773 1021.23 91.344C1020.85 91.6107 1020.4 91.808 1019.9 91.936C1019.4 92.064 1018.89 92.128 1018.37 92.128C1018.18 92.128 1017.97 92.128 1017.73 92.128C1017.48 92.128 1017.22 92.1173 1016.96 92.096C1016.69 92.0853 1016.42 92.064 1016.16 92.032C1015.89 92.0107 1015.66 91.9733 1015.45 91.92V80.896C1015.85 80.832 1016.31 80.7787 1016.83 80.736C1017.35 80.6933 1017.92 80.672 1018.54 80.672C1018.96 80.672 1019.38 80.7093 1019.81 80.784C1020.24 80.848 1020.64 80.9813 1020.99 81.184C1021.34 81.376 1021.63 81.648 1021.85 82C1022.09 82.352 1022.21 82.8053 1022.21 83.36ZM1018.49 90.976C1018.84 90.976 1019.17 90.9387 1019.49 90.864C1019.81 90.7787 1020.09 90.6507 1020.33 90.48C1020.58 90.2987 1020.77 90.08 1020.91 89.824C1021.06 89.568 1021.13 89.264 1021.13 88.912C1021.13 88.4747 1021.04 88.1227 1020.86 87.856C1020.69 87.5893 1020.46 87.3813 1020.17 87.232C1019.9 87.0827 1019.58 86.9813 1019.23 86.928C1018.88 86.8747 1018.53 86.848 1018.17 86.848H1016.78V90.864C1016.86 90.8853 1016.96 90.9013 1017.1 90.912C1017.24 90.9227 1017.39 90.9333 1017.55 90.944C1017.71 90.9547 1017.88 90.9653 1018.05 90.976C1018.22 90.976 1018.37 90.976 1018.49 90.976ZM1017.61 85.728C1017.8 85.728 1018.01 85.7227 1018.27 85.712C1018.53 85.7013 1018.74 85.6853 1018.91 85.664C1019.17 85.5787 1019.41 85.4773 1019.63 85.36C1019.85 85.232 1020.05 85.088 1020.22 84.928C1020.4 84.7573 1020.54 84.5653 1020.64 84.352C1020.74 84.128 1020.8 83.888 1020.8 83.632C1020.8 83.28 1020.73 82.992 1020.59 82.768C1020.46 82.5333 1020.29 82.3467 1020.06 82.208C1019.84 82.0693 1019.58 81.9733 1019.29 81.92C1019.01 81.856 1018.71 81.824 1018.41 81.824C1018.06 81.824 1017.74 81.8347 1017.44 81.856C1017.15 81.8667 1016.93 81.888 1016.78 81.92V85.728H1017.61ZM1030.51 91.36C1030.19 91.616 1029.78 91.8187 1029.29 91.968C1028.81 92.1173 1028.3 92.192 1027.76 92.192C1027.15 92.192 1026.62 92.096 1026.17 91.904C1025.73 91.7013 1025.36 91.4187 1025.07 91.056C1024.78 90.6827 1024.57 90.24 1024.43 89.728C1024.29 89.216 1024.22 88.64 1024.22 88C1024.22 86.6347 1024.53 85.5947 1025.13 84.88C1025.74 84.1653 1026.61 83.808 1027.74 83.808C1028.1 83.808 1028.47 83.8507 1028.83 83.936C1029.19 84.0107 1029.52 84.16 1029.81 84.384C1030.09 84.608 1030.33 84.928 1030.51 85.344C1030.69 85.7493 1030.78 86.288 1030.78 86.96C1030.78 87.312 1030.75 87.7013 1030.69 88.128H1025.55C1025.55 88.5973 1025.6 89.0133 1025.69 89.376C1025.79 89.7387 1025.94 90.048 1026.14 90.304C1026.34 90.5493 1026.61 90.7413 1026.93 90.88C1027.26 91.008 1027.66 91.072 1028.13 91.072C1028.49 91.072 1028.85 91.008 1029.21 90.88C1029.58 90.752 1029.85 90.6027 1030.03 90.432L1030.51 91.36ZM1027.76 84.928C1027.13 84.928 1026.62 85.0933 1026.24 85.424C1025.86 85.7547 1025.64 86.32 1025.57 87.12H1029.53C1029.53 86.3093 1029.38 85.744 1029.07 85.424C1028.76 85.0933 1028.32 84.928 1027.76 84.928ZM1037.88 85.12H1035.39V92H1034.11V85.12H1031.61V84H1037.88V85.12ZM1046.13 84.416L1046.23 83.136H1046.16L1045.47 84.448L1040.07 92H1039.28V80.8H1040.61V88.48L1040.5 89.744H1040.56L1041.27 88.432L1046.67 80.8H1047.46V92H1046.13V84.416ZM1057.34 91.536C1057.02 91.7813 1056.62 91.952 1056.12 92.048C1055.63 92.144 1055.11 92.192 1054.56 92.192C1053.88 92.192 1053.26 92.08 1052.67 91.856C1052.08 91.6213 1051.57 91.2693 1051.13 90.8C1050.7 90.3307 1050.35 89.7333 1050.09 89.008C1049.84 88.272 1049.71 87.4027 1049.71 86.4C1049.71 85.3547 1049.85 84.4693 1050.12 83.744C1050.41 83.008 1050.79 82.4107 1051.24 81.952C1051.71 81.4827 1052.24 81.1413 1052.81 80.928C1053.39 80.7147 1053.98 80.608 1054.57 80.608C1055.21 80.608 1055.74 80.6453 1056.14 80.72C1056.55 80.784 1056.89 80.8747 1057.18 80.992L1056.86 82.16C1056.35 81.9147 1055.62 81.792 1054.67 81.792C1054.23 81.792 1053.8 81.872 1053.37 82.032C1052.95 82.192 1052.56 82.4533 1052.22 82.816C1051.89 83.1787 1051.62 83.6533 1051.42 84.24C1051.22 84.8267 1051.12 85.5467 1051.12 86.4C1051.12 87.168 1051.21 87.84 1051.4 88.416C1051.6 88.992 1051.86 89.472 1052.19 89.856C1052.53 90.24 1052.92 90.528 1053.37 90.72C1053.83 90.912 1054.33 91.008 1054.86 91.008C1055.34 91.008 1055.76 90.96 1056.11 90.864C1056.47 90.768 1056.78 90.6453 1057.02 90.496L1057.34 91.536ZM1062.18 86.8H1068.97V87.984H1062.18V86.8ZM827.904 109.12H824.512V116H823.232V108H827.904V109.12ZM828.44 112C828.44 110.645 828.739 109.611 829.336 108.896C829.944 108.171 830.814 107.808 831.944 107.808C832.542 107.808 833.059 107.909 833.496 108.112C833.944 108.304 834.312 108.587 834.6 108.96C834.888 109.323 835.102 109.765 835.24 110.288C835.379 110.8 835.448 111.371 835.448 112C835.448 113.355 835.144 114.395 834.536 115.12C833.939 115.835 833.075 116.192 831.944 116.192C831.347 116.192 830.824 116.096 830.376 115.904C829.939 115.701 829.576 115.419 829.288 115.056C829 114.683 828.787 114.24 828.648 113.728C828.51 113.205 828.44 112.629 828.44 112ZM829.768 112C829.768 112.405 829.806 112.795 829.88 113.168C829.966 113.541 830.094 113.867 830.264 114.144C830.435 114.421 830.659 114.645 830.936 114.816C831.214 114.987 831.55 115.072 831.944 115.072C833.395 115.083 834.12 114.059 834.12 112C834.12 111.584 834.078 111.189 833.992 110.816C833.918 110.443 833.795 110.117 833.624 109.84C833.454 109.563 833.23 109.344 832.952 109.184C832.675 109.013 832.339 108.928 831.944 108.928C830.494 108.917 829.768 109.941 829.768 112ZM842.922 115.472C842.602 115.707 842.224 115.883 841.786 116C841.349 116.128 840.89 116.192 840.41 116.192C839.792 116.192 839.269 116.096 838.842 115.904C838.416 115.701 838.064 115.419 837.786 115.056C837.52 114.683 837.322 114.24 837.194 113.728C837.077 113.205 837.018 112.629 837.018 112C837.018 110.645 837.317 109.611 837.914 108.896C838.512 108.171 839.37 107.808 840.49 107.808C841.002 107.808 841.434 107.851 841.786 107.936C842.149 108.011 842.474 108.123 842.762 108.272L842.394 109.376C842.149 109.237 841.877 109.131 841.578 109.056C841.28 108.971 840.96 108.928 840.618 108.928C839.104 108.928 838.346 109.952 838.346 112C838.346 112.405 838.384 112.795 838.458 113.168C838.544 113.531 838.677 113.856 838.858 114.144C839.05 114.421 839.296 114.645 839.594 114.816C839.904 114.987 840.282 115.072 840.73 115.072C841.114 115.072 841.456 115.013 841.754 114.896C842.064 114.779 842.314 114.645 842.506 114.496L842.922 115.472ZM846.818 113.184L847.266 114.72H847.346L847.698 113.168L849.25 108H850.546L848.178 115.184C847.997 115.707 847.816 116.213 847.634 116.704C847.464 117.195 847.272 117.632 847.058 118.016C846.845 118.4 846.605 118.704 846.338 118.928C846.072 119.163 845.762 119.28 845.41 119.28C845.026 119.28 844.712 119.227 844.466 119.12L844.69 118.016C844.829 118.069 844.962 118.096 845.09 118.096C845.389 118.096 845.677 117.936 845.954 117.616C846.232 117.307 846.461 116.768 846.642 116L843.426 108H844.898L846.818 113.184ZM858.773 118.032H857.909L857.669 116H851.653L851.413 118.032H850.549V114.88H851.493C851.578 114.763 851.69 114.555 851.829 114.256C851.967 113.947 852.101 113.52 852.229 112.976C852.367 112.421 852.485 111.739 852.581 110.928C852.687 110.107 852.751 109.131 852.773 108H857.605V114.88H858.773V118.032ZM856.325 114.88V109.12H853.925C853.903 109.568 853.866 110.059 853.813 110.592C853.759 111.115 853.685 111.643 853.589 112.176C853.503 112.699 853.391 113.195 853.253 113.664C853.114 114.133 852.954 114.539 852.773 114.88H856.325ZM860.229 108.592C860.634 108.347 861.104 108.165 861.637 108.048C862.181 107.931 862.746 107.872 863.333 107.872C863.888 107.872 864.33 107.947 864.661 108.096C865.002 108.245 865.258 108.443 865.429 108.688C865.61 108.923 865.728 109.184 865.781 109.472C865.845 109.76 865.877 110.048 865.877 110.336C865.877 110.976 865.861 111.6 865.829 112.208C865.797 112.816 865.781 113.392 865.781 113.936C865.781 114.331 865.797 114.704 865.829 115.056C865.861 115.408 865.92 115.733 866.005 116.032H865.061L864.725 114.912H864.645C864.549 115.061 864.426 115.211 864.277 115.36C864.138 115.499 863.968 115.627 863.765 115.744C863.562 115.851 863.328 115.941 863.061 116.016C862.794 116.091 862.49 116.128 862.149 116.128C861.808 116.128 861.488 116.075 861.189 115.968C860.901 115.861 860.65 115.712 860.437 115.52C860.224 115.317 860.053 115.077 859.925 114.8C859.808 114.523 859.749 114.208 859.749 113.856C859.749 113.387 859.845 112.997 860.037 112.688C860.229 112.368 860.496 112.117 860.837 111.936C861.189 111.744 861.605 111.611 862.085 111.536C862.576 111.451 863.114 111.408 863.701 111.408C863.85 111.408 863.994 111.408 864.133 111.408C864.282 111.408 864.432 111.419 864.581 111.44C864.613 111.12 864.629 110.832 864.629 110.576C864.629 109.989 864.512 109.579 864.277 109.344C864.042 109.109 863.616 108.992 862.997 108.992C862.816 108.992 862.618 109.008 862.405 109.04C862.202 109.061 861.989 109.099 861.765 109.152C861.552 109.195 861.344 109.253 861.141 109.328C860.949 109.392 860.778 109.467 860.629 109.552L860.229 108.592ZM862.501 115.008C862.8 115.008 863.066 114.971 863.301 114.896C863.536 114.811 863.738 114.709 863.909 114.592C864.08 114.464 864.218 114.325 864.325 114.176C864.442 114.027 864.528 113.883 864.581 113.744V112.416C864.432 112.405 864.277 112.4 864.117 112.4C863.968 112.389 863.818 112.384 863.669 112.384C863.338 112.384 863.013 112.405 862.693 112.448C862.384 112.48 862.106 112.549 861.861 112.656C861.626 112.752 861.434 112.891 861.285 113.072C861.146 113.243 861.077 113.461 861.077 113.728C861.077 114.101 861.21 114.411 861.477 114.656C861.744 114.891 862.085 115.008 862.501 115.008ZM868.295 108H869.174L869.414 108.96H869.479C869.724 108.587 870.039 108.304 870.423 108.112C870.817 107.909 871.265 107.808 871.766 107.808C872.833 107.808 873.628 108.123 874.151 108.752C874.673 109.381 874.935 110.411 874.935 111.84C874.935 112.512 874.844 113.12 874.663 113.664C874.492 114.197 874.247 114.651 873.927 115.024C873.607 115.397 873.217 115.685 872.759 115.888C872.311 116.091 871.809 116.192 871.255 116.192C870.86 116.192 870.545 116.165 870.311 116.112C870.087 116.069 869.841 115.989 869.575 115.872V119.2H868.295V108ZM871.527 108.928C870.983 108.928 870.551 109.072 870.231 109.36C869.921 109.637 869.703 110.064 869.575 110.64V114.608C869.767 114.757 869.985 114.875 870.231 114.96C870.476 115.035 870.801 115.072 871.207 115.072C871.943 115.072 872.524 114.8 872.951 114.256C873.388 113.701 873.607 112.891 873.607 111.824C873.607 111.387 873.569 110.992 873.495 110.64C873.42 110.277 873.297 109.973 873.127 109.728C872.967 109.472 872.753 109.275 872.487 109.136C872.231 108.997 871.911 108.928 871.527 108.928ZM882.407 115.472C882.087 115.707 881.708 115.883 881.271 116C880.833 116.128 880.375 116.192 879.895 116.192C879.276 116.192 878.753 116.096 878.327 115.904C877.9 115.701 877.548 115.419 877.271 115.056C877.004 114.683 876.807 114.24 876.679 113.728C876.561 113.205 876.503 112.629 876.503 112C876.503 110.645 876.801 109.611 877.399 108.896C877.996 108.171 878.855 107.808 879.975 107.808C880.487 107.808 880.919 107.851 881.271 107.936C881.633 108.011 881.959 108.123 882.247 108.272L881.879 109.376C881.633 109.237 881.361 109.131 881.063 109.056C880.764 108.971 880.444 108.928 880.103 108.928C878.588 108.928 877.831 109.952 877.831 112C877.831 112.405 877.868 112.795 877.943 113.168C878.028 113.531 878.161 113.856 878.343 114.144C878.535 114.421 878.78 114.645 879.079 114.816C879.388 114.987 879.767 115.072 880.215 115.072C880.599 115.072 880.94 115.013 881.239 114.896C881.548 114.779 881.799 114.645 881.991 114.496L882.407 115.472ZM889.008 109.12H886.512V116H885.232V109.12H882.736V108H889.008V109.12ZM890.279 108.016C890.652 107.995 891.042 107.968 891.447 107.936C891.863 107.904 892.375 107.888 892.983 107.888C894.039 107.888 894.796 108.053 895.255 108.384C895.714 108.704 895.943 109.195 895.943 109.856C895.943 110.229 895.831 110.597 895.607 110.96C895.394 111.312 895.036 111.573 894.535 111.744V111.808C895.164 111.925 895.607 112.144 895.863 112.464C896.119 112.784 896.247 113.211 896.247 113.744C896.247 114.576 895.948 115.179 895.351 115.552C894.754 115.925 893.858 116.112 892.663 116.112C892.215 116.112 891.799 116.096 891.415 116.064C891.031 116.043 890.652 116.016 890.279 115.984V108.016ZM891.559 114.928C891.762 114.949 891.959 114.965 892.151 114.976C892.354 114.987 892.588 114.992 892.855 114.992C893.57 114.992 894.098 114.891 894.439 114.688C894.791 114.485 894.967 114.139 894.967 113.648C894.967 113.264 894.818 112.955 894.519 112.72C894.231 112.475 893.714 112.352 892.967 112.352H891.559V114.928ZM893.127 111.376C893.319 111.376 893.506 111.344 893.687 111.28C893.868 111.216 894.028 111.131 894.167 111.024C894.316 110.907 894.434 110.773 894.519 110.624C894.615 110.475 894.663 110.315 894.663 110.144C894.663 109.717 894.535 109.424 894.279 109.264C894.023 109.093 893.575 109.008 892.935 109.008C892.594 109.008 892.322 109.013 892.119 109.024C891.927 109.035 891.74 109.045 891.559 109.056V111.376H893.127ZM904.103 115.36C903.783 115.616 903.378 115.819 902.887 115.968C902.407 116.117 901.895 116.192 901.351 116.192C900.743 116.192 900.215 116.096 899.767 115.904C899.319 115.701 898.951 115.419 898.663 115.056C898.375 114.683 898.162 114.24 898.023 113.728C897.885 113.216 897.815 112.64 897.815 112C897.815 110.635 898.119 109.595 898.727 108.88C899.335 108.165 900.205 107.808 901.335 107.808C901.698 107.808 902.061 107.851 902.423 107.936C902.786 108.011 903.111 108.16 903.399 108.384C903.687 108.608 903.922 108.928 904.103 109.344C904.285 109.749 904.375 110.288 904.375 110.96C904.375 111.312 904.343 111.701 904.279 112.128H899.143C899.143 112.597 899.191 113.013 899.287 113.376C899.383 113.739 899.533 114.048 899.735 114.304C899.938 114.549 900.199 114.741 900.519 114.88C900.85 115.008 901.25 115.072 901.719 115.072C902.082 115.072 902.445 115.008 902.807 114.88C903.17 114.752 903.442 114.603 903.623 114.432L904.103 115.36ZM901.351 108.928C900.722 108.928 900.215 109.093 899.831 109.424C899.458 109.755 899.234 110.32 899.159 111.12H903.127C903.127 110.309 902.973 109.744 902.663 109.424C902.354 109.093 901.917 108.928 901.351 108.928ZM911.284 112.464H907.668V116H906.388V108H907.668V111.344H911.284V108H912.564V116H911.284V112.464ZM919.925 112.464H916.309V116H915.029V108H916.309V111.344H919.925V108H921.205V116H919.925V112.464ZM923.222 112C923.222 110.645 923.52 109.611 924.118 108.896C924.726 108.171 925.595 107.808 926.726 107.808C927.323 107.808 927.84 107.909 928.278 108.112C928.726 108.304 929.094 108.587 929.382 108.96C929.67 109.323 929.883 109.765 930.022 110.288C930.16 110.8 930.23 111.371 930.23 112C930.23 113.355 929.926 114.395 929.318 115.12C928.72 115.835 927.856 116.192 926.726 116.192C926.128 116.192 925.606 116.096 925.158 115.904C924.72 115.701 924.358 115.419 924.07 115.056C923.782 114.683 923.568 114.24 923.43 113.728C923.291 113.205 923.222 112.629 923.222 112ZM924.549 112C924.549 112.405 924.587 112.795 924.662 113.168C924.747 113.541 924.875 113.867 925.046 114.144C925.216 114.421 925.44 114.645 925.718 114.816C925.995 114.987 926.331 115.072 926.726 115.072C928.176 115.083 928.902 114.059 928.902 112C928.902 111.584 928.859 111.189 928.774 110.816C928.699 110.443 928.576 110.117 928.406 109.84C928.235 109.563 928.011 109.344 927.734 109.184C927.456 109.013 927.12 108.928 926.726 108.928C925.275 108.917 924.549 109.941 924.549 112ZM937.24 111.264L937.288 110.272H937.24L936.584 111.296L932.984 116H932.248V108H933.528V112.88L933.48 113.824H933.544L934.168 112.832L937.768 108H938.52V116H937.24V111.264ZM934.088 104.768C934.194 105.259 934.376 105.6 934.632 105.792C934.898 105.984 935.202 106.08 935.544 106.08C935.885 106.08 936.189 105.979 936.456 105.776C936.722 105.573 936.904 105.243 937 104.784L937.96 105.088C937.864 105.707 937.586 106.181 937.128 106.512C936.68 106.843 936.141 107.008 935.512 107.008C935.224 107.008 934.936 106.971 934.648 106.896C934.37 106.821 934.12 106.709 933.896 106.56C933.672 106.411 933.48 106.219 933.32 105.984C933.16 105.749 933.053 105.472 933 105.152L934.088 104.768ZM950.24 111.264L950.288 110.272H950.24L949.584 111.296L945.984 116H945.248V108H946.528V112.88L946.48 113.824H946.544L947.168 112.832L950.768 108H951.52V116H950.24V111.264ZM958.878 112.464H955.262V116H953.982V108H955.262V111.344H958.878V108H960.158V116H958.878V112.464ZM966.223 116.064C966.041 116.128 965.849 116.165 965.647 116.176C965.455 116.187 965.279 116.192 965.119 116.192C964.148 116.192 963.401 115.851 962.879 115.168C962.356 114.485 962.095 113.429 962.095 112C962.095 110.635 962.383 109.605 962.959 108.912C963.535 108.219 964.367 107.872 965.455 107.872C965.753 107.872 966.009 107.893 966.223 107.936V104.8H967.439V107.952C967.631 107.92 967.801 107.899 967.951 107.888C968.1 107.877 968.244 107.872 968.383 107.872C969.439 107.872 970.233 108.181 970.767 108.8C971.3 109.408 971.567 110.421 971.567 111.84C971.567 112.512 971.492 113.12 971.343 113.664C971.204 114.197 970.996 114.651 970.719 115.024C970.441 115.397 970.1 115.685 969.695 115.888C969.3 116.091 968.841 116.192 968.319 116.192C968.223 116.192 968.079 116.181 967.887 116.16C967.705 116.149 967.556 116.123 967.439 116.08V119.2H966.223V116.064ZM968.143 108.928C968.015 108.928 967.897 108.933 967.791 108.944C967.695 108.944 967.572 108.965 967.423 109.008V115.088C967.529 115.109 967.647 115.125 967.775 115.136C967.913 115.136 968.063 115.136 968.223 115.136C968.905 115.136 969.417 114.853 969.759 114.288C970.111 113.723 970.287 112.907 970.287 111.84C970.287 110.933 970.127 110.224 969.807 109.712C969.497 109.189 968.943 108.928 968.143 108.928ZM965.439 115.136C965.567 115.136 965.695 115.131 965.823 115.12C965.951 115.109 966.089 115.088 966.239 115.056V108.992C966.111 108.971 965.988 108.955 965.871 108.944C965.764 108.933 965.631 108.928 965.471 108.928C964.809 108.928 964.292 109.179 963.919 109.68C963.556 110.171 963.375 110.944 963.375 112C963.375 112.448 963.412 112.864 963.487 113.248C963.572 113.632 963.7 113.968 963.871 114.256C964.041 114.533 964.255 114.752 964.511 114.912C964.777 115.061 965.087 115.136 965.439 115.136ZM973.05 112C973.05 110.645 973.348 109.611 973.946 108.896C974.554 108.171 975.423 107.808 976.554 107.808C977.151 107.808 977.668 107.909 978.106 108.112C978.554 108.304 978.922 108.587 979.21 108.96C979.498 109.323 979.711 109.765 979.85 110.288C979.988 110.8 980.058 111.371 980.058 112C980.058 113.355 979.754 114.395 979.146 115.12C978.548 115.835 977.684 116.192 976.554 116.192C975.956 116.192 975.434 116.096 974.986 115.904C974.548 115.701 974.186 115.419 973.898 115.056C973.61 114.683 973.396 114.24 973.258 113.728C973.119 113.205 973.05 112.629 973.05 112ZM974.378 112C974.378 112.405 974.415 112.795 974.49 113.168C974.575 113.541 974.703 113.867 974.874 114.144C975.044 114.421 975.268 114.645 975.546 114.816C975.823 114.987 976.159 115.072 976.554 115.072C978.004 115.083 978.73 114.059 978.73 112C978.73 111.584 978.687 111.189 978.602 110.816C978.527 110.443 978.404 110.117 978.234 109.84C978.063 109.563 977.839 109.344 977.562 109.184C977.284 109.013 976.948 108.928 976.554 108.928C975.103 108.917 974.378 109.941 974.378 112ZM982.076 108H982.956L983.196 108.96H983.26C983.505 108.587 983.82 108.304 984.204 108.112C984.598 107.909 985.046 107.808 985.548 107.808C986.614 107.808 987.409 108.123 987.932 108.752C988.454 109.381 988.716 110.411 988.716 111.84C988.716 112.512 988.625 113.12 988.444 113.664C988.273 114.197 988.028 114.651 987.708 115.024C987.388 115.397 986.998 115.685 986.54 115.888C986.092 116.091 985.59 116.192 985.036 116.192C984.641 116.192 984.326 116.165 984.092 116.112C983.868 116.069 983.622 115.989 983.356 115.872V119.2H982.076V108ZM985.308 108.928C984.764 108.928 984.332 109.072 984.012 109.36C983.702 109.637 983.484 110.064 983.356 110.64V114.608C983.548 114.757 983.766 114.875 984.012 114.96C984.257 115.035 984.582 115.072 984.988 115.072C985.724 115.072 986.305 114.8 986.732 114.256C987.169 113.701 987.388 112.891 987.388 111.824C987.388 111.387 987.35 110.992 987.276 110.64C987.201 110.277 987.078 109.973 986.908 109.728C986.748 109.472 986.534 109.275 986.268 109.136C986.012 108.997 985.692 108.928 985.308 108.928ZM997.34 111.248L997.436 109.728H997.356L996.78 110.96L994.844 114.096H994.396L992.38 110.96L991.852 109.728H991.788L991.916 111.232V116H990.732V108H991.996L994.236 111.584L994.7 112.512H994.732L995.212 111.552L997.308 108H998.588V116H997.34V111.248ZM1000.92 108.592C1001.32 108.347 1001.79 108.165 1002.32 108.048C1002.87 107.931 1003.43 107.872 1004.02 107.872C1004.58 107.872 1005.02 107.947 1005.35 108.096C1005.69 108.245 1005.95 108.443 1006.12 108.688C1006.3 108.923 1006.42 109.184 1006.47 109.472C1006.53 109.76 1006.56 110.048 1006.56 110.336C1006.56 110.976 1006.55 111.6 1006.52 112.208C1006.48 112.816 1006.47 113.392 1006.47 113.936C1006.47 114.331 1006.48 114.704 1006.52 115.056C1006.55 115.408 1006.61 115.733 1006.69 116.032H1005.75L1005.41 114.912H1005.33C1005.24 115.061 1005.11 115.211 1004.96 115.36C1004.83 115.499 1004.66 115.627 1004.45 115.744C1004.25 115.851 1004.02 115.941 1003.75 116.016C1003.48 116.091 1003.18 116.128 1002.84 116.128C1002.5 116.128 1002.18 116.075 1001.88 115.968C1001.59 115.861 1001.34 115.712 1001.12 115.52C1000.91 115.317 1000.74 115.077 1000.61 114.8C1000.5 114.523 1000.44 114.208 1000.44 113.856C1000.44 113.387 1000.53 112.997 1000.72 112.688C1000.92 112.368 1001.18 112.117 1001.52 111.936C1001.88 111.744 1002.29 111.611 1002.77 111.536C1003.26 111.451 1003.8 111.408 1004.39 111.408C1004.54 111.408 1004.68 111.408 1004.82 111.408C1004.97 111.408 1005.12 111.419 1005.27 111.44C1005.3 111.12 1005.32 110.832 1005.32 110.576C1005.32 109.989 1005.2 109.579 1004.96 109.344C1004.73 109.109 1004.3 108.992 1003.68 108.992C1003.5 108.992 1003.31 109.008 1003.09 109.04C1002.89 109.061 1002.68 109.099 1002.45 109.152C1002.24 109.195 1002.03 109.253 1001.83 109.328C1001.64 109.392 1001.47 109.467 1001.32 109.552L1000.92 108.592ZM1003.19 115.008C1003.49 115.008 1003.75 114.971 1003.99 114.896C1004.22 114.811 1004.43 114.709 1004.6 114.592C1004.77 114.464 1004.91 114.325 1005.01 114.176C1005.13 114.027 1005.22 113.883 1005.27 113.744V112.416C1005.12 112.405 1004.96 112.4 1004.8 112.4C1004.66 112.389 1004.51 112.384 1004.36 112.384C1004.03 112.384 1003.7 112.405 1003.38 112.448C1003.07 112.48 1002.79 112.549 1002.55 112.656C1002.31 112.752 1002.12 112.891 1001.97 113.072C1001.83 113.243 1001.76 113.461 1001.76 113.728C1001.76 114.101 1001.9 114.411 1002.16 114.656C1002.43 114.891 1002.77 115.008 1003.19 115.008ZM1016.17 118.032H1015.3L1015.06 116H1008.98V108H1010.26V114.88H1013.73V108H1015.01V114.88H1016.17V118.032ZM1022.74 111.264L1022.79 110.272H1022.74L1022.08 111.296L1018.48 116H1017.75V108H1019.03V112.88L1018.98 113.824H1019.04L1019.67 112.832L1023.27 108H1024.02V116H1022.74V111.264ZM1026.03 112C1026.03 110.645 1026.33 109.611 1026.93 108.896C1027.54 108.171 1028.41 107.808 1029.54 107.808C1030.14 107.808 1030.65 107.909 1031.09 108.112C1031.54 108.304 1031.91 108.587 1032.19 108.96C1032.48 109.323 1032.7 109.765 1032.83 110.288C1032.97 110.8 1033.04 111.371 1033.04 112C1033.04 113.355 1032.74 114.395 1032.13 115.12C1031.53 115.835 1030.67 116.192 1029.54 116.192C1028.94 116.192 1028.42 116.096 1027.97 115.904C1027.53 115.701 1027.17 115.419 1026.88 115.056C1026.59 114.683 1026.38 114.24 1026.24 113.728C1026.1 113.205 1026.03 112.629 1026.03 112ZM1027.36 112C1027.36 112.405 1027.4 112.795 1027.47 113.168C1027.56 113.541 1027.69 113.867 1027.86 114.144C1028.03 114.421 1028.25 114.645 1028.53 114.816C1028.81 114.987 1029.14 115.072 1029.54 115.072C1030.99 115.083 1031.71 114.059 1031.71 112C1031.71 111.584 1031.67 111.189 1031.59 110.816C1031.51 110.443 1031.39 110.117 1031.22 109.84C1031.05 109.563 1030.82 109.344 1030.55 109.184C1030.27 109.013 1029.93 108.928 1029.54 108.928C1028.09 108.917 1027.36 109.941 1027.36 112ZM1039.96 112.464H1036.34V116H1035.06V108H1036.34V111.344H1039.96V108H1041.24V116H1039.96V112.464ZM1048.6 112.464H1044.98V116H1043.7V108H1044.98V111.344H1048.6V108H1049.88V116H1048.6V112.464ZM1051.89 112C1051.89 110.645 1052.19 109.611 1052.79 108.896C1053.4 108.171 1054.27 107.808 1055.4 107.808C1055.99 107.808 1056.51 107.909 1056.95 108.112C1057.4 108.304 1057.77 108.587 1058.05 108.96C1058.34 109.323 1058.55 109.765 1058.69 110.288C1058.83 110.8 1058.9 111.371 1058.9 112C1058.9 113.355 1058.6 114.395 1057.99 115.12C1057.39 115.835 1056.53 116.192 1055.4 116.192C1054.8 116.192 1054.28 116.096 1053.83 115.904C1053.39 115.701 1053.03 115.419 1052.74 115.056C1052.45 114.683 1052.24 114.24 1052.1 113.728C1051.96 113.205 1051.89 112.629 1051.89 112ZM1053.22 112C1053.22 112.405 1053.26 112.795 1053.33 113.168C1053.42 113.541 1053.55 113.867 1053.72 114.144C1053.89 114.421 1054.11 114.645 1054.39 114.816C1054.67 114.987 1055 115.072 1055.4 115.072C1056.85 115.083 1057.57 114.059 1057.57 112C1057.57 111.584 1057.53 111.189 1057.45 110.816C1057.37 110.443 1057.25 110.117 1057.08 109.84C1056.91 109.563 1056.68 109.344 1056.41 109.184C1056.13 109.013 1055.79 108.928 1055.4 108.928C1053.95 108.917 1053.22 109.941 1053.22 112ZM1065.91 111.264L1065.96 110.272H1065.91L1065.26 111.296L1061.66 116H1060.92V108H1062.2V112.88L1062.15 113.824H1062.22L1062.84 112.832L1066.44 108H1067.19V116H1065.91V111.264ZM1062.76 104.768C1062.87 105.259 1063.05 105.6 1063.3 105.792C1063.57 105.984 1063.87 106.08 1064.22 106.08C1064.56 106.08 1064.86 105.979 1065.13 105.776C1065.39 105.573 1065.58 105.243 1065.67 104.784L1066.63 105.088C1066.54 105.707 1066.26 106.181 1065.8 106.512C1065.35 106.843 1064.81 107.008 1064.18 107.008C1063.9 107.008 1063.61 106.971 1063.32 106.896C1063.04 106.821 1062.79 106.709 1062.57 106.56C1062.34 106.411 1062.15 106.219 1061.99 105.984C1061.83 105.749 1061.72 105.472 1061.67 105.152L1062.76 104.768ZM1079.38 115.472C1079.06 115.707 1078.68 115.883 1078.24 116C1077.8 116.128 1077.34 116.192 1076.86 116.192C1076.24 116.192 1075.72 116.096 1075.3 115.904C1074.87 115.701 1074.52 115.419 1074.24 115.056C1073.97 114.683 1073.78 114.24 1073.65 113.728C1073.53 113.205 1073.47 112.629 1073.47 112C1073.47 110.645 1073.77 109.611 1074.37 108.896C1074.96 108.171 1075.82 107.808 1076.94 107.808C1077.46 107.808 1077.89 107.851 1078.24 107.936C1078.6 108.011 1078.93 108.123 1079.22 108.272L1078.85 109.376C1078.6 109.237 1078.33 109.131 1078.03 109.056C1077.73 108.971 1077.41 108.928 1077.07 108.928C1075.56 108.928 1074.8 109.952 1074.8 112C1074.8 112.405 1074.84 112.795 1074.91 113.168C1075 113.531 1075.13 113.856 1075.31 114.144C1075.5 114.421 1075.75 114.645 1076.05 114.816C1076.36 114.987 1076.74 115.072 1077.18 115.072C1077.57 115.072 1077.91 115.013 1078.21 114.896C1078.52 114.779 1078.77 114.645 1078.96 114.496L1079.38 115.472ZM1086.13 111.264L1086.18 110.272H1086.13L1085.47 111.296L1081.87 116H1081.14V108H1082.42V112.88L1082.37 113.824H1082.43L1083.06 112.832L1086.66 108H1087.41V116H1086.13V111.264ZM1095.33 115.472C1095.01 115.707 1094.63 115.883 1094.19 116C1093.76 116.128 1093.3 116.192 1092.82 116.192C1092.2 116.192 1091.68 116.096 1091.25 115.904C1090.82 115.701 1090.47 115.419 1090.19 115.056C1089.93 114.683 1089.73 114.24 1089.6 113.728C1089.48 113.205 1089.42 112.629 1089.42 112C1089.42 110.645 1089.72 109.611 1090.32 108.896C1090.92 108.171 1091.78 107.808 1092.9 107.808C1093.41 107.808 1093.84 107.851 1094.19 107.936C1094.56 108.011 1094.88 108.123 1095.17 108.272L1094.8 109.376C1094.56 109.237 1094.28 109.131 1093.98 109.056C1093.69 108.971 1093.37 108.928 1093.02 108.928C1091.51 108.928 1090.75 109.952 1090.75 112C1090.75 112.405 1090.79 112.795 1090.86 113.168C1090.95 113.531 1091.08 113.856 1091.26 114.144C1091.46 114.421 1091.7 114.645 1092 114.816C1092.31 114.987 1092.69 115.072 1093.14 115.072C1093.52 115.072 1093.86 115.013 1094.16 114.896C1094.47 114.779 1094.72 114.645 1094.91 114.496L1095.33 115.472ZM1101.93 109.12H1099.43V116H1098.15V109.12H1095.66V108H1101.93V109.12ZM1108.79 115.36C1108.47 115.616 1108.07 115.819 1107.57 115.968C1107.09 116.117 1106.58 116.192 1106.04 116.192C1105.43 116.192 1104.9 116.096 1104.45 115.904C1104.01 115.701 1103.64 115.419 1103.35 115.056C1103.06 114.683 1102.85 114.24 1102.71 113.728C1102.57 113.216 1102.5 112.64 1102.5 112C1102.5 110.635 1102.81 109.595 1103.41 108.88C1104.02 108.165 1104.89 107.808 1106.02 107.808C1106.39 107.808 1106.75 107.851 1107.11 107.936C1107.47 108.011 1107.8 108.16 1108.09 108.384C1108.37 108.608 1108.61 108.928 1108.79 109.344C1108.97 109.749 1109.06 110.288 1109.06 110.96C1109.06 111.312 1109.03 111.701 1108.97 112.128H1103.83C1103.83 112.597 1103.88 113.013 1103.97 113.376C1104.07 113.739 1104.22 114.048 1104.42 114.304C1104.63 114.549 1104.89 114.741 1105.21 114.88C1105.54 115.008 1105.94 115.072 1106.41 115.072C1106.77 115.072 1107.13 115.008 1107.49 114.88C1107.86 114.752 1108.13 114.603 1108.31 114.432L1108.79 115.36ZM1106.04 108.928C1105.41 108.928 1104.9 109.093 1104.52 109.424C1104.15 109.755 1103.92 110.32 1103.85 111.12H1107.81C1107.81 110.309 1107.66 109.744 1107.35 109.424C1107.04 109.093 1106.6 108.928 1106.04 108.928ZM1117.68 111.248L1117.78 109.728H1117.7L1117.12 110.96L1115.19 114.096H1114.74L1112.72 110.96L1112.2 109.728H1112.13L1112.26 111.232V116H1111.08V108H1112.34L1114.58 111.584L1115.04 112.512H1115.08L1115.56 111.552L1117.65 108H1118.93V116H1117.68V111.248ZM1120.94 112C1120.94 110.645 1121.24 109.611 1121.84 108.896C1122.44 108.171 1123.31 107.808 1124.44 107.808C1125.04 107.808 1125.56 107.909 1126 108.112C1126.44 108.304 1126.81 108.587 1127.1 108.96C1127.39 109.323 1127.6 109.765 1127.74 110.288C1127.88 110.8 1127.95 111.371 1127.95 112C1127.95 113.355 1127.64 114.395 1127.04 115.12C1126.44 115.835 1125.57 116.192 1124.44 116.192C1123.85 116.192 1123.32 116.096 1122.88 115.904C1122.44 115.701 1122.08 115.419 1121.79 115.056C1121.5 114.683 1121.29 114.24 1121.15 113.728C1121.01 113.205 1120.94 112.629 1120.94 112ZM1122.27 112C1122.27 112.405 1122.31 112.795 1122.38 113.168C1122.47 113.541 1122.59 113.867 1122.76 114.144C1122.93 114.421 1123.16 114.645 1123.44 114.816C1123.71 114.987 1124.05 115.072 1124.44 115.072C1125.89 115.083 1126.62 114.059 1126.62 112C1126.62 111.584 1126.58 111.189 1126.49 110.816C1126.42 110.443 1126.29 110.117 1126.12 109.84C1125.95 109.563 1125.73 109.344 1125.45 109.184C1125.17 109.013 1124.84 108.928 1124.44 108.928C1122.99 108.917 1122.27 109.941 1122.27 112ZM1134.96 111.264L1135.01 110.272H1134.96L1134.3 111.296L1130.7 116H1129.97V108H1131.25V112.88L1131.2 113.824H1131.26L1131.89 112.832L1135.49 108H1136.24V116H1134.96V111.264ZM1131.81 104.768C1131.91 105.259 1132.09 105.6 1132.35 105.792C1132.62 105.984 1132.92 106.08 1133.26 106.08C1133.6 106.08 1133.91 105.979 1134.17 105.776C1134.44 105.573 1134.62 105.243 1134.72 104.784L1135.68 105.088C1135.58 105.707 1135.31 106.181 1134.85 106.512C1134.4 106.843 1133.86 107.008 1133.23 107.008C1132.94 107.008 1132.65 106.971 1132.37 106.896C1132.09 106.821 1131.84 106.709 1131.61 106.56C1131.39 106.411 1131.2 106.219 1131.04 105.984C1130.88 105.749 1130.77 105.472 1130.72 105.152L1131.81 104.768ZM823.232 132.016C823.605 131.995 823.995 131.968 824.4 131.936C824.816 131.904 825.328 131.888 825.936 131.888C826.992 131.888 827.749 132.053 828.208 132.384C828.667 132.704 828.896 133.195 828.896 133.856C828.896 134.229 828.784 134.597 828.56 134.96C828.347 135.312 827.989 135.573 827.488 135.744V135.808C828.117 135.925 828.56 136.144 828.816 136.464C829.072 136.784 829.2 137.211 829.2 137.744C829.2 138.576 828.901 139.179 828.304 139.552C827.707 139.925 826.811 140.112 825.616 140.112C825.168 140.112 824.752 140.096 824.368 140.064C823.984 140.043 823.605 140.016 823.232 139.984V132.016ZM824.512 138.928C824.715 138.949 824.912 138.965 825.104 138.976C825.307 138.987 825.541 138.992 825.808 138.992C826.523 138.992 827.051 138.891 827.392 138.688C827.744 138.485 827.92 138.139 827.92 137.648C827.92 137.264 827.771 136.955 827.472 136.72C827.184 136.475 826.667 136.352 825.92 136.352H824.512V138.928ZM826.08 135.376C826.272 135.376 826.459 135.344 826.64 135.28C826.821 135.216 826.981 135.131 827.12 135.024C827.269 134.907 827.387 134.773 827.472 134.624C827.568 134.475 827.616 134.315 827.616 134.144C827.616 133.717 827.488 133.424 827.232 133.264C826.976 133.093 826.528 133.008 825.888 133.008C825.547 133.008 825.275 133.013 825.072 133.024C824.88 133.035 824.693 133.045 824.512 133.056V135.376H826.08ZM835.034 136C835.034 134.645 835.333 133.611 835.93 132.896C836.538 132.171 837.407 131.808 838.538 131.808C839.135 131.808 839.653 131.909 840.09 132.112C840.538 132.304 840.906 132.587 841.194 132.96C841.482 133.323 841.695 133.765 841.834 134.288C841.973 134.8 842.042 135.371 842.042 136C842.042 137.355 841.738 138.395 841.13 139.12C840.533 139.835 839.669 140.192 838.538 140.192C837.941 140.192 837.418 140.096 836.97 139.904C836.533 139.701 836.17 139.419 835.882 139.056C835.594 138.683 835.381 138.24 835.242 137.728C835.103 137.205 835.034 136.629 835.034 136ZM836.362 136C836.362 136.405 836.399 136.795 836.474 137.168C836.559 137.541 836.687 137.867 836.858 138.144C837.029 138.421 837.253 138.645 837.53 138.816C837.807 138.987 838.143 139.072 838.538 139.072C839.989 139.083 840.714 138.059 840.714 136C840.714 135.584 840.671 135.189 840.586 134.816C840.511 134.443 840.389 134.117 840.218 133.84C840.047 133.563 839.823 133.344 839.546 133.184C839.269 133.013 838.933 132.928 838.538 132.928C837.087 132.917 836.362 133.941 836.362 136ZM844.796 133.424C845.148 132.912 845.537 132.555 845.964 132.352C846.391 132.139 846.924 132.032 847.564 132.032C848.545 132.032 849.297 132.352 849.82 132.992C850.353 133.632 850.62 134.576 850.62 135.824C850.62 137.264 850.311 138.352 849.692 139.088C849.084 139.824 848.231 140.192 847.132 140.192C845.959 140.192 845.079 139.787 844.492 138.976C843.905 138.165 843.612 136.891 843.612 135.152C843.612 134.235 843.655 133.451 843.74 132.8C843.836 132.149 843.969 131.6 844.14 131.152C844.321 130.704 844.535 130.347 844.78 130.08C845.036 129.813 845.319 129.605 845.628 129.456C845.948 129.296 846.295 129.184 846.668 129.12C847.041 129.056 847.441 129.003 847.868 128.96C848.423 128.907 848.855 128.848 849.164 128.784C849.484 128.709 849.74 128.581 849.932 128.4L850.076 129.552C849.969 129.648 849.852 129.728 849.724 129.792C849.596 129.856 849.441 129.909 849.26 129.952C849.079 129.995 848.86 130.032 848.604 130.064C848.359 130.096 848.071 130.123 847.74 130.144C847.281 130.176 846.876 130.235 846.524 130.32C846.183 130.395 845.884 130.549 845.628 130.784C845.383 131.008 845.185 131.333 845.036 131.76C844.897 132.176 844.801 132.731 844.748 133.424H844.796ZM844.94 136.016C844.94 136.421 844.983 136.811 845.068 137.184C845.153 137.557 845.281 137.888 845.452 138.176C845.633 138.453 845.863 138.672 846.14 138.832C846.417 138.992 846.743 139.072 847.116 139.072C847.852 139.072 848.396 138.811 848.748 138.288C849.111 137.755 849.292 136.971 849.292 135.936C849.292 135.531 849.255 135.157 849.18 134.816C849.105 134.475 848.988 134.181 848.828 133.936C848.668 133.68 848.465 133.488 848.22 133.36C847.975 133.221 847.681 133.152 847.34 133.152C846.508 133.141 845.9 133.387 845.516 133.888C845.132 134.379 844.94 135.088 844.94 136.016ZM856.849 133.12H854.529C854.497 133.568 854.465 134.053 854.433 134.576C854.401 135.088 854.353 135.605 854.289 136.128C854.225 136.64 854.139 137.136 854.033 137.616C853.926 138.085 853.787 138.501 853.617 138.864C853.457 139.227 853.254 139.52 853.009 139.744C852.774 139.957 852.491 140.064 852.161 140.064C851.958 140.064 851.782 140.053 851.633 140.032C851.483 140.011 851.35 139.973 851.232 139.92L851.425 138.848C851.553 138.891 851.691 138.912 851.84 138.912C852.054 138.912 852.246 138.821 852.417 138.64C852.587 138.459 852.737 138.117 852.865 137.616C852.993 137.104 853.099 136.4 853.185 135.504C853.27 134.608 853.329 133.44 853.361 132H858.129V140H856.849V133.12ZM860.463 132.592C860.869 132.347 861.338 132.165 861.871 132.048C862.415 131.931 862.981 131.872 863.567 131.872C864.122 131.872 864.565 131.947 864.895 132.096C865.237 132.245 865.493 132.443 865.663 132.688C865.845 132.923 865.962 133.184 866.015 133.472C866.079 133.76 866.111 134.048 866.111 134.336C866.111 134.976 866.095 135.6 866.063 136.208C866.031 136.816 866.015 137.392 866.015 137.936C866.015 138.331 866.031 138.704 866.063 139.056C866.095 139.408 866.154 139.733 866.239 140.032H865.295L864.959 138.912H864.879C864.783 139.061 864.661 139.211 864.511 139.36C864.373 139.499 864.202 139.627 863.999 139.744C863.797 139.851 863.562 139.941 863.295 140.016C863.029 140.091 862.725 140.128 862.383 140.128C862.042 140.128 861.722 140.075 861.423 139.968C861.135 139.861 860.885 139.712 860.671 139.52C860.458 139.317 860.287 139.077 860.159 138.8C860.042 138.523 859.983 138.208 859.983 137.856C859.983 137.387 860.079 136.997 860.271 136.688C860.463 136.368 860.73 136.117 861.071 135.936C861.423 135.744 861.839 135.611 862.319 135.536C862.81 135.451 863.349 135.408 863.935 135.408C864.085 135.408 864.229 135.408 864.367 135.408C864.517 135.408 864.666 135.419 864.815 135.44C864.847 135.12 864.863 134.832 864.863 134.576C864.863 133.989 864.746 133.579 864.511 133.344C864.277 133.109 863.85 132.992 863.231 132.992C863.05 132.992 862.853 133.008 862.639 133.04C862.437 133.061 862.223 133.099 861.999 133.152C861.786 133.195 861.578 133.253 861.375 133.328C861.183 133.392 861.013 133.467 860.863 133.552L860.463 132.592ZM862.735 139.008C863.034 139.008 863.301 138.971 863.535 138.896C863.77 138.811 863.973 138.709 864.143 138.592C864.314 138.464 864.453 138.325 864.559 138.176C864.677 138.027 864.762 137.883 864.815 137.744V136.416C864.666 136.405 864.511 136.4 864.351 136.4C864.202 136.389 864.053 136.384 863.903 136.384C863.573 136.384 863.247 136.405 862.927 136.448C862.618 136.48 862.341 136.549 862.095 136.656C861.861 136.752 861.669 136.891 861.519 137.072C861.381 137.243 861.311 137.461 861.311 137.728C861.311 138.101 861.445 138.411 861.711 138.656C861.978 138.891 862.319 139.008 862.735 139.008ZM873.985 139.472C873.665 139.707 873.286 139.883 872.849 140C872.412 140.128 871.953 140.192 871.473 140.192C870.854 140.192 870.332 140.096 869.905 139.904C869.478 139.701 869.126 139.419 868.849 139.056C868.582 138.683 868.385 138.24 868.257 137.728C868.14 137.205 868.081 136.629 868.081 136C868.081 134.645 868.38 133.611 868.977 132.896C869.574 132.171 870.433 131.808 871.553 131.808C872.065 131.808 872.497 131.851 872.849 131.936C873.212 132.011 873.537 132.123 873.825 132.272L873.457 133.376C873.212 133.237 872.94 133.131 872.641 133.056C872.342 132.971 872.022 132.928 871.681 132.928C870.166 132.928 869.409 133.952 869.409 136C869.409 136.405 869.446 136.795 869.521 137.168C869.606 137.531 869.74 137.856 869.921 138.144C870.113 138.421 870.358 138.645 870.657 138.816C870.966 138.987 871.345 139.072 871.793 139.072C872.177 139.072 872.518 139.013 872.817 138.896C873.126 138.779 873.377 138.645 873.569 138.496L873.985 139.472ZM880.586 133.12H878.09V140H876.81V133.12H874.314V132H880.586V133.12ZM886.849 135.264L886.897 134.272H886.849L886.193 135.296L882.593 140H881.857V132H883.137V136.88L883.089 137.824H883.153L883.777 136.832L887.377 132H888.129V140H886.849V135.264ZM894.857 132.016C895.23 131.995 895.62 131.968 896.025 131.936C896.441 131.904 896.953 131.888 897.561 131.888C898.617 131.888 899.374 132.053 899.833 132.384C900.292 132.704 900.521 133.195 900.521 133.856C900.521 134.229 900.409 134.597 900.185 134.96C899.972 135.312 899.614 135.573 899.113 135.744V135.808C899.742 135.925 900.185 136.144 900.441 136.464C900.697 136.784 900.825 137.211 900.825 137.744C900.825 138.576 900.526 139.179 899.929 139.552C899.332 139.925 898.436 140.112 897.241 140.112C896.793 140.112 896.377 140.096 895.993 140.064C895.609 140.043 895.23 140.016 894.857 139.984V132.016ZM896.137 138.928C896.34 138.949 896.537 138.965 896.729 138.976C896.932 138.987 897.166 138.992 897.433 138.992C898.148 138.992 898.676 138.891 899.017 138.688C899.369 138.485 899.545 138.139 899.545 137.648C899.545 137.264 899.396 136.955 899.097 136.72C898.809 136.475 898.292 136.352 897.545 136.352H896.137V138.928ZM897.705 135.376C897.897 135.376 898.084 135.344 898.265 135.28C898.446 135.216 898.606 135.131 898.745 135.024C898.894 134.907 899.012 134.773 899.097 134.624C899.193 134.475 899.241 134.315 899.241 134.144C899.241 133.717 899.113 133.424 898.857 133.264C898.601 133.093 898.153 133.008 897.513 133.008C897.172 133.008 896.9 133.013 896.697 133.024C896.505 133.035 896.318 133.045 896.137 133.056V135.376H897.705ZM908.681 139.36C908.361 139.616 907.956 139.819 907.465 139.968C906.985 140.117 906.473 140.192 905.929 140.192C905.321 140.192 904.793 140.096 904.345 139.904C903.897 139.701 903.529 139.419 903.241 139.056C902.953 138.683 902.74 138.24 902.601 137.728C902.463 137.216 902.393 136.64 902.393 136C902.393 134.635 902.697 133.595 903.305 132.88C903.913 132.165 904.783 131.808 905.913 131.808C906.276 131.808 906.639 131.851 907.001 131.936C907.364 132.011 907.689 132.16 907.977 132.384C908.265 132.608 908.5 132.928 908.681 133.344C908.863 133.749 908.953 134.288 908.953 134.96C908.953 135.312 908.921 135.701 908.857 136.128H903.721C903.721 136.597 903.769 137.013 903.865 137.376C903.961 137.739 904.111 138.048 904.313 138.304C904.516 138.549 904.777 138.741 905.097 138.88C905.428 139.008 905.828 139.072 906.297 139.072C906.66 139.072 907.023 139.008 907.385 138.88C907.748 138.752 908.02 138.603 908.201 138.432L908.681 139.36ZM905.929 132.928C905.3 132.928 904.793 133.093 904.409 133.424C904.036 133.755 903.812 134.32 903.737 135.12H907.705C907.705 134.309 907.551 133.744 907.241 133.424C906.932 133.093 906.495 132.928 905.929 132.928ZM916.054 133.12H913.558V140H912.278V133.12H909.782V132H916.054V133.12ZM922.916 139.36C922.596 139.616 922.19 139.819 921.7 139.968C921.22 140.117 920.708 140.192 920.164 140.192C919.556 140.192 919.028 140.096 918.58 139.904C918.132 139.701 917.764 139.419 917.476 139.056C917.188 138.683 916.974 138.24 916.836 137.728C916.697 137.216 916.628 136.64 916.628 136C916.628 134.635 916.932 133.595 917.54 132.88C918.148 132.165 919.017 131.808 920.148 131.808C920.51 131.808 920.873 131.851 921.236 131.936C921.598 132.011 921.924 132.16 922.212 132.384C922.5 132.608 922.734 132.928 922.916 133.344C923.097 133.749 923.188 134.288 923.188 134.96C923.188 135.312 923.156 135.701 923.092 136.128H917.956C917.956 136.597 918.004 137.013 918.1 137.376C918.196 137.739 918.345 138.048 918.548 138.304C918.75 138.549 919.012 138.741 919.332 138.88C919.662 139.008 920.062 139.072 920.532 139.072C920.894 139.072 921.257 139.008 921.62 138.88C921.982 138.752 922.254 138.603 922.436 138.432L922.916 139.36ZM920.164 132.928C919.534 132.928 919.028 133.093 918.644 133.424C918.27 133.755 918.046 134.32 917.972 135.12H921.94C921.94 134.309 921.785 133.744 921.476 133.424C921.166 133.093 920.729 132.928 920.164 132.928ZM925.201 132H926.081L926.321 132.96H926.385C926.63 132.587 926.945 132.304 927.329 132.112C927.723 131.909 928.171 131.808 928.673 131.808C929.739 131.808 930.534 132.123 931.057 132.752C931.579 133.381 931.841 134.411 931.841 135.84C931.841 136.512 931.75 137.12 931.569 137.664C931.398 138.197 931.153 138.651 930.833 139.024C930.513 139.397 930.123 139.685 929.665 139.888C929.217 140.091 928.715 140.192 928.161 140.192C927.766 140.192 927.451 140.165 927.217 140.112C926.993 140.069 926.747 139.989 926.481 139.872V143.2H925.201V132ZM928.433 132.928C927.889 132.928 927.457 133.072 927.137 133.36C926.827 133.637 926.609 134.064 926.481 134.64V138.608C926.673 138.757 926.891 138.875 927.137 138.96C927.382 139.035 927.707 139.072 928.113 139.072C928.849 139.072 929.43 138.8 929.857 138.256C930.294 137.701 930.513 136.891 930.513 135.824C930.513 135.387 930.475 134.992 930.401 134.64C930.326 134.277 930.203 133.973 930.033 133.728C929.873 133.472 929.659 133.275 929.393 133.136C929.137 132.997 928.817 132.928 928.433 132.928ZM938.849 135.264L938.897 134.272H938.849L938.193 135.296L934.593 140H933.857V132H935.137V136.88L935.089 137.824H935.153L935.777 136.832L939.377 132H940.129V140H938.849V135.264ZM947.487 136.464H943.871V140H942.591V132H943.871V135.344H947.487V132H948.767V140H947.487V136.464ZM951.104 132.592C951.509 132.347 951.979 132.165 952.512 132.048C953.056 131.931 953.621 131.872 954.208 131.872C954.763 131.872 955.205 131.947 955.536 132.096C955.877 132.245 956.133 132.443 956.304 132.688C956.485 132.923 956.603 133.184 956.656 133.472C956.72 133.76 956.752 134.048 956.752 134.336C956.752 134.976 956.736 135.6 956.704 136.208C956.672 136.816 956.656 137.392 956.656 137.936C956.656 138.331 956.672 138.704 956.704 139.056C956.736 139.408 956.795 139.733 956.88 140.032H955.936L955.6 138.912H955.52C955.424 139.061 955.301 139.211 955.152 139.36C955.013 139.499 954.843 139.627 954.64 139.744C954.437 139.851 954.203 139.941 953.936 140.016C953.669 140.091 953.365 140.128 953.024 140.128C952.683 140.128 952.363 140.075 952.064 139.968C951.776 139.861 951.525 139.712 951.312 139.52C951.099 139.317 950.928 139.077 950.8 138.8C950.683 138.523 950.624 138.208 950.624 137.856C950.624 137.387 950.72 136.997 950.912 136.688C951.104 136.368 951.371 136.117 951.712 135.936C952.064 135.744 952.48 135.611 952.96 135.536C953.451 135.451 953.989 135.408 954.576 135.408C954.725 135.408 954.869 135.408 955.008 135.408C955.157 135.408 955.307 135.419 955.456 135.44C955.488 135.12 955.504 134.832 955.504 134.576C955.504 133.989 955.387 133.579 955.152 133.344C954.917 133.109 954.491 132.992 953.872 132.992C953.691 132.992 953.493 133.008 953.28 133.04C953.077 133.061 952.864 133.099 952.64 133.152C952.427 133.195 952.219 133.253 952.016 133.328C951.824 133.392 951.653 133.467 951.504 133.552L951.104 132.592ZM953.376 139.008C953.675 139.008 953.941 138.971 954.176 138.896C954.411 138.811 954.613 138.709 954.784 138.592C954.955 138.464 955.093 138.325 955.2 138.176C955.317 138.027 955.403 137.883 955.456 137.744V136.416C955.307 136.405 955.152 136.4 954.992 136.4C954.843 136.389 954.693 136.384 954.544 136.384C954.213 136.384 953.888 136.405 953.568 136.448C953.259 136.48 952.981 136.549 952.736 136.656C952.501 136.752 952.309 136.891 952.16 137.072C952.021 137.243 951.952 137.461 951.952 137.728C951.952 138.101 952.085 138.411 952.352 138.656C952.619 138.891 952.96 139.008 953.376 139.008ZM959.17 132H960.049L960.289 132.96H960.354C960.599 132.587 960.914 132.304 961.298 132.112C961.692 131.909 962.14 131.808 962.641 131.808C963.708 131.808 964.503 132.123 965.026 132.752C965.548 133.381 965.81 134.411 965.81 135.84C965.81 136.512 965.719 137.12 965.538 137.664C965.367 138.197 965.122 138.651 964.802 139.024C964.482 139.397 964.092 139.685 963.634 139.888C963.186 140.091 962.684 140.192 962.13 140.192C961.735 140.192 961.42 140.165 961.186 140.112C960.962 140.069 960.716 139.989 960.45 139.872V143.2H959.17V132ZM962.402 132.928C961.858 132.928 961.426 133.072 961.106 133.36C960.796 133.637 960.578 134.064 960.45 134.64V138.608C960.642 138.757 960.86 138.875 961.106 138.96C961.351 139.035 961.676 139.072 962.082 139.072C962.818 139.072 963.399 138.8 963.826 138.256C964.263 137.701 964.482 136.891 964.482 135.824C964.482 135.387 964.444 134.992 964.37 134.64C964.295 134.277 964.172 133.973 964.002 133.728C963.842 133.472 963.628 133.275 963.362 133.136C963.106 132.997 962.786 132.928 962.402 132.928ZM972.818 135.264L972.866 134.272H972.818L972.162 135.296L968.562 140H967.826V132H969.106V136.88L969.058 137.824H969.122L969.746 136.832L973.346 132H974.098V140H972.818V135.264ZM981.552 135.264L981.6 134.272H981.552L980.896 135.296L977.296 140H976.56V132H977.84V136.88L977.792 137.824H977.856L978.48 136.832L982.08 132H982.832V140H981.552V135.264ZM984.847 139.264C984.847 138.976 984.927 138.752 985.087 138.592C985.257 138.421 985.481 138.336 985.759 138.336C986.047 138.336 986.276 138.421 986.447 138.592C986.617 138.752 986.703 138.976 986.703 139.264C986.703 139.541 986.617 139.765 986.447 139.936C986.276 140.107 986.047 140.192 985.759 140.192C985.481 140.192 985.257 140.107 985.087 139.936C984.927 139.765 984.847 139.541 984.847 139.264Z" fill="#333333"/>
<path d="M828.734 181.02H824.982V189H822.91V179.2H830.806V189H828.734V181.02ZM832.309 185.332C832.309 184.119 832.631 183.167 833.275 182.476C833.919 181.785 834.838 181.44 836.033 181.44C836.658 181.44 837.204 181.538 837.671 181.734C838.137 181.93 838.525 182.205 838.833 182.56C839.141 182.905 839.369 183.316 839.519 183.792C839.677 184.259 839.757 184.772 839.757 185.332C839.757 185.929 839.673 186.471 839.505 186.956C839.337 187.432 839.094 187.838 838.777 188.174C838.459 188.51 838.067 188.767 837.601 188.944C837.143 189.121 836.621 189.21 836.033 189.21C835.398 189.21 834.847 189.112 834.381 188.916C833.914 188.72 833.527 188.449 833.219 188.104C832.911 187.749 832.682 187.339 832.533 186.872C832.383 186.396 832.309 185.883 832.309 185.332ZM834.325 185.332C834.325 185.64 834.357 185.929 834.423 186.2C834.488 186.471 834.586 186.709 834.717 186.914C834.857 187.11 835.034 187.269 835.249 187.39C835.463 187.511 835.725 187.572 836.033 187.572C837.171 187.572 837.741 186.825 837.741 185.332C837.741 185.005 837.708 184.707 837.643 184.436C837.587 184.156 837.489 183.918 837.349 183.722C837.218 183.517 837.041 183.358 836.817 183.246C836.602 183.134 836.341 183.078 836.033 183.078C835.501 183.078 835.081 183.255 834.773 183.61C834.474 183.965 834.325 184.539 834.325 185.332ZM849.182 190.666H847.81L847.558 189H841.986L841.72 190.666H840.348V187.264H841.272C841.356 187.152 841.468 186.965 841.608 186.704C841.757 186.443 841.897 186.088 842.028 185.64C842.168 185.192 842.284 184.641 842.378 183.988C842.48 183.325 842.536 182.546 842.546 181.65H848.006V187.264H849.182V190.666ZM846.046 187.362V183.288H844.212C844.193 183.652 844.156 184.03 844.1 184.422C844.044 184.814 843.974 185.192 843.89 185.556C843.806 185.92 843.708 186.261 843.596 186.578C843.484 186.895 843.362 187.157 843.232 187.362H846.046ZM850.475 181.65H851.875L852.113 182.56H852.281C852.57 182.187 852.906 181.907 853.289 181.72C853.671 181.533 854.119 181.44 854.633 181.44C855.622 181.44 856.364 181.739 856.859 182.336C857.353 182.924 857.601 183.862 857.601 185.15C857.601 185.766 857.521 186.326 857.363 186.83C857.204 187.325 856.971 187.754 856.663 188.118C856.355 188.473 855.972 188.748 855.515 188.944C855.067 189.131 854.549 189.224 853.961 189.224C853.643 189.224 853.368 189.191 853.135 189.126C852.901 189.07 852.668 188.991 852.435 188.888V191.786H850.475V181.65ZM854.031 183.078C853.583 183.078 853.237 183.181 852.995 183.386C852.752 183.582 852.565 183.89 852.435 184.31V187.166C852.593 187.297 852.771 187.399 852.967 187.474C853.163 187.549 853.41 187.586 853.709 187.586C854.343 187.586 854.815 187.39 855.123 186.998C855.431 186.597 855.585 185.962 855.585 185.094C855.585 184.469 855.463 183.979 855.221 183.624C854.987 183.26 854.591 183.078 854.031 183.078ZM858.777 185.332C858.777 184.119 859.099 183.167 859.743 182.476C860.387 181.785 861.307 181.44 862.501 181.44C863.127 181.44 863.673 181.538 864.139 181.734C864.606 181.93 864.993 182.205 865.301 182.56C865.609 182.905 865.838 183.316 865.987 183.792C866.146 184.259 866.225 184.772 866.225 185.332C866.225 185.929 866.141 186.471 865.973 186.956C865.805 187.432 865.563 187.838 865.245 188.174C864.928 188.51 864.536 188.767 864.069 188.944C863.612 189.121 863.089 189.21 862.501 189.21C861.867 189.21 861.316 189.112 860.849 188.916C860.383 188.72 859.995 188.449 859.687 188.104C859.379 187.749 859.151 187.339 859.001 186.872C858.852 186.396 858.777 185.883 858.777 185.332ZM860.793 185.332C860.793 185.64 860.826 185.929 860.891 186.2C860.957 186.471 861.055 186.709 861.185 186.914C861.325 187.11 861.503 187.269 861.717 187.39C861.932 187.511 862.193 187.572 862.501 187.572C863.64 187.572 864.209 186.825 864.209 185.332C864.209 185.005 864.177 184.707 864.111 184.436C864.055 184.156 863.957 183.918 863.817 183.722C863.687 183.517 863.509 183.358 863.285 183.246C863.071 183.134 862.809 183.078 862.501 183.078C861.969 183.078 861.549 183.255 861.241 183.61C860.943 183.965 860.793 184.539 860.793 185.332ZM869.126 183.204C869.444 182.784 869.808 182.476 870.218 182.28C870.638 182.084 871.142 181.986 871.73 181.986C872.692 181.986 873.452 182.247 874.012 182.77C874.572 183.293 874.852 184.114 874.852 185.234C874.852 186.541 874.53 187.53 873.886 188.202C873.252 188.874 872.346 189.21 871.17 189.21C869.938 189.21 869 188.837 868.356 188.09C867.722 187.343 867.404 186.181 867.404 184.604C867.404 183.764 867.456 183.055 867.558 182.476C867.67 181.888 867.82 181.403 868.006 181.02C868.202 180.628 868.436 180.325 868.706 180.11C868.977 179.886 869.276 179.718 869.602 179.606C869.938 179.485 870.298 179.405 870.68 179.368C871.063 179.321 871.464 179.279 871.884 179.242C872.416 179.195 872.874 179.144 873.256 179.088C873.648 179.023 873.947 178.915 874.152 178.766L874.222 180.46C874.008 180.619 873.709 180.726 873.326 180.782C872.944 180.829 872.412 180.875 871.73 180.922C871.32 180.95 870.956 180.983 870.638 181.02C870.321 181.057 870.046 181.151 869.812 181.3C869.579 181.44 869.392 181.659 869.252 181.958C869.112 182.257 869.01 182.677 868.944 183.218H869.07L869.126 183.204ZM869.42 185.486C869.42 185.785 869.453 186.06 869.518 186.312C869.593 186.564 869.7 186.783 869.84 186.97C869.98 187.157 870.158 187.306 870.372 187.418C870.587 187.521 870.839 187.572 871.128 187.572C871.744 187.572 872.183 187.39 872.444 187.026C872.706 186.662 872.836 186.153 872.836 185.5C872.836 184.884 872.71 184.417 872.458 184.1C872.216 183.783 871.805 183.624 871.226 183.624C870.61 183.624 870.153 183.792 869.854 184.128C869.565 184.455 869.42 184.907 869.42 185.486ZM881.197 186.158H878.411V189H876.451V181.65H878.411V184.38H881.197V181.65H883.157V189H881.197V186.158ZM891.46 188.328C891.143 188.571 890.709 188.781 890.158 188.958C889.617 189.126 889.033 189.21 888.408 189.21C887.148 189.21 886.224 188.865 885.636 188.174C885.048 187.483 884.754 186.536 884.754 185.332C884.754 184.053 885.085 183.087 885.748 182.434C886.411 181.771 887.344 181.44 888.548 181.44C888.94 181.44 889.327 181.491 889.71 181.594C890.093 181.687 890.433 181.851 890.732 182.084C891.031 182.308 891.269 182.616 891.446 183.008C891.633 183.391 891.726 183.867 891.726 184.436C891.726 184.632 891.712 184.847 891.684 185.08C891.665 185.313 891.628 185.556 891.572 185.808H886.672C886.719 186.443 886.901 186.914 887.218 187.222C887.545 187.521 888.072 187.67 888.8 187.67C889.239 187.67 889.631 187.609 889.976 187.488C890.331 187.357 890.601 187.227 890.788 187.096L891.46 188.328ZM888.52 182.98C887.941 182.98 887.512 183.139 887.232 183.456C886.952 183.764 886.789 184.161 886.742 184.646H889.906C889.943 184.133 889.85 183.727 889.626 183.428C889.402 183.129 889.033 182.98 888.52 182.98ZM899.69 188.328C899.373 188.571 898.939 188.781 898.388 188.958C897.847 189.126 897.264 189.21 896.638 189.21C895.378 189.21 894.454 188.865 893.866 188.174C893.278 187.483 892.984 186.536 892.984 185.332C892.984 184.053 893.316 183.087 893.978 182.434C894.641 181.771 895.574 181.44 896.778 181.44C897.17 181.44 897.558 181.491 897.94 181.594C898.323 181.687 898.664 181.851 898.962 182.084C899.261 182.308 899.499 182.616 899.676 183.008C899.863 183.391 899.956 183.867 899.956 184.436C899.956 184.632 899.942 184.847 899.914 185.08C899.896 185.313 899.858 185.556 899.802 185.808H894.902C894.949 186.443 895.131 186.914 895.448 187.222C895.775 187.521 896.302 187.67 897.03 187.67C897.469 187.67 897.861 187.609 898.206 187.488C898.561 187.357 898.832 187.227 899.018 187.096L899.69 188.328ZM896.75 182.98C896.172 182.98 895.742 183.139 895.462 183.456C895.182 183.764 895.019 184.161 894.972 184.646H898.136C898.174 184.133 898.08 183.727 897.856 183.428C897.632 183.129 897.264 182.98 896.75 182.98Z" fill="#F76201"/>
<path d="M822 190.4H900.712V191.1H822V190.4Z" fill="#F76201"/>
<path d="M910.75 188.5L914.75 184.5L910.75 180.5" stroke="#F76201" stroke-width="2" stroke-linecap="round" stroke-linejoin="round"/>
<path d="M6.734 180.02H2.982V188H0.91V178.2H8.806V188H6.734V180.02ZM10.3087 184.332C10.3087 183.119 10.6307 182.167 11.2747 181.476C11.9187 180.785 12.838 180.44 14.0327 180.44C14.658 180.44 15.204 180.538 15.6707 180.734C16.1374 180.93 16.5247 181.205 16.8327 181.56C17.1407 181.905 17.3694 182.316 17.5187 182.792C17.6774 183.259 17.7567 183.772 17.7567 184.332C17.7567 184.929 17.6727 185.471 17.5047 185.956C17.3367 186.432 17.094 186.838 16.7767 187.174C16.4594 187.51 16.0674 187.767 15.6007 187.944C15.1434 188.121 14.6207 188.21 14.0327 188.21C13.398 188.21 12.8474 188.112 12.3807 187.916C11.914 187.72 11.5267 187.449 11.2187 187.104C10.9107 186.749 10.682 186.339 10.5327 185.872C10.3834 185.396 10.3087 184.883 10.3087 184.332ZM12.3247 184.332C12.3247 184.64 12.3574 184.929 12.4227 185.2C12.488 185.471 12.586 185.709 12.7167 185.914C12.8567 186.11 13.034 186.269 13.2487 186.39C13.4634 186.511 13.7247 186.572 14.0327 186.572C15.1714 186.572 15.7407 185.825 15.7407 184.332C15.7407 184.005 15.708 183.707 15.6427 183.436C15.5867 183.156 15.4887 182.918 15.3487 182.722C15.218 182.517 15.0407 182.358 14.8167 182.246C14.602 182.134 14.3407 182.078 14.0327 182.078C13.5007 182.078 13.0807 182.255 12.7727 182.61C12.474 182.965 12.3247 183.539 12.3247 184.332ZM27.1817 189.666H25.8097L25.5577 188H19.9857L19.7197 189.666H18.3477V186.264H19.2717C19.3557 186.152 19.4677 185.965 19.6077 185.704C19.757 185.443 19.897 185.088 20.0277 184.64C20.1677 184.192 20.2843 183.641 20.3777 182.988C20.4803 182.325 20.5363 181.546 20.5457 180.65H26.0057V186.264H27.1817V189.666ZM24.0457 186.362V182.288H22.2117C22.193 182.652 22.1557 183.03 22.0997 183.422C22.0437 183.814 21.9737 184.192 21.8897 184.556C21.8057 184.92 21.7077 185.261 21.5957 185.578C21.4837 185.895 21.3623 186.157 21.2317 186.362H24.0457ZM28.4748 180.65H29.8748L30.1128 181.56H30.2808C30.5701 181.187 30.9061 180.907 31.2888 180.72C31.6715 180.533 32.1195 180.44 32.6328 180.44C33.6221 180.44 34.3641 180.739 34.8588 181.336C35.3535 181.924 35.6008 182.862 35.6008 184.15C35.6008 184.766 35.5215 185.326 35.3628 185.83C35.2041 186.325 34.9708 186.754 34.6628 187.118C34.3548 187.473 33.9721 187.748 33.5148 187.944C33.0668 188.131 32.5488 188.224 31.9608 188.224C31.6435 188.224 31.3681 188.191 31.1348 188.126C30.9015 188.07 30.6681 187.991 30.4348 187.888V190.786H28.4748V180.65ZM32.0308 182.078C31.5828 182.078 31.2375 182.181 30.9948 182.386C30.7521 182.582 30.5655 182.89 30.4348 183.31V186.166C30.5935 186.297 30.7708 186.399 30.9668 186.474C31.1628 186.549 31.4101 186.586 31.7088 186.586C32.3435 186.586 32.8148 186.39 33.1228 185.998C33.4308 185.597 33.5848 184.962 33.5848 184.094C33.5848 183.469 33.4635 182.979 33.2208 182.624C32.9875 182.26 32.5908 182.078 32.0308 182.078ZM36.7775 184.332C36.7775 183.119 37.0995 182.167 37.7435 181.476C38.3875 180.785 39.3068 180.44 40.5015 180.44C41.1268 180.44 41.6728 180.538 42.1395 180.734C42.6061 180.93 42.9935 181.205 43.3015 181.56C43.6095 181.905 43.8381 182.316 43.9875 182.792C44.1461 183.259 44.2255 183.772 44.2255 184.332C44.2255 184.929 44.1415 185.471 43.9735 185.956C43.8055 186.432 43.5628 186.838 43.2455 187.174C42.9281 187.51 42.5361 187.767 42.0695 187.944C41.6121 188.121 41.0895 188.21 40.5015 188.21C39.8668 188.21 39.3161 188.112 38.8495 187.916C38.3828 187.72 37.9955 187.449 37.6875 187.104C37.3795 186.749 37.1508 186.339 37.0015 185.872C36.8521 185.396 36.7775 184.883 36.7775 184.332ZM38.7935 184.332C38.7935 184.64 38.8261 184.929 38.8915 185.2C38.9568 185.471 39.0548 185.709 39.1855 185.914C39.3255 186.11 39.5028 186.269 39.7175 186.39C39.9321 186.511 40.1935 186.572 40.5015 186.572C41.6401 186.572 42.2095 185.825 42.2095 184.332C42.2095 184.005 42.1768 183.707 42.1115 183.436C42.0555 183.156 41.9575 182.918 41.8175 182.722C41.6868 182.517 41.5095 182.358 41.2855 182.246C41.0708 182.134 40.8095 182.078 40.5015 182.078C39.9695 182.078 39.5495 182.255 39.2415 182.61C38.9428 182.965 38.7935 183.539 38.7935 184.332ZM47.1264 182.204C47.4437 181.784 47.8077 181.476 48.2184 181.28C48.6384 181.084 49.1424 180.986 49.7304 180.986C50.6917 180.986 51.4524 181.247 52.0124 181.77C52.5724 182.293 52.8524 183.114 52.8524 184.234C52.8524 185.541 52.5304 186.53 51.8864 187.202C51.2517 187.874 50.3464 188.21 49.1704 188.21C47.9384 188.21 47.0004 187.837 46.3564 187.09C45.7217 186.343 45.4044 185.181 45.4044 183.604C45.4044 182.764 45.4557 182.055 45.5584 181.476C45.6704 180.888 45.8197 180.403 46.0064 180.02C46.2024 179.628 46.4357 179.325 46.7064 179.11C46.9771 178.886 47.2757 178.718 47.6024 178.606C47.9384 178.485 48.2977 178.405 48.6804 178.368C49.0631 178.321 49.4644 178.279 49.8844 178.242C50.4164 178.195 50.8737 178.144 51.2564 178.088C51.6484 178.023 51.9471 177.915 52.1524 177.766L52.2224 179.46C52.0077 179.619 51.7091 179.726 51.3264 179.782C50.9437 179.829 50.4117 179.875 49.7304 179.922C49.3197 179.95 48.9557 179.983 48.6384 180.02C48.3211 180.057 48.0457 180.151 47.8124 180.3C47.5791 180.44 47.3924 180.659 47.2524 180.958C47.1124 181.257 47.0097 181.677 46.9444 182.218H47.0704L47.1264 182.204ZM47.4204 184.486C47.4204 184.785 47.4531 185.06 47.5184 185.312C47.5931 185.564 47.7004 185.783 47.8404 185.97C47.9804 186.157 48.1577 186.306 48.3724 186.418C48.5871 186.521 48.8391 186.572 49.1284 186.572C49.7444 186.572 50.1831 186.39 50.4444 186.026C50.7057 185.662 50.8364 185.153 50.8364 184.5C50.8364 183.884 50.7104 183.417 50.4584 183.1C50.2157 182.783 49.8051 182.624 49.2264 182.624C48.6104 182.624 48.1531 182.792 47.8544 183.128C47.5651 183.455 47.4204 183.907 47.4204 184.486ZM59.1974 185.158H56.4114V188H54.4514V180.65H56.4114V183.38H59.1974V180.65H61.1574V188H59.1974V185.158ZM69.46 187.328C69.1427 187.571 68.7087 187.781 68.158 187.958C67.6167 188.126 67.0333 188.21 66.408 188.21C65.148 188.21 64.224 187.865 63.636 187.174C63.048 186.483 62.754 185.536 62.754 184.332C62.754 183.053 63.0853 182.087 63.748 181.434C64.4107 180.771 65.344 180.44 66.548 180.44C66.94 180.44 67.3273 180.491 67.71 180.594C68.0927 180.687 68.4333 180.851 68.732 181.084C69.0307 181.308 69.2687 181.616 69.446 182.008C69.6327 182.391 69.726 182.867 69.726 183.436C69.726 183.632 69.712 183.847 69.684 184.08C69.6653 184.313 69.628 184.556 69.572 184.808H64.672C64.7187 185.443 64.9007 185.914 65.218 186.222C65.5447 186.521 66.072 186.67 66.8 186.67C67.2387 186.67 67.6307 186.609 67.976 186.488C68.3307 186.357 68.6013 186.227 68.788 186.096L69.46 187.328ZM66.52 181.98C65.9413 181.98 65.512 182.139 65.232 182.456C64.952 182.764 64.7887 183.161 64.742 183.646H67.906C67.9433 183.133 67.85 182.727 67.626 182.428C67.402 182.129 67.0333 181.98 66.52 181.98ZM77.6905 187.328C77.3732 187.571 76.9392 187.781 76.3885 187.958C75.8472 188.126 75.2638 188.21 74.6385 188.21C73.3785 188.21 72.4545 187.865 71.8665 187.174C71.2785 186.483 70.9845 185.536 70.9845 184.332C70.9845 183.053 71.3158 182.087 71.9785 181.434C72.6412 180.771 73.5745 180.44 74.7785 180.44C75.1705 180.44 75.5578 180.491 75.9405 180.594C76.3232 180.687 76.6638 180.851 76.9625 181.084C77.2612 181.308 77.4992 181.616 77.6765 182.008C77.8632 182.391 77.9565 182.867 77.9565 183.436C77.9565 183.632 77.9425 183.847 77.9145 184.08C77.8958 184.313 77.8585 184.556 77.8025 184.808H72.9025C72.9492 185.443 73.1312 185.914 73.4485 186.222C73.7752 186.521 74.3025 186.67 75.0305 186.67C75.4692 186.67 75.8612 186.609 76.2065 186.488C76.5612 186.357 76.8318 186.227 77.0185 186.096L77.6905 187.328ZM74.7505 181.98C74.1718 181.98 73.7425 182.139 73.4625 182.456C73.1825 182.764 73.0192 183.161 72.9725 183.646H76.1365C76.1738 183.133 76.0805 182.727 75.8565 182.428C75.6325 182.129 75.2638 181.98 74.7505 181.98Z" fill="#F76201"/>
<path d="M0 189.4H78.7125V190.1H0V189.4Z" fill="#F76201"/>
<path d="M88.75 188.5L92.75 184.5L88.75 180.5" stroke="#F76201" stroke-width="2" stroke-linecap="round" stroke-linejoin="round"/>
<path d="M419.734 180.02H415.982V188H413.91V178.2H421.806V188H419.734V180.02ZM423.309 184.332C423.309 183.119 423.631 182.167 424.275 181.476C424.919 180.785 425.838 180.44 427.033 180.44C427.658 180.44 428.204 180.538 428.671 180.734C429.137 180.93 429.525 181.205 429.833 181.56C430.141 181.905 430.369 182.316 430.519 182.792C430.677 183.259 430.757 183.772 430.757 184.332C430.757 184.929 430.673 185.471 430.505 185.956C430.337 186.432 430.094 186.838 429.777 187.174C429.459 187.51 429.067 187.767 428.601 187.944C428.143 188.121 427.621 188.21 427.033 188.21C426.398 188.21 425.847 188.112 425.381 187.916C424.914 187.72 424.527 187.449 424.219 187.104C423.911 186.749 423.682 186.339 423.533 185.872C423.383 185.396 423.309 184.883 423.309 184.332ZM425.325 184.332C425.325 184.64 425.357 184.929 425.423 185.2C425.488 185.471 425.586 185.709 425.717 185.914C425.857 186.11 426.034 186.269 426.249 186.39C426.463 186.511 426.725 186.572 427.033 186.572C428.171 186.572 428.741 185.825 428.741 184.332C428.741 184.005 428.708 183.707 428.643 183.436C428.587 183.156 428.489 182.918 428.349 182.722C428.218 182.517 428.041 182.358 427.817 182.246C427.602 182.134 427.341 182.078 427.033 182.078C426.501 182.078 426.081 182.255 425.773 182.61C425.474 182.965 425.325 183.539 425.325 184.332ZM440.182 189.666H438.81L438.558 188H432.986L432.72 189.666H431.348V186.264H432.272C432.356 186.152 432.468 185.965 432.608 185.704C432.757 185.443 432.897 185.088 433.028 184.64C433.168 184.192 433.284 183.641 433.378 182.988C433.48 182.325 433.536 181.546 433.546 180.65H439.006V186.264H440.182V189.666ZM437.046 186.362V182.288H435.212C435.193 182.652 435.156 183.03 435.1 183.422C435.044 183.814 434.974 184.192 434.89 184.556C434.806 184.92 434.708 185.261 434.596 185.578C434.484 185.895 434.362 186.157 434.232 186.362H437.046ZM441.475 180.65H442.875L443.113 181.56H443.281C443.57 181.187 443.906 180.907 444.289 180.72C444.671 180.533 445.119 180.44 445.633 180.44C446.622 180.44 447.364 180.739 447.859 181.336C448.353 181.924 448.601 182.862 448.601 184.15C448.601 184.766 448.521 185.326 448.363 185.83C448.204 186.325 447.971 186.754 447.663 187.118C447.355 187.473 446.972 187.748 446.515 187.944C446.067 188.131 445.549 188.224 444.961 188.224C444.643 188.224 444.368 188.191 444.135 188.126C443.901 188.07 443.668 187.991 443.435 187.888V190.786H441.475V180.65ZM445.031 182.078C444.583 182.078 444.237 182.181 443.995 182.386C443.752 182.582 443.565 182.89 443.435 183.31V186.166C443.593 186.297 443.771 186.399 443.967 186.474C444.163 186.549 444.41 186.586 444.709 186.586C445.343 186.586 445.815 186.39 446.123 185.998C446.431 185.597 446.585 184.962 446.585 184.094C446.585 183.469 446.463 182.979 446.221 182.624C445.987 182.26 445.591 182.078 445.031 182.078ZM449.777 184.332C449.777 183.119 450.099 182.167 450.743 181.476C451.387 180.785 452.307 180.44 453.501 180.44C454.127 180.44 454.673 180.538 455.139 180.734C455.606 180.93 455.993 181.205 456.301 181.56C456.609 181.905 456.838 182.316 456.987 182.792C457.146 183.259 457.225 183.772 457.225 184.332C457.225 184.929 457.141 185.471 456.973 185.956C456.805 186.432 456.563 186.838 456.245 187.174C455.928 187.51 455.536 187.767 455.069 187.944C454.612 188.121 454.089 188.21 453.501 188.21C452.867 188.21 452.316 188.112 451.849 187.916C451.383 187.72 450.995 187.449 450.687 187.104C450.379 186.749 450.151 186.339 450.001 185.872C449.852 185.396 449.777 184.883 449.777 184.332ZM451.793 184.332C451.793 184.64 451.826 184.929 451.891 185.2C451.957 185.471 452.055 185.709 452.185 185.914C452.325 186.11 452.503 186.269 452.717 186.39C452.932 186.511 453.193 186.572 453.501 186.572C454.64 186.572 455.209 185.825 455.209 184.332C455.209 184.005 455.177 183.707 455.111 183.436C455.055 183.156 454.957 182.918 454.817 182.722C454.687 182.517 454.509 182.358 454.285 182.246C454.071 182.134 453.809 182.078 453.501 182.078C452.969 182.078 452.549 182.255 452.241 182.61C451.943 182.965 451.793 183.539 451.793 184.332ZM460.126 182.204C460.444 181.784 460.808 181.476 461.218 181.28C461.638 181.084 462.142 180.986 462.73 180.986C463.692 180.986 464.452 181.247 465.012 181.77C465.572 182.293 465.852 183.114 465.852 184.234C465.852 185.541 465.53 186.53 464.886 187.202C464.252 187.874 463.346 188.21 462.17 188.21C460.938 188.21 460 187.837 459.356 187.09C458.722 186.343 458.404 185.181 458.404 183.604C458.404 182.764 458.456 182.055 458.558 181.476C458.67 180.888 458.82 180.403 459.006 180.02C459.202 179.628 459.436 179.325 459.706 179.11C459.977 178.886 460.276 178.718 460.602 178.606C460.938 178.485 461.298 178.405 461.68 178.368C462.063 178.321 462.464 178.279 462.884 178.242C463.416 178.195 463.874 178.144 464.256 178.088C464.648 178.023 464.947 177.915 465.152 177.766L465.222 179.46C465.008 179.619 464.709 179.726 464.326 179.782C463.944 179.829 463.412 179.875 462.73 179.922C462.32 179.95 461.956 179.983 461.638 180.02C461.321 180.057 461.046 180.151 460.812 180.3C460.579 180.44 460.392 180.659 460.252 180.958C460.112 181.257 460.01 181.677 459.944 182.218H460.07L460.126 182.204ZM460.42 184.486C460.42 184.785 460.453 185.06 460.518 185.312C460.593 185.564 460.7 185.783 460.84 185.97C460.98 186.157 461.158 186.306 461.372 186.418C461.587 186.521 461.839 186.572 462.128 186.572C462.744 186.572 463.183 186.39 463.444 186.026C463.706 185.662 463.836 185.153 463.836 184.5C463.836 183.884 463.71 183.417 463.458 183.1C463.216 182.783 462.805 182.624 462.226 182.624C461.61 182.624 461.153 182.792 460.854 183.128C460.565 183.455 460.42 183.907 460.42 184.486ZM472.197 185.158H469.411V188H467.451V180.65H469.411V183.38H472.197V180.65H474.157V188H472.197V185.158ZM482.46 187.328C482.143 187.571 481.709 187.781 481.158 187.958C480.617 188.126 480.033 188.21 479.408 188.21C478.148 188.21 477.224 187.865 476.636 187.174C476.048 186.483 475.754 185.536 475.754 184.332C475.754 183.053 476.085 182.087 476.748 181.434C477.411 180.771 478.344 180.44 479.548 180.44C479.94 180.44 480.327 180.491 480.71 180.594C481.093 180.687 481.433 180.851 481.732 181.084C482.031 181.308 482.269 181.616 482.446 182.008C482.633 182.391 482.726 182.867 482.726 183.436C482.726 183.632 482.712 183.847 482.684 184.08C482.665 184.313 482.628 184.556 482.572 184.808H477.672C477.719 185.443 477.901 185.914 478.218 186.222C478.545 186.521 479.072 186.67 479.8 186.67C480.239 186.67 480.631 186.609 480.976 186.488C481.331 186.357 481.601 186.227 481.788 186.096L482.46 187.328ZM479.52 181.98C478.941 181.98 478.512 182.139 478.232 182.456C477.952 182.764 477.789 183.161 477.742 183.646H480.906C480.943 183.133 480.85 182.727 480.626 182.428C480.402 182.129 480.033 181.98 479.52 181.98ZM490.69 187.328C490.373 187.571 489.939 187.781 489.388 187.958C488.847 188.126 488.264 188.21 487.638 188.21C486.378 188.21 485.454 187.865 484.866 187.174C484.278 186.483 483.984 185.536 483.984 184.332C483.984 183.053 484.316 182.087 484.978 181.434C485.641 180.771 486.574 180.44 487.778 180.44C488.17 180.44 488.558 180.491 488.94 180.594C489.323 180.687 489.664 180.851 489.962 181.084C490.261 181.308 490.499 181.616 490.676 182.008C490.863 182.391 490.956 182.867 490.956 183.436C490.956 183.632 490.942 183.847 490.914 184.08C490.896 184.313 490.858 184.556 490.802 184.808H485.902C485.949 185.443 486.131 185.914 486.448 186.222C486.775 186.521 487.302 186.67 488.03 186.67C488.469 186.67 488.861 186.609 489.206 186.488C489.561 186.357 489.832 186.227 490.018 186.096L490.69 187.328ZM487.75 181.98C487.172 181.98 486.742 182.139 486.462 182.456C486.182 182.764 486.019 183.161 485.972 183.646H489.136C489.174 183.133 489.08 182.727 488.856 182.428C488.632 182.129 488.264 181.98 487.75 181.98Z" fill="#F76201"/>
<path d="M413 189.4H491.712V190.1H413V189.4Z" fill="#F76201"/>
<path d="M501.75 188.5L505.75 184.5L501.75 180.5" stroke="#F76201" stroke-width="2" stroke-linecap="round" stroke-linejoin="round"/>
<path d="M914.24 18.48C913.96 18.52 913.68 18.5467 913.4 18.56C913.12 18.5733 912.813 18.58 912.48 18.58C911.8 18.58 911.16 18.4667 910.56 18.24C909.96 18.0133 909.433 17.6667 908.98 17.2C908.54 16.7333 908.187 16.1533 907.92 15.46C907.667 14.7667 907.54 13.9467 907.54 13C907.54 12.1067 907.667 11.3 907.92 10.58C908.187 9.86 908.553 9.25333 909.02 8.76C909.487 8.25333 910.047 7.86667 910.7 7.6C911.367 7.33333 912.093 7.2 912.88 7.2C913.067 7.2 913.293 7.20667 913.56 7.22C913.84 7.23333 914.067 7.26 914.24 7.3V5.6H917.18V7.36C917.447 7.29333 917.753 7.25333 918.1 7.24C918.447 7.21333 918.733 7.2 918.96 7.2C919.653 7.2 920.3 7.32 920.9 7.56C921.5 7.8 922.02 8.16 922.46 8.64C922.9 9.10667 923.247 9.68667 923.5 10.38C923.753 11.0733 923.88 11.88 923.88 12.8C923.88 13.7333 923.74 14.56 923.46 15.28C923.18 16 922.8 16.6067 922.32 17.1C921.84 17.58 921.28 17.9467 920.64 18.2C920.013 18.4533 919.347 18.58 918.64 18.58C918.4 18.58 918.14 18.5733 917.86 18.56C917.593 18.5333 917.367 18.4933 917.18 18.44V20.4H914.24V18.48ZM918.26 9.54C918.113 9.54 917.913 9.54667 917.66 9.56C917.42 9.57333 917.22 9.6 917.06 9.64V16.2C917.18 16.2267 917.327 16.24 917.5 16.24C917.673 16.24 917.853 16.24 918.04 16.24C918.427 16.24 918.793 16.1733 919.14 16.04C919.487 15.9067 919.787 15.7067 920.04 15.44C920.307 15.16 920.513 14.8067 920.66 14.38C920.807 13.94 920.88 13.42 920.88 12.82C920.88 11.78 920.64 10.9733 920.16 10.4C919.693 9.82667 919.06 9.54 918.26 9.54ZM913.24 16.24C913.36 16.24 913.533 16.24 913.76 16.24C913.987 16.2267 914.187 16.1933 914.36 16.14V9.6C914.053 9.56 913.713 9.54 913.34 9.54C912.953 9.54 912.587 9.60667 912.24 9.74C911.907 9.87333 911.613 10.08 911.36 10.36C911.107 10.64 910.907 11 910.76 11.44C910.613 11.8667 910.54 12.38 910.54 12.98C910.54 14.0333 910.787 14.84 911.28 15.4C911.787 15.96 912.44 16.24 913.24 16.24ZM934.562 8.6H928.682V20H925.722V6H934.562V8.6ZM944.583 12.28L944.743 10.5H944.643L943.623 12.3L937.883 20H935.683V6H938.643V13.54L938.443 15.4H938.563L939.643 13.54L945.323 6H947.543V20H944.583V12.28ZM960.416 19.4C959.976 19.7067 959.396 19.9267 958.676 20.06C957.956 20.2067 957.216 20.28 956.456 20.28C955.563 20.28 954.703 20.1467 953.876 19.88C953.063 19.6133 952.336 19.1867 951.696 18.6C951.069 18.0133 950.569 17.26 950.196 16.34C949.823 15.42 949.636 14.3067 949.636 13C949.636 11.64 949.849 10.5 950.276 9.58C950.703 8.64667 951.249 7.9 951.916 7.34C952.583 6.76667 953.323 6.35333 954.136 6.1C954.949 5.84667 955.749 5.72 956.536 5.72C957.403 5.72 958.129 5.77333 958.716 5.88C959.316 5.98667 959.809 6.11333 960.196 6.26L959.616 8.74C959.283 8.59333 958.889 8.48667 958.436 8.42C957.996 8.35333 957.436 8.32 956.756 8.32C956.156 8.32 955.609 8.42 955.116 8.62C954.636 8.80667 954.223 9.09333 953.876 9.48C953.529 9.86667 953.256 10.3533 953.056 10.94C952.869 11.5267 952.776 12.2133 952.776 13C952.776 13.6933 952.863 14.3267 953.036 14.9C953.209 15.4733 953.469 15.9667 953.816 16.38C954.163 16.7933 954.603 17.1133 955.136 17.34C955.669 17.5667 956.289 17.68 956.996 17.68C957.649 17.68 958.196 17.62 958.636 17.5C959.089 17.38 959.489 17.2267 959.836 17.04L960.416 19.4ZM978.733 12.98L979.053 10.08H978.933L977.973 12.28L974.733 17.5H973.813L970.373 12.26L969.433 10.1H969.313L969.733 12.96V20H966.933V6H969.613L973.653 12.46L974.413 14H974.513L975.173 12.42L979.033 6H981.693V20H978.733V12.98ZM993.416 19.04C992.963 19.3867 992.343 19.6867 991.556 19.94C990.783 20.18 989.949 20.3 989.056 20.3C987.256 20.3 985.936 19.8067 985.096 18.82C984.256 17.8333 983.836 16.48 983.836 14.76C983.836 12.9333 984.309 11.5533 985.256 10.62C986.203 9.67333 987.536 9.2 989.256 9.2C989.816 9.2 990.369 9.27333 990.916 9.42C991.463 9.55333 991.949 9.78667 992.376 10.12C992.803 10.44 993.143 10.88 993.396 11.44C993.663 11.9867 993.796 12.6667 993.796 13.48C993.796 13.76 993.776 14.0667 993.736 14.4C993.709 14.7333 993.656 15.08 993.576 15.44H986.576C986.643 16.3467 986.903 17.02 987.356 17.46C987.823 17.8867 988.576 18.1 989.616 18.1C990.243 18.1 990.803 18.0133 991.296 17.84C991.803 17.6533 992.189 17.4667 992.456 17.28L993.416 19.04ZM989.216 11.4C988.389 11.4 987.776 11.6267 987.376 12.08C986.976 12.52 986.743 13.0867 986.676 13.78H991.196C991.249 13.0467 991.116 12.4667 990.796 12.04C990.476 11.6133 989.949 11.4 989.216 11.4ZM996.311 9.5H998.311L998.651 10.8H998.891C999.304 10.2667 999.784 9.86667 1000.33 9.6C1000.88 9.33333 1001.52 9.2 1002.25 9.2C1003.66 9.2 1004.72 9.62667 1005.43 10.48C1006.14 11.32 1006.49 12.66 1006.49 14.5C1006.49 15.38 1006.38 16.18 1006.15 16.9C1005.92 17.6067 1005.59 18.22 1005.15 18.74C1004.71 19.2467 1004.16 19.64 1003.51 19.92C1002.87 20.1867 1002.13 20.32 1001.29 20.32C1000.84 20.32 1000.44 20.2733 1000.11 20.18C999.778 20.1 999.444 19.9867 999.111 19.84V23.98H996.311V9.5ZM1001.39 11.54C1000.75 11.54 1000.26 11.6867 999.911 11.98C999.564 12.26 999.298 12.7 999.111 13.3V17.38C999.338 17.5667 999.591 17.7133 999.871 17.82C1000.15 17.9267 1000.5 17.98 1000.93 17.98C1001.84 17.98 1002.51 17.7 1002.95 17.14C1003.39 16.5667 1003.61 15.66 1003.61 14.42C1003.61 13.5267 1003.44 12.8267 1003.09 12.32C1002.76 11.8 1002.19 11.54 1001.39 11.54ZM1012.55 15.64H1011.57V20H1008.77V9.5H1011.57V14.04L1012.47 13.66L1015.15 9.5H1018.17C1017.71 10.14 1017.25 10.7867 1016.79 11.44C1016.35 12.08 1015.91 12.72 1015.45 13.36L1014.13 14.24L1015.53 15.1C1016.04 15.9267 1016.55 16.7467 1017.07 17.56C1017.59 18.36 1018.11 19.1733 1018.61 20H1015.37L1012.55 15.64ZM1023.59 15.32L1024.03 17H1024.23L1024.61 15.32L1026.39 9.5H1029.25L1025.77 19C1025.48 19.7867 1025.2 20.4933 1024.93 21.12C1024.68 21.7467 1024.4 22.28 1024.09 22.72C1023.78 23.16 1023.44 23.4933 1023.05 23.72C1022.68 23.96 1022.23 24.08 1021.71 24.08C1021.36 24.08 1021.03 24.0467 1020.71 23.98C1020.4 23.9267 1020.14 23.84 1019.91 23.72L1020.49 21.56C1020.69 21.6267 1020.9 21.66 1021.11 21.66C1021.3 21.66 1021.48 21.64 1021.65 21.6C1021.82 21.56 1021.98 21.48 1022.13 21.36C1022.28 21.2533 1022.41 21.0933 1022.53 20.88C1022.66 20.68 1022.78 20.4067 1022.87 20.06L1018.07 9.5H1021.45L1023.59 15.32ZM1030.57 9.5H1032.57L1032.91 10.8H1033.15C1033.56 10.2667 1034.04 9.86667 1034.59 9.6C1035.14 9.33333 1035.78 9.2 1036.51 9.2C1037.92 9.2 1038.98 9.62667 1039.69 10.48C1040.4 11.32 1040.75 12.66 1040.75 14.5C1040.75 15.38 1040.64 16.18 1040.41 16.9C1040.18 17.6067 1039.85 18.22 1039.41 18.74C1038.97 19.2467 1038.42 19.64 1037.77 19.92C1037.13 20.1867 1036.39 20.32 1035.55 20.32C1035.1 20.32 1034.7 20.2733 1034.37 20.18C1034.04 20.1 1033.7 19.9867 1033.37 19.84V23.98H1030.57V9.5ZM1035.65 11.54C1035.01 11.54 1034.52 11.6867 1034.17 11.98C1033.82 12.26 1033.56 12.7 1033.37 13.3V17.38C1033.6 17.5667 1033.85 17.7133 1034.13 17.82C1034.41 17.9267 1034.76 17.98 1035.19 17.98C1036.1 17.98 1036.77 17.7 1037.21 17.14C1037.65 16.5667 1037.87 15.66 1037.87 14.42C1037.87 13.5267 1037.7 12.8267 1037.35 12.32C1037.02 11.8 1036.45 11.54 1035.65 11.54ZM1049.99 15.26L1050.11 13.48L1048.85 15.24L1044.71 20H1043.03V9.5H1045.83V14.44L1045.73 15.88H1045.97C1046.13 15.6533 1046.29 15.4133 1046.45 15.16C1046.62 14.9067 1046.79 14.6667 1046.95 14.44L1051.11 9.5H1052.79V20H1049.99V15.26ZM1062.63 15.26L1062.75 13.48L1061.49 15.24L1057.35 20H1055.67V9.5H1058.47V14.44L1058.37 15.88H1058.61C1058.77 15.6533 1058.93 15.4133 1059.09 15.16C1059.26 14.9067 1059.43 14.6667 1059.59 14.44L1063.75 9.5H1065.43V20H1062.63V15.26ZM1059.27 5.16C1059.37 5.72 1059.56 6.1 1059.83 6.3C1060.09 6.5 1060.44 6.6 1060.87 6.6C1061.31 6.6 1061.65 6.5 1061.91 6.3C1062.17 6.08667 1062.36 5.71333 1062.47 5.18L1064.55 5.72C1064.37 6.6 1063.94 7.26 1063.25 7.7C1062.55 8.14 1061.73 8.36 1060.77 8.36C1060.3 8.36 1059.85 8.31333 1059.43 8.22C1059.01 8.12667 1058.63 7.97333 1058.29 7.76C1057.94 7.54667 1057.64 7.27333 1057.39 6.94C1057.15 6.60667 1056.98 6.2 1056.89 5.72L1059.27 5.16Z" fill="#333333"/>
</svg>
