<svg width="134" height="31" viewBox="0 0 134 31" fill="none" xmlns="http://www.w3.org/2000/svg">
<path d="M125.552 22.43C122.834 22.43 120.418 23.6945 118.878 25.647C119.026 24.7821 119.113 23.8911 119.113 22.9869C119.113 14.1548 111.803 7 102.779 7C94.606 7 87.8383 12.8771 86.6334 20.543C84.5717 18.3088 81.5996 16.9001 78.2794 16.9001C72.054 16.9001 67 21.8403 67 27.9402C67 29.0016 67.1607 30.0238 67.4485 31H88.6416H89.1035H116.91C116.977 30.8821 117.037 30.7641 117.104 30.6462C117.104 30.6658 117.104 30.6855 117.104 30.7052C117.104 30.8034 117.118 30.9017 117.118 30.9934H133.987C133.993 30.8952 134 30.8034 134 30.7052C134 26.1319 130.218 22.43 125.552 22.43Z" fill="#EEEFF2"/>
<path d="M35.8305 9.64373C34.1674 9.64373 32.6886 10.4341 31.7464 11.6544C31.8366 11.1138 31.8898 10.5569 31.8898 9.99181C31.8898 4.47174 27.4166 0 21.8948 0C16.8932 0 12.7518 3.67322 12.0145 8.46437C10.7528 7.06798 8.93406 6.18755 6.90229 6.18755C3.09272 6.18755 0 9.27518 0 13.0876C0 13.751 0.098317 14.3898 0.274459 15H13.2434H13.526H30.5421C30.5831 14.9263 30.6199 14.8526 30.6609 14.7789C30.6609 14.7912 30.6609 14.8034 30.6609 14.8157C30.6609 14.8771 30.6691 14.9386 30.6691 14.9959H40.9918C40.9959 14.9345 41 14.8771 41 14.8157C41 11.9574 38.6856 9.64373 35.8305 9.64373Z" fill="#EEEFF2"/>
</svg>
