<svg width="148" height="199" viewBox="0 0 148 199" fill="none" xmlns="http://www.w3.org/2000/svg">
<g filter="url(#filter0_d)">
<path d="M13.8085 98.8241C13.0149 97.5812 12.9607 95.9889 13.6674 94.6808L35.0773 55.0486C35.7334 53.8341 36.951 53.0408 38.3049 52.9456L83.463 49.7716C84.8946 49.671 86.2618 50.3656 87.0376 51.5879L142.724 139.321C145.087 143.044 144.031 148.038 140.362 150.485L81.3938 189.815C77.7181 192.267 72.8108 191.236 70.4332 187.512L13.8085 98.8241Z" fill="#EEEFF2"/>
</g>
<ellipse rx="7.74001" ry="7.80836" transform="matrix(0.831931 -0.554878 0.538141 0.842855 46.0445 68.6009)" fill="white"/>
<path d="M45.7623 90.3581L50.5352 97.675L47.2117 99.8429L42.4389 92.526L45.7623 90.3581ZM65.1156 109.66C64.2222 110.243 63.2033 110.653 62.0589 110.89C60.9145 111.127 59.7239 111.254 58.4871 111.271C57.2798 111.294 56.0437 111.235 54.7788 111.092C53.5257 110.967 52.3409 110.81 51.2244 110.621L49.129 109.811L48.995 109.898L50.77 111.682L54.389 117.23L51.2532 119.276L43.2634 107.027L45.1396 105.803C45.9072 105.965 46.7633 106.145 47.7081 106.344C48.6824 106.549 49.6924 106.73 50.7381 106.889C51.7838 107.047 52.8358 107.176 53.894 107.275C54.9817 107.381 56.0138 107.421 56.9904 107.395C57.9669 107.369 58.8732 107.275 59.7092 107.112C60.563 106.937 61.2758 106.663 61.8475 106.29C62.5265 105.847 62.9642 105.269 63.1607 104.555C63.3751 103.829 63.1559 102.966 62.5032 101.965C62.0953 101.34 61.5475 100.793 60.8599 100.325C60.1901 99.8444 59.4983 99.5062 58.7843 99.3097L60.4504 96.0069C61.5234 96.4022 62.5653 96.9452 63.5761 97.6357C64.5869 98.3263 65.5236 99.3327 66.3861 100.655C66.9223 101.477 67.3104 102.306 67.5506 103.143C67.8024 103.997 67.886 104.809 67.8013 105.577C67.7284 106.364 67.4635 107.109 67.0068 107.815C66.5679 108.509 65.9375 109.124 65.1156 109.66ZM59.6577 126.127C60.054 126.734 60.4693 127.215 60.9036 127.568C61.3675 127.928 61.8325 128.172 62.2987 128.301C62.7648 128.43 63.2201 128.464 63.6645 128.404C64.1267 128.331 64.5455 128.173 64.9207 127.928C65.8856 127.299 66.3847 126.502 66.418 125.538C66.463 124.592 66.0134 123.395 65.0693 121.947L63.6881 119.83L65.6715 118.536L72.1615 119.231L74.4958 120.116L72.6974 118.003L69.533 113.152L72.6688 111.106L79.9418 122.256L77.9317 123.567L70.3777 122.764L68.7973 121.923L68.6633 122.01L69.6284 123.138C70.006 123.834 70.2621 124.559 70.3965 125.311C70.5427 126.082 70.547 126.831 70.4096 127.557C70.2838 128.301 69.9867 129.017 69.5183 129.705C69.0677 130.381 68.4226 130.993 67.5828 131.541C66.5286 132.228 65.4802 132.632 64.4375 132.752C63.4245 132.878 62.4432 132.779 61.4938 132.456C60.5444 132.133 59.6532 131.606 58.8203 130.876C57.9874 130.146 57.2329 129.262 56.5569 128.226C56.2771 127.797 56.0094 127.348 55.7538 126.878C55.4981 126.408 55.2751 125.929 55.0847 125.442C54.8765 124.967 54.6888 124.503 54.5217 124.052C54.3842 123.607 54.2936 123.195 54.2501 122.815L58.0235 121.806C58.1175 122.458 58.2881 123.149 58.5353 123.879C58.7824 124.609 59.1565 125.359 59.6577 126.127ZM78.2915 128.98C79.0955 128.456 79.865 128.132 80.6 128.009C81.3349 127.886 82.0268 127.932 82.6755 128.145C83.3538 128.365 83.9804 128.721 84.5554 129.211C85.142 129.72 85.6801 130.35 86.1696 131.1C86.6475 131.833 87.01 132.564 87.2571 133.295C87.5042 134.025 87.5859 134.736 87.502 135.427C87.4477 136.125 87.2073 136.791 86.7808 137.426C86.3722 138.049 85.757 138.629 84.9351 139.165C84.0953 139.713 83.3079 140.048 82.573 140.171C81.838 140.294 81.1314 140.245 80.4531 140.025C79.8044 139.812 79.1956 139.445 78.6269 138.924C78.0581 138.404 77.5348 137.777 77.0569 137.045C76.5674 136.294 76.1991 135.554 75.952 134.824C75.7165 134.111 75.6259 133.406 75.6802 132.708C75.7641 132.017 76.0103 131.36 76.4189 130.737C76.8275 130.113 77.4517 129.528 78.2915 128.98ZM80.5118 132.384C79.815 132.839 79.3516 133.319 79.1217 133.826C78.8918 134.332 78.9808 134.898 79.3887 135.524C79.785 136.131 80.2345 136.449 80.7371 136.478C81.2398 136.507 81.8932 136.259 82.6972 135.734C83.5013 135.21 83.9915 134.712 84.1678 134.24C84.3441 133.769 84.2341 133.229 83.8378 132.621C83.4415 132.014 82.9862 131.687 82.4719 131.64C81.9692 131.612 81.3159 131.86 80.5118 132.384ZM76.0312 147.304C76.8353 146.779 77.6048 146.455 78.3397 146.333C79.0747 146.21 79.7665 146.255 80.4153 146.469C81.0936 146.689 81.7202 147.044 82.2951 147.535C82.8818 148.044 83.4198 148.673 83.9094 149.424C84.3872 150.156 84.7497 150.888 84.9969 151.618C85.244 152.348 85.3256 153.059 85.2418 153.751C85.1875 154.448 84.9471 155.115 84.5206 155.749C84.112 156.372 83.4968 156.952 82.6748 157.488C81.835 158.036 81.0477 158.371 80.3127 158.494C79.5778 158.617 78.8712 158.569 78.1929 158.349C77.5441 158.135 76.9354 157.768 76.3667 157.248C75.7979 156.727 75.2746 156.101 74.7967 155.368C74.3072 154.618 73.9389 153.877 73.6917 153.147C73.4563 152.435 73.3657 151.729 73.42 151.032C73.5038 150.34 73.7501 149.683 74.1587 149.06C74.5673 148.437 75.1914 147.851 76.0312 147.304ZM78.2516 150.707C77.5547 151.162 77.0914 151.642 76.8614 152.149C76.6315 152.656 76.7205 153.222 77.1285 153.847C77.5248 154.454 77.9742 154.773 78.4769 154.801C78.9796 154.83 79.6329 154.582 80.437 154.058C81.241 153.533 81.7312 153.035 81.9075 152.563C82.0839 152.092 81.9739 151.552 81.5776 150.945C81.1813 150.337 80.726 150.01 80.2117 149.964C79.709 149.935 79.0557 150.183 78.2516 150.707ZM94.8796 144.102L94.1971 147.565L65.7149 142.265L66.4499 138.882L94.8796 144.102Z" fill="#FF6600"/>
<path d="M92 162.469L97.5522 163.552L98.6354 158" stroke="#FF6600" stroke-width="2" stroke-linecap="round" stroke-linejoin="round"/>
<path d="M77.9587 85.2029L75.6378 81.6449L72.8309 82.2509L71.3755 80.0197L84.6987 77.2173L85.7706 78.8606L77.8464 89.9397L76.3024 87.5728L77.9587 85.2029ZM77.8049 81.1124L79.3784 83.5246L81.0485 81.2747L82.4859 79.8213L82.4367 79.7459L80.5122 80.4855L77.8049 81.1124ZM83.7017 91.7337L83.2199 90.995L79.9333 93.1389L78.5565 91.0282L86.4714 85.8652L87.8482 87.9759L84.4259 90.2083L85.1549 90.6998L89.6085 90.6745L91.0935 92.951C90.3816 92.9139 89.668 92.8851 88.9526 92.8647C88.2538 92.8477 87.5517 92.8257 86.8464 92.7987L85.534 92.2363L85.5741 93.7145C85.2001 94.503 84.8344 95.2931 84.477 96.085C84.1296 96.8704 83.7689 97.6572 83.3949 98.4457L81.8018 96.0033L83.7017 91.7337ZM87.7518 109.045L86.7782 107.553L88.405 106.126L84.1075 99.538L92.0224 94.375L93.3992 96.4856L87.3537 100.429L89.2124 103.279L95.2579 99.335L96.6347 101.446L90.5892 105.389L91.4152 106.656L87.7518 109.045ZM97.4413 112.171L98.8421 111.386L96.8958 111.302L91.272 110.521L90.446 109.255L98.3609 104.092L99.7377 106.203L96.0139 108.632L94.8792 109.264L94.9973 109.445C95.2468 109.454 95.5064 109.457 95.776 109.453C96.0522 109.459 96.3151 109.467 96.5646 109.476L102.334 110.183L103.16 111.449L95.2451 116.612L93.8683 114.501L97.4413 112.171ZM102.358 121.618L101.385 120.555L97.8102 120.544L96.1285 117.966L99.6671 118.087L100.609 118.74C100.394 118.322 100.281 117.93 100.271 117.564C100.262 117.197 100.32 116.858 100.446 116.547C100.583 116.229 100.769 115.943 101.004 115.689C101.256 115.438 101.533 115.215 101.835 115.018C102.789 114.395 103.716 114.278 104.614 114.666C105.519 115.065 106.44 115.983 107.377 117.42C107.712 117.933 108.011 118.446 108.275 118.962C108.54 119.477 108.76 119.935 108.936 120.336L101.036 125.489L99.659 123.379L102.358 121.618ZM103.684 120.753L105.87 119.327C105.835 119.164 105.777 118.987 105.696 118.796C105.615 118.606 105.522 118.43 105.417 118.269C105.05 117.706 104.67 117.345 104.279 117.184C103.898 117.017 103.497 117.072 103.074 117.347C102.662 117.616 102.471 117.97 102.5 118.41C102.535 118.859 102.766 119.411 103.192 120.064L103.684 120.753Z" fill="#333333"/>
<path d="M36.6543 2C44.3255 13.2318 36.8106 27.0681 37.8066 37.4496C38.6743 46.4949 49.2111 57.4993 43.9007 63.5141" stroke="#404040" stroke-width="3" stroke-linecap="round"/>
<defs>
<filter id="filter0_d" x="9.17285" y="48.762" width="138.812" height="149.384" filterUnits="userSpaceOnUse" color-interpolation-filters="sRGB">
<feFlood flood-opacity="0" result="BackgroundImageFix"/>
<feColorMatrix in="SourceAlpha" type="matrix" values="0 0 0 0 0 0 0 0 0 0 0 0 0 0 0 0 0 0 127 0"/>
<feOffset dy="3"/>
<feGaussianBlur stdDeviation="2"/>
<feColorMatrix type="matrix" values="0 0 0 0 0.408333 0 0 0 0 0.403229 0 0 0 0 0.403229 0 0 0 0.25 0"/>
<feBlend mode="normal" in2="BackgroundImageFix" result="effect1_dropShadow"/>
<feBlend mode="normal" in="SourceGraphic" in2="effect1_dropShadow" result="shape"/>
</filter>
</defs>
</svg>
