<svg width="176" height="48" viewBox="0 0 176 48" fill="none" xmlns="http://www.w3.org/2000/svg">
<rect width="176" height="48" rx="24" fill="url(#paint0_linear)"/>
<path d="M44.91 19.298C45.33 19.2233 45.7967 19.1673 46.31 19.13C46.8233 19.0833 47.3367 19.06 47.85 19.06C48.3727 19.06 48.9 19.102 49.432 19.186C49.964 19.2607 50.44 19.4193 50.86 19.662C51.2893 19.8953 51.6393 20.2267 51.91 20.656C52.1807 21.076 52.316 21.636 52.316 22.336C52.316 22.952 52.1993 23.4793 51.966 23.918C51.7327 24.3473 51.42 24.6973 51.028 24.968C50.6453 25.2387 50.2067 25.4393 49.712 25.57C49.2173 25.6913 48.7087 25.752 48.186 25.752C48.1393 25.752 48.06 25.752 47.948 25.752C47.836 25.752 47.7147 25.752 47.584 25.752C47.4627 25.7427 47.346 25.7333 47.234 25.724C47.122 25.7147 47.038 25.7053 46.982 25.696V29H44.91V19.298ZM47.99 20.88C47.794 20.88 47.6027 20.8847 47.416 20.894C47.2387 20.9033 47.094 20.922 46.982 20.95V23.862C47.0193 23.8713 47.08 23.8807 47.164 23.89C47.248 23.8993 47.3367 23.9087 47.43 23.918C47.5233 23.918 47.6073 23.9227 47.682 23.932C47.766 23.932 47.8313 23.932 47.878 23.932C48.1487 23.932 48.4193 23.9133 48.69 23.876C48.9607 23.8387 49.1987 23.7593 49.404 23.638C49.6187 23.5167 49.7913 23.3533 49.922 23.148C50.0527 22.9333 50.118 22.6487 50.118 22.294C50.118 21.9953 50.0573 21.7573 49.936 21.58C49.8147 21.3933 49.6513 21.2487 49.446 21.146C49.25 21.0433 49.0213 20.9733 48.76 20.936C48.508 20.8987 48.2513 20.88 47.99 20.88ZM59.4288 28.328C59.1114 28.5707 58.6774 28.7807 58.1268 28.958C57.5854 29.126 57.0021 29.21 56.3768 29.21C55.1168 29.21 54.1928 28.8647 53.6048 28.174C53.0168 27.4833 52.7228 26.536 52.7228 25.332C52.7228 24.0533 53.0541 23.0873 53.7168 22.434C54.3794 21.7713 55.3128 21.44 56.5168 21.44C56.9088 21.44 57.2961 21.4913 57.6788 21.594C58.0614 21.6873 58.4021 21.8507 58.7008 22.084C58.9994 22.308 59.2374 22.616 59.4148 23.008C59.6014 23.3907 59.6948 23.8667 59.6948 24.436C59.6948 24.632 59.6808 24.8467 59.6528 25.08C59.6341 25.3133 59.5968 25.556 59.5408 25.808H54.6408C54.6874 26.4427 54.8694 26.914 55.1868 27.222C55.5134 27.5207 56.0408 27.67 56.7688 27.67C57.2074 27.67 57.5994 27.6093 57.9448 27.488C58.2994 27.3573 58.5701 27.2267 58.7568 27.096L59.4288 28.328ZM56.4888 22.98C55.9101 22.98 55.4808 23.1387 55.2008 23.456C54.9208 23.764 54.7574 24.1607 54.7108 24.646H57.8748C57.9121 24.1327 57.8188 23.7267 57.5948 23.428C57.3708 23.1293 57.0021 22.98 56.4888 22.98ZM66.5793 23.386H63.5273V29H61.4553V21.65H66.5793V23.386ZM72.4659 25.682L72.5499 24.436L71.6679 25.668L68.7699 29H67.5939V21.65H69.5539V25.108L69.4839 26.116H69.6519C69.7639 25.9573 69.8759 25.7893 69.9879 25.612C70.1093 25.4347 70.2259 25.2667 70.3379 25.108L73.2499 21.65H74.4259V29H72.4659V25.682ZM81.9836 28.552C81.6663 28.7667 81.2836 28.93 80.8356 29.042C80.397 29.154 79.9396 29.21 79.4636 29.21C78.829 29.21 78.2923 29.1167 77.8536 28.93C77.4243 28.7433 77.0696 28.4773 76.7896 28.132C76.519 27.7867 76.323 27.3807 76.2016 26.914C76.0803 26.438 76.0196 25.9107 76.0196 25.332C76.0196 24.1093 76.3183 23.1573 76.9156 22.476C77.5223 21.7853 78.3996 21.44 79.5476 21.44C80.1076 21.44 80.565 21.4867 80.9196 21.58C81.2836 21.664 81.6056 21.776 81.8856 21.916L81.4096 23.484C81.167 23.3813 80.9243 23.3067 80.6816 23.26C80.4483 23.204 80.173 23.176 79.8556 23.176C79.2676 23.176 78.815 23.3487 78.4976 23.694C78.1896 24.03 78.0356 24.576 78.0356 25.332C78.0356 25.6307 78.073 25.9107 78.1476 26.172C78.2223 26.424 78.339 26.648 78.4976 26.844C78.6563 27.04 78.857 27.194 79.0996 27.306C79.3423 27.418 79.627 27.474 79.9536 27.474C80.3456 27.474 80.6536 27.4413 80.8776 27.376C81.111 27.3013 81.3303 27.2033 81.5356 27.082L81.9836 28.552ZM89.0423 23.386H86.7603V29H84.7163V23.386H82.4343V21.65H89.0423V23.386ZM90.1662 21.65H91.5662L91.8042 22.56H91.9722C92.2615 22.1867 92.5975 21.9067 92.9802 21.72C93.3629 21.5333 93.8109 21.44 94.3242 21.44C95.3135 21.44 96.0555 21.7387 96.5502 22.336C97.0449 22.924 97.2922 23.862 97.2922 25.15C97.2922 25.766 97.2129 26.326 97.0542 26.83C96.8955 27.3247 96.6622 27.754 96.3542 28.118C96.0462 28.4727 95.6635 28.748 95.2062 28.944C94.7582 29.1307 94.2402 29.224 93.6522 29.224C93.3349 29.224 93.0595 29.1913 92.8262 29.126C92.5929 29.07 92.3595 28.9907 92.1262 28.888V31.786H90.1662V21.65ZM93.7222 23.078C93.2742 23.078 92.9289 23.1807 92.6862 23.386C92.4435 23.582 92.2569 23.89 92.1262 24.31V27.166C92.2849 27.2967 92.4622 27.3993 92.6582 27.474C92.8542 27.5487 93.1015 27.586 93.4002 27.586C94.0349 27.586 94.5062 27.39 94.8142 26.998C95.1222 26.5967 95.2762 25.962 95.2762 25.094C95.2762 24.4687 95.1549 23.9787 94.9122 23.624C94.6789 23.26 94.2822 23.078 93.7222 23.078ZM98.8189 22.154C99.2389 21.9673 99.7522 21.8133 100.359 21.692C100.975 21.5707 101.61 21.51 102.263 21.51C102.776 21.51 103.206 21.5707 103.551 21.692C103.906 21.8133 104.186 21.9907 104.391 22.224C104.596 22.448 104.741 22.7233 104.825 23.05C104.918 23.3673 104.965 23.722 104.965 24.114C104.965 24.59 104.946 25.0613 104.909 25.528C104.872 25.9947 104.853 26.4893 104.853 27.012C104.853 27.3667 104.876 27.712 104.923 28.048C104.97 28.384 105.044 28.706 105.147 29.014H103.551L103.229 27.922H103.061C102.818 28.2487 102.51 28.5287 102.137 28.762C101.764 28.9953 101.283 29.112 100.695 29.112C100.34 29.112 100.014 29.0607 99.7149 28.958C99.4255 28.8553 99.1735 28.7107 98.9589 28.524C98.7535 28.328 98.5902 28.0993 98.4689 27.838C98.3569 27.5767 98.3009 27.292 98.3009 26.984C98.3009 26.1533 98.5762 25.528 99.1269 25.108C99.6869 24.6787 100.532 24.464 101.661 24.464C101.922 24.464 102.184 24.4873 102.445 24.534C102.706 24.5713 102.888 24.5993 102.991 24.618C103.019 24.422 103.033 24.254 103.033 24.114C103.033 23.7593 102.944 23.498 102.767 23.33C102.59 23.162 102.258 23.078 101.773 23.078C101.325 23.078 100.886 23.134 100.457 23.246C100.037 23.3487 99.6635 23.4793 99.3369 23.638L98.8189 22.154ZM101.381 27.544C101.82 27.544 102.17 27.4413 102.431 27.236C102.692 27.0307 102.884 26.816 103.005 26.592V25.752C102.958 25.7333 102.884 25.7147 102.781 25.696C102.688 25.6773 102.58 25.6587 102.459 25.64C102.347 25.6213 102.23 25.6073 102.109 25.598C101.997 25.5887 101.894 25.584 101.801 25.584C101.297 25.584 100.924 25.6773 100.681 25.864C100.438 26.0413 100.317 26.2653 100.317 26.536C100.317 26.872 100.41 27.124 100.597 27.292C100.793 27.46 101.054 27.544 101.381 27.544ZM114.738 30.666H113.352L113.114 29H106.996V21.65H108.956V27.264H111.602V21.65H113.562V27.264H114.738V30.666ZM120.892 25.682L120.976 24.436L120.094 25.668L117.196 29H116.02V21.65H117.98V25.108L117.91 26.116H118.078C118.19 25.9573 118.302 25.7893 118.414 25.612C118.535 25.4347 118.652 25.2667 118.764 25.108L121.676 21.65H122.852V29H120.892V25.682ZM129.135 26.494L128.029 26.676L126.503 29H124.109L125.691 26.746L126.517 26.41C126.153 26.3727 125.85 26.2793 125.607 26.13C125.365 25.9807 125.169 25.7987 125.019 25.584C124.87 25.36 124.763 25.1173 124.697 24.856C124.641 24.5853 124.613 24.31 124.613 24.03C124.613 23.1433 124.931 22.49 125.565 22.07C126.209 21.65 127.199 21.44 128.533 21.44C129.009 21.44 129.471 21.4633 129.919 21.51C130.367 21.5567 130.759 21.608 131.095 21.664V29H129.135V26.494ZM129.135 25.262V23.232C129.014 23.1853 128.874 23.148 128.715 23.12C128.557 23.092 128.403 23.078 128.253 23.078C127.731 23.078 127.334 23.1713 127.063 23.358C126.793 23.5353 126.657 23.82 126.657 24.212C126.657 24.5947 126.807 24.87 127.105 25.038C127.413 25.206 127.871 25.29 128.477 25.29L129.135 25.262Z" fill="white"/>
<defs>
<linearGradient id="paint0_linear" x1="88" y1="0" x2="88" y2="48" gradientUnits="userSpaceOnUse">
<stop stop-color="#F76201"/>
<stop offset="1" stop-color="#FF4D00"/>
</linearGradient>
</defs>
</svg>
