<svg width="25" height="23" viewBox="0 0 25 23" fill="none" xmlns="http://www.w3.org/2000/svg">
<path d="M22.3191 0.138733H2.16554C0.971469 0.138733 0 1.13964 0 2.36989V15.7504C0 16.9806 0.971469 17.982 2.16554 17.982H11.3463V21.0154H8.715C8.22053 21.0154 7.81922 21.4289 7.81922 21.9384C7.81922 22.4469 8.22053 22.8613 8.715 22.8613H15.7132C16.2077 22.8613 16.609 22.4469 16.609 21.9384C16.609 21.4289 16.2077 21.0154 15.7132 21.0154H13.1379V17.982H22.3191C23.5128 17.982 24.4847 16.9806 24.4847 15.7504V2.36989C24.4847 1.13964 23.5128 0.138733 22.3191 0.138733ZM1.79155 2.36989C1.79155 2.15762 1.95906 1.98457 2.16554 1.98457H22.3191C22.5252 1.98457 22.6931 2.15762 22.6931 2.37035V15.7509C22.6931 15.9636 22.5252 16.1366 22.3191 16.1366H2.16554C1.95906 16.1362 1.79155 15.9631 1.79155 15.7509V2.36989Z" fill="#F4AB53"/>
</svg>
