<svg width="74" height="48" viewBox="0 0 74 48" fill="none" xmlns="http://www.w3.org/2000/svg">
<path fill-rule="evenodd" clip-rule="evenodd" d="M1.54644 45.6998C2.11107 46.0412 3.06786 46.4245 3.97738 46.4245C5.28741 46.4245 5.91322 45.7614 5.91322 44.8828C5.91322 43.9818 5.38754 43.5174 4.05804 42.9997C2.23345 42.3282 1.38512 41.3237 1.38512 40.0926C1.38512 38.4278 2.71741 37.0596 4.86464 37.0596C5.88263 37.0596 6.78101 37.3394 7.31504 37.7003L6.88114 39.0657C6.48897 38.8083 5.76303 38.4446 4.82292 38.4446C3.73261 38.4446 3.14852 39.0853 3.14852 39.852C3.14852 40.711 3.73261 41.0943 5.04543 41.6203C6.76989 42.2834 7.68774 43.1844 7.68774 44.7149C7.68774 46.5476 6.29705 47.8291 3.94678 47.8291C2.84813 47.8291 1.83015 47.5297 1.11255 47.1044L1.54644 45.6998Z" fill="#2B2A29"/>
<path fill-rule="evenodd" clip-rule="evenodd" d="M16.1764 47.2443C15.7036 47.4821 14.6328 47.8431 13.2838 47.8431C10.2493 47.8431 8.27173 45.7334 8.27173 42.566C8.27173 39.3875 10.3884 37.0596 13.6871 37.0596C14.7663 37.0596 15.7231 37.3394 16.2293 37.6192L15.8149 39.0462C15.381 38.8083 14.6967 38.5593 13.6982 38.5593C11.3897 38.5593 10.138 40.3276 10.138 42.4709C10.138 44.8604 11.64 46.3322 13.637 46.3322C14.6745 46.3322 15.3615 46.0747 15.8844 45.8453L16.1764 47.2443Z" fill="#2B2A29"/>
<path fill-rule="evenodd" clip-rule="evenodd" d="M17.2751 32.4426H19.1109V47.605H17.2751V32.4426Z" fill="#2B2A29"/>
<path fill-rule="evenodd" clip-rule="evenodd" d="M22.2983 42.4625C22.2983 44.7289 23.55 46.4356 25.3328 46.4356C27.0768 46.4356 28.3868 44.7484 28.3868 42.4205C28.3868 40.6718 27.5301 38.4669 25.3718 38.4669C23.2245 38.4669 22.2983 40.5151 22.2983 42.4625ZM30.2614 42.3478C30.2614 46.167 27.6608 47.8318 25.2494 47.8318C22.5459 47.8318 20.4209 45.7837 20.4209 42.5128C20.4209 39.0769 22.6488 37.0483 25.4107 37.0483C28.3061 37.0595 30.2614 39.2112 30.2614 42.3478Z" fill="#2B2A29"/>
<path fill-rule="evenodd" clip-rule="evenodd" d="M39.9519 44.7708C39.9519 45.8565 39.9714 46.7994 40.0325 47.6052H38.411L38.3109 45.918H38.2719C37.8185 46.7462 36.7282 47.8431 34.9454 47.8431C33.3627 47.8431 31.4658 46.9225 31.4658 43.3215V37.2778H33.3015V42.9801C33.3015 44.9471 33.9079 46.293 35.5489 46.293C36.7783 46.293 37.6266 45.4144 37.9576 44.5638C38.0577 44.3064 38.1189 43.965 38.1189 43.6013V37.2666H39.9547V44.7708H39.9519Z" fill="#2B2A29"/>
<path fill-rule="evenodd" clip-rule="evenodd" d="M48.8161 41.4775C48.8161 41.2397 48.7967 40.9179 48.7355 40.6912C48.4629 39.5105 47.4644 38.5396 46.0932 38.5396C44.1991 38.5396 43.0782 40.2464 43.0782 42.5127C43.0782 44.6029 44.0962 46.332 46.0515 46.332C47.2808 46.332 48.4017 45.473 48.7327 44.0852C48.7939 43.8278 48.8134 43.5676 48.8134 43.2794V41.4775H48.8161ZM50.6296 32.4427V44.933C50.6296 45.8536 50.6713 46.9 50.7103 47.6023H49.0859L49.0053 45.8116H48.9441C48.3989 46.9616 47.2002 47.8401 45.5564 47.8401C43.1255 47.8401 41.2313 45.7304 41.2313 42.5827C41.2119 39.1468 43.309 37.0566 45.7483 37.0566C47.3114 37.0566 48.3294 37.8009 48.7828 38.6179H48.8217V32.4399H50.6296V32.4427Z" fill="#2B2A29"/>
<path fill-rule="evenodd" clip-rule="evenodd" d="M52.0007 46.497C52.0007 45.7303 52.5236 45.1511 53.2496 45.1511C53.9756 45.1511 54.479 45.7107 54.479 46.497C54.479 47.2636 53.9756 47.8428 53.2079 47.8428C52.507 47.8428 52.0007 47.2636 52.0007 46.497Z" fill="#2B2A29"/>
<path fill-rule="evenodd" clip-rule="evenodd" d="M55.7027 40.4955C55.7027 39.2756 55.6833 38.2291 55.6221 37.2666H57.2241L57.3048 39.3147H57.366C57.8194 37.9269 58.9486 37.0483 60.178 37.0483C60.3699 37.0483 60.5117 37.0679 60.6814 37.0903V38.8586C60.4895 38.8167 60.3087 38.8167 60.0556 38.8167C58.765 38.8167 57.8472 39.7988 57.5969 41.2062C57.5551 41.4636 57.5357 41.7854 57.5357 42.0847V47.5912H55.6999V40.4955H55.7027Z" fill="#808285"/>
<path fill-rule="evenodd" clip-rule="evenodd" d="M69.899 44.7708C69.899 45.8565 69.9184 46.7994 69.9796 47.6052H68.3553L68.2551 45.918H68.2162C67.7628 46.7462 66.6725 47.8431 64.8897 47.8431C63.3071 47.8431 61.4102 46.9225 61.4102 43.3215V37.2778H63.2459V42.9801C63.2459 44.9471 63.8522 46.293 65.4932 46.293C66.7226 46.293 67.5709 45.4144 67.9019 44.5638C68.002 44.3064 68.0744 43.965 68.0744 43.6013V37.2666H69.9101V44.7708H69.899Z" fill="#808285"/>
<path fill-rule="evenodd" clip-rule="evenodd" d="M0.289264 31.8748C0.0806602 30.9907 0 30.1261 0 29.3538C0 27.8093 0.289264 26.6873 0.289264 26.6873C0.358799 26.2033 0.458929 25.7612 0.578528 25.3275C0.667533 25.0197 0.756537 24.7204 0.867792 24.4322C0.956797 24.1943 1.0458 23.9677 1.15706 23.7439C1.24606 23.548 1.34619 23.3521 1.44632 23.1787C1.53532 23.0136 1.63545 22.8485 1.73558 22.6946C1.82459 22.5491 1.92472 22.4064 2.02485 22.2721C2.11385 22.1378 2.21398 22.0147 2.31411 21.8916C2.40312 21.7797 2.50325 21.6649 2.60338 21.553C2.69238 21.4495 2.79251 21.346 2.89264 21.2452C2.98165 21.1529 3.08178 21.0606 3.18191 20.9682C3.27091 20.8759 3.37104 20.792 3.47117 20.7108C3.56017 20.6297 3.6603 20.5569 3.76043 20.473C3.84944 20.4002 3.94957 20.3275 4.0497 20.2575C4.14983 20.1848 4.23883 20.1232 4.33896 20.0617C4.43909 20.0001 4.5281 19.9386 4.62823 19.877C4.72836 19.8155 4.81736 19.7651 4.91749 19.7119C5.01762 19.6616 5.10662 19.6084 5.20675 19.558C5.30688 19.5077 5.39589 19.4657 5.49602 19.4125C5.59615 19.3706 5.68515 19.3202 5.78528 19.2782C5.88541 19.2363 5.97442 19.1971 6.07455 19.1551C6.17468 19.1132 6.26368 19.0824 6.36381 19.0432C6.46394 19.0124 6.55294 18.9705 6.65307 18.9397C6.7532 18.9089 6.84221 18.8781 6.94234 18.8473C7.04247 18.8166 7.13147 18.797 7.2316 18.7662C7.33173 18.7354 7.42908 18.7158 7.52087 18.6935C7.621 18.6739 7.71834 18.6515 7.81013 18.6319C7.9186 18.6123 8.00761 18.5899 8.09939 18.5815C8.219 18.562 8.308 18.5508 8.38866 18.5396C8.48879 18.5284 8.53885 18.52 8.53885 18.52C8.53885 18.52 8.55832 18.0975 8.6668 17.3868C8.72521 17.0063 8.81699 16.5334 8.95606 15.9962C9.03672 15.6772 9.12573 15.3275 9.24533 14.9553C9.32599 14.6783 9.42333 14.3901 9.53459 14.0907C9.62359 13.8445 9.7126 13.5871 9.82385 13.3297C9.91286 13.103 10.0019 12.8764 10.1131 12.6498C10.2021 12.4427 10.2911 12.2385 10.4024 12.0314C10.4914 11.8467 10.5915 11.6509 10.6916 11.4662C10.7807 11.2899 10.8808 11.1165 10.9809 10.9318C11.0699 10.7667 11.17 10.6016 11.2702 10.4365C11.3592 10.2827 11.4593 10.1288 11.5594 9.97208C11.6484 9.82658 11.7486 9.6727 11.8487 9.53C11.9377 9.3845 12.0378 9.25299 12.138 9.1075C12.227 8.97319 12.3271 8.83889 12.4272 8.70738C12.5162 8.58427 12.6164 8.44997 12.7165 8.32686C12.8055 8.20374 12.9056 8.08902 13.0058 7.96591C13.0948 7.85399 13.1949 7.73927 13.295 7.61616C13.384 7.50424 13.4842 7.38952 13.5843 7.286C13.6733 7.18247 13.7734 7.07055 13.8736 6.96703C13.9626 6.8635 14.0627 6.75997 14.1628 6.65925C14.2518 6.55572 14.3519 6.46339 14.4521 6.35986C14.5411 6.26753 14.6412 6.17519 14.7413 6.07167C14.8303 5.97933 14.9305 5.887 15.0306 5.79466C15.1196 5.70233 15.2197 5.61839 15.3199 5.52606C15.4089 5.44491 15.509 5.36097 15.6091 5.26864C15.6981 5.1875 15.7983 5.10356 15.8984 5.02241C15.9874 4.94127 16.0875 4.86852 16.1877 4.78458C16.2767 4.71184 16.3768 4.63069 16.4769 4.55795C16.5659 4.4852 16.6661 4.41525 16.7662 4.33131C16.8552 4.25856 16.9553 4.18581 17.0555 4.11586C17.1445 4.04311 17.2446 3.97316 17.3447 3.90881C17.4337 3.83606 17.5339 3.77451 17.634 3.70176C17.723 3.6402 17.8231 3.56745 17.9232 3.5059C18.0123 3.44434 18.1124 3.38279 18.2125 3.32123C18.3015 3.25967 18.4016 3.19812 18.5018 3.13656C18.5908 3.075 18.6909 3.01345 18.791 2.95189C18.88 2.89034 18.9802 2.83997 19.0803 2.77562C19.1693 2.71406 19.2694 2.6637 19.3696 2.61054C19.4586 2.56017 19.5587 2.49862 19.6588 2.44545C19.7478 2.39509 19.848 2.34193 19.9481 2.29156C20.0371 2.2412 20.1372 2.18804 20.2374 2.13767C20.3264 2.08731 20.4265 2.03415 20.5266 1.99218C20.6156 1.94181 20.7158 1.89984 20.8159 1.84668C20.8465 1.83549 20.8743 1.8159 20.9049 1.80471C20.9744 1.77393 21.0328 1.74316 21.1024 1.71238C21.2025 1.67041 21.2915 1.62004 21.3916 1.57807C21.4918 1.5361 21.5808 1.49693 21.6809 1.45496C21.781 1.41299 21.87 1.37382 21.9702 1.33185C22.0703 1.28988 22.1593 1.25071 22.2594 1.21993C22.3596 1.17796 22.4486 1.13879 22.5487 1.10801C22.6488 1.06604 22.7378 1.03526 22.838 1.00448C22.9381 0.973705 23.0271 0.931735 23.1272 0.900957C23.2274 0.870179 23.3164 0.839401 23.4165 0.808623C23.5166 0.777845 23.6056 0.747067 23.7057 0.716289C23.8059 0.685511 23.8949 0.665925 23.995 0.635147C24.0951 0.604369 24.1841 0.584783 24.2843 0.554004C24.3844 0.534418 24.4734 0.50364 24.5735 0.481256C24.6737 0.46167 24.7627 0.430892 24.8628 0.408508C24.9629 0.388922 25.0519 0.366538 25.1521 0.346952C25.2522 0.327366 25.3412 0.304982 25.4413 0.285396C25.5415 0.26581 25.6305 0.243426 25.7306 0.235032C25.8307 0.215446 25.9197 0.204254 26.0199 0.184668C26.12 0.173476 26.209 0.15389 26.3091 0.142698C26.4093 0.131506 26.4983 0.123112 26.5984 0.11192C26.6985 0.100728 26.7875 0.0923341 26.8877 0.0811421C26.9878 0.0699501 27.0768 0.0615561 27.1769 0.0615561C27.277 0.050364 27.3661 0.04197 27.4662 0.04197C27.5663 0.030778 27.6553 0.030778 27.7554 0.022384C27.8556 0.022384 27.9446 0.011192 28.0447 0.011192C28.1448 0.011192 28.2338 0 28.334 0C28.4341 0 28.5231 0 28.6232 0C28.7234 0 28.8124 0 28.9125 0C29.0126 0 29.1016 0.011192 29.2018 0.011192C29.3019 0.011192 29.3909 0.022384 29.491 0.022384C29.5912 0.022384 29.6802 0.033576 29.7803 0.04197C29.8804 0.053162 29.9694 0.053162 30.0696 0.0615561C30.1697 0.0727481 30.2587 0.0811421 30.3588 0.0811421C30.459 0.0923341 30.548 0.100728 30.6481 0.11192C30.7482 0.123112 30.8372 0.131506 30.9374 0.142698C31.0375 0.15389 31.1265 0.173476 31.2266 0.184668C31.3267 0.19586 31.4157 0.215446 31.5159 0.226638C31.616 0.246224 31.705 0.257416 31.8051 0.277002C31.9053 0.296588 31.9943 0.318972 32.0944 0.327366C32.1945 0.346952 32.2835 0.369336 32.3837 0.388922C32.4838 0.408508 32.5728 0.430892 32.6729 0.450478C32.7731 0.470064 32.8621 0.492448 32.9622 0.523226C33.0623 0.542812 33.1513 0.573591 33.2515 0.595975C33.3516 0.615561 33.4406 0.646339 33.5407 0.668723C33.6409 0.699501 33.7299 0.719087 33.83 0.749865C33.9301 0.780643 34.0191 0.800229 34.1193 0.831007C34.2194 0.861785 34.3084 0.892563 34.4085 0.923341C34.5087 0.954119 34.5977 0.984897 34.6978 1.01568C34.7979 1.04645 34.8869 1.07723 34.987 1.1192C35.0872 1.14998 35.1762 1.19195 35.2763 1.22273C35.3764 1.25351 35.4654 1.29548 35.5656 1.33465C35.6657 1.37662 35.7547 1.4074 35.8548 1.44657C35.955 1.48854 36.044 1.51932 36.1441 1.55849C36.2442 1.60046 36.3332 1.63963 36.4334 1.6816C36.5335 1.72357 36.6225 1.76274 36.7226 1.80471C36.8228 1.84668 36.9118 1.88585 37.0119 1.93902C37.112 1.98099 37.201 2.03135 37.3012 2.07332C37.4013 2.12368 37.4903 2.16565 37.5904 2.21882C37.6906 2.26918 37.7796 2.31115 37.8797 2.36431C37.9798 2.41468 38.0688 2.46784 38.169 2.5182C38.2691 2.56857 38.3581 2.62173 38.4582 2.67209C38.5583 2.72246 38.6474 2.77562 38.7475 2.83717C38.8476 2.88754 38.9366 2.94909 39.0367 3.00226C39.1369 3.05262 39.2259 3.11418 39.326 3.16734C39.4261 3.2289 39.5151 3.27926 39.6153 3.34361C39.7154 3.40517 39.8044 3.46673 39.9045 3.51989C40.0047 3.58144 40.0937 3.643 40.1938 3.70456C40.2939 3.76611 40.3829 3.82767 40.4831 3.90042C40.5832 3.96197 40.6722 4.03472 40.7723 4.09628C40.8725 4.16902 40.9615 4.23058 41.0616 4.30333C41.1617 4.37608 41.2507 4.44882 41.3509 4.51038C41.451 4.58313 41.54 4.65588 41.6401 4.72583C41.7403 4.79857 41.8293 4.87972 41.9294 4.94127C42.0295 5.02241 42.1296 5.09516 42.2187 5.16791C42.3188 5.24905 42.4189 5.33299 42.5079 5.40574C42.6164 5.49808 42.7082 5.58202 42.7972 5.65197C42.9168 5.75549 43.0169 5.84783 43.0864 5.90938C43.1671 5.98213 43.1949 6.0213 43.1949 6.0213C43.2561 6.00172 43.3034 5.97933 43.3646 5.95975C43.4647 5.92897 43.5537 5.887 43.6538 5.85622C43.754 5.82544 43.843 5.78347 43.9431 5.75269C44.0432 5.72192 44.1322 5.69114 44.2324 5.66036C44.3325 5.62958 44.4215 5.5988 44.5216 5.56803C44.6218 5.53725 44.7108 5.50647 44.8109 5.47569C44.911 5.44491 45 5.41413 45.1002 5.39455C45.2003 5.36377 45.2893 5.34418 45.3894 5.31341C45.4896 5.28263 45.5786 5.26304 45.6787 5.23226C45.7788 5.21268 45.8678 5.1819 45.968 5.15952C46.0681 5.13993 46.1571 5.10915 46.2572 5.08677C46.3574 5.06718 46.4464 5.0448 46.5465 5.02521C46.6466 5.00563 46.7356 4.98324 46.8358 4.96366C46.9359 4.94407 47.0249 4.93288 47.125 4.91329C47.2251 4.89371 47.3141 4.88251 47.4143 4.86293C47.5144 4.84334 47.6034 4.83215 47.7035 4.82096C47.8037 4.80977 47.8927 4.79018 47.9928 4.77899C48.0929 4.7678 48.1819 4.7594 48.2821 4.74821C48.3822 4.73702 48.4712 4.72862 48.5713 4.71743C48.6715 4.70624 48.7605 4.70624 48.8606 4.69785C48.9607 4.68665 49.0497 4.68665 49.1499 4.67826C49.25 4.67826 49.339 4.66707 49.4391 4.66707C49.5393 4.66707 49.6283 4.66707 49.7284 4.65588C49.8285 4.65588 49.9175 4.65588 50.0177 4.65588C50.1178 4.65588 50.2068 4.65588 50.3069 4.66707C50.407 4.66707 50.4961 4.67826 50.5962 4.67826C50.6963 4.68945 50.7853 4.68945 50.8854 4.69785C50.9856 4.70904 51.0746 4.71743 51.1747 4.71743C51.2748 4.72862 51.3638 4.73702 51.464 4.74821C51.5641 4.7594 51.6531 4.77899 51.7532 4.79018C51.8534 4.80137 51.9424 4.82096 52.0425 4.83215C52.1426 4.85174 52.2316 4.86293 52.3318 4.88251C52.4319 4.9021 52.5209 4.92448 52.621 4.94407C52.7212 4.96366 52.8102 4.98604 52.9103 5.01682C53.0104 5.0364 53.0994 5.06718 53.1996 5.08957C53.2997 5.12034 53.3887 5.13993 53.4888 5.17071C53.589 5.20149 53.678 5.23226 53.7781 5.26304C53.8782 5.29382 53.9672 5.3246 54.0674 5.36657C54.1675 5.39735 54.2565 5.43932 54.3566 5.47849C54.4567 5.52046 54.5457 5.55963 54.6459 5.6016C54.746 5.64357 54.835 5.68274 54.9351 5.73591C55.0353 5.77788 55.1243 5.82824 55.2244 5.87021C55.3245 5.92057 55.4135 5.96254 55.5137 6.01291C55.6138 6.06327 55.7028 6.11643 55.8029 6.1668C55.9031 6.21716 55.9921 6.27872 56.0922 6.34307C56.1923 6.40463 56.2813 6.46618 56.3815 6.52774C56.4816 6.5893 56.5706 6.66204 56.6707 6.7236C56.7709 6.79635 56.8599 6.8579 56.96 6.93065C57.0601 7.0034 57.1491 7.07615 57.2493 7.1461C57.3494 7.22724 57.4384 7.29999 57.5385 7.38393C57.6387 7.46507 57.7277 7.54901 57.8278 7.63015C57.9279 7.72249 58.0169 7.80643 58.1171 7.89876C58.2172 7.9911 58.3062 8.08343 58.4063 8.18696C58.5064 8.29048 58.5955 8.39401 58.6956 8.48634C58.7957 8.58987 58.8847 8.70179 58.9848 8.80531C59.085 8.91723 59.174 9.03195 59.2741 9.14387C59.3742 9.26698 59.4632 9.3901 59.5634 9.51321C59.6635 9.64751 59.7608 9.78182 59.8526 9.90493C59.9528 10.0504 60.0529 10.1931 60.1419 10.3274C60.242 10.4813 60.3394 10.6352 60.4312 10.7919C60.5313 10.9682 60.6314 11.1416 60.7204 11.2955C60.8289 11.5026 60.9179 11.6873 61.0097 11.8607C61.1404 12.1377 61.2378 12.3644 61.299 12.5099C61.349 12.633 61.3685 12.7057 61.3685 12.7057C61.3685 12.7057 61.438 12.7253 61.5771 12.7785C61.6578 12.8093 61.7468 12.84 61.8664 12.882C61.9554 12.9128 62.0444 12.9548 62.1556 12.9855C62.2446 13.0163 62.3336 13.0583 62.4449 13.0975C62.5339 13.1394 62.634 13.1702 62.7341 13.2094C62.8232 13.2513 62.9233 13.2905 63.0234 13.3325C63.1124 13.3745 63.2126 13.4136 63.3127 13.4668C63.4017 13.5088 63.5018 13.5479 63.6019 13.6011C63.6909 13.6431 63.7911 13.6934 63.8912 13.7466C63.9802 13.797 64.0803 13.8389 64.1805 13.8893C64.2695 13.9396 64.3696 13.9928 64.4697 14.0432C64.5587 14.0935 64.6589 14.1467 64.759 14.1971C64.848 14.2474 64.9481 14.3006 65.0483 14.3621C65.1373 14.4125 65.2374 14.4741 65.3375 14.5272C65.4265 14.5776 65.5267 14.6391 65.6268 14.7035C65.7158 14.7651 65.8159 14.8154 65.9161 14.8798C66.0051 14.9413 66.1052 15.0029 66.2053 15.0644C66.2943 15.126 66.3945 15.1876 66.4946 15.2603C66.5836 15.3219 66.6837 15.3946 66.7839 15.4562C66.884 15.5289 66.973 15.5905 67.0731 15.6632C67.1732 15.736 67.2622 15.8059 67.3624 15.8787C67.4625 15.9514 67.5515 16.0242 67.6516 16.1053C67.7518 16.1781 67.8408 16.2592 67.9409 16.3319C68.041 16.4131 68.13 16.4858 68.2302 16.5698C68.3303 16.6509 68.4193 16.7349 68.5194 16.816C68.6196 16.8971 68.7086 16.9923 68.8087 17.0734C68.9088 17.1657 68.9978 17.2581 69.098 17.3504C69.1981 17.4427 69.2871 17.5351 69.3872 17.6386C69.4874 17.7421 69.5764 17.8345 69.6765 17.938C69.7766 18.0415 69.8656 18.145 69.9658 18.257C70.0659 18.3689 70.1549 18.4724 70.255 18.5871C70.3551 18.6991 70.4442 18.825 70.5443 18.9369C70.6444 19.06 70.7334 19.1831 70.8335 19.3062C70.9337 19.4405 71.0227 19.5748 71.1228 19.7063C71.2229 19.8518 71.3119 19.9945 71.4121 20.14C71.5122 20.2939 71.6012 20.4478 71.7013 20.6045C71.8015 20.7696 71.8905 20.9431 71.9906 21.1193C72.0907 21.304 72.1797 21.4887 72.2799 21.6845C72.38 21.8916 72.469 22.107 72.5691 22.3225C72.6693 22.5603 72.7666 22.8065 72.8584 23.0639C72.9474 23.3214 73.0364 23.5788 73.1059 23.8558C73.1171 23.8977 73.1254 23.9285 73.1365 23.9677C73.245 24.337 73.334 24.698 73.4258 25.0477C73.5343 25.5206 73.6344 25.9739 73.7151 26.3964C74.1434 28.7831 74.0433 30.6073 73.7151 31.956C73.6344 32.2945 73.537 32.6135 73.4258 32.8933C73.3368 33.1311 73.2367 33.355 73.1365 33.562C73.0475 33.7467 72.9474 33.923 72.8473 34.0769C72.7471 34.2308 72.6581 34.3763 72.558 34.4994C72.4579 34.6337 72.3689 34.7456 72.2687 34.8491C72.1686 34.961 72.0713 35.0646 71.9795 35.1485C71.871 35.252 71.7709 35.3332 71.6902 35.3947C71.5623 35.4983 71.4705 35.5486 71.4705 35.5486C71.54 35.3416 71.6096 35.1065 71.6902 34.8183C71.7987 34.4182 71.8988 33.9342 71.9795 33.3662C72.138 32.233 72.1992 30.8032 71.9795 29.116C71.9099 28.59 71.8209 28.0444 71.6902 27.4792C71.6096 27.1098 71.5122 26.7265 71.4009 26.3376C71.312 26.0298 71.2229 25.7192 71.1117 25.4115C71.0227 25.1429 70.9337 24.877 70.8224 24.6084C70.7334 24.3706 70.6444 24.1244 70.5332 23.8865C70.4525 23.7019 70.3746 23.506 70.294 23.3214C70.2828 23.2906 70.2634 23.2598 70.255 23.229C70.166 23.0332 70.077 22.8373 69.9658 22.6526C69.8767 22.4764 69.7766 22.3141 69.6765 22.149C69.5875 21.9951 69.4874 21.8496 69.3872 21.6957C69.2982 21.5614 69.1981 21.4271 69.098 21.2956C69.009 21.1725 68.9088 21.0494 68.8087 20.9263C68.7197 20.8143 68.6196 20.6996 68.5194 20.5877C68.4304 20.4758 68.3303 20.3723 68.2302 20.2687C68.1412 20.1652 68.041 20.0617 67.9409 19.9693C67.8519 19.877 67.7518 19.7735 67.6516 19.6812C67.5626 19.5888 67.4625 19.4965 67.3624 19.4125C67.2734 19.3314 67.1732 19.2363 67.0731 19.1551C66.9841 19.074 66.884 18.99 66.7839 18.9089C66.6948 18.8278 66.5947 18.755 66.4946 18.6711C66.4056 18.5983 66.3055 18.5172 66.2053 18.4444C66.1163 18.3717 66.0162 18.3017 65.9161 18.229C65.827 18.1562 65.7269 18.0835 65.6268 18.0219C65.5267 17.9492 65.4377 17.8876 65.3375 17.8261C65.2374 17.7645 65.1484 17.6918 65.0483 17.6302C64.9481 17.5687 64.8591 17.5071 64.759 17.4455C64.6589 17.384 64.5699 17.3224 64.4697 17.2693C64.3696 17.2077 64.2806 17.1574 64.1805 17.093C64.0803 17.0314 63.9913 16.9811 63.8912 16.9279C63.7911 16.8776 63.7021 16.816 63.6019 16.7628C63.5018 16.7125 63.4128 16.6593 63.3127 16.6089C63.2126 16.5586 63.1235 16.5054 63.0234 16.4551C62.9233 16.4047 62.8343 16.3515 62.7341 16.3124C62.634 16.262 62.545 16.22 62.4449 16.1669C62.3448 16.1165 62.2558 16.0745 62.1556 16.0326C62.0555 15.9906 61.9665 15.9402 61.8664 15.8983C61.7662 15.8563 61.6772 15.8171 61.5771 15.7751C61.477 15.7332 61.388 15.694 61.2878 15.652C61.1877 15.6101 61.0987 15.5709 60.9986 15.5289C60.8984 15.4869 60.8094 15.4478 60.7093 15.417C60.6092 15.375 60.5202 15.3442 60.42 15.3051C60.3199 15.2631 60.2309 15.2323 60.1308 15.2015C60.0306 15.1596 59.9333 15.1288 59.8415 15.098C59.7414 15.0561 59.644 15.0253 59.5522 14.9945C59.4438 14.9525 59.3436 14.9217 59.263 14.9022C59.1128 14.8602 59.0433 14.8294 59.0433 14.8294C59.0238 14.7874 59.0043 14.7483 58.9848 14.7063C58.8958 14.5104 58.7957 14.3258 58.6956 14.1411C58.6066 13.9564 58.5064 13.7802 58.4063 13.6067C58.3173 13.4416 58.2172 13.2681 58.1171 13.1114C58.028 12.9576 57.9279 12.8037 57.8278 12.647C57.7388 12.5015 57.6387 12.3588 57.5385 12.2133C57.4495 12.079 57.3494 11.9447 57.2493 11.8132C57.1603 11.6789 57.0601 11.5558 56.96 11.4326C56.871 11.3095 56.7709 11.1948 56.6707 11.0829C56.5817 10.971 56.4816 10.8562 56.3815 10.7527C56.2925 10.6492 56.1923 10.5457 56.0922 10.4449C56.0032 10.3414 55.9031 10.2491 55.8029 10.1567C55.7139 10.0644 55.6138 9.97208 55.5137 9.88814C55.4247 9.807 55.3245 9.71187 55.2244 9.63072C55.1354 9.54958 55.0353 9.47683 54.9351 9.39289C54.835 9.32015 54.746 9.2502 54.6459 9.17745C54.5457 9.1047 54.4567 9.04314 54.3566 8.9704C54.2565 8.90884 54.1675 8.84728 54.0674 8.78573C53.9672 8.72417 53.8782 8.66262 53.7781 8.60945C53.678 8.55909 53.589 8.49753 53.4888 8.44437C53.3887 8.39401 53.2997 8.34085 53.1996 8.29888C53.0994 8.24851 53.0104 8.20654 52.9103 8.16457C52.8102 8.1226 52.7212 8.08343 52.621 8.04146C52.5209 7.99949 52.4319 7.96871 52.3318 7.92954C52.2316 7.89876 52.1426 7.85679 52.0425 7.83721C51.9424 7.80643 51.8534 7.77565 51.7532 7.75606C51.6531 7.72528 51.5641 7.7057 51.464 7.68332C51.3638 7.66373 51.2748 7.64135 51.1747 7.62176C51.0746 7.60217 50.9856 7.57979 50.8854 7.5714C50.7853 7.55181 50.6963 7.54062 50.5962 7.52943C50.4961 7.51823 50.407 7.50984 50.3069 7.49865C50.2068 7.48745 50.1178 7.47906 50.0177 7.47906C49.9175 7.46787 49.8285 7.46787 49.7284 7.46787C49.6283 7.46787 49.5393 7.46787 49.4391 7.45668C49.339 7.45668 49.25 7.45668 49.1499 7.45668C49.0497 7.45668 48.9607 7.46787 48.8606 7.46787C48.7605 7.47906 48.6715 7.47906 48.5713 7.48745C48.4712 7.49865 48.3822 7.50704 48.2821 7.51823C48.1819 7.52942 48.0929 7.53782 47.9928 7.5602C47.8927 7.57139 47.8037 7.59098 47.7035 7.60217C47.6034 7.62176 47.5144 7.63295 47.4143 7.65254C47.3141 7.67212 47.2251 7.69451 47.125 7.71409C47.0249 7.73368 46.9359 7.75606 46.8358 7.78684C46.7356 7.80643 46.6466 7.8372 46.5465 7.85959C46.4464 7.89037 46.3574 7.90995 46.2572 7.94073C46.1571 7.97151 46.0681 8.00229 45.968 8.03307C45.8678 8.06384 45.7788 8.09462 45.6787 8.13659C45.5786 8.16737 45.4896 8.20934 45.3894 8.24012C45.2893 8.28209 45.2003 8.31287 45.1002 8.35204C45 8.39401 44.911 8.43318 44.8109 8.47515C44.7108 8.51712 44.6218 8.55629 44.5216 8.59826C44.4215 8.64023 44.3325 8.6906 44.2324 8.73257C44.1322 8.78293 44.0432 8.8249 43.9431 8.87806C43.843 8.92843 43.754 8.98159 43.6538 9.03195C43.5537 9.08232 43.4564 9.14387 43.3646 9.19703C43.2645 9.25859 43.1643 9.30896 43.0753 9.36212C42.9668 9.42367 42.8751 9.48523 42.7861 9.54678C42.6553 9.62793 42.5663 9.68948 42.4968 9.74264C42.4384 9.78461 42.4078 9.8042 42.4078 9.8042C42.3466 9.72306 42.2771 9.63912 42.2075 9.54678C42.1185 9.43486 42.0295 9.32015 41.9183 9.19703C41.8293 9.09351 41.7403 8.98159 41.629 8.86687C41.54 8.76334 41.4399 8.65982 41.3397 8.5479C41.2507 8.44437 41.1506 8.35204 41.0505 8.24851C40.9615 8.15618 40.8613 8.06384 40.7612 7.96032C40.6722 7.86798 40.5721 7.77565 40.4719 7.68332C40.3829 7.60217 40.2828 7.50704 40.1827 7.41471C40.0937 7.33356 39.9935 7.24962 39.8934 7.15729C39.8044 7.07615 39.7043 6.99221 39.6041 6.91107C39.5151 6.82992 39.415 6.75718 39.3149 6.67324C39.2259 6.60049 39.1258 6.51935 39.0256 6.4466C38.9366 6.37385 38.8365 6.3039 38.7364 6.23115C38.6474 6.1584 38.5472 6.08566 38.4471 6.0241C38.3581 5.95135 38.258 5.8898 38.1578 5.81705C38.0688 5.75549 37.9687 5.68274 37.8686 5.62119C37.7796 5.55963 37.6794 5.49807 37.5793 5.43652C37.4903 5.37496 37.3902 5.31341 37.29 5.26024C37.201 5.19869 37.1009 5.14832 37.0008 5.08397C36.9118 5.03361 36.8116 4.97205 36.7115 4.91889C36.6225 4.86852 36.5224 4.81536 36.4222 4.765C36.3332 4.71463 36.2331 4.66147 36.133 4.61111C36.044 4.56074 35.9438 4.51877 35.8437 4.46561C35.7547 4.41525 35.6546 4.37328 35.5545 4.33131C35.4655 4.28934 35.3653 4.23897 35.2652 4.197C35.1762 4.15503 35.0761 4.11586 34.9759 4.07389C34.8869 4.03192 34.7868 3.99275 34.6867 3.95078C34.5977 3.90881 34.4975 3.87803 34.3974 3.83886C34.3084 3.80808 34.2083 3.76611 34.1081 3.73533C34.0191 3.70456 33.919 3.67378 33.8189 3.63181C33.7299 3.60103 33.6297 3.57025 33.5296 3.53947C33.4406 3.5087 33.3405 3.47792 33.2403 3.44714C33.1513 3.41636 33.0512 3.39678 32.9511 3.366C32.8621 3.33522 32.7619 3.31563 32.6618 3.29325C32.5728 3.27366 32.4727 3.24288 32.3725 3.2205C32.2835 3.20091 32.1834 3.17853 32.0833 3.15894C31.9943 3.13936 31.8941 3.11698 31.794 3.09739C31.705 3.0778 31.6049 3.06661 31.5048 3.04702C31.4157 3.02744 31.3156 3.01625 31.2155 2.99666C31.1265 2.98547 31.0264 2.96588 30.9262 2.95469C30.8372 2.9435 30.7371 2.9351 30.637 2.91272C30.548 2.90153 30.4478 2.89313 30.3477 2.88194C30.2587 2.87075 30.1586 2.86236 30.0584 2.86236C29.9694 2.85116 29.8693 2.85116 29.7692 2.84277C29.6802 2.83158 29.58 2.83158 29.4799 2.83158C29.3909 2.83158 29.2908 2.82039 29.1906 2.82039C29.1016 2.82039 29.0015 2.82039 28.9014 2.82039C28.8124 2.82039 28.7122 2.82039 28.6121 2.82039C28.5231 2.82039 28.423 2.83158 28.3228 2.83158C28.2338 2.83158 28.1337 2.84277 28.0336 2.84277C27.9446 2.85396 27.8444 2.85396 27.7443 2.86236C27.6553 2.87355 27.5552 2.88194 27.4551 2.88194C27.3549 2.89313 27.2659 2.90153 27.1658 2.91272C27.0768 2.92391 26.9767 2.93231 26.8765 2.95469C26.7875 2.96588 26.6874 2.98547 26.5873 2.99666C26.4871 3.00785 26.3981 3.02744 26.298 3.03863C26.209 3.05822 26.1089 3.06941 26.0087 3.08899C25.9197 3.10858 25.8196 3.13096 25.7195 3.13936C25.6305 3.15895 25.5303 3.18133 25.4302 3.20092C25.3412 3.2205 25.2411 3.24289 25.1409 3.27366C25.0408 3.29325 24.9518 3.32403 24.8517 3.34641C24.7627 3.366 24.6625 3.39678 24.5624 3.42755C24.4734 3.45833 24.3733 3.47792 24.2732 3.5087C24.173 3.53947 24.084 3.57025 23.9839 3.60103C23.8949 3.63181 23.7948 3.66259 23.6946 3.69336C23.5945 3.72414 23.5055 3.75492 23.4054 3.79689C23.3164 3.82767 23.2162 3.86964 23.1161 3.90042C23.0271 3.93119 22.927 3.97316 22.8268 4.01234C22.7267 4.05431 22.6377 4.08508 22.5376 4.12426C22.4486 4.16623 22.3484 4.2054 22.2483 4.24737C22.1593 4.28934 22.0786 4.32012 21.9896 4.35929C21.9785 4.35929 21.9702 4.37048 21.959 4.37048C21.8589 4.41245 21.7699 4.46281 21.6698 4.50478C21.5696 4.54675 21.4806 4.59712 21.3805 4.63909C21.2804 4.68945 21.1914 4.73142 21.0912 4.78458C20.9911 4.83495 20.9021 4.88811 20.802 4.93847C20.7019 4.98884 20.6128 5.042 20.5127 5.09236C20.4126 5.14273 20.3236 5.19589 20.2235 5.25745C20.1233 5.30781 20.0343 5.36937 19.9342 5.42253C19.8341 5.48408 19.7451 5.53445 19.6449 5.5988C19.5448 5.66036 19.4558 5.72192 19.3557 5.78347C19.2555 5.84503 19.1665 5.90658 19.0664 5.97933C18.9663 6.04089 18.8773 6.11364 18.7771 6.17519C18.677 6.24794 18.588 6.3095 18.4879 6.38224C18.3877 6.45499 18.2987 6.52774 18.1986 6.59769C18.0985 6.67044 18.0095 6.74319 17.9093 6.82433C17.8092 6.90547 17.7202 6.97822 17.6201 7.06216C17.5199 7.1433 17.4309 7.22724 17.3308 7.30838C17.2307 7.38952 17.1417 7.48466 17.0415 7.5658C16.9414 7.65813 16.8524 7.74207 16.7523 7.83441C16.6522 7.92674 16.5632 8.01908 16.463 8.11141C16.3629 8.20374 16.2739 8.30727 16.1738 8.3996C16.0736 8.50313 15.9846 8.60666 15.8845 8.69899C15.7844 8.80252 15.6954 8.91444 15.5952 9.01796C15.4951 9.12988 15.4061 9.2446 15.306 9.34813C15.2058 9.46005 15.1168 9.58596 15.0167 9.69788C14.9166 9.82099 14.8276 9.9441 14.7274 10.0672C14.6273 10.1903 14.5383 10.3246 14.4382 10.4477C14.338 10.582 14.249 10.7163 14.1489 10.8479C14.0488 10.9934 13.9598 11.1361 13.8596 11.2815C13.7595 11.4354 13.6705 11.5893 13.5704 11.7348C13.4703 11.8999 13.3812 12.0538 13.2811 12.2189C13.181 12.3952 13.092 12.5686 12.9919 12.7337C12.8917 12.9184 12.8027 13.103 12.7026 13.2905C12.6025 13.4864 12.5135 13.6906 12.4133 13.8865C12.3132 14.1019 12.2158 14.3202 12.1241 14.5356C12.0239 14.7735 11.9266 15.0085 11.8348 15.2463C11.7347 15.5149 11.6373 15.7807 11.5455 16.0298C11.4371 16.3375 11.3481 16.6369 11.2563 16.9251C11.1478 17.2945 11.0588 17.647 10.967 17.9744C10.8474 18.478 10.7473 18.9201 10.6777 19.3034C10.5275 20.1176 10.4997 20.6017 10.4997 20.6017C10.4691 20.6129 10.4302 20.6213 10.3996 20.6213C10.2995 20.6409 10.2105 20.6632 10.1103 20.6828C10.0102 20.7024 9.9212 20.7248 9.82107 20.7556C9.72094 20.7752 9.63194 20.8059 9.53181 20.8283C9.43168 20.8591 9.34267 20.8787 9.24254 20.9095C9.14241 20.9403 9.05341 20.9598 8.95328 20.9906C8.85315 21.0214 8.76415 21.0522 8.66402 21.0829C8.56389 21.1137 8.47488 21.1445 8.37475 21.1753C8.27462 21.2061 8.18562 21.248 8.08549 21.2788C7.98536 21.3208 7.89635 21.3516 7.79622 21.3907C7.69609 21.4327 7.60709 21.4635 7.50696 21.5026C7.40683 21.5446 7.31783 21.5838 7.2177 21.6258C7.11757 21.6677 7.02856 21.7181 6.92843 21.7601C6.8283 21.8104 6.7393 21.8524 6.63917 21.9056C6.53904 21.9559 6.45003 22.0091 6.3499 22.0595C6.24977 22.1098 6.16077 22.1714 6.06064 22.2245C5.96051 22.2861 5.8715 22.3365 5.77138 22.4008C5.67125 22.4624 5.58224 22.5239 5.48211 22.5855C5.38198 22.647 5.29298 22.7198 5.19285 22.7925C5.09272 22.8653 5.00371 22.938 4.90358 23.008C4.80345 23.0807 4.71445 23.1619 4.61432 23.2458C4.51419 23.3269 4.42518 23.4109 4.32505 23.5032C4.22492 23.5956 4.13592 23.6879 4.03579 23.7802C3.93566 23.8838 3.84666 23.9761 3.74653 24.0796C3.6464 24.1831 3.55739 24.2951 3.45726 24.4098C3.35713 24.5217 3.26813 24.6476 3.168 24.7707C3.06787 24.905 2.97886 25.0281 2.87873 25.1624C2.7786 25.3079 2.68126 25.4618 2.58947 25.6045C2.48934 25.7696 2.39199 25.9431 2.30021 26.1082C2.20008 26.304 2.10273 26.4999 2.01094 26.6957C1.91081 26.9336 1.81346 27.1686 1.72168 27.4064C1.6132 27.7142 1.51307 28.0136 1.43241 28.3214C1.30447 28.7942 1.21268 29.2671 1.14315 29.7204C0.895606 31.43 1.03468 32.9017 1.14315 33.6628C1.19321 34.0125 1.23215 34.2084 1.23215 34.2084C1.20156 34.158 1.17374 34.1049 1.14315 34.0545C1.04302 33.881 0.945671 33.6935 0.853885 33.5201C0.745411 33.2934 0.656407 33.0668 0.564621 32.8402C0.456147 32.5044 0.358799 32.1966 0.289264 31.8748Z" fill="url(#paint0_linear)"/>
<defs>
<linearGradient id="paint0_linear" x1="0" y1="17.7689" x2="73.7623" y2="17.7689" gradientUnits="userSpaceOnUse">
<stop stop-color="#4DB849"/>
<stop offset="0.5312" stop-color="#FFE500"/>
<stop offset="1" stop-color="#F6841F"/>
</linearGradient>
</defs>
</svg>
