<svg width="19" height="30" viewBox="0 0 19 30" fill="none" xmlns="http://www.w3.org/2000/svg">
<path d="M18.6017 26.9808V2.27131C18.6017 1.02209 17.5856 0 16.3304 0H3.25239C2.00317 0 0.981079 1.01611 0.981079 2.27131V26.9868C0.981079 28.236 1.99719 29.2581 3.25239 29.2581H16.3304C17.5796 29.2521 18.6017 28.236 18.6017 26.9808ZM2.44548 5.26586H17.1313V21.8942H2.44548V5.26586ZM3.25239 1.4644H16.3304C16.7727 1.4644 17.1373 1.82303 17.1373 2.27131V3.80146H2.44548V2.27131C2.44548 1.82303 2.81008 1.4644 3.25239 1.4644ZM2.44548 26.9808V23.3527H17.1313V26.9808C17.1313 27.4231 16.7727 27.7877 16.3244 27.7877H3.25239C2.81008 27.7877 2.44548 27.4291 2.44548 26.9808Z" fill="#E5CC60"/>
<path d="M11.0586 25.1945H8.08791C7.68147 25.1945 7.35272 25.5232 7.35272 25.9296C7.35272 26.3361 7.68147 26.6648 8.08791 26.6648H11.0586C11.465 26.6648 11.7937 26.3361 11.7937 25.9296C11.7937 25.5232 11.465 25.1945 11.0586 25.1945Z" fill="#E5CC60"/>
</svg>
