<svg width="62" height="40" viewBox="0 0 62 40" fill="none" xmlns="http://www.w3.org/2000/svg">
<path fill-rule="evenodd" clip-rule="evenodd" d="M1.29227 38.2082C1.76433 38.4936 2.56428 38.8141 3.32469 38.8141C4.41996 38.8141 4.94318 38.2596 4.94318 37.5251C4.94318 36.7718 4.50368 36.3835 3.39213 35.9507C1.86665 35.3893 1.1574 34.5495 1.1574 33.5202C1.1574 32.1283 2.27127 30.9844 4.0665 30.9844C4.9176 30.9844 5.66871 31.2183 6.11519 31.5201L5.75243 32.6617C5.42454 32.4464 4.81761 32.1423 4.03162 32.1423C3.12005 32.1423 2.63171 32.678 2.63171 33.319C2.63171 34.0372 3.12005 34.3577 4.21765 34.7975C5.65941 35.3519 6.4268 36.1051 6.4268 37.3847C6.4268 38.917 5.26409 39.9884 3.29911 39.9884C2.38057 39.9884 1.52946 39.7381 0.929504 39.3825L1.29227 38.2082Z" fill="#2B2A29"/>
<path fill-rule="evenodd" clip-rule="evenodd" d="M13.5245 39.4995C13.1292 39.6983 12.2339 40.0001 11.1061 40.0001C8.56903 40.0001 6.91565 38.2363 6.91565 35.5881C6.91565 32.9307 8.6853 30.9844 11.4433 30.9844C12.3455 30.9844 13.1455 31.2183 13.5687 31.4522L13.2222 32.6453C12.8594 32.4464 12.2874 32.2382 11.4526 32.2382C9.52245 32.2382 8.47601 33.7167 8.47601 35.5086C8.47601 37.5064 9.73174 38.7369 11.4014 38.7369C12.2688 38.7369 12.8432 38.5216 13.2803 38.3298L13.5245 39.4995Z" fill="#2B2A29"/>
<path fill-rule="evenodd" clip-rule="evenodd" d="M14.4448 27.1245H15.9795V39.8013H14.4448V27.1245Z" fill="#2B2A29"/>
<path fill-rule="evenodd" clip-rule="evenodd" d="M18.643 35.5017C18.643 37.3965 19.6894 38.8235 21.18 38.8235C22.638 38.8235 23.7333 37.4129 23.7333 35.4666C23.7333 34.0045 23.0171 32.1611 21.2126 32.1611C19.4173 32.1611 18.643 33.8735 18.643 35.5017ZM25.3006 35.4058C25.3006 38.5989 23.1264 39.9908 21.1102 39.9908C18.8499 39.9908 17.0733 38.2784 17.0733 35.5438C17.0733 32.6711 18.936 30.9751 21.2451 30.9751C23.6659 30.9845 25.3006 32.7834 25.3006 35.4058Z" fill="#2B2A29"/>
<path fill-rule="evenodd" clip-rule="evenodd" d="M33.402 37.4318C33.402 38.3394 33.4183 39.1278 33.4695 39.8015H32.1137L32.03 38.3909H31.9975C31.6184 39.0833 30.7069 40.0003 29.2163 40.0003C27.8931 40.0003 26.3071 39.2307 26.3071 36.22V31.1671H27.8419V35.9346C27.8419 37.5791 28.3489 38.7043 29.7209 38.7043C30.7487 38.7043 31.458 37.9698 31.7347 37.2586C31.8184 37.0434 31.8696 36.758 31.8696 36.4539V31.1577H33.4044V37.4318H33.402Z" fill="#2B2A29"/>
<path fill-rule="evenodd" clip-rule="evenodd" d="M40.8137 34.6776C40.8137 34.4787 40.7974 34.2097 40.7462 34.0202C40.5184 33.033 39.6835 32.2213 38.5371 32.2213C36.9535 32.2213 36.0164 33.6483 36.0164 35.5431C36.0164 37.2906 36.8675 38.7363 38.5022 38.7363C39.5301 38.7363 40.4672 38.0181 40.7439 36.8578C40.7951 36.6426 40.8114 36.425 40.8114 36.1841V34.6776H40.8137ZM42.3299 27.1239V37.5666C42.3299 38.3363 42.3647 39.2112 42.3973 39.7983H41.0392L40.9718 38.3012H40.9206C40.4649 39.2626 39.4626 39.9972 38.0883 39.9972C36.0559 39.9972 34.4723 38.2333 34.4723 35.6016C34.456 32.7289 36.2094 30.9814 38.2488 30.9814C39.5556 30.9814 40.4067 31.6037 40.7858 32.2868H40.8183V27.1216H42.3299V27.1239Z" fill="#2B2A29"/>
<path fill-rule="evenodd" clip-rule="evenodd" d="M43.4755 38.8747C43.4755 38.2337 43.9127 37.7495 44.5197 37.7495C45.1266 37.7495 45.5475 38.2174 45.5475 38.8747C45.5475 39.5157 45.1266 39.9999 44.4848 39.9999C43.8988 39.9999 43.4755 39.5157 43.4755 38.8747Z" fill="#2B2A29"/>
<path fill-rule="evenodd" clip-rule="evenodd" d="M46.5713 33.8571C46.5713 32.8372 46.555 31.9623 46.5038 31.1576H47.8433L47.9107 32.8699H47.9619C48.3409 31.7096 49.285 30.9751 50.3129 30.9751C50.4733 30.9751 50.5919 30.9915 50.7338 31.0102V32.4886C50.5733 32.4535 50.4222 32.4535 50.2106 32.4535C49.1316 32.4535 48.3642 33.2746 48.1549 34.4513C48.12 34.6665 48.1037 34.9356 48.1037 35.1859V39.7896H46.569V33.8571H46.5713Z" fill="#808285"/>
<path fill-rule="evenodd" clip-rule="evenodd" d="M58.4401 37.4318C58.4401 38.3394 58.4564 39.1278 58.5075 39.8015H57.1495L57.0658 38.3909H57.0332C56.6542 39.0833 55.7426 40.0003 54.252 40.0003C52.9288 40.0003 51.3429 39.2307 51.3429 36.22V31.1671H52.8777V35.9346C52.8777 37.5791 53.3846 38.7043 54.7566 38.7043C55.7845 38.7043 56.4937 37.9698 56.7704 37.2586C56.8541 37.0434 56.9146 36.758 56.9146 36.4539V31.1577H58.4494V37.4318H58.4401Z" fill="#808285"/>
<path fill-rule="evenodd" clip-rule="evenodd" d="M0.241783 26.6495C0.0673762 25.9102 -6.10352e-05 25.1874 -6.10352e-05 24.5417C-6.10352e-05 23.2504 0.241783 22.3124 0.241783 22.3124C0.299918 21.9077 0.383633 21.5381 0.483627 21.1755C0.55804 20.9181 0.632454 20.6678 0.72547 20.4269C0.799884 20.2281 0.874297 20.0386 0.967314 19.8514C1.04173 19.6877 1.12544 19.5239 1.20916 19.3789C1.28357 19.2409 1.36729 19.1028 1.451 18.9742C1.52542 18.8525 1.60913 18.7332 1.69285 18.6209C1.76726 18.5087 1.85097 18.4057 1.93469 18.3028C2.0091 18.2092 2.09282 18.1133 2.17653 18.0197C2.25095 17.9332 2.33466 17.8466 2.41838 17.7624C2.49279 17.6852 2.57651 17.608 2.66022 17.5308C2.73463 17.4536 2.81835 17.3834 2.90207 17.3156C2.97648 17.2478 3.06019 17.1869 3.14391 17.1168C3.21832 17.0559 3.30204 16.9951 3.38575 16.9366C3.46947 16.8758 3.54388 16.8243 3.6276 16.7729C3.71131 16.7214 3.78573 16.67 3.86944 16.6185C3.95316 16.567 4.02757 16.5249 4.11128 16.4805C4.195 16.4384 4.26941 16.3939 4.35313 16.3518C4.43684 16.3097 4.51126 16.2746 4.59497 16.2302C4.67869 16.1951 4.7531 16.153 4.83682 16.1179C4.92053 16.0828 4.99494 16.05 5.07866 16.0149C5.16237 15.9799 5.23679 15.9541 5.3205 15.9214C5.40422 15.8956 5.47863 15.8606 5.56235 15.8348C5.64606 15.8091 5.72048 15.7834 5.80419 15.7576C5.88791 15.7319 5.96232 15.7155 6.04603 15.6898C6.12975 15.664 6.21114 15.6477 6.28788 15.629C6.37159 15.6126 6.45298 15.5939 6.52972 15.5775C6.62041 15.5611 6.69483 15.5424 6.77157 15.5354C6.87156 15.519 6.94597 15.5097 7.01341 15.5003C7.09713 15.4909 7.13898 15.4839 7.13898 15.4839C7.13898 15.4839 7.15526 15.1307 7.24595 14.5365C7.29479 14.2184 7.37153 13.823 7.4878 13.3739C7.55523 13.1072 7.62965 12.8148 7.72964 12.5036C7.79708 12.272 7.87847 12.0311 7.97148 11.7808C8.0459 11.5749 8.12031 11.3597 8.21333 11.1445C8.28774 10.955 8.36215 10.7655 8.45517 10.576C8.52959 10.4029 8.604 10.2322 8.69702 10.0591C8.77143 9.90466 8.85514 9.7409 8.93886 9.58651C9.01327 9.43913 9.09699 9.2941 9.1807 9.1397C9.25512 9.00168 9.33883 8.86366 9.42255 8.72564C9.49696 8.59698 9.58068 8.46832 9.66439 8.33732C9.7388 8.21567 9.82252 8.08701 9.90623 7.9677C9.98065 7.84606 10.0644 7.73611 10.1481 7.61447C10.2225 7.50218 10.3062 7.38989 10.3899 7.27995C10.4643 7.17702 10.5481 7.06473 10.6318 6.9618C10.7062 6.85887 10.7899 6.76296 10.8736 6.66003C10.948 6.56645 11.0317 6.47054 11.1155 6.36761C11.1899 6.27404 11.2736 6.17813 11.3573 6.09157C11.4317 6.00502 11.5154 5.91145 11.5991 5.82489C11.6736 5.73834 11.7573 5.65178 11.841 5.56757C11.9154 5.48101 11.9991 5.40382 12.0828 5.31726C12.1572 5.24006 12.241 5.16287 12.3247 5.07631C12.3991 4.99911 12.4828 4.92192 12.5665 4.84472C12.6409 4.76752 12.7246 4.69734 12.8084 4.62015C12.8828 4.55231 12.9665 4.48213 13.0502 4.40493C13.1246 4.33709 13.2083 4.26691 13.292 4.19907C13.3665 4.13123 13.4502 4.07041 13.5339 4.00023C13.6083 3.93941 13.692 3.87157 13.7757 3.81074C13.8502 3.74992 13.9339 3.69144 14.0176 3.62126C14.092 3.56044 14.1757 3.49961 14.2594 3.44113C14.3338 3.38031 14.4176 3.32183 14.5013 3.26802C14.5757 3.2072 14.6594 3.15573 14.7431 3.09491C14.8175 3.04345 14.9012 2.98263 14.985 2.93116C15.0594 2.8797 15.1431 2.82823 15.2268 2.77677C15.3012 2.7253 15.3849 2.67384 15.4686 2.62237C15.5431 2.57091 15.6268 2.51944 15.7105 2.46798C15.7849 2.41651 15.8686 2.3744 15.9523 2.3206C16.0267 2.26913 16.1105 2.22703 16.1942 2.18258C16.2686 2.14047 16.3523 2.08901 16.436 2.04456C16.5104 2.00245 16.5941 1.95801 16.6779 1.9159C16.7523 1.87379 16.836 1.82934 16.9197 1.78724C16.9941 1.74513 17.0778 1.70068 17.1616 1.66559C17.236 1.62348 17.3197 1.58839 17.4034 1.54395C17.429 1.53459 17.4522 1.51821 17.4778 1.50886C17.5359 1.48313 17.5848 1.45739 17.6429 1.43166C17.7266 1.39657 17.801 1.35446 17.8848 1.31937C17.9685 1.28428 18.0429 1.25153 18.1266 1.21644C18.2103 1.18135 18.2847 1.1486 18.3684 1.11351C18.4522 1.07842 18.5266 1.04567 18.6103 1.01994C18.694 0.984851 18.7684 0.952101 18.8521 0.926369C18.9358 0.891279 19.0103 0.865546 19.094 0.839814C19.1777 0.814081 19.2521 0.778992 19.3358 0.753259C19.4195 0.727527 19.4939 0.701794 19.5777 0.676062C19.6614 0.650329 19.7358 0.624597 19.8195 0.598864C19.9032 0.573132 19.9776 0.556757 20.0614 0.531024C20.1451 0.505292 20.2195 0.488917 20.3032 0.463184C20.3869 0.446809 20.4613 0.421077 20.545 0.402362C20.6288 0.385987 20.7032 0.360254 20.7869 0.34154C20.8706 0.325165 20.945 0.30645 21.0287 0.290075C21.1124 0.2737 21.1869 0.254985 21.2706 0.23861C21.3543 0.222235 21.4287 0.20352 21.5124 0.196502C21.5961 0.180127 21.6705 0.17077 21.7543 0.154395C21.838 0.145037 21.9124 0.128662 21.9961 0.119305C22.0798 0.109948 22.1542 0.10293 22.2379 0.0935726C22.3217 0.0842153 22.3961 0.0771974 22.4798 0.0678401C22.5635 0.0584829 22.6379 0.0514649 22.7216 0.0514649C22.8053 0.0421077 22.8798 0.0350897 22.9635 0.0350897C23.0472 0.0257325 23.1216 0.0257325 23.2053 0.0187145C23.289 0.0187145 23.3634 0.00935726 23.4472 0.00935726C23.5309 0.00935726 23.6053 0 23.689 0C23.7727 0 23.8471 0 23.9309 0C24.0146 0 24.089 0 24.1727 0C24.2564 0 24.3308 0.00935726 24.4145 0.00935726C24.4983 0.00935726 24.5727 0.0187145 24.6564 0.0187145C24.7401 0.0187145 24.8145 0.0280718 24.8982 0.0350897C24.9819 0.044447 25.0564 0.044447 25.1401 0.0514649C25.2238 0.0608222 25.2982 0.0678401 25.3819 0.0678401C25.4656 0.0771974 25.54 0.0842153 25.6238 0.0935726C25.7075 0.10293 25.7819 0.109948 25.8656 0.119305C25.9493 0.128662 26.0237 0.145037 26.1074 0.154395C26.1912 0.163752 26.2656 0.180127 26.3493 0.189484C26.433 0.20586 26.5074 0.215217 26.5911 0.231592C26.6749 0.247967 26.7493 0.266682 26.833 0.2737C26.9167 0.290075 26.9911 0.308789 27.0748 0.325165C27.1585 0.34154 27.233 0.360254 27.3167 0.37663C27.4004 0.393005 27.4748 0.411719 27.5585 0.437452C27.6422 0.453827 27.7166 0.479559 27.8004 0.498274C27.8841 0.514649 27.9585 0.540382 28.0422 0.559096C28.1259 0.584829 28.2003 0.601204 28.284 0.626936C28.3678 0.652669 28.4422 0.669044 28.5259 0.694776C28.6096 0.720509 28.684 0.746241 28.7677 0.771974C28.8514 0.797706 28.9259 0.823439 29.0096 0.849171C29.0933 0.874904 29.1677 0.900636 29.2514 0.935726C29.3351 0.961458 29.4095 0.996548 29.4933 1.02228C29.577 1.04801 29.6514 1.0831 29.7351 1.11585C29.8188 1.15094 29.8932 1.17668 29.9769 1.20943C30.0607 1.24452 30.1351 1.27025 30.2188 1.303C30.3025 1.33809 30.3769 1.37084 30.4606 1.40593C30.5444 1.44102 30.6188 1.47377 30.7025 1.50886C30.7862 1.54395 30.8606 1.5767 30.9443 1.62114C31.028 1.65623 31.1025 1.69834 31.1862 1.73343C31.2699 1.77554 31.3443 1.81063 31.428 1.85508C31.5117 1.89718 31.5861 1.93227 31.6699 1.97672C31.7536 2.01883 31.828 2.06328 31.9117 2.10538C31.9954 2.14749 32.0698 2.19194 32.1535 2.23405C32.2373 2.27615 32.3117 2.3206 32.3954 2.37206C32.4791 2.41417 32.5535 2.46564 32.6372 2.51008C32.7209 2.55219 32.7954 2.60366 32.8791 2.6481C32.9628 2.69957 33.0372 2.74168 33.1209 2.79548C33.2046 2.84695 33.279 2.89841 33.3628 2.94286C33.4465 2.99432 33.5209 3.04579 33.6046 3.09725C33.6883 3.14872 33.7627 3.20018 33.8465 3.261C33.9302 3.31247 34.0046 3.37329 34.0883 3.42476C34.172 3.48558 34.2464 3.53704 34.3301 3.59787C34.4139 3.65869 34.4883 3.71951 34.572 3.77097C34.6557 3.8318 34.7301 3.89262 34.8138 3.9511C34.8975 4.01192 34.972 4.07976 35.0557 4.13123C35.1394 4.19907 35.2231 4.25989 35.2975 4.32071C35.3812 4.38855 35.4649 4.45873 35.5394 4.51956C35.6301 4.59675 35.7068 4.66693 35.7812 4.72541C35.8812 4.81197 35.9649 4.88917 36.023 4.94063C36.0905 5.00145 36.1137 5.0342 36.1137 5.0342C36.1649 5.01783 36.2044 4.99911 36.2556 4.98274C36.3393 4.95701 36.4137 4.92192 36.4974 4.89618C36.5811 4.87045 36.6556 4.83536 36.7393 4.80963C36.823 4.7839 36.8974 4.75816 36.9811 4.73243C37.0648 4.7067 37.1392 4.68097 37.223 4.65524C37.3067 4.6295 37.3811 4.60377 37.4648 4.57804C37.5485 4.55231 37.6229 4.52657 37.7066 4.5102C37.7904 4.48447 37.8648 4.46809 37.9485 4.44236C38.0322 4.41663 38.1066 4.40025 38.1903 4.37452C38.2741 4.35814 38.3485 4.33241 38.4322 4.3137C38.5159 4.29732 38.5903 4.27159 38.674 4.25287C38.7577 4.2365 38.8322 4.21778 38.9159 4.20141C38.9996 4.18503 39.074 4.16632 39.1577 4.14994C39.2414 4.13357 39.3158 4.12421 39.3996 4.10784C39.4833 4.09146 39.5577 4.0821 39.6414 4.06573C39.7251 4.04935 39.7995 4.04 39.8832 4.03064C39.967 4.02128 40.0414 4.00491 40.1251 3.99555C40.2088 3.98619 40.2832 3.97917 40.3669 3.96982C40.4506 3.96046 40.5251 3.95344 40.6088 3.94408C40.6925 3.93473 40.7669 3.93473 40.8506 3.92771C40.9343 3.91835 41.0087 3.91835 41.0925 3.91133C41.1762 3.91133 41.2506 3.90198 41.3343 3.90198C41.418 3.90198 41.4924 3.90198 41.5762 3.89262C41.6599 3.89262 41.7343 3.89262 41.818 3.89262C41.9017 3.89262 41.9761 3.89262 42.0598 3.90198C42.1436 3.90198 42.218 3.91133 42.3017 3.91133C42.3854 3.92069 42.4598 3.92069 42.5435 3.92771C42.6272 3.93707 42.7017 3.94408 42.7854 3.94408C42.8691 3.95344 42.9435 3.96046 43.0272 3.96982C43.1109 3.97917 43.1853 3.99555 43.2691 4.00491C43.3528 4.01426 43.4272 4.03064 43.5109 4.04C43.5946 4.05637 43.669 4.06573 43.7527 4.0821C43.8365 4.09848 43.9109 4.11719 43.9946 4.13357C44.0783 4.14994 44.1527 4.16866 44.2364 4.19439C44.3201 4.21077 44.3946 4.2365 44.4783 4.25521C44.562 4.28094 44.6364 4.29732 44.7201 4.32305C44.8038 4.34878 44.8783 4.37452 44.962 4.40025C45.0457 4.42598 45.1201 4.45171 45.2038 4.4868C45.2875 4.51254 45.3619 4.54763 45.4457 4.58038C45.5294 4.61547 45.6038 4.64822 45.6875 4.68331C45.7712 4.7184 45.8456 4.75115 45.9293 4.79559C46.0131 4.83068 46.0875 4.87279 46.1712 4.90788C46.2549 4.94999 46.3293 4.98508 46.413 5.02719C46.4967 5.06929 46.5712 5.11374 46.6549 5.15585C46.7386 5.19796 46.813 5.24942 46.8967 5.30323C46.9804 5.35469 47.0548 5.40616 47.1386 5.45762C47.2223 5.50908 47.2967 5.56991 47.3804 5.62137C47.4641 5.68219 47.5385 5.73366 47.6222 5.79448C47.706 5.8553 47.7804 5.91613 47.8641 5.97461C47.9478 6.04245 48.0222 6.10327 48.1059 6.17345C48.1896 6.24129 48.2641 6.31147 48.3478 6.37931C48.4315 6.45651 48.5059 6.52669 48.5896 6.60388C48.6733 6.68108 48.7477 6.75828 48.8315 6.84483C48.9152 6.93139 48.9896 7.01794 49.0733 7.09514C49.157 7.18169 49.2314 7.27527 49.3152 7.36182C49.3989 7.45539 49.4733 7.55131 49.557 7.64488C49.6407 7.74781 49.7151 7.85074 49.7988 7.95367C49.8826 8.06596 49.9639 8.17824 50.0407 8.28117C50.1244 8.40282 50.2081 8.52212 50.2825 8.63441C50.3662 8.76307 50.4476 8.89173 50.5244 9.02273C50.6081 9.17011 50.6918 9.31515 50.7662 9.44381C50.8569 9.61692 50.9313 9.77132 51.0081 9.91635C51.1174 10.1479 51.1987 10.3374 51.2499 10.4591C51.2918 10.562 51.308 10.6228 51.308 10.6228C51.308 10.6228 51.3662 10.6392 51.4824 10.6836C51.5499 10.7094 51.6243 10.7351 51.7243 10.7702C51.7987 10.7959 51.8731 10.831 51.9661 10.8568C52.0405 10.8825 52.115 10.9176 52.208 10.9503C52.2824 10.9854 52.3661 11.0112 52.4498 11.0439C52.5242 11.079 52.6079 11.1117 52.6917 11.1468C52.7661 11.1819 52.8498 11.2147 52.9335 11.2591C53.0079 11.2942 53.0916 11.327 53.1754 11.3714C53.2498 11.4065 53.3335 11.4486 53.4172 11.4931C53.4916 11.5352 53.5753 11.5702 53.659 11.6124C53.7335 11.6545 53.8172 11.6989 53.9009 11.741C53.9753 11.7831 54.059 11.8276 54.1427 11.8697C54.2171 11.9118 54.3009 11.9562 54.3846 12.0077C54.459 12.0498 54.5427 12.1013 54.6264 12.1457C54.7008 12.1878 54.7845 12.2393 54.8683 12.2931C54.9427 12.3446 55.0264 12.3867 55.1101 12.4405C55.1845 12.4919 55.2682 12.5434 55.352 12.5949C55.4264 12.6463 55.5101 12.6978 55.5938 12.7586C55.6682 12.8101 55.7519 12.8709 55.8356 12.9224C55.9194 12.9832 55.9938 13.0347 56.0775 13.0955C56.1612 13.1563 56.2356 13.2148 56.3193 13.2756C56.403 13.3364 56.4775 13.3973 56.5612 13.4651C56.6449 13.5259 56.7193 13.5938 56.803 13.6546C56.8867 13.7224 56.9611 13.7832 57.0449 13.8534C57.1286 13.9213 57.203 13.9914 57.2867 14.0593C57.3704 14.1271 57.4448 14.2067 57.5285 14.2745C57.6123 14.3517 57.6867 14.4289 57.7704 14.5061C57.8541 14.5833 57.9285 14.6605 58.0122 14.747C58.0959 14.8336 58.1704 14.9108 58.2541 14.9973C58.3378 15.0839 58.4122 15.1705 58.4959 15.264C58.5796 15.3576 58.654 15.4442 58.7378 15.5401C58.8215 15.6336 58.8959 15.7389 58.9796 15.8325C59.0633 15.9354 59.1377 16.0383 59.2215 16.1413C59.3052 16.2536 59.3796 16.3658 59.4633 16.4758C59.547 16.5974 59.6214 16.7167 59.7051 16.8384C59.7889 16.967 59.8633 17.0957 59.947 17.2267C60.0307 17.3647 60.1051 17.5098 60.1888 17.6571C60.2725 17.8115 60.347 17.9659 60.4307 18.1297C60.5144 18.3028 60.5888 18.4829 60.6725 18.663C60.7562 18.8619 60.8376 19.0678 60.9144 19.283C60.9888 19.4982 61.0632 19.7134 61.1213 19.945C61.1306 19.9801 61.1376 20.0058 61.1469 20.0386C61.2376 20.3474 61.312 20.6491 61.3887 20.9415C61.4794 21.3369 61.5632 21.7159 61.6306 22.0691C61.9887 24.0645 61.905 25.5898 61.6306 26.7173C61.5632 27.0004 61.4818 27.267 61.3887 27.501C61.3143 27.6998 61.2306 27.887 61.1469 28.0601C61.0725 28.2145 60.9888 28.3618 60.9051 28.4905C60.8213 28.6192 60.7469 28.7408 60.6632 28.8437C60.5795 28.956 60.5051 29.0496 60.4214 29.1362C60.3377 29.2297 60.2563 29.3163 60.1795 29.3865C60.0888 29.473 60.0051 29.5409 59.9377 29.5923C59.8307 29.6789 59.754 29.721 59.754 29.721C59.8121 29.5479 59.8702 29.3514 59.9377 29.1104C60.0284 28.7759 60.1121 28.3712 60.1795 27.8963C60.3121 26.9489 60.3632 25.7535 60.1795 24.3429C60.1214 23.9031 60.047 23.4469 59.9377 22.9744C59.8702 22.6656 59.7889 22.3451 59.6958 22.02C59.6214 21.7626 59.547 21.503 59.454 21.2457C59.3796 21.0211 59.3052 20.7988 59.2122 20.5743C59.1377 20.3754 59.0633 20.1696 58.9703 19.9707C58.9029 19.8163 58.8378 19.6526 58.7703 19.4982C58.761 19.4725 58.7447 19.4467 58.7378 19.421C58.6633 19.2572 58.5889 19.0935 58.4959 18.9391C58.4215 18.7917 58.3378 18.656 58.2541 18.518C58.1797 18.3894 58.0959 18.2677 58.0122 18.139C57.9378 18.0268 57.8541 17.9145 57.7704 17.8045C57.696 17.7016 57.6123 17.5987 57.5285 17.4957C57.4541 17.4022 57.3704 17.3062 57.2867 17.2127C57.2123 17.1191 57.1286 17.0325 57.0449 16.946C56.9704 16.8594 56.8867 16.7729 56.803 16.6957C56.7286 16.6185 56.6449 16.5319 56.5612 16.4547C56.4868 16.3775 56.403 16.3003 56.3193 16.2302C56.2449 16.1623 56.1612 16.0828 56.0775 16.0149C56.0031 15.9471 55.9194 15.8769 55.8356 15.8091C55.7612 15.7412 55.6775 15.6804 55.5938 15.6102C55.5194 15.5494 55.4357 15.4816 55.352 15.4208C55.2775 15.3599 55.1938 15.3015 55.1101 15.2406C55.0357 15.1798 54.952 15.119 54.8683 15.0675C54.7845 15.0067 54.7101 14.9552 54.6264 14.9038C54.5427 14.8523 54.4683 14.7915 54.3846 14.74C54.3009 14.6886 54.2264 14.6371 54.1427 14.5856C54.059 14.5342 53.9846 14.4827 53.9009 14.4382C53.8172 14.3868 53.7428 14.3447 53.659 14.2909C53.5753 14.2394 53.5009 14.1973 53.4172 14.1529C53.3335 14.1107 53.2591 14.0593 53.1754 14.0148C53.0916 13.9727 53.0172 13.9283 52.9335 13.8862C52.8498 13.8441 52.7754 13.7996 52.6917 13.7575C52.6079 13.7154 52.5335 13.671 52.4498 13.6382C52.3661 13.5961 52.2917 13.561 52.208 13.5166C52.1243 13.4745 52.0499 13.4394 51.9661 13.4043C51.8824 13.3692 51.808 13.3271 51.7243 13.292C51.6406 13.2569 51.5662 13.2241 51.4824 13.1891C51.3987 13.154 51.3243 13.1212 51.2406 13.0861C51.1569 13.051 51.0825 13.0183 50.9988 12.9832C50.915 12.9481 50.8406 12.9154 50.7569 12.8896C50.6732 12.8545 50.5988 12.8288 50.5151 12.796C50.4314 12.761 50.3569 12.7352 50.2732 12.7095C50.1895 12.6744 50.1081 12.6487 50.0314 12.6229C49.9477 12.5879 49.8663 12.5621 49.7895 12.5364C49.6989 12.5013 49.6151 12.4756 49.5477 12.4592C49.4221 12.4241 49.364 12.3984 49.364 12.3984C49.3477 12.3633 49.3314 12.3305 49.3152 12.2954C49.2407 12.1317 49.157 11.9773 49.0733 11.8229C48.9989 11.6685 48.9152 11.5211 48.8315 11.3761C48.757 11.2381 48.6733 11.093 48.5896 10.962C48.5152 10.8334 48.4315 10.7047 48.3478 10.5737C48.2734 10.4521 48.1896 10.3328 48.1059 10.2111C48.0315 10.0988 47.9478 9.98653 47.8641 9.87659C47.7897 9.7643 47.706 9.66137 47.6222 9.55844C47.5478 9.45551 47.4641 9.3596 47.3804 9.26602C47.306 9.17245 47.2223 9.07654 47.1386 8.98998C47.0641 8.90343 46.9804 8.81688 46.8967 8.73266C46.8223 8.64611 46.7386 8.56891 46.6549 8.49171C46.5805 8.41451 46.4967 8.33732 46.413 8.26714C46.3386 8.1993 46.2549 8.11976 46.1712 8.05192C46.0968 7.98408 46.0131 7.92326 45.9293 7.85308C45.8456 7.79226 45.7712 7.73377 45.6875 7.67295C45.6038 7.61213 45.5294 7.56066 45.4457 7.49984C45.3619 7.44838 45.2875 7.39691 45.2038 7.34545C45.1201 7.29398 45.0457 7.24252 44.962 7.19807C44.8783 7.15596 44.8038 7.1045 44.7201 7.06005C44.6364 7.01794 44.562 6.9735 44.4783 6.93841C44.3946 6.8963 44.3201 6.86121 44.2364 6.82612C44.1527 6.79103 44.0783 6.75828 43.9946 6.72319C43.9109 6.6881 43.8365 6.66237 43.7527 6.62962C43.669 6.60388 43.5946 6.56879 43.5109 6.55242C43.4272 6.52669 43.3528 6.50095 43.2691 6.48458C43.1853 6.45885 43.1109 6.44247 43.0272 6.42376C42.9435 6.40738 42.8691 6.38867 42.7854 6.37229C42.7017 6.35592 42.6272 6.3372 42.5435 6.33018C42.4598 6.31381 42.3854 6.30445 42.3017 6.29509C42.218 6.28574 42.1436 6.27872 42.0598 6.26936C41.9761 6.26 41.9017 6.25299 41.818 6.25299C41.7343 6.24363 41.6599 6.24363 41.5762 6.24363C41.4924 6.24363 41.418 6.24363 41.3343 6.23427C41.2506 6.23427 41.1762 6.23427 41.0925 6.23427C41.0087 6.23427 40.9343 6.24363 40.8506 6.24363C40.7669 6.25299 40.6925 6.25299 40.6088 6.26C40.5251 6.26936 40.4506 6.27638 40.3669 6.28574C40.2832 6.29509 40.2088 6.30211 40.1251 6.32083C40.0414 6.33018 39.967 6.34656 39.8832 6.35592C39.7995 6.37229 39.7251 6.38165 39.6414 6.39802C39.5577 6.4144 39.4833 6.43311 39.3996 6.44949C39.3158 6.46586 39.2414 6.48458 39.1577 6.51031C39.074 6.52669 38.9996 6.55242 38.9159 6.57113C38.8322 6.59687 38.7577 6.61324 38.674 6.63897C38.5903 6.66471 38.5159 6.69044 38.4322 6.71617C38.3485 6.7419 38.2741 6.76764 38.1903 6.80273C38.1066 6.82846 38.0322 6.86355 37.9485 6.88928C37.8648 6.92437 37.7904 6.9501 37.7066 6.98285C37.6229 7.01794 37.5485 7.05069 37.4648 7.08578C37.3811 7.12087 37.3067 7.15362 37.223 7.18871C37.1392 7.2238 37.0648 7.26591 36.9811 7.301C36.8974 7.34311 36.823 7.3782 36.7393 7.42264C36.6556 7.46475 36.5811 7.5092 36.4974 7.55131C36.4137 7.59341 36.3323 7.64488 36.2556 7.68933C36.1719 7.74079 36.0882 7.7829 36.0137 7.82735C35.923 7.87881 35.8463 7.93027 35.7719 7.98174C35.6626 8.04958 35.5882 8.10104 35.5301 8.14549C35.4812 8.18058 35.4556 8.19696 35.4556 8.19696C35.4045 8.12912 35.3463 8.05894 35.2882 7.98174C35.2138 7.88817 35.1394 7.79226 35.0464 7.68933C34.972 7.60277 34.8975 7.5092 34.8045 7.41329C34.7301 7.32673 34.6464 7.24018 34.5627 7.14661C34.4883 7.06005 34.4046 6.98285 34.3208 6.8963C34.2464 6.8191 34.1627 6.7419 34.079 6.65535C34.0046 6.57815 33.9209 6.50095 33.8371 6.42376C33.7627 6.35592 33.679 6.27638 33.5953 6.19918C33.5209 6.13134 33.4372 6.06116 33.3535 5.98397C33.279 5.91613 33.1953 5.84595 33.1116 5.77811C33.0372 5.71027 32.9535 5.64944 32.8698 5.57926C32.7954 5.51844 32.7116 5.4506 32.6279 5.38978C32.5535 5.32896 32.4698 5.27047 32.3861 5.20965C32.3117 5.14883 32.228 5.08801 32.1442 5.03654C32.0698 4.97572 31.9861 4.92426 31.9024 4.86343C31.828 4.81197 31.7443 4.75115 31.6606 4.69968C31.5861 4.64822 31.5024 4.59675 31.4187 4.54529C31.3443 4.49382 31.2606 4.44236 31.1769 4.39791C31.1025 4.34645 31.0187 4.30434 30.935 4.25053C30.8606 4.20843 30.7769 4.15696 30.6932 4.11251C30.6188 4.07041 30.535 4.02596 30.4513 3.98385C30.3769 3.94174 30.2932 3.8973 30.2095 3.85519C30.1351 3.81308 30.0514 3.77799 29.9676 3.73355C29.8932 3.69144 29.8095 3.65635 29.7258 3.62126C29.6514 3.58617 29.5677 3.54406 29.484 3.50897C29.4095 3.47388 29.3258 3.44113 29.2421 3.40604C29.1677 3.37095 29.084 3.3382 29.0003 3.30311C28.9259 3.26802 28.8421 3.24229 28.7584 3.20954C28.684 3.18381 28.6003 3.14872 28.5166 3.12298C28.4422 3.09725 28.3585 3.07152 28.2747 3.03643C28.2003 3.0107 28.1166 2.98497 28.0329 2.95923C27.9585 2.9335 27.8748 2.90777 27.7911 2.88204C27.7166 2.8563 27.6329 2.83993 27.5492 2.8142C27.4748 2.78846 27.3911 2.77209 27.3074 2.75337C27.233 2.737 27.1492 2.71127 27.0655 2.69255C26.9911 2.67618 26.9074 2.65746 26.8237 2.64109C26.7493 2.62471 26.6655 2.606 26.5818 2.58962C26.5074 2.57325 26.4237 2.56389 26.34 2.54751C26.2656 2.53114 26.1819 2.52178 26.0981 2.50541C26.0237 2.49605 25.94 2.47967 25.8563 2.47032C25.7819 2.46096 25.6982 2.45394 25.6145 2.43523C25.54 2.42587 25.4563 2.41885 25.3726 2.40949C25.2982 2.40014 25.2145 2.39312 25.1308 2.39312C25.0564 2.38376 24.9726 2.38376 24.8889 2.37674C24.8145 2.36739 24.7308 2.36739 24.6471 2.36739C24.5727 2.36739 24.489 2.35803 24.4052 2.35803C24.3308 2.35803 24.2471 2.35803 24.1634 2.35803C24.089 2.35803 24.0053 2.35803 23.9215 2.35803C23.8471 2.35803 23.7634 2.36739 23.6797 2.36739C23.6053 2.36739 23.5216 2.37674 23.4379 2.37674C23.3635 2.3861 23.2797 2.3861 23.196 2.39312C23.1216 2.40248 23.0379 2.40949 22.9542 2.40949C22.8705 2.41885 22.796 2.42587 22.7123 2.43523C22.6379 2.44458 22.5542 2.4516 22.4705 2.47032C22.3961 2.47967 22.3124 2.49605 22.2286 2.50541C22.1449 2.51476 22.0705 2.53114 21.9868 2.5405C21.9124 2.55687 21.8287 2.56623 21.745 2.5826C21.6705 2.59898 21.5868 2.61769 21.5031 2.62471C21.4287 2.64109 21.345 2.6598 21.2613 2.67618C21.1869 2.69255 21.1031 2.71127 21.0194 2.737C20.9357 2.75337 20.8613 2.77911 20.7776 2.79782C20.7032 2.8142 20.6195 2.83993 20.5357 2.86566C20.4613 2.89139 20.3776 2.90777 20.2939 2.9335C20.2102 2.95923 20.1358 2.98497 20.052 3.0107C19.9776 3.03643 19.8939 3.06216 19.8102 3.08789C19.7265 3.11363 19.6521 3.13936 19.5684 3.17445C19.4939 3.20018 19.4102 3.23527 19.3265 3.261C19.2521 3.28674 19.1684 3.32183 19.0847 3.35458C19.001 3.38967 18.9265 3.4154 18.8428 3.44815C18.7684 3.48324 18.6847 3.51599 18.601 3.55108C18.5266 3.58617 18.4591 3.6119 18.3847 3.64465C18.3754 3.64465 18.3684 3.65401 18.3591 3.65401C18.2754 3.6891 18.201 3.73121 18.1173 3.7663C18.0336 3.80139 17.9592 3.84349 17.8755 3.87858C17.7917 3.92069 17.7173 3.95578 17.6336 4.00023C17.5499 4.04234 17.4755 4.08678 17.3918 4.12889C17.3081 4.171 17.2336 4.21544 17.1499 4.25755C17.0662 4.29966 16.9918 4.34411 16.9081 4.39557C16.8244 4.43768 16.75 4.48914 16.6662 4.53359C16.5825 4.58506 16.5081 4.62716 16.4244 4.68097C16.3407 4.73243 16.2663 4.7839 16.1825 4.83536C16.0988 4.88683 16.0244 4.93829 15.9407 4.99911C15.857 5.05058 15.7826 5.1114 15.6989 5.16287C15.6151 5.22369 15.5407 5.27515 15.457 5.33598C15.3733 5.3968 15.2989 5.45762 15.2152 5.5161C15.1315 5.57692 15.057 5.63775 14.9733 5.70559C14.8896 5.77343 14.8152 5.83425 14.7315 5.90443C14.6478 5.97227 14.5734 6.04245 14.4896 6.11029C14.4059 6.17813 14.3315 6.25767 14.2478 6.32551C14.1641 6.4027 14.0897 6.47288 14.006 6.55008C13.9222 6.62728 13.8478 6.70447 13.7641 6.78167C13.6804 6.85887 13.606 6.94542 13.5223 7.02262C13.4385 7.10918 13.3641 7.19573 13.2804 7.27293C13.1967 7.35948 13.1223 7.45305 13.0386 7.53961C12.9549 7.63318 12.8804 7.72909 12.7967 7.81565C12.713 7.90922 12.6386 8.01449 12.5549 8.10806C12.4712 8.21099 12.3968 8.31392 12.313 8.41685C12.2293 8.51978 12.1549 8.63207 12.0712 8.735C11.9875 8.84729 11.9131 8.95957 11.8294 9.06952C11.7456 9.19116 11.6712 9.31047 11.5875 9.43211C11.5038 9.56078 11.4294 9.68944 11.3457 9.81108C11.262 9.9491 11.1875 10.0778 11.1038 10.2158C11.0201 10.3632 10.9457 10.5082 10.862 10.6462C10.7783 10.8006 10.7039 10.955 10.6201 11.1117C10.5364 11.2755 10.462 11.4463 10.3783 11.61C10.2946 11.7901 10.2132 11.9726 10.1365 12.1527C10.0527 12.3516 9.97135 12.5481 9.89461 12.7469C9.81089 12.9715 9.7295 13.1937 9.65276 13.4019C9.56207 13.6593 9.48766 13.9096 9.41092 14.1505C9.32023 14.4593 9.24582 14.7541 9.16908 15.0278C9.06908 15.4488 8.98537 15.8184 8.92723 16.1389C8.80166 16.8197 8.77841 17.2244 8.77841 17.2244C8.75283 17.2337 8.72027 17.2407 8.69469 17.2407C8.61098 17.2571 8.53656 17.2758 8.45285 17.2922C8.36913 17.3086 8.29472 17.3273 8.211 17.353C8.12729 17.3694 8.05287 17.3951 7.96916 17.4139C7.88544 17.4396 7.81103 17.456 7.72731 17.4817C7.6436 17.5074 7.56919 17.5238 7.48547 17.5495C7.40176 17.5753 7.32734 17.601 7.24363 17.6267C7.15991 17.6525 7.0855 17.6782 7.00178 17.7039C6.91807 17.7297 6.84366 17.7648 6.75994 17.7905C6.67622 17.8256 6.60181 17.8513 6.5181 17.8841C6.43438 17.9191 6.35997 17.9449 6.27625 17.9776C6.19254 18.0127 6.11812 18.0455 6.03441 18.0806C5.95069 18.1157 5.87628 18.1578 5.79256 18.1928C5.70885 18.235 5.63444 18.27 5.55072 18.3145C5.467 18.3566 5.39259 18.401 5.30888 18.4432C5.22516 18.4853 5.15075 18.5367 5.06703 18.5812C4.98332 18.6326 4.9089 18.6747 4.82519 18.7286C4.74147 18.78 4.66706 18.8315 4.58334 18.8829C4.49963 18.9344 4.42522 18.9952 4.3415 19.0561C4.25779 19.1169 4.18337 19.1777 4.09966 19.2362C4.01594 19.297 3.94153 19.3648 3.85781 19.435C3.7741 19.5029 3.69968 19.573 3.61597 19.6502C3.53225 19.7274 3.45784 19.8046 3.37413 19.8818C3.29041 19.9684 3.216 20.0456 3.13228 20.1321C3.04857 20.2187 2.97415 20.3123 2.89044 20.4082C2.80672 20.5018 2.73231 20.607 2.64859 20.71C2.56488 20.8222 2.49047 20.9252 2.40675 21.0375C2.32304 21.1591 2.24165 21.2878 2.16491 21.4071C2.08119 21.5451 1.9998 21.6901 1.92306 21.8281C1.83935 21.9919 1.75796 22.1556 1.68122 22.3194C1.5975 22.5182 1.51611 22.7147 1.43937 22.9136C1.34868 23.1709 1.26497 23.4212 1.19753 23.6785C1.09056 24.0739 1.01382 24.4692 0.955687 24.8482C0.748725 26.2775 0.864996 27.508 0.955687 28.1443C0.997545 28.4367 1.0301 28.6005 1.0301 28.6005C1.00452 28.5583 0.981267 28.5139 0.955687 28.4718C0.871972 28.3268 0.790582 28.17 0.713843 28.025C0.623152 27.8355 0.548738 27.646 0.472 27.4565C0.381308 27.1758 0.299918 26.9185 0.241783 26.6495Z" fill="url(#paint0_linear)"/>
<defs>
<linearGradient id="paint0_linear" x1="-6.10352e-05" y1="14.8559" x2="61.6701" y2="14.8559" gradientUnits="userSpaceOnUse">
<stop stop-color="#4DB849"/>
<stop offset="0.5312" stop-color="#FFE500"/>
<stop offset="1" stop-color="#F6841F"/>
</linearGradient>
</defs>
</svg>
