<svg width="555" height="361" viewBox="0 0 555 361" fill="none" xmlns="http://www.w3.org/2000/svg">
<path d="M534.986 291.675H484.092V342.569H534.986V291.675Z" fill="#E25100"/>
<path d="M550.678 291.675H499.784V342.569H550.678V291.675Z" fill="#FF6600"/>
<path d="M519.876 259.695C519.876 259.695 514.745 253.708 519.56 249.906C519.56 249.906 523.076 247.778 525.943 247.95C525.943 247.95 521.879 254.765 523.195 255.442C524.51 256.119 527.174 247.523 527.174 247.523C527.174 247.523 535.179 246.745 537.753 247.985C537.753 247.985 530.91 253.582 532.351 253.917C533.792 254.251 541.177 248.755 541.177 248.755C541.177 248.755 548.625 250.021 548.227 254.565C547.829 259.11 545.265 260.518 544.136 260.393C543.008 260.267 536.409 257.753 536.265 258.677C536.121 259.6 540.095 262.622 542.876 262.763C542.876 262.763 537.624 268.553 534.135 266.883C530.645 265.212 530.346 262.562 528.17 261.569C525.994 260.575 524.137 260.577 525.036 261.591C525.935 262.605 529.871 263.588 531.115 265.791C532.359 267.993 533.476 269.485 529.865 268.931C526.255 268.377 520.385 265.745 520.126 262.72L519.876 259.695Z" fill="#82B378"/>
<path d="M544.575 254.688C544.575 254.688 524.344 253.909 519.878 259.695C519.878 259.695 518.888 262.654 515.848 265.349L515.374 266.64C515.374 266.64 518.88 262.946 520.134 262.72C520.132 262.72 518.17 255.553 544.575 254.688Z" fill="#82B378"/>
<path d="M515.84 265.349C515.84 265.349 511.497 268.559 511.196 274.298L511.984 274.368C511.984 274.368 513.371 268.436 515.884 266.115C518.396 263.793 515.84 265.349 515.84 265.349Z" fill="#82B378"/>
<path d="M501.935 252.166C501.935 252.166 510.097 247.595 506.288 241.392C506.288 241.392 503.24 237.583 499.976 236.604C499.976 236.604 501.717 245.855 499.976 246.072C498.236 246.29 498.778 235.625 498.778 235.625C498.778 235.625 490.182 231.489 486.808 231.815C486.808 231.815 492.144 240.846 490.399 240.641C488.655 240.436 482.672 231.282 482.672 231.282C482.672 231.282 473.846 229.64 472.442 234.872C471.038 240.103 473.312 242.708 474.618 243.034C475.923 243.361 484.303 243.252 484.086 244.34C483.868 245.428 478.21 247.17 475.055 246.187C475.055 246.187 478.544 254.785 483.109 254.35C487.674 253.915 489.094 251.084 491.924 250.861C494.755 250.637 496.822 251.405 495.414 252.166C494.006 252.927 489.209 252.416 486.925 254.358C484.64 256.3 482.789 257.498 487.033 258.369C491.278 259.239 498.895 258.697 500.42 255.432L501.935 252.166Z" fill="#A8D29F"/>
<path d="M476.469 236.495C476.469 236.495 499.322 243.894 501.935 252.166C501.935 252.166 501.826 255.86 504.112 260.111V261.753C504.112 261.753 501.717 256.211 500.418 255.442C500.412 255.431 505.526 248.248 476.469 236.495Z" fill="#82B378"/>
<path d="M504.113 260.111C504.113 260.111 507.637 265.462 505.627 271.979L504.72 271.735C504.72 271.735 505.601 264.551 503.755 260.949C501.91 257.347 504.113 260.111 504.113 260.111Z" fill="#82B378"/>
<path d="M514.921 245.863C514.921 245.863 504.162 239.837 509.174 231.659C509.174 231.659 513.191 226.639 517.495 225.348C517.495 225.348 515.2 237.542 517.495 237.829C519.79 238.117 519.073 224.057 519.073 224.057C519.073 224.057 530.413 218.605 534.861 219.036C534.861 219.036 527.831 230.941 530.128 230.656C532.425 230.37 540.313 218.318 540.313 218.318C540.313 218.318 551.934 216.167 553.798 223.053C555.661 229.939 552.65 233.381 550.924 233.812C549.198 234.243 538.158 234.098 538.443 235.532C538.728 236.967 546.191 239.264 550.347 237.973C550.347 237.973 545.756 249.305 539.732 248.732C533.708 248.159 531.84 244.422 528.11 244.141C524.381 243.859 521.655 244.859 523.519 245.863C525.383 246.866 531.696 246.191 534.709 248.753C537.722 251.314 540.161 252.893 534.566 254.04C528.97 255.187 518.93 254.469 516.914 250.167L514.921 245.863Z" fill="#A8D29F"/>
<path d="M548.49 225.204C548.49 225.204 518.363 234.96 514.921 245.863C514.921 245.863 515.065 250.739 512.048 256.331V258.484C512.048 258.484 515.204 251.166 516.924 250.163C516.929 250.167 510.186 240.699 548.49 225.204Z" fill="#82B378"/>
<path d="M512.051 256.335C512.051 256.335 507.405 263.389 510.054 271.979L511.249 271.657C511.249 271.657 510.089 262.199 512.519 257.441C514.95 252.683 512.051 256.335 512.051 256.335Z" fill="#82B378"/>
<path d="M514.558 290.601C520.147 290.601 525.507 288.381 529.46 284.429C533.413 280.477 535.634 275.117 535.635 269.528H493.482C493.483 275.117 495.704 280.477 499.656 284.429C503.608 288.381 508.969 290.601 514.558 290.601Z" fill="#485155"/>
<path d="M519.74 290.441C516.775 290.808 513.767 290.541 510.913 289.658C508.059 288.775 505.426 287.296 503.186 285.319C500.947 283.342 499.152 280.912 497.922 278.19C496.692 275.468 496.054 272.515 496.05 269.528H501.286C501.287 274.664 503.162 279.622 506.56 283.473C509.958 287.323 514.645 289.801 519.74 290.441Z" fill="#909699"/>
<path d="M533.326 289.074H495.792C495.102 289.074 494.441 289.348 493.953 289.836C493.465 290.324 493.191 290.985 493.191 291.675H535.924C535.925 291.333 535.858 290.995 535.727 290.68C535.597 290.364 535.405 290.078 535.164 289.836C534.923 289.595 534.636 289.403 534.321 289.272C534.005 289.142 533.667 289.074 533.326 289.074Z" fill="#485155"/>
<path d="M536.113 269.526H492.788V270.173H536.113V269.526Z" fill="#909699"/>
<path d="M510.172 309.252C510.172 308.015 510.35 306.958 510.705 306.079C511.059 305.199 511.551 304.471 512.179 303.894C512.807 303.318 513.557 302.905 514.431 302.658C515.332 302.384 516.301 302.246 517.339 302.246C518.376 302.246 519.332 302.37 520.205 302.617C521.079 302.864 521.83 303.263 522.458 303.812C523.113 304.362 523.618 305.09 523.973 305.996C524.328 306.875 524.519 307.96 524.546 309.252C524.519 310.543 524.328 311.642 523.973 312.548C523.618 313.427 523.113 314.142 522.458 314.691C521.83 315.241 521.079 315.639 520.205 315.886C519.332 316.134 518.376 316.257 517.339 316.257C516.301 316.257 515.332 316.134 514.431 315.886C513.557 315.639 512.807 315.241 512.179 314.691C511.551 314.142 511.059 313.427 510.705 312.548C510.35 311.642 510.172 310.543 510.172 309.252ZM514.923 309.252C514.923 311.614 515.728 312.796 517.339 312.796C518.185 312.796 518.786 312.548 519.14 312.054C519.523 311.532 519.727 310.598 519.755 309.252C519.727 307.933 519.523 307.013 519.14 306.491C518.786 305.969 518.185 305.708 517.339 305.708C516.492 305.708 515.878 305.969 515.496 306.491C515.114 307.013 514.923 307.933 514.923 309.252ZM526.798 324.499C526.798 323.263 526.976 322.205 527.331 321.326C527.686 320.447 528.177 319.719 528.805 319.142C529.433 318.565 530.184 318.153 531.057 317.905C531.958 317.631 532.927 317.493 533.965 317.493C535.002 317.493 535.958 317.617 536.831 317.864C537.705 318.112 538.456 318.51 539.084 319.059C539.739 319.609 540.244 320.337 540.599 321.243C540.954 322.123 541.145 323.208 541.172 324.499C541.145 325.79 540.954 326.889 540.599 327.796C540.244 328.675 539.739 329.389 539.084 329.938C538.456 330.488 537.705 330.886 536.831 331.134C535.958 331.381 535.002 331.504 533.965 331.504C532.927 331.504 531.958 331.381 531.057 331.134C530.184 330.886 529.433 330.488 528.805 329.938C528.177 329.389 527.686 328.675 527.331 327.796C526.976 326.889 526.798 325.79 526.798 324.499ZM531.549 324.499C531.549 326.862 532.354 328.043 533.965 328.043C534.811 328.043 535.412 327.796 535.767 327.301C536.149 326.779 536.354 325.845 536.381 324.499C536.354 323.18 536.149 322.26 535.767 321.738C535.412 321.216 534.811 320.955 533.965 320.955C533.118 320.955 532.504 321.216 532.122 321.738C531.74 322.26 531.549 323.18 531.549 324.499ZM535.808 302.164L538.797 304.884L515.209 332.164L512.22 329.32L535.808 302.164Z" fill="white"/>
<path d="M344.883 153.793L359.534 327.996C359.534 327.996 361.067 338.556 353.214 338.574C340.297 338.605 288.931 338.574 288.931 338.574C288.931 338.574 298.652 336.376 298.535 331.431C298.396 325.6 281.411 152.145 281.411 152.145L344.883 153.793Z" fill="#5E666A"/>
<path d="M284.765 335.419C287.304 335.419 336.365 335.582 348.943 335.419C354.423 335.352 355.385 330.547 355.431 327.437C355.447 326.569 355.392 325.702 355.264 324.843L354.883 320.315L353.912 308.776L353.054 298.581L351.952 285.48L351.024 274.421L340.616 150.632L277.144 148.99C277.144 148.99 284.297 221.581 289.356 274.421C289.923 280.308 290.461 285.952 290.957 291.223C291.117 292.904 291.271 294.55 291.423 296.149C291.893 301.149 292.322 305.74 292.694 309.792C292.899 311.928 293.073 313.915 293.238 315.744C293.882 322.868 294.264 327.421 294.264 328.285C294.268 328.758 294.226 329.23 294.141 329.695C293.098 335.233 285.717 335.419 284.765 335.419Z" fill="#868A96"/>
<path d="M194.298 59H499.026L463.339 202.347L458.452 221.977L441.831 288.746H133.035L194.298 59Z" fill="#D0D6DA"/>
<path d="M499.026 59L503.973 60.6482L448.407 293.733L441.831 288.746L499.026 59Z" fill="#A6ABB1"/>
<path d="M448.407 293.733H141.512L133.037 288.746H441.831L448.407 293.733Z" fill="#5E666A"/>
<path d="M340.634 335.483H274.186V338.64H340.634V335.483Z" fill="#D0D6DA"/>
<path d="M291.078 293.731L291.421 296.145L353.912 308.77L353.054 298.575L352.645 293.731H291.078Z" fill="#5E666A"/>
<path opacity="0.4" d="M284.765 335.419C287.304 335.419 336.365 335.582 348.943 335.419C354.423 335.352 355.386 330.547 355.431 327.437L293.24 315.738C293.884 322.862 294.266 327.415 294.266 328.279C294.27 328.752 294.228 329.224 294.143 329.689C293.098 335.233 285.717 335.419 284.765 335.419Z" fill="#E2E2E2"/>
<path opacity="0.4" d="M310.196 243.611L441.831 288.745L453.073 243.584L310.196 243.611Z" fill="#5E666A"/>
<path d="M194.298 59H499.026L453.099 243.584L144.855 243.644L194.298 59Z" fill="#4D4F53"/>
<path d="M159.227 235.641H444.546L476.857 106.922L479.334 97.0514L481.448 88.632L486.403 68.8889H205.197L199.756 88.632L197.435 97.0514L194.715 106.922L159.227 235.641Z" fill="#E9F3FE"/>
<path d="M205.197 68.8889H486.403L481.448 88.632H199.756L205.197 68.8889Z" fill="#D0D8E3"/>
<path d="M232.918 75.3441C234.281 75.3441 235.11 76.4484 234.765 77.8071C234.42 79.1659 233.045 80.2701 231.686 80.2701C230.328 80.2701 229.494 79.1638 229.839 77.8071C230.184 76.4504 231.553 75.3441 232.918 75.3441Z" fill="#E9F3FE"/>
<path d="M224.716 75.3441C226.079 75.3441 226.91 76.4484 226.563 77.8071C226.217 79.1659 224.843 80.2701 223.485 80.2701C222.126 80.2701 221.293 79.1638 221.637 77.8071C221.982 76.4504 223.355 75.3441 224.716 75.3441Z" fill="#E9F3FE"/>
<path d="M212.803 77.8112C213.144 76.4483 214.523 75.3481 215.882 75.3481C217.241 75.3481 218.076 76.4524 217.729 77.8112C217.383 79.1699 216.009 80.2742 214.651 80.2742C213.292 80.2742 212.465 79.174 212.803 77.8112Z" fill="#E9F3FE"/>
<path d="M21.2209 239.951H80.7559L80.7559 180.414H21.2209L21.2209 239.951Z" fill="#797979"/>
<path d="M2.86329 239.951H62.4004L62.4004 180.414H2.86329L2.86329 239.951Z" fill="#D1D1D1"/>
<path d="M47 217.588L38.5574 209.417L46.728 200.975L41.5879 196L33.4173 204.443L24.9747 196.27L20 201.411L28.4426 209.583L20.272 218.025L25.4121 223L33.5827 214.557L42.0253 222.728L47 217.588Z" fill="white"/>
<path d="M110.103 239.951H11.5185V338.535H110.103V239.951Z" fill="#1C5C00"/>
<path d="M140.498 239.951H41.9142V338.535H140.498V239.951Z" fill="#178A00"/>
<path d="M61.3351 282.042H84.9861V258.391H99.3865V282.042H123.038V296.442H99.3865V320.093H84.9861V296.442H61.3351V282.042Z" fill="white"/>
<path d="M41.9141 239.951L11.5185 254.754V239.951H41.9141Z" fill="#154500"/>
<path d="M109.054 280.484C108.826 280.734 108.676 281.045 108.62 281.378C108.565 281.711 108.606 282.054 108.74 282.364C109.193 283.618 110.692 285.018 112.434 286.416C112.656 286.596 112.855 286.761 113.027 286.911L113.161 287.03L113.261 287.122C114.887 288.62 114.275 288.969 117.192 292.001C120.519 295.461 122.81 295.525 123.462 295.209C124.012 294.94 122.892 293.105 121.652 291.04C121.59 290.942 121.533 290.835 121.471 290.74C121.305 290.465 121.141 290.186 120.977 289.919C119.523 287.436 119.897 286.272 120.242 282.576C120.521 279.573 124.913 265.798 124.913 265.798L118.538 264.7C118.538 264.7 116.619 275.669 114.503 277.358C113.372 278.257 112.106 278.269 111.014 278.937C110.938 278.984 110.862 279.031 110.788 279.08C110.15 279.468 109.566 279.941 109.054 280.484Z" fill="#F9C6B9"/>
<path d="M109.054 280.484C108.826 280.734 108.676 281.045 108.62 281.378C108.565 281.711 108.606 282.054 108.74 282.364C109.296 283.616 110.757 285.01 112.434 286.404C112.654 286.586 112.845 286.755 113.021 286.911L113.155 287.03L113.255 287.122C114.881 288.62 114.269 288.969 117.186 292.001C120.513 295.461 122.803 295.525 123.456 295.209C124.006 294.94 122.885 293.105 121.646 291.04C119.318 290.132 117.273 288.625 115.716 286.67C113.713 284.115 112.377 280.831 111.012 278.928C110.936 278.976 110.86 279.023 110.786 279.072C110.148 279.463 109.565 279.938 109.054 280.484Z" fill="#333333"/>
<path d="M160.461 276.513C160.853 278.479 163.659 278.155 166.793 277.385C169.927 276.615 169.182 277.531 173.642 277.036C178.102 276.541 179.453 274.879 179.594 274.216C179.717 273.629 177.513 273.421 175.149 273.148C174.853 273.116 174.553 273.079 174.256 273.042C171.588 272.707 169.631 270.989 167.207 269.571C164.911 268.231 161.483 262.771 161.483 262.771L155.367 263.255C155.367 263.255 158.577 268.132 159.818 270.25C160.549 271.498 160.51 273.146 160.42 274.419C160.339 275.115 160.353 275.82 160.461 276.513Z" fill="#E49963"/>
<path d="M166.792 277.375C169.926 276.609 169.181 277.52 173.642 277.026C178.102 276.531 179.452 274.868 179.594 274.205C179.717 273.618 177.513 273.411 175.148 273.138L175.128 273.183C173.217 274.409 171.009 275.095 168.74 275.168C165.713 275.242 162.509 274.376 160.419 274.409C160.341 275.105 160.356 275.81 160.466 276.502C160.852 278.468 163.658 278.142 166.792 277.375Z" fill="#C65447"/>
<path d="M146.859 186.662C146.859 186.662 148.314 183.091 149.919 182.945C151.524 182.799 156.623 181.997 156.986 182.725C157.349 183.454 156.986 186.079 155.894 187.035C154.802 187.992 148.023 189.513 148.023 189.513L146.859 186.662Z" fill="#F9C6B9"/>
<path d="M137.019 237.39L123.836 272.867C122.502 272.966 121.161 272.843 119.868 272.504C118.082 271.989 116.034 270.636 116.034 270.636C116.034 270.636 119.306 236.565 125.301 229.485C131.296 222.406 137.019 237.39 137.019 237.39Z" fill="#2B2C2D"/>
<path d="M84.873 223.036C84.873 223.036 122.752 210.229 131.2 212.955C139.648 215.68 165.013 266.145 165.013 266.145C165.013 266.145 164.443 266.905 162.879 267.492C161.425 268.038 157.907 268.003 157.907 268.003C157.907 268.003 135.02 248.381 132.286 242.658C129.552 236.936 128.472 231.485 125.747 232.031C123.021 232.577 90.5913 245.384 83.2331 237.753C75.8748 230.122 77.8001 220.208 77.8001 220.208L84.873 223.036Z" fill="#33393A"/>
<path d="M106.474 132.72C104.832 131.788 102.873 131.694 101.5 131.768C101.853 131.404 102.549 131.271 102.549 131.271C101.697 131.144 99.7988 131.989 99.7988 131.989C87.9517 127.427 86.1044 144.858 86.3487 148.908C86.5929 152.958 86.6258 157.619 80.7145 161.25C69.0871 168.397 78.8981 180.872 78.8981 180.872C78.9904 180.927 84.3085 189.948 84.3085 189.948C84.0109 186.664 99.1091 169.404 106.987 164.232C108.906 161.41 109.587 156.422 109.638 156.022C109.306 159.975 108.631 162.194 108.025 163.444C114.696 157.311 110.813 135.185 106.474 132.72Z" fill="#3E1006"/>
<path d="M106.521 164.491C106.56 164.507 102.718 166.504 99.8278 165.712C97.1083 164.971 95.3308 161.445 95.3677 161.439C96.5212 161.209 96.8517 159.626 96.8271 152.818L97.3484 152.921L106.102 154.655C106.102 154.655 105.897 157.41 105.897 160.004C105.891 162.188 106.014 164.257 106.521 164.491Z" fill="#F9C6B9"/>
<path d="M106.102 154.663C106.102 154.663 105.897 157.418 105.897 160.012C100.997 159.875 98.4092 155.406 97.3481 152.929L106.102 154.663Z" fill="#F49E87"/>
<path d="M96.445 151.977C96.445 151.977 93.8773 147.921 93.2616 144.452C92.8223 141.977 94.0826 132.8 103.304 134.122C105.162 134.379 106.938 135.05 108.501 136.086C110.503 137.439 113.393 140.357 110.162 148.366L109.322 151.071L96.445 151.977Z" fill="#3E1006"/>
<path d="M107.736 157.12C107.736 157.12 96.1476 157.311 96.1393 150.092C96.1311 142.874 94.6308 138.036 102.03 137.609C109.429 137.182 110.87 139.935 111.457 142.344C112.044 144.754 110.751 156.884 107.736 157.12Z" fill="#F9C6B9"/>
<path d="M96.7935 138.953C96.7935 138.953 104.708 133.543 107.212 137.285C107.971 136.634 109.324 136.162 111.112 138.329C113.797 141.587 111.407 147.342 111.407 147.342C110.303 147.471 110.045 143.686 109.466 141.849C109.031 140.462 107.577 139.048 106.888 138.434C105.876 140.714 103.095 146.168 99.2627 147.153C94.3941 148.405 92.2842 147.102 92.2842 147.102C92.2842 147.102 96.0177 144.126 96.7935 138.953Z" fill="#3E1006"/>
<path d="M75.9916 223.238C76.6073 224.972 78.5326 225.419 81.1023 225.118C85.9996 224.545 93.2778 221.257 98.5199 218.981C106.525 215.516 110.149 218.775 112.682 216.567C115.215 214.358 109.776 209.457 114.499 186.686C116.112 178.965 105.964 162.393 105.964 162.393C105.964 162.393 105.262 166.882 95.3672 161.434C95.318 161.406 91.2027 166.892 87.5185 173.871C83.4606 181.57 79.5732 190.87 80.7144 195.664C82.8962 204.804 74.1751 218.195 75.9916 223.238Z" fill="#ACB2B8"/>
<path d="M105.965 162.393L111.948 186.97C111.948 186.97 112.693 188.296 113.861 190.184C116.603 194.617 121.677 202.148 124.926 202.91C126.529 203.287 129.936 201.953 133.708 200.036C140.839 196.434 149.27 190.787 149.27 190.787C149.816 187.516 146.972 184.852 146.972 184.852C146.972 184.852 129.893 191.27 128.195 191.393C124.501 191.656 120.737 173.811 117.28 167.863C114.782 163.581 105.965 162.393 105.965 162.393Z" fill="#ACB2B8"/>
<path d="M75.9916 223.238C76.6073 224.972 78.5326 225.419 81.1023 225.118C84.4931 223.64 99.1377 217.967 98.9756 214.12C98.7313 208.429 96.1595 208.248 97.976 201.222C99.4353 195.58 85.9011 185.092 83.7439 182.811C79.684 190.51 79.5732 190.874 80.7144 195.668C82.8962 204.804 74.1751 218.195 75.9916 223.238Z" fill="#9DA2A7"/>
<path d="M113.861 190.188C116.603 194.622 121.677 202.152 124.926 202.914C126.529 203.291 129.936 201.957 133.708 200.04C130.956 200.75 128.282 200.732 125.683 200.482C122.867 200.209 122.05 196.756 117.598 191.578C114.71 188.234 114.002 189.076 113.861 190.188Z" fill="#9DA2A7"/>
<path d="M100.292 201.085C100.292 201.085 102.755 199.178 105.062 199.632C107.369 200.085 108.514 201.684 108.424 202.403C108.333 203.121 107.106 205.173 105.345 205.354C103.584 205.535 98.5305 204.264 98.5305 204.264L100.292 201.085Z" fill="#F9C6B9"/>
<path d="M95.3672 161.439C95.3672 161.439 85.9257 162.019 82.654 166.57C78.0502 172.99 67.0036 201.545 72.2354 205.194C78.1302 209.299 100.971 205.073 100.971 205.073C100.971 205.073 101.668 201.818 100.7 200.243C99.7308 198.669 83.984 196.124 83.2533 195.397C82.5226 194.671 92.3377 181.235 92.3377 179.045C92.3377 176.855 95.3672 161.439 95.3672 161.439Z" fill="#ACB2B8"/>
<path d="M102.759 213.917H137.549L143.819 192.046H109.082L102.759 213.917Z" fill="#4D4F53"/>
<path d="M91.9478 213.915H137.429V213.063H91.9478V213.915Z" fill="#292A2B"/>
<path d="M126.5 202.622C126.721 201.853 126.276 201.231 125.508 201.231C125.104 201.253 124.715 201.398 124.395 201.647C124.075 201.895 123.838 202.236 123.716 202.622C123.495 203.39 123.94 204.014 124.71 204.014C125.114 203.991 125.502 203.846 125.822 203.597C126.141 203.348 126.378 203.008 126.5 202.622Z" fill="#A2A9AD"/>
<path d="M106.399 146.91C106.459 146.511 106.21 146.143 105.845 146.089C105.479 146.035 105.135 146.314 105.076 146.713C105.016 147.113 105.265 147.48 105.63 147.534C105.996 147.589 106.34 147.309 106.399 146.91Z" fill="#161616"/>
<path d="M110.664 147.133C110.697 146.722 110.498 146.37 110.219 146.348C109.939 146.325 109.686 146.641 109.654 147.052C109.621 147.463 109.82 147.815 110.099 147.837C110.378 147.86 110.631 147.544 110.664 147.133Z" fill="#161616"/>
<path d="M108.31 150.981C108.728 150.971 109.131 150.827 109.46 150.571C109.511 150.534 109.553 150.487 109.585 150.432C109.616 150.378 109.635 150.317 109.64 150.255C109.659 149.988 109.406 149.721 109.203 149.505C109.14 149.44 109.079 149.372 109.023 149.3L109.008 149.284C108.721 149.025 108.577 147.506 108.524 146.936C108.518 146.806 108.502 146.677 108.477 146.55C108.467 146.525 108.448 146.504 108.423 146.493C108.399 146.481 108.371 146.48 108.345 146.488C108.333 146.493 108.321 146.499 108.311 146.508C108.301 146.517 108.293 146.528 108.287 146.54C108.282 146.552 108.278 146.565 108.278 146.578C108.277 146.592 108.279 146.605 108.284 146.618C108.284 146.648 108.304 146.796 108.319 146.954C108.423 148.073 108.563 149.144 108.862 149.429C108.923 149.501 108.988 149.57 109.055 149.635C109.23 149.819 109.449 150.045 109.435 150.23C109.431 150.264 109.42 150.296 109.403 150.326C109.385 150.355 109.361 150.379 109.332 150.398C108.953 150.702 108.288 150.891 107.877 150.667C107.854 150.654 107.826 150.65 107.799 150.658C107.773 150.665 107.751 150.682 107.738 150.706C107.731 150.718 107.727 150.731 107.726 150.744C107.724 150.758 107.725 150.771 107.729 150.784C107.733 150.797 107.739 150.809 107.748 150.82C107.756 150.83 107.767 150.839 107.779 150.846C107.942 150.935 108.125 150.981 108.31 150.981Z" fill="#F49E87"/>
<path d="M109.436 152.352C109.501 152.822 109.378 153.896 107.562 153.955C106.946 153.976 105.649 153.721 105.891 152.475C105.903 152.42 106.026 152.387 106.127 152.41C107.153 152.599 108.207 152.563 109.218 152.305C109.315 152.272 109.427 152.299 109.436 152.352Z" fill="white"/>
<path d="M106.925 145.805C106.772 145.611 106.578 145.454 106.357 145.343C106.136 145.232 105.893 145.171 105.647 145.164C105.395 145.159 105.147 145.218 104.924 145.335C104.815 145.392 104.711 145.461 104.616 145.54C104.526 145.62 104.441 145.705 104.362 145.796C104.472 145.743 104.567 145.677 104.672 145.624C104.774 145.572 104.879 145.527 104.988 145.489C105.197 145.408 105.42 145.369 105.644 145.376C106.103 145.397 106.547 145.545 106.925 145.805Z" fill="#161616"/>
<path d="M110.258 145.285C109.96 145.358 109.68 145.493 109.437 145.682C109.703 145.558 109.991 145.493 110.283 145.489L110.258 145.285Z" fill="#161616"/>
<path d="M448.739 167.754L186.3 167.766C183.545 167.766 181.909 165.509 182.648 162.701L186.85 146.767C187.588 143.97 190.419 141.7 193.173 141.7L455.615 141.687C458.37 141.687 460.004 143.945 459.267 146.753L455.063 162.689C454.324 165.486 451.494 167.754 448.739 167.754Z" fill="white"/>
<path d="M199.334 150.783L197.639 151.222V149.968L200.194 149.217H201.272L198.905 158.042H197.378L199.334 150.783Z" fill="#F76201"/>
<path d="M202.041 153.664C202.71 151.171 205.12 149.128 207.788 149.128C209.403 149.128 210.229 149.693 210.855 150.495L209.559 151.634C209.032 150.984 208.398 150.545 207.396 150.545C205.717 150.545 204.133 151.922 203.665 153.664C203.197 155.407 204.044 156.784 205.717 156.784C206.795 156.784 207.601 156.345 208.541 155.643L209.262 156.647C208.092 157.597 206.93 158.198 205.288 158.198C202.731 158.198 201.36 156.207 202.041 153.664Z" fill="#F76201"/>
<path d="M212.06 151.433H213.724L213.264 153.151H211.6L212.06 151.433ZM210.746 156.333H212.413L211.953 158.049H210.286L210.746 156.333Z" fill="#F76201"/>
<path d="M220.105 149.28H226.644L226.273 150.67H221.261L220.721 152.687H223.163C225.093 152.687 226.088 153.652 225.626 155.343C225.156 157.096 223.648 158.049 221.644 158.049H217.745L220.105 149.28ZM221.683 156.669C223.011 156.669 223.822 156.355 224.109 155.278C224.339 154.426 223.816 153.987 222.673 153.987H220.372L219.653 156.669H221.683Z" fill="#F76201"/>
<path d="M225.823 159.691L226.644 158.562C226.887 158.724 227.173 158.812 227.465 158.814C227.892 158.814 228.204 158.625 228.611 158.049L227.625 151.433H229.243L229.805 156.345L232.837 151.433H234.415L229.963 158.237C229.074 159.59 228.35 160.085 227.295 160.085C226.776 160.107 226.262 159.97 225.823 159.691Z" fill="#F76201"/>
<path d="M236.69 154.691L235.22 151.433H236.862L237.806 153.613L239.92 151.433H241.536L238.33 154.654L239.863 158.049H238.221L237.213 155.731L234.976 158.049H233.358L236.69 154.691Z" fill="#F76201"/>
<path d="M242.983 151.433H247.668L247.32 152.737H244.15L242.726 158.049H241.205L242.983 151.433Z" fill="#F76201"/>
<path d="M250.894 158.049L251.112 157.228C250.463 157.838 249.606 158.178 248.715 158.18C247.463 158.18 246.551 157.466 246.915 156.113C247.307 154.648 248.635 153.946 250.176 153.946C250.773 153.93 251.368 154.024 251.931 154.223L251.964 154.095C252.21 153.182 251.759 152.681 250.716 152.681C250.028 152.69 249.348 152.829 248.713 153.092L248.624 151.877C249.466 151.511 250.375 151.323 251.293 151.325C253.247 151.325 253.924 152.351 253.45 154.12L252.399 158.04L250.894 158.049ZM251.674 155.28C251.217 155.099 250.729 155.01 250.238 155.017C249.285 155.017 248.616 155.405 248.44 156.07C248.271 156.696 248.741 157.047 249.466 157.047C250.467 157.047 251.371 156.483 251.592 155.655L251.674 155.28Z" fill="#F76201"/>
<path d="M253.268 158.036L253.711 156.805C253.852 156.834 253.994 156.85 254.138 156.854C254.901 156.854 255.527 156.478 256.878 151.442H261.876L260.104 158.057H258.588L260.012 152.745H257.943C256.658 157.544 255.599 158.133 254.134 158.133C253.843 158.12 253.554 158.088 253.268 158.036Z" fill="#F76201"/>
<path d="M264.848 152.743H262.717L263.066 151.44H268.854L268.503 152.743H266.375L264.95 158.055H263.423L264.848 152.743Z" fill="#F76201"/>
<path d="M268.559 154.742C269.066 152.85 270.817 151.296 272.713 151.296C274.819 151.296 275.441 152.95 274.93 154.855C274.903 154.956 274.823 155.206 274.79 155.28H269.94C269.815 156.357 270.416 156.959 271.395 156.959C272.134 156.959 272.734 156.684 273.397 156.171L274.076 156.959C273.258 157.744 272.17 158.185 271.036 158.19C269.119 158.198 268.005 156.809 268.559 154.742ZM273.581 154.278C273.743 153.301 273.376 152.536 272.368 152.536C271.443 152.536 270.599 153.25 270.186 154.278H273.581Z" fill="#F76201"/>
<path d="M277.376 151.433H278.891L278.595 152.536C279.269 151.848 280.106 151.304 281.171 151.304C282.737 151.304 283.92 152.536 283.326 154.763C282.733 156.99 280.902 158.194 279.324 158.194C278.234 158.194 277.694 157.644 277.395 157.031L276.574 160.062H275.071L277.376 151.433ZM281.791 154.73C282.134 153.451 281.496 152.612 280.467 152.612C279.439 152.612 278.31 153.463 277.965 154.754C277.62 156.045 278.298 156.87 279.326 156.87C280.354 156.87 281.434 156.058 281.791 154.73Z" fill="#F76201"/>
<path d="M285.769 151.433H287.249L286.061 155.869C287.496 154.391 288.933 152.913 290.371 151.433H291.808L290.036 158.049H288.571L289.753 153.64L285.427 158.049H283.99L285.769 151.433Z" fill="#F76201"/>
<path d="M293.833 155.569C293.012 155.292 292.544 154.629 292.823 153.588C293.166 152.312 294.34 151.433 296.007 151.433H299.326L297.554 158.049H296.038L296.635 155.82H295.282L293.119 158.049H291.339L293.833 155.569ZM296.941 154.678L297.48 152.663H295.877C295.075 152.663 294.486 153.038 294.318 153.664C294.149 154.29 294.572 154.678 295.344 154.678H296.941Z" fill="#F76201"/>
<path d="M205.515 124.949L203.82 125.388V124.136L206.375 123.383H207.452L205.086 132.209H203.559L205.515 124.949Z" fill="black"/>
<path d="M208.215 127.831C208.884 125.339 211.293 123.297 213.962 123.297C215.577 123.297 216.404 123.859 217.028 124.662L215.733 125.801C215.205 125.15 214.571 124.713 213.57 124.713C211.891 124.713 210.306 126.09 209.84 127.831C209.374 129.571 210.218 130.951 211.893 130.951C212.97 130.951 213.777 130.513 214.717 129.812L215.437 130.813C214.269 131.766 213.106 132.367 211.464 132.367C208.904 132.367 207.533 130.374 208.215 127.831Z" fill="black"/>
<path d="M218.235 125.602H219.901L219.439 127.318H217.775L218.235 125.602ZM216.921 130.499H218.588L218.128 132.217H216.461L216.921 130.499Z" fill="black"/>
<path d="M226.279 123.447H229.737C231.79 123.447 232.756 124.613 232.276 126.402C231.751 128.371 229.897 129.397 227.966 129.397H226.225L225.47 132.221H223.928L226.279 123.447ZM228.391 128.007C229.554 128.007 230.455 127.355 230.708 126.417C230.983 125.39 230.388 124.851 229.236 124.851H227.444L226.599 128.007H228.391Z" fill="black"/>
<path d="M232.653 128.921C233.16 127.03 235.083 125.464 237.111 125.464C239.139 125.464 240.219 127.006 239.706 128.921C239.203 130.801 237.28 132.367 235.237 132.367C233.195 132.367 232.132 130.825 232.653 128.921ZM238.195 128.921C238.507 127.757 237.926 126.792 236.736 126.792C235.545 126.792 234.478 127.745 234.172 128.921C233.866 130.097 234.441 131.051 235.619 131.051C236.832 131.051 237.867 130.087 238.181 128.921H238.195Z" fill="black"/>
<path d="M239.697 131.353L240.68 130.349C240.919 130.605 241.208 130.808 241.53 130.944C241.852 131.08 242.199 131.147 242.548 131.139C243.236 131.139 243.897 130.776 244.045 130.224C244.176 129.735 243.792 129.403 242.926 129.403H242.105L242.396 128.313H243.217C243.932 128.313 244.48 127.95 244.613 127.449C244.734 126.997 244.35 126.698 243.724 126.698C242.988 126.712 242.273 126.947 241.672 127.373L241.251 126.423C242.113 125.81 243.143 125.478 244.201 125.47C245.654 125.47 246.458 126.222 246.191 127.248C246.093 127.597 245.91 127.916 245.66 128.178C245.409 128.441 245.099 128.638 244.755 128.752C245.401 129.003 245.756 129.504 245.529 130.355C245.229 131.472 243.936 132.373 242.331 132.373C241.14 132.367 240.297 132.016 239.697 131.353Z" fill="black"/>
<path d="M248.367 125.602H249.882L249.164 128.282H252.082L252.801 125.602H254.317L252.546 132.221H251.029L251.744 129.553H248.825L248.111 132.221H246.594L248.367 125.602Z" fill="black"/>
<path d="M256.223 125.602H257.694L256.506 130.037C257.941 128.557 259.378 127.078 260.816 125.602H262.253L260.49 132.221H259.024L260.204 127.81L255.88 132.221H254.443L256.223 125.602Z" fill="black"/>
<path d="M267.752 132.221H262.394L264.166 125.606H265.67L264.246 130.918H267.103L268.525 125.606H270.03L268.607 130.918H269.558L268.583 133.812H267.316L267.752 132.221Z" fill="black"/>
<path d="M274.525 132.221L274.742 131.4C274.092 132.009 273.236 132.349 272.345 132.353C271.091 132.353 270.182 131.638 270.543 130.286C270.937 128.818 272.265 128.118 273.804 128.118C274.402 128.103 274.997 128.196 275.561 128.393L275.594 128.268C275.838 127.353 275.389 126.852 274.344 126.852C273.657 126.86 272.978 127 272.343 127.262L272.255 126.047C273.097 125.682 274.005 125.494 274.923 125.495C276.877 125.495 277.554 126.521 277.08 128.289L276.025 132.221H274.525ZM275.303 129.452C274.845 129.272 274.357 129.183 273.866 129.19C272.913 129.19 272.246 129.578 272.068 130.241C271.902 130.867 272.37 131.217 273.094 131.217C274.096 131.217 274.999 130.655 275.22 129.828L275.303 129.452Z" fill="black"/>
<path d="M210.688 99.8488L208.993 100.288V99.034L211.55 98.2828H212.634L210.268 107.109H208.734L210.688 99.8488Z" fill="black"/>
<path d="M213.387 102.731C214.056 100.237 216.466 98.1945 219.134 98.1945C220.75 98.1945 221.577 98.759 222.201 99.5615L220.906 100.701C220.378 100.05 219.744 99.6107 218.742 99.6107C217.063 99.6107 215.479 100.988 215.013 102.731C214.547 104.473 215.39 105.85 217.065 105.85C218.143 105.85 218.95 105.411 219.89 104.709L220.61 105.711C219.442 106.663 218.278 107.265 216.636 107.265C214.071 107.265 212.706 105.274 213.387 102.731Z" fill="black"/>
<path d="M223.407 100.5H225.074L224.614 102.217H222.948L223.407 100.5ZM222.094 105.399H223.76L223.307 107.115H221.64L222.094 105.399Z" fill="black"/>
<path d="M228.982 106.815L229.875 105.657C230.173 105.852 230.524 105.948 230.879 105.932C231.267 105.932 231.882 105.694 232.521 104.98L230.641 98.3422H232.371L233.736 103.441L237.506 98.3422H239.173L233.916 105.193C232.779 106.686 231.724 107.246 230.585 107.246C230.02 107.265 229.462 107.115 228.982 106.815Z" fill="black"/>
<path d="M239.111 100.5H245.01L243.239 107.115H241.722L243.147 101.803H240.273L238.851 107.115H237.334L239.111 100.5Z" fill="black"/>
<path d="M246.926 100.5H248.44L248.145 101.602C248.818 100.914 249.656 100.37 250.721 100.37C252.287 100.37 253.469 101.602 252.876 103.829C252.283 106.056 250.452 107.26 248.874 107.26C247.784 107.26 247.232 106.71 246.944 106.097L246.123 109.128H244.606L246.926 100.5ZM251.341 103.796C251.683 102.517 251.045 101.678 250.017 101.678C248.989 101.678 247.86 102.529 247.515 103.82C247.17 105.112 247.847 105.937 248.876 105.937C249.904 105.937 250.986 105.124 251.341 103.796Z" fill="black"/>
<path d="M257.594 107.115L257.812 106.294C257.162 106.903 256.306 107.244 255.415 107.246C254.163 107.246 253.251 106.532 253.613 105.179C254.007 103.714 255.335 103.012 256.874 103.012C257.472 102.996 258.067 103.09 258.631 103.289L258.664 103.162C258.908 102.248 258.459 101.747 257.414 101.747C256.727 101.756 256.048 101.895 255.413 102.158L255.324 100.943C256.166 100.577 257.075 100.389 257.993 100.391C259.947 100.391 260.624 101.417 260.15 103.186L259.099 107.107L257.594 107.115ZM258.372 104.346C257.915 104.165 257.427 104.076 256.936 104.083C255.983 104.083 255.316 104.471 255.138 105.136C254.969 105.752 255.439 106.113 256.164 106.113C257.165 106.113 258.069 105.549 258.29 104.722L258.372 104.346Z" fill="black"/>
<path d="M262.675 100.5H266.069C267.385 100.5 268.079 101.14 267.806 102.154C267.582 102.993 266.966 103.418 266.334 103.671C267.077 103.894 267.51 104.385 267.258 105.313C266.958 106.429 265.837 107.104 264.335 107.104H260.901L262.675 100.5ZM264.988 103.231C265.626 103.231 266.067 102.893 266.195 102.41C266.309 101.986 266.108 101.659 265.431 101.659H263.853L263.442 103.225L264.988 103.231ZM264.431 105.912C265.17 105.912 265.649 105.573 265.786 105.06C265.915 104.584 265.614 104.258 264.799 104.258H263.157L262.714 105.912H264.431Z" fill="black"/>
<path d="M267.358 107.094L267.803 105.863C267.943 105.892 268.085 105.908 268.228 105.912C268.992 105.912 269.62 105.536 270.968 100.5H275.966L274.195 107.115H272.678L274.103 101.803H272.036C270.749 106.602 269.69 107.191 268.224 107.191C267.934 107.178 267.644 107.146 267.358 107.094Z" fill="black"/>
<path d="M276.623 103.81C277.13 101.918 278.881 100.364 280.777 100.364C282.883 100.364 283.505 102.018 282.994 103.923C282.967 104.024 282.887 104.274 282.854 104.348H277.994C277.869 105.426 278.47 106.027 279.449 106.027C280.188 106.027 280.787 105.752 281.45 105.239L282.13 106.027C281.312 106.812 280.224 107.253 279.09 107.258C277.175 107.265 276.069 105.875 276.623 103.81ZM281.645 103.346C281.808 102.369 281.44 101.604 280.432 101.604C279.505 101.604 278.663 102.318 278.251 103.346H281.645Z" fill="black"/>
<path d="M285.439 100.5H286.956L286.237 103.182H289.156L289.874 100.5H291.391L289.618 107.115H288.103L288.817 104.446H285.909L285.192 107.115H283.678L285.439 100.5Z" fill="black"/>
<path d="M293.298 100.5H294.776L293.587 104.935C295.024 103.457 296.461 101.979 297.898 100.5H299.334L297.561 107.115H296.095L297.278 102.706L292.951 107.115H291.514L293.298 100.5Z" fill="black"/>
<path d="M299.989 103.81C300.496 101.918 302.247 100.364 304.145 100.364C306.249 100.364 306.871 102.018 306.362 103.923C306.333 104.024 306.255 104.274 306.222 104.348H301.36C301.235 105.426 301.838 106.027 302.815 106.027C303.554 106.027 304.155 105.752 304.818 105.239L305.496 106.027C304.679 106.812 303.591 107.253 302.458 107.258C300.541 107.265 299.435 105.875 299.989 103.81ZM305.011 103.346C305.173 102.369 304.806 101.604 303.8 101.604C302.873 101.604 302.029 102.318 301.616 103.346H305.011Z" fill="black"/>
<path d="M313.632 101.803H311.501L311.85 100.5H317.638L317.289 101.803H315.161L313.737 107.115H312.209L313.632 101.803Z" fill="black"/>
<path d="M317.339 103.82C317.846 101.928 319.769 100.362 321.799 100.362C323.829 100.362 324.906 101.903 324.393 103.82C323.888 105.698 321.965 107.264 319.923 107.264C317.881 107.264 316.828 105.725 317.339 103.82ZM322.881 103.82C323.193 102.655 322.612 101.69 321.421 101.69C320.231 101.69 319.163 102.642 318.86 103.82C318.556 104.999 319.129 105.951 320.296 105.951C321.53 105.951 322.564 104.984 322.876 103.82H322.881Z" fill="black"/>
<path d="M326.823 100.5H328.34L328.045 101.602C328.718 100.914 329.553 100.37 330.619 100.37C332.185 100.37 333.369 101.602 332.774 103.829C332.178 106.056 330.352 107.26 328.773 107.26C327.683 107.26 327.142 106.71 326.842 106.097L326.021 109.128H324.506L326.823 100.5ZM331.24 103.796C331.583 102.517 330.943 101.678 329.917 101.678C328.89 101.678 327.757 102.529 327.413 103.82C327.068 105.112 327.747 105.937 328.773 105.937C329.8 105.937 330.885 105.124 331.24 103.796Z" fill="black"/>
<path d="M335.218 100.5H339.904L339.555 101.803H336.386L334.964 107.115H333.449L335.218 100.5Z" fill="black"/>
<path d="M339.479 103.82C339.986 101.928 341.909 100.362 343.939 100.362C345.969 100.362 347.047 101.903 346.534 103.82C346.031 105.698 344.107 107.264 342.065 107.264C340.023 107.264 338.968 105.725 339.479 103.82ZM345.021 103.82C345.333 102.655 344.752 101.69 343.564 101.69C342.375 101.69 341.316 102.642 341 103.82C340.684 104.999 341.269 105.951 342.437 105.951C343.668 105.951 344.703 104.984 345.021 103.82Z" fill="black"/>
<path d="M348.962 100.5H352.359C353.672 100.5 354.366 101.14 354.095 102.154C353.869 102.993 353.254 103.418 352.624 103.671C353.365 103.894 353.798 104.385 353.547 105.313C353.248 106.429 352.127 107.104 350.622 107.104H347.191L348.962 100.5ZM351.275 103.231C351.913 103.231 352.357 102.893 352.484 102.41C352.597 101.986 352.396 101.659 351.721 101.659H350.152L349.742 103.225L351.275 103.231ZM350.721 105.912C351.46 105.912 351.938 105.573 352.076 105.06C352.203 104.584 351.901 104.258 351.088 104.258H349.446L349.003 105.912H350.721Z" fill="black"/>
<path d="M353.642 107.094L354.087 105.863C354.228 105.892 354.37 105.908 354.514 105.912C355.277 105.912 355.903 105.536 357.254 100.5H362.262L360.489 107.115H358.978L360.402 101.803H358.334C357.049 106.602 355.99 107.191 354.524 107.191C354.228 107.179 353.933 107.147 353.642 107.094Z" fill="black"/>
<path d="M362.911 103.81C363.417 101.918 365.168 100.364 367.067 100.364C369.171 100.364 369.793 102.018 369.284 103.923C369.255 104.024 369.177 104.274 369.144 104.348H364.282C364.156 105.426 364.76 106.027 365.737 106.027C366.476 106.027 367.077 105.752 367.74 105.239L368.417 106.027C367.6 106.812 366.513 107.253 365.38 107.258C363.463 107.265 362.356 105.875 362.911 103.81ZM367.933 103.346C368.095 102.369 367.728 101.604 366.722 101.604C365.794 101.604 364.951 102.318 364.538 103.346H367.933Z" fill="black"/>
<path d="M371.728 100.5H373.206L372.017 104.935C373.454 103.457 374.891 101.979 376.328 100.5H377.765L375.993 107.115H374.528L375.708 102.706L371.381 107.115H369.944L371.728 100.5ZM373.464 97.9955L374.439 97.8189C374.46 98.3464 374.686 98.6707 375.26 98.6707C375.835 98.6707 376.225 98.3464 376.529 97.8189L377.397 97.9955C376.948 99.0587 376.04 99.736 374.975 99.736C373.91 99.736 373.345 99.0587 373.464 97.9955Z" fill="black"/>
<path d="M191.864 175.903L190.166 176.35V175.098L192.724 174.345H193.801L191.435 183.171H189.906L191.864 175.903Z" fill="black"/>
<path d="M194.561 178.784C195.23 176.293 197.64 174.25 200.308 174.25C201.923 174.25 202.75 174.813 203.374 175.615L202.071 176.761C201.544 176.108 200.909 175.669 199.908 175.669C198.229 175.669 196.644 177.048 196.178 178.788C195.712 180.529 196.558 181.908 198.231 181.908C199.308 181.908 200.115 181.469 201.055 180.769L201.777 181.771C200.608 182.723 199.444 183.325 197.802 183.325C195.251 183.329 193.879 181.327 194.561 178.784Z" fill="black"/>
<path d="M204.581 176.555H206.248L205.788 178.271H204.124L204.581 176.555ZM203.268 181.453H204.945L204.485 183.171H202.818L203.268 181.453Z" fill="black"/>
<path d="M218.099 176.605C217.797 177.733 216.925 178.323 216.061 178.657C216.958 178.959 217.518 179.622 217.212 180.763C216.824 182.216 215.258 183.331 213.312 183.331C211.609 183.331 210.628 182.83 209.903 181.894L211.028 180.829C211.615 181.58 212.444 181.995 213.635 181.995C214.562 181.995 215.482 181.506 215.704 180.679C215.946 179.778 215.182 179.4 214.041 179.4H213.052L213.394 178.123H214.371C215.486 178.123 216.297 177.672 216.518 176.845C216.724 176.106 216.169 175.613 215.192 175.613C214.201 175.614 213.24 175.959 212.475 176.59L211.917 175.589C212.972 174.786 214.103 174.261 215.656 174.261C217.465 174.25 218.464 175.24 218.099 176.605Z" fill="black"/>
<path d="M222.241 183.171L222.459 182.35C221.809 182.959 220.952 183.299 220.061 183.302C218.809 183.302 217.898 182.588 218.261 181.235C218.653 179.77 219.981 179.068 221.523 179.068C222.12 179.052 222.714 179.146 223.278 179.343L223.311 179.217C223.557 178.302 223.105 177.801 222.063 177.801C221.375 177.81 220.695 177.949 220.059 178.212L219.971 176.995C220.814 176.631 221.722 176.444 222.639 176.445C224.593 176.445 225.271 177.471 224.797 179.238L223.746 183.16L222.241 183.171ZM223.021 180.402C222.564 180.22 222.076 180.13 221.584 180.137C220.632 180.137 219.963 180.527 219.786 181.19C219.618 181.806 220.088 182.167 220.813 182.167C221.814 182.167 222.717 181.605 222.939 180.777L223.021 180.402Z" fill="black"/>
<path d="M227.317 176.555H228.834L228.538 177.658C229.211 176.968 230.049 176.426 231.112 176.426C232.678 176.426 233.862 177.658 233.269 179.882C232.676 182.107 230.845 183.316 229.267 183.316C228.177 183.316 227.625 182.764 227.337 182.151L226.516 185.182H225L227.317 176.555ZM231.734 179.839C232.077 178.561 231.436 177.723 230.41 177.723C229.384 177.723 228.253 178.575 227.906 179.864C227.559 181.153 228.241 181.982 229.269 181.982C230.297 181.982 231.383 181.178 231.738 179.85L231.734 179.839Z" fill="black"/>
<path d="M235.716 176.555H241.617L239.837 183.171H238.323L239.745 177.859H236.872L235.447 183.171H233.932L235.716 176.555Z" fill="black"/>
<path d="M240.813 183.156L241.258 181.925C241.398 181.955 241.54 181.972 241.683 181.976C242.448 181.976 243.074 181.598 244.425 176.564H249.423L247.649 183.179H246.135L247.557 177.867H245.49C244.205 182.664 243.146 183.253 241.679 183.253C241.388 183.241 241.099 183.209 240.813 183.156Z" fill="black"/>
<path d="M253.602 183.171L253.821 182.35C253.171 182.958 252.314 183.298 251.424 183.302C250.17 183.302 249.258 182.588 249.622 181.235C250.014 179.77 251.342 179.068 252.883 179.068C253.48 179.052 254.075 179.145 254.638 179.343L254.671 179.217C254.917 178.302 254.466 177.801 253.423 177.801C252.735 177.81 252.055 177.949 251.42 178.212L251.331 176.995C252.174 176.631 253.082 176.444 254 176.445C255.954 176.445 256.631 177.471 256.159 179.238L255.108 183.16L253.602 183.171ZM254.381 180.402C253.925 180.22 253.436 180.13 252.945 180.137C251.992 180.137 251.325 180.527 251.147 181.19C250.978 181.806 251.448 182.167 252.173 182.167C253.175 182.167 254.078 181.605 254.299 180.777L254.381 180.402Z" fill="black"/>
<path d="M259.747 177.859H257.616L257.965 176.555H263.755L263.404 177.859H261.276L259.852 183.171H258.324L259.747 177.859Z" fill="black"/>
<path d="M266.984 183.171L267.201 182.35C266.551 182.958 265.695 183.299 264.804 183.302C263.552 183.302 262.641 182.588 263.002 181.235C263.396 179.77 264.724 179.068 266.263 179.068C266.861 179.052 267.456 179.145 268.02 179.343L268.053 179.217C268.297 178.302 267.848 177.801 266.803 177.801C266.116 177.81 265.437 177.949 264.802 178.212L264.714 176.995C265.556 176.631 266.464 176.443 267.382 176.445C269.336 176.445 270.013 177.471 269.539 179.238L268.488 183.16L266.984 183.171ZM267.762 180.402C267.305 180.219 266.817 180.129 266.325 180.137C265.373 180.137 264.706 180.527 264.527 181.19C264.359 181.806 264.829 182.167 265.553 182.167C266.555 182.167 267.458 181.605 267.68 180.777L267.762 180.402Z" fill="black"/>
<path d="M275.822 176.555H277.3L276.112 180.991C277.548 179.51 278.985 178.032 280.422 176.555H281.859L280.087 183.171H278.63L279.81 178.76L275.484 183.171H274.047L275.822 176.555Z" fill="black"/>
<path d="M285.099 184.811L285.92 183.684C286.164 183.845 286.449 183.932 286.741 183.934C287.166 183.934 287.48 183.745 287.887 183.171L286.901 176.555H288.519L289.081 181.465L292.109 176.555H293.687L289.235 183.357C288.346 184.71 287.622 185.205 286.557 185.205C286.042 185.225 285.534 185.087 285.099 184.811Z" fill="black"/>
<path d="M294.992 176.555H300.891L299.12 183.171H297.603L299.028 177.859H296.154L294.732 183.171H293.215L294.992 176.555Z" fill="black"/>
<path d="M302.798 176.555H304.313L304.017 177.658C304.691 176.968 305.528 176.426 306.593 176.426C308.159 176.426 309.342 177.658 308.748 179.882C308.155 182.107 306.324 183.316 304.746 183.316C303.656 183.316 303.116 182.764 302.817 182.151L301.996 185.182H300.479L302.798 176.555ZM307.215 179.839C307.556 178.561 306.918 177.723 305.889 177.723C304.861 177.723 303.732 178.575 303.387 179.864C303.042 181.153 303.722 181.982 304.748 181.982C305.774 181.982 306.858 181.178 307.215 179.85V179.839Z" fill="black"/>
<path d="M313.467 183.171L313.685 182.35C313.034 182.958 312.178 183.299 311.287 183.302C310.035 183.302 309.124 182.588 309.485 181.235C309.879 179.77 311.207 179.068 312.747 179.068C313.344 179.052 313.939 179.145 314.503 179.343L314.536 179.217C314.781 178.302 314.331 177.801 313.286 177.801C312.599 177.81 311.92 177.949 311.285 178.212L311.197 176.995C312.039 176.631 312.947 176.443 313.865 176.445C315.819 176.445 316.496 177.471 316.022 179.238L314.971 183.16L313.467 183.171ZM314.247 180.402C313.79 180.22 313.302 180.13 312.81 180.137C311.858 180.137 311.191 180.527 311.012 181.19C310.844 181.806 311.314 182.167 312.038 182.167C313.042 182.167 313.943 181.605 314.165 180.777L314.247 180.402Z" fill="black"/>
<path d="M318.547 176.555H321.937C323.253 176.555 323.947 177.194 323.674 178.21C323.45 179.049 322.834 179.474 322.204 179.725C322.945 179.95 323.378 180.439 323.126 181.379C322.826 182.493 321.705 183.171 320.203 183.171H316.769L318.547 176.555ZM320.86 179.285C321.498 179.285 321.939 178.949 322.067 178.464C322.182 178.037 321.98 177.711 321.303 177.711H319.725L319.314 179.277L320.86 179.285ZM320.295 181.968C321.034 181.968 321.512 181.629 321.65 181.116C321.779 180.64 321.478 180.314 320.663 180.314H319.021L318.577 181.968H320.295Z" fill="black"/>
<path d="M323.231 183.156L323.676 181.925C323.816 181.955 323.958 181.973 324.101 181.976C324.865 181.976 325.493 181.598 326.841 176.564H331.839L330.068 183.179H328.551L329.975 177.867H327.909C326.622 182.664 325.563 183.253 324.097 183.253C323.806 183.241 323.517 183.209 323.231 183.156Z" fill="black"/>
<path d="M332.496 179.862C333.003 177.972 334.754 176.418 336.65 176.418C338.756 176.418 339.378 178.06 338.867 179.975C338.84 180.075 338.76 180.326 338.727 180.402H333.867C333.742 181.479 334.343 182.081 335.322 182.081C336.061 182.081 336.66 181.804 337.325 181.291L338.003 182.081C337.185 182.866 336.097 183.307 334.963 183.312C333.048 183.329 331.942 181.929 332.496 179.862ZM337.518 179.398C337.68 178.421 337.313 177.658 336.305 177.658C335.38 177.658 334.536 178.372 334.123 179.398H337.518Z" fill="black"/>
<path d="M341.311 176.555H342.828L342.11 179.236H345.029L345.747 176.555H347.264L345.49 183.171H343.976L344.69 180.502H341.771L341.057 183.171H339.54L341.311 176.555Z" fill="black"/>
<path d="M349.169 176.555H350.646L349.458 180.991C350.895 179.51 352.335 178.032 353.778 176.555H355.215L353.442 183.171H351.976L353.159 178.76L348.826 183.171H347.389L349.169 176.555Z" fill="black"/>
<path d="M355.861 179.862C356.368 177.972 358.119 176.418 360.018 176.418C362.121 176.418 362.743 178.06 362.234 179.975C362.208 180.075 362.128 180.326 362.095 180.402H357.24C357.113 181.479 357.717 182.081 358.694 182.081C359.433 182.081 360.034 181.804 360.697 181.291L361.374 182.081C360.557 182.866 359.47 183.307 358.337 183.312C356.419 183.329 355.307 181.929 355.861 179.862ZM360.884 179.398C361.046 178.421 360.678 177.658 359.673 177.658C358.745 177.658 357.901 178.372 357.489 179.398H360.884Z" fill="black"/>
<path d="M368.437 176.555H374.338L372.567 183.171H371.05L372.474 177.859H369.601L368.178 183.171H366.661L368.437 176.555Z" fill="black"/>
<path d="M374.993 179.862C375.5 177.972 377.251 176.418 379.15 176.418C381.253 176.418 381.875 178.06 381.366 179.975C381.34 180.075 381.26 180.326 381.227 180.402H376.366C376.239 181.479 376.843 182.081 377.82 182.081C378.558 182.081 379.16 181.804 379.823 181.291L380.502 182.081C379.684 182.865 378.596 183.306 377.462 183.312C375.545 183.329 374.441 181.929 374.993 179.862ZM380.018 179.398C380.178 178.421 379.813 177.658 378.805 177.658C377.877 177.658 377.036 178.372 376.621 179.398H380.018Z" fill="black"/>
<path d="M383.811 176.555H385.328L385.032 177.658C385.705 176.968 386.543 176.426 387.606 176.426C389.172 176.426 390.356 177.658 389.763 179.882C389.17 182.107 387.339 183.316 385.761 183.316C384.671 183.316 384.119 182.764 383.831 182.151L383.01 185.182H381.493L383.811 176.555ZM388.228 179.839C388.571 178.561 387.93 177.723 386.904 177.723C385.878 177.723 384.747 178.575 384.4 179.864C384.053 181.153 384.734 181.982 385.763 181.982C386.791 181.982 387.873 181.178 388.234 179.85L388.228 179.839Z" fill="black"/>
<path d="M390.947 179.901V179.874C391.45 177.996 393.326 176.418 395.307 176.418C396.559 176.418 397.211 176.882 397.644 177.557L396.433 178.571C396.101 178.085 395.703 177.75 394.937 177.75C393.835 177.75 392.778 178.702 392.474 179.854V179.878C392.158 181.057 392.716 182.009 393.882 182.009C394.596 182.009 395.212 181.67 395.82 181.188L396.493 182.091C395.647 182.818 394.744 183.323 393.455 183.323C391.483 183.329 390.442 181.779 390.947 179.901Z" fill="black"/>
<path d="M397.795 179.874C398.301 177.984 400.225 176.418 402.255 176.418C404.285 176.418 405.362 177.957 404.849 179.874C404.344 181.754 402.421 183.32 400.379 183.32C398.336 183.32 397.283 181.779 397.795 179.874ZM403.336 179.874C403.648 178.711 403.067 177.746 401.877 177.746C400.686 177.746 399.619 178.698 399.315 179.874C399.012 181.05 399.584 182.005 400.752 182.005C401.986 182.005 403.012 181.04 403.332 179.874H403.336Z" fill="black"/>
<path d="M407.279 176.555H408.796L408.077 179.236H410.996L411.714 176.555H413.229L411.458 183.171H409.941L410.657 180.502H407.732L407.018 183.171H405.501L407.279 176.555Z" fill="black"/>
<path d="M417.408 183.171L417.628 182.35C416.978 182.958 416.121 183.299 415.231 183.302C413.977 183.302 413.065 182.588 413.428 181.235C413.821 179.77 415.148 179.068 416.69 179.068C417.287 179.052 417.881 179.145 418.445 179.343L418.48 179.217C418.724 178.302 418.274 177.801 417.23 177.801C416.542 177.81 415.862 177.949 415.226 178.212L415.14 176.995C415.983 176.63 416.891 176.443 417.809 176.445C419.763 176.445 420.44 177.471 419.968 179.238L418.917 183.16L417.408 183.171ZM418.188 180.402C417.732 180.219 417.243 180.129 416.751 180.137C415.799 180.137 415.132 180.527 414.953 181.19C414.785 181.806 415.255 182.167 415.98 182.167C416.981 182.167 417.884 181.605 418.106 180.777L418.188 180.402Z" fill="black"/>
<path d="M419.781 183.156L420.226 181.925C420.366 181.955 420.508 181.973 420.651 181.976C421.414 181.976 422.043 181.598 423.391 176.564H428.389L426.616 183.171H425.099L426.523 177.859H424.456C423.169 182.655 422.11 183.245 420.645 183.245C420.355 183.236 420.066 183.206 419.781 183.156Z" fill="black"/>
<path d="M429.042 179.874C429.549 177.984 431.472 176.418 433.502 176.418C435.532 176.418 436.609 177.957 436.096 179.874C435.591 181.754 433.668 183.32 431.626 183.32C429.583 183.32 428.533 181.779 429.042 179.874ZM434.583 179.874C434.895 178.711 434.314 177.746 433.124 177.746C431.934 177.746 430.866 178.698 430.562 179.874C430.259 181.05 430.831 182.005 431.999 182.005C433.233 182.005 434.267 181.04 434.579 179.874H434.583Z" fill="black"/>
<path d="M438.52 176.555H440.024L441.268 179.634L444.17 176.555H445.673L443.902 183.171H442.372L443.555 178.76L440.681 181.73L439.402 178.784L438.228 183.171H436.751L438.52 176.555Z" fill="black"/>
<path d="M185.035 201.391L183.338 201.83V200.576L185.895 199.825H186.973L184.606 208.65H183.077L185.035 201.391Z" fill="black"/>
<path d="M187.734 204.264C188.403 201.77 190.813 199.728 193.481 199.728C195.097 199.728 195.924 200.293 196.548 201.093L195.253 202.234C194.725 201.584 194.091 201.144 193.089 201.144C191.41 201.144 189.826 202.522 189.36 204.264C188.894 206.007 189.74 207.384 191.412 207.384C192.488 207.384 193.294 206.945 194.235 206.243L194.957 207.244C193.787 208.197 192.623 208.798 190.981 208.798C188.424 208.796 187.053 206.805 187.734 204.264Z" fill="black"/>
<path d="M197.761 202.031H199.428L198.968 203.747H197.301L197.761 202.031ZM196.443 206.932H198.108L197.648 208.648H195.981L196.443 206.932Z" fill="black"/>
<path d="M203.329 208.347L204.228 207.193C204.525 207.388 204.875 207.484 205.23 207.468C205.62 207.468 206.234 207.23 206.872 206.516L204.994 199.876H206.722L208.087 204.976L211.859 199.876H213.524L208.259 206.727C207.122 208.219 206.069 208.78 204.928 208.78C204.364 208.797 203.807 208.646 203.329 208.347Z" fill="black"/>
<path d="M213.466 202.031H219.367L217.594 208.646H216.079L217.502 203.334H214.628L213.206 208.646H211.689L213.466 202.031Z" fill="black"/>
<path d="M221.273 202.031H222.787L222.494 203.133C223.165 202.446 224.002 201.902 225.068 201.902C226.634 201.902 227.818 203.133 227.223 205.36C226.628 207.587 224.801 208.78 223.212 208.78C222.122 208.78 221.583 208.23 221.283 207.616L220.462 210.648H218.947L221.273 202.031ZM225.69 205.327C226.03 204.049 225.392 203.209 224.364 203.209C223.335 203.209 222.206 204.061 221.862 205.352C221.517 206.643 222.196 207.468 223.222 207.468C224.249 207.468 225.332 206.655 225.69 205.327Z" fill="black"/>
<path d="M231.942 208.646L232.159 207.825C231.509 208.435 230.653 208.775 229.762 208.778C228.51 208.778 227.598 208.063 227.96 206.711C228.354 205.245 229.682 204.543 231.221 204.543C231.819 204.528 232.414 204.621 232.978 204.818L233.011 204.693C233.255 203.78 232.806 203.279 231.761 203.279C231.074 203.288 230.395 203.427 229.76 203.69L229.671 202.475C230.513 202.109 231.422 201.921 232.34 201.922C234.294 201.922 234.971 202.949 234.497 204.718L233.446 208.638L231.942 208.646ZM232.721 205.878C232.264 205.697 231.776 205.608 231.285 205.615C230.332 205.615 229.665 206.003 229.487 206.668C229.32 207.284 229.788 207.645 230.513 207.645C231.517 207.645 232.42 207.08 232.641 206.253L232.721 205.878Z" fill="black"/>
<path d="M237.021 202.031H240.416C241.732 202.031 242.426 202.671 242.153 203.685C241.929 204.525 241.313 204.95 240.683 205.202C241.424 205.426 241.857 205.916 241.605 206.844C241.307 207.961 240.184 208.636 238.682 208.636H235.25L237.021 202.031ZM239.334 204.763C239.973 204.763 240.414 204.424 240.541 203.942C240.656 203.517 240.455 203.191 239.778 203.191H238.195L237.785 204.757L239.334 204.763ZM238.778 207.444C239.517 207.444 239.997 207.105 240.135 206.592C240.262 206.116 239.961 205.789 239.146 205.789H237.504L237.06 207.444H238.778Z" fill="black"/>
<path d="M241.705 208.634L242.151 207.402C242.291 207.431 242.433 207.448 242.576 207.452C243.339 207.452 243.967 207.076 245.316 202.039H250.305L248.534 208.654H247.021L248.446 203.343H246.379C245.092 208.141 244.033 208.73 242.568 208.73C242.278 208.718 241.99 208.685 241.705 208.634Z" fill="black"/>
<path d="M250.97 205.34C251.477 203.447 253.228 201.894 255.125 201.894C257.23 201.894 257.852 203.548 257.341 205.453C257.315 205.551 257.235 205.804 257.202 205.877H252.341C252.216 206.955 252.82 207.556 253.797 207.556C254.536 207.556 255.135 207.281 255.8 206.768L256.477 207.556C255.66 208.341 254.573 208.782 253.44 208.788C251.522 208.796 250.416 207.407 250.97 205.34ZM255.993 204.876C256.155 203.899 255.788 203.133 254.78 203.133C253.854 203.133 253.011 203.848 252.598 204.876H255.993Z" fill="black"/>
<path d="M259.788 202.031H261.302L260.584 204.714H263.503L264.221 202.031H265.738L263.965 208.646H262.45L263.164 205.978H260.245L259.531 208.646H258.014L259.788 202.031Z" fill="black"/>
<path d="M267.643 202.031H269.12L267.932 206.467C269.369 204.989 270.806 203.51 272.242 202.031H273.679L271.908 208.646H270.442L271.622 204.237L267.296 208.646H265.859L267.643 202.031Z" fill="black"/>
<path d="M274.336 205.34C274.843 203.447 276.594 201.894 278.492 201.894C280.596 201.894 281.218 203.548 280.709 205.453C280.682 205.551 280.602 205.804 280.569 205.877H275.709C275.582 206.955 276.185 207.556 277.162 207.556C277.901 207.556 278.502 207.281 279.165 206.768L279.843 207.556C279.026 208.341 277.938 208.782 276.805 208.788C274.888 208.796 273.782 207.407 274.336 205.34ZM279.36 204.876C279.52 203.899 279.155 203.133 278.147 203.133C277.22 203.133 276.378 203.848 275.963 204.876H279.36Z" fill="black"/>
<path d="M286.914 202.031H288.428L287.71 204.714H290.629L291.347 202.031H292.864L291.09 208.646H289.576L290.29 205.978H287.371L286.657 208.646H285.14L286.914 202.031Z" fill="black"/>
<path d="M297.043 208.646L297.26 207.825C296.611 208.435 295.754 208.775 294.863 208.778C293.611 208.778 292.7 208.063 293.061 206.711C293.455 205.245 294.783 204.543 296.324 204.543C296.921 204.528 297.516 204.621 298.079 204.818L298.112 204.693C298.359 203.78 297.907 203.279 296.864 203.279C296.177 203.287 295.497 203.427 294.861 203.69L294.773 202.475C295.615 202.109 296.523 201.921 297.441 201.922C299.395 201.922 300.072 202.949 299.598 204.718L298.547 208.638L297.043 208.646ZM297.823 205.878C297.366 205.697 296.878 205.608 296.386 205.615C295.436 205.615 294.767 206.003 294.59 206.668C294.422 207.284 294.892 207.645 295.616 207.645C296.618 207.645 297.521 207.08 297.743 206.253L297.823 205.878Z" fill="black"/>
<path d="M302.123 202.031H303.64L302.215 207.343H304.66L306.082 202.031H307.584L306.162 207.343H308.596L310.021 202.031H311.536L309.764 208.646H300.343L302.123 202.031Z" fill="black"/>
<path d="M312.201 205.34C312.708 203.447 314.458 201.894 316.355 201.894C318.461 201.894 319.083 203.548 318.572 205.453C318.545 205.551 318.465 205.804 318.432 205.877H313.572C313.446 206.955 314.048 207.556 315.027 207.556C315.766 207.556 316.365 207.281 317.028 206.768L317.708 207.556C316.89 208.342 315.801 208.783 314.668 208.788C312.753 208.796 311.646 207.407 312.201 205.34ZM317.217 204.88C317.379 203.903 317.012 203.137 316.004 203.137C315.078 203.137 314.235 203.852 313.822 204.88H317.217Z" fill="black"/>
<path d="M321.016 202.031H322.496L321.307 206.467C322.741 204.989 324.178 203.51 325.618 202.031H327.054L325.283 208.646H323.818L325 204.238L320.673 208.646H319.236L321.016 202.031ZM322.752 199.527L323.727 199.351C323.75 199.876 323.976 200.202 324.548 200.202C325.121 200.202 325.513 199.876 325.817 199.351L326.685 199.527C326.235 200.59 325.328 201.268 324.263 201.268C323.198 201.268 322.631 200.59 322.759 199.527H322.752Z" fill="black"/>
<path d="M334.934 208.164C334.454 208.531 333.868 208.733 333.264 208.741C331.698 208.741 330.914 207.509 331.494 205.334C332.065 203.203 333.522 201.924 335.103 201.924C335.361 201.916 335.618 201.972 335.849 202.089C336.08 202.205 336.279 202.377 336.427 202.589L337.155 199.87H338.672L337.947 202.595C338.417 202.191 339.009 201.957 339.628 201.93C341.207 201.93 341.981 203.209 341.406 205.352C340.831 207.495 339.38 208.747 337.814 208.747C337.126 208.747 336.695 208.484 336.453 208.17L335.788 210.652H334.273L334.934 208.164ZM335.236 207.037L336.135 203.679C336.028 203.531 335.887 203.411 335.723 203.331C335.559 203.25 335.378 203.21 335.195 203.215C334.142 203.215 333.362 204.067 333.017 205.358C332.673 206.649 332.976 207.474 334.044 207.474C334.478 207.466 334.897 207.314 335.236 207.043V207.037ZM339.873 205.346C340.216 204.067 339.906 203.215 338.846 203.215C338.409 203.245 337.99 203.407 337.646 203.679L336.745 207.037C336.86 207.18 337.006 207.294 337.173 207.37C337.34 207.445 337.522 207.481 337.705 207.474C338.789 207.48 339.518 206.68 339.873 205.352V205.346Z" fill="black"/>
<path d="M343.858 202.031H345.336L344.148 206.467C345.584 204.989 347.021 203.511 348.458 202.031H349.895L348.121 208.646H346.656L347.838 204.237L343.511 208.646H342.075L343.858 202.031Z" fill="black"/>
<path d="M351.802 202.031H353.316L353.023 203.133C353.694 202.446 354.532 201.902 355.597 201.902C357.163 201.902 358.347 203.133 357.752 205.36C357.157 207.587 355.33 208.78 353.752 208.78C352.662 208.78 352.122 208.23 351.822 207.616L351.001 210.648H349.487L351.802 202.031ZM356.215 205.327C356.555 204.049 355.917 203.209 354.889 203.209C353.86 203.209 352.732 204.061 352.387 205.352C352.042 206.643 352.721 207.468 353.748 207.468C354.774 207.468 355.862 206.655 356.215 205.327Z" fill="black"/>
<path d="M360.196 202.031H361.699L362.945 205.11L365.847 202.031H367.349L365.576 208.646H364.049L365.231 204.237L362.358 207.205L361.077 204.264L359.909 208.646H358.429L360.196 202.031Z" fill="black"/>
<path d="M368.002 205.352C368.509 203.46 370.432 201.894 372.462 201.894C374.492 201.894 375.569 203.435 375.054 205.352C374.551 207.23 372.628 208.796 370.586 208.796C368.544 208.796 367.491 207.257 368.002 205.352ZM373.543 205.352C373.855 204.186 373.275 203.222 372.084 203.222C370.894 203.222 369.826 204.174 369.521 205.352C369.215 206.53 369.789 207.48 370.957 207.48C372.191 207.48 373.227 206.522 373.539 205.352H373.543Z" fill="black"/>
<path d="M377.487 202.031H378.965L377.776 206.467C379.213 204.989 380.65 203.511 382.087 202.031H383.523L381.75 208.646H380.285L381.467 204.238L377.15 208.646H375.714L377.487 202.031ZM379.223 199.527L380.196 199.351C380.219 199.876 380.445 200.202 381.017 200.202C381.59 200.202 381.98 199.876 382.286 199.351L383.152 199.527C382.704 200.59 381.795 201.268 380.732 201.268C379.669 201.268 379.1 200.59 379.223 199.527Z" fill="black"/>
<path d="M437.088 211.692L437.966 211.013L438.194 211.717L437.088 211.692Z" fill="#163560"/>
<path d="M467.068 322.733L464.098 335.241L459.648 335.216L459.486 322.733H467.068Z" fill="#F9C6B9"/>
<path d="M429.648 323.265L421.196 335.241L417.904 331.013L422.99 321.618L429.648 323.265Z" fill="#F9C6B9"/>
<path d="M450.161 187.183C449.595 186.013 448.959 183.932 448.649 180.223C448.696 180.591 449.336 185.268 451.134 187.916C458.523 192.768 472.686 208.966 472.407 212.035C472.407 212.035 473.971 210.567 476.239 208.482L476.762 205.327C477.039 205.898 477.07 206.969 477.051 207.735C481.292 203.85 487.374 198.369 490.627 195.896C490.216 194.57 489.135 192.259 489.1 192.175C490.048 192.438 491.175 194.178 491.721 195.104C491.815 195.038 491.905 194.981 491.992 194.929C491.992 194.929 491.023 187.284 480.001 181.574C474.225 178.581 470.262 177.341 470.494 173.544C470.726 169.747 468.981 153.395 457.877 157.674C457.877 157.674 456.095 156.882 455.297 157.001C455.297 157.001 455.95 157.126 456.28 157.467C454.993 157.391 453.154 157.488 451.617 158.36C447.547 160.673 443.91 181.426 450.161 187.183Z" fill="#202020"/>
<path d="M451.571 188.158C451.534 188.175 455.14 190.047 457.85 189.306C460.401 188.61 462.068 185.303 462.033 185.295C460.953 185.09 460.641 183.598 460.664 177.218L460.175 177.315L451.965 178.94C451.965 178.94 452.152 181.525 452.158 183.959C452.164 185.997 452.039 187.941 451.571 188.158Z" fill="#F9C6B9"/>
<path d="M460.857 161.036C460.857 161.036 456.805 156.726 451.721 160.817C451.721 160.817 454.681 160.306 460.857 161.036Z" fill="#E37970"/>
<path d="M451.965 178.94C451.965 178.94 452.152 181.524 452.158 183.959C456.752 183.829 459.18 179.638 460.175 177.315L451.965 178.94Z" fill="#F49E87"/>
<path d="M461.023 176.422C461.023 176.422 463.431 172.617 464.01 169.365C464.42 167.042 463.238 158.434 454.589 159.674C452.847 159.917 451.181 160.548 449.716 161.521C447.838 162.789 445.126 165.527 448.158 173.039L448.944 175.576L461.023 176.422Z" fill="#202020"/>
<path d="M419.244 327.729L423.595 327.862L428.306 328.006C428.306 328.006 439.184 315.896 445.29 296.473C445.427 296.022 445.578 295.565 445.742 295.104C449.081 285.365 456.004 273.142 459.654 262.075C460.235 260.312 460.756 258.654 461.224 257.083C461.373 256.581 461.518 256.087 461.659 255.6C464.348 246.257 465.128 240.122 465.844 233.568L439.496 233.773C439.496 233.773 435.241 278.534 419.244 327.729Z" fill="#444444"/>
<path d="M443.185 218.632C443.251 231.171 441.338 236.55 441.338 236.55C441.338 236.55 452.626 242.281 466.027 238.063C466.185 238.012 477.129 235.514 477.129 235.514C476.906 235.007 474.908 226.556 474.691 226.091C471.86 220.011 469.709 217.347 469.375 215.477C468.759 211.988 468.739 208.377 469.049 204.972C469.58 199.379 470.67 193.853 472.3 188.476C468.646 187.645 465.225 186.184 461.421 184.759C460.545 185.847 457.873 186.986 455.553 186.935C452.885 186.875 452.015 185.732 452.154 184.484C449.307 186.069 447.037 187.563 447.037 187.563C444.617 191.764 439.712 195.845 439.357 202.29C439.279 203.882 443.183 218.287 443.185 218.632Z" fill="#E7F1FD"/>
<path d="M427.887 200.011C431.754 195.496 441.777 185.693 452.107 184.49L443.185 201.875C443.185 201.875 442.682 204.855 440.04 206.596C433.567 210.849 425.336 212.729 425.336 212.729C425.336 212.729 419.763 210.299 412.145 204.724C409.753 202.971 405.55 196.288 405.55 196.288L406.683 192.495C406.683 192.495 413.819 196.483 416.367 197.626C417.82 198.281 421.163 199.847 423.52 200.954C424.25 201.297 425.074 201.391 425.863 201.221C426.652 201.051 427.363 200.626 427.887 200.011Z" fill="#707070"/>
<path d="M450.432 181.245C450.432 181.245 461.3 181.424 461.31 174.655C461.321 167.886 462.727 163.347 455.787 162.955C448.847 162.563 447.495 165.137 446.943 167.397C446.391 169.657 447.604 181.024 450.432 181.245Z" fill="#F9C6B9"/>
<path d="M450.834 162.781C450.834 162.781 453.81 170.724 458.377 171.898C462.944 173.072 464.925 171.849 464.925 171.849C464.925 171.849 461.423 169.066 460.695 164.207C460.695 164.207 453.08 159 450.834 162.781Z" fill="#202020"/>
<path d="M451.572 163.419C451.572 163.419 449.349 165.193 448.807 166.908C448.265 168.624 448.023 172.181 446.988 172.06C446.988 172.06 444.745 166.662 447.265 163.608C449.938 160.384 451.572 163.419 451.572 163.419Z" fill="#202020"/>
<path d="M406.693 192.483C406.693 192.483 405.162 186.96 399.099 187.739C398.403 187.959 396.367 188.766 397.662 190.95C398.621 192.557 399.036 191.728 400.536 193.887C402.036 196.046 403.682 196.532 405.552 196.276L406.693 192.483Z" fill="#F9C6B9"/>
<path d="M464.248 334.541C464.063 336.272 464.256 338.023 464.814 339.672C464.814 339.672 465.541 342.989 462.273 343.051C459.005 343.112 458.205 342.804 458.578 340.77C458.952 338.736 459.652 335.216 459.652 335.216L464.248 334.541Z" fill="#F9C6B9"/>
<path d="M458.277 344.465C458.277 344.465 458.347 344.508 458.482 344.574H464.878C464.94 344.542 465.001 344.505 465.058 344.465C465.428 342.8 464.824 339.668 464.824 339.668C461.13 343.059 458.808 339.584 458.808 339.584C458.197 341.033 458.277 344.465 458.277 344.465Z" fill="#178A00"/>
<path d="M410.03 341.101C410.03 341.101 416.054 334.414 417.904 331.013L422.382 333.307L412.37 342.71L410.028 342.402L410.03 341.101Z" fill="#F9C6B9"/>
<path d="M406.293 344.574H414.535C415.33 343.98 416.071 342.607 416.998 340.764C417.489 339.781 418.593 339.239 419.726 338.942V344.51H421.436L423.055 338.591C424.121 336.63 423.14 334.855 422.388 333.305C421.516 333.305 419.168 333.901 414.718 338.915C413.255 340.557 411.639 341.15 410.036 341.099C410.016 341.113 409.994 341.125 409.971 341.134C407.28 342.341 406.512 343.835 406.293 344.574Z" fill="#178A00"/>
<path d="M452.164 184.49C452.164 184.49 445.875 200.026 445.69 203.168C445.506 206.311 444.952 254.582 444.952 254.582C444.952 254.582 445.321 256.802 441.066 255.877C436.811 254.951 435.703 254.029 435.703 254.029C435.703 254.029 439.773 224.254 438.663 213.897C437.552 203.54 447.17 186.648 447.17 186.648L452.164 184.49Z" fill="#707070"/>
<path d="M423.589 327.862L428.3 328.006C428.3 328.006 439.178 315.896 445.284 296.473C445.421 296.022 445.572 295.565 445.736 295.104C449.075 285.365 455.998 273.142 459.648 262.075C460.228 260.312 460.75 258.654 461.218 257.084C461.367 256.581 461.512 256.087 461.653 255.6L457.774 252.654C457.774 252.654 446.124 271.519 442.517 289.273C439.393 304.694 426.844 323.248 423.589 327.862Z" fill="#353535"/>
<path d="M435.964 211.013L436.194 211.717L448.388 207.753C448.435 207.693 448.467 207.622 448.481 207.547C448.494 207.471 448.489 207.393 448.466 207.32C448.45 207.249 448.412 207.184 448.357 207.135C448.302 207.086 448.233 207.056 448.16 207.049L435.964 211.013Z" fill="#163560"/>
<path d="M457.374 290.925C457.308 299.558 457.743 319.406 458.868 327.624H463.041C465.348 327.624 466.497 327.591 466.497 327.591C469.317 313.304 471.325 301.481 472.786 291.295C473.985 282.935 475.044 275.769 475.865 269.6C476.686 263.391 477.263 258.192 477.468 253.795C477.499 253.104 477.523 252.43 477.536 251.778C477.548 251.125 477.554 250.483 477.548 249.865L454.788 247.648C455.071 262.775 457.411 285.909 457.374 290.925Z" fill="#444444"/>
<path d="M463.041 327.62C465.348 327.62 466.497 327.587 466.497 327.587C469.317 313.3 471.325 301.477 472.786 291.291C473.985 282.931 475.044 275.765 475.865 269.596C476.686 263.387 477.262 258.188 477.468 253.791L469.114 258.705C469.114 258.705 474.451 260.587 472.412 274.827C470.374 289.068 465.871 325.609 463.041 327.62Z" fill="#353535"/>
<path d="M461.972 253.66C461.972 253.66 463.577 259.454 469.125 258.715C474.673 257.976 482.562 254.645 482.562 254.645C482.562 254.645 480.192 247.153 477.242 237.31C473.673 225.405 469.256 210.034 467.173 200.344C466.588 197.628 466.19 195.362 466.042 193.739L461.438 184.806C461.438 184.806 454.574 200.2 454.205 204.1C453.836 208 461.972 253.66 461.972 253.66Z" fill="#707070"/>
<path d="M467.513 203.517L461.44 184.806C461.456 184.806 469.112 187.085 472.963 189.03C472.963 189.03 475.37 192.134 476.863 199.293C476.863 199.293 478.437 216.485 474.923 222.772C474.923 222.772 463.825 224.992 446.071 218.888V214.822C446.071 214.822 465.49 215.838 469.469 216.302L467.513 203.517Z" fill="#F9C6B9"/>
<path d="M462.212 212.232C462.46 218.521 463.94 230.727 477.131 237.26L477.236 237.31C473.667 225.405 469.25 210.034 467.166 200.344C464.745 203.965 462.076 208.78 462.212 212.232Z" fill="#4D4D4D"/>
<path d="M461.431 184.806C461.431 184.806 472.691 185.601 475.405 191.641C478.118 197.682 478.98 217.78 475.528 223.699C475.528 223.699 470.774 225.052 462.369 223.48L462.057 223.422C462.057 223.422 459.377 216.854 461.78 215.561C461.78 215.561 468.87 215.931 468.131 213.589C467.392 211.247 461.431 184.806 461.431 184.806Z" fill="#707070"/>
<path d="M448.051 215.904C448.051 215.904 446.504 214.028 446.175 212.115C445.847 210.202 444.821 208.782 442.15 208.421C439.48 208.059 438.333 208.031 438.339 208.784C438.345 209.537 440.521 214.792 444.353 217.93C448.185 221.068 448.051 215.904 448.051 215.904Z" fill="#F9C6B9"/>
<path d="M452.321 172.264C452.686 172.21 452.935 171.843 452.875 171.443C452.816 171.044 452.472 170.765 452.106 170.819C451.74 170.873 451.492 171.241 451.552 171.64C451.611 172.039 451.955 172.319 452.321 172.264Z" fill="#161616"/>
<path d="M448.416 172.285C448.691 172.266 448.89 171.923 448.862 171.519C448.834 171.115 448.588 170.804 448.313 170.823C448.039 170.842 447.839 171.185 447.867 171.589C447.895 171.992 448.141 172.304 448.416 172.285Z" fill="#161616"/>
<path d="M449.878 175.455C450.111 175.463 450.34 175.396 450.533 175.264C450.545 175.257 450.556 175.247 450.564 175.236C450.573 175.224 450.579 175.21 450.582 175.196C450.584 175.182 450.584 175.168 450.581 175.154C450.578 175.139 450.572 175.126 450.564 175.115C450.555 175.103 450.544 175.093 450.532 175.086C450.519 175.079 450.505 175.075 450.491 175.073C450.476 175.072 450.462 175.074 450.448 175.078C450.435 175.083 450.422 175.09 450.411 175.1C450.073 175.35 449.459 175.258 449.088 175.03C449.06 175.017 449.036 174.998 449.017 174.975C448.998 174.952 448.984 174.924 448.977 174.895C448.946 174.739 449.112 174.507 449.248 174.318C449.303 174.24 449.357 174.166 449.393 174.1C449.648 173.784 449.816 172.664 449.933 171.734C449.946 171.633 449.954 171.568 449.958 171.549C449.964 171.522 449.959 171.494 449.944 171.47C449.929 171.447 449.905 171.43 449.878 171.424C449.851 171.418 449.822 171.423 449.799 171.438C449.775 171.453 449.759 171.477 449.753 171.504C449.753 171.523 449.738 171.596 449.724 171.709C449.56 173.019 449.391 173.782 449.225 173.967L449.213 173.986C449.171 174.056 449.125 174.125 449.075 174.191C448.917 174.41 448.72 174.683 448.769 174.928C448.782 174.985 448.807 175.039 448.843 175.085C448.878 175.132 448.923 175.171 448.975 175.199C449.248 175.362 449.559 175.451 449.878 175.455Z" fill="#F49E87"/>
<path d="M453.952 170.326C453.876 170.057 453.713 169.821 453.49 169.653C453.264 169.475 452.994 169.362 452.708 169.324C452.43 169.297 452.15 169.332 451.887 169.427C451.76 169.476 451.636 169.534 451.518 169.601C451.406 169.677 451.3 169.761 451.2 169.852C451.331 169.839 451.461 169.818 451.59 169.79C451.719 169.776 451.84 169.751 451.961 169.737C452.196 169.714 452.432 169.714 452.667 169.737C453.143 169.807 453.588 170.012 453.952 170.326Z" fill="#161616"/>
<path d="M450.477 177.604C450.745 177.602 451.011 177.569 451.271 177.506C451.797 177.378 452.3 177.17 452.763 176.89C452.786 176.875 452.802 176.851 452.808 176.825C452.814 176.798 452.808 176.77 452.793 176.747C452.778 176.724 452.755 176.708 452.728 176.703C452.701 176.697 452.674 176.702 452.651 176.717C452.626 176.734 450.134 178.314 448.854 176.625C448.845 176.614 448.835 176.605 448.824 176.598C448.812 176.592 448.799 176.587 448.786 176.585C448.773 176.583 448.759 176.584 448.746 176.587C448.733 176.591 448.721 176.596 448.71 176.605C448.699 176.613 448.69 176.623 448.683 176.634C448.676 176.646 448.672 176.659 448.67 176.672C448.668 176.685 448.669 176.699 448.672 176.712C448.675 176.725 448.681 176.737 448.689 176.748C448.896 177.024 449.167 177.247 449.478 177.396C449.789 177.545 450.132 177.616 450.477 177.604Z" fill="#F49E87"/>
<path d="M165.901 190.989C165.901 190.989 150.74 206.43 150.011 212.335C149.282 218.24 157.23 227.482 157.23 227.482L165.901 190.989Z" fill="#E25100"/>
<path d="M172.4 353.461C172.4 353.461 172.722 358.664 173.656 360.904H192.615C192.295 360.158 191.55 359.202 189.822 358.9C186.852 358.381 181.883 356.296 180.085 352.371C178.192 348.244 172.4 353.461 172.4 353.461Z" fill="#1B1B1B"/>
<path d="M149.777 353.461C149.777 353.461 150.099 358.664 151.031 360.904H169.99C169.672 360.158 168.927 359.202 167.197 358.9C164.229 358.381 159.258 356.296 157.46 352.371C155.567 348.244 149.777 353.461 149.777 353.461Z" fill="#1B1B1B"/>
<path d="M183.65 263.963C183.65 263.963 180.994 280.954 171.083 311.116C161.171 341.277 159.823 354.337 159.823 354.337L149.191 354.04C149.191 354.04 149.1 321.077 153.669 305.911C158.238 290.745 154.654 251.232 154.654 251.232L183.65 263.963Z" fill="#272727"/>
<path d="M188.824 252.164C188.824 252.164 189.2 277.767 184.77 309.203C180.341 340.639 181.841 353.984 181.841 353.984L171.232 354.337C171.232 354.337 164.89 322.889 166.716 307.154C168.543 291.42 158.034 253.161 158.034 253.161L188.824 252.164Z" fill="#3D3D3D"/>
<path d="M168.285 192.247L173.937 195.954L182.106 194.431C181.993 193.77 181.454 191.038 180.963 188.56C180.934 188.415 180.904 188.269 180.877 188.127C180.466 186.019 180.093 184.209 180.093 184.209L172.462 180.843L169.617 179.589C169.617 179.632 169.836 181.927 169.867 182.257C170.401 188.207 168.285 192.247 168.285 192.247Z" fill="#F9C6B9"/>
<path d="M153.95 255.324C155.592 262.808 182.89 263.697 189.935 256.903C190.735 256.127 190.776 252.525 190.472 247.666C189.883 238.176 187.987 223.896 187.913 216.602C187.839 213.108 187.449 209.629 186.747 206.206C185.913 201.975 184.755 197.815 183.284 193.761C183.284 193.761 169.943 189.451 167.451 190.182C155.428 193.714 152.308 247.839 153.95 255.324Z" fill="#FF6600"/>
<path d="M190.473 247.667C189.883 238.176 187.987 223.896 187.913 216.602C187.839 213.108 187.449 209.629 186.747 206.206L178.724 204.79C178.724 204.79 170.873 236.829 190.473 247.667Z" fill="#E25100"/>
<path d="M186.129 234.436C186.129 234.436 185.581 235.744 186.731 236.622C187.88 237.501 188.623 238.921 188.36 239.959C188.098 240.998 185.577 242.695 184.705 242.422C183.833 242.149 182.055 240.78 182.242 240.232C182.429 239.684 181.049 235.421 183.188 233.779C185.327 232.137 186.129 234.436 186.129 234.436Z" fill="#F9C6B9"/>
<path d="M177.158 191.84C177.158 191.84 184.982 193.304 191.217 202.493C197.453 211.682 201.554 218.502 200.405 221.823C199.255 225.144 188.787 236.62 186.983 236.62C185.179 236.62 182.262 235.306 182.1 232.353C182.1 232.353 189.471 221.306 188.02 219.652C187.404 218.946 178.451 211.68 177.172 214.962C175.06 220.391 177.158 191.84 177.158 191.84Z" fill="#FF6600"/>
<path d="M170.44 182.366C172.114 185.205 178.358 187.659 180.963 188.56C180.934 188.415 180.903 188.269 180.877 188.127C180.466 186.019 180.093 184.209 180.093 184.209L172.461 180.843C170.774 180.82 169.748 181.198 170.44 182.366Z" fill="#F49E87"/>
<path d="M182.968 183.739C182.968 183.739 170.678 187.579 168.41 179.889C166.142 172.198 163.022 167.524 170.774 164.739C178.527 161.954 180.93 164.446 182.305 166.833C183.681 169.22 186.107 182.551 182.968 183.739Z" fill="#F9C6B9"/>
<path d="M181.823 166.088C181.823 166.088 181.039 175.036 179.188 174.649C177.336 174.261 175.659 173.971 175.93 176.67C176.201 179.369 178.767 182.483 173.057 182.961C167.347 183.439 159.153 168.727 160.719 165.942C165.247 157.908 188.358 156.287 181.823 166.088Z" fill="#7B3212"/>
<path d="M180.015 190.377C179.857 190.309 170.177 187.452 169.124 187.801C168.071 188.15 167.451 190.182 167.451 190.182L183.282 193.761C183.282 193.761 182.036 191.229 180.015 190.377Z" fill="#E25100"/>
<path fill-rule="evenodd" clip-rule="evenodd" d="M290.67 271.937C289.87 271.889 289.078 271.753 288.309 271.53C288.183 271.488 287.669 271.276 287.54 271.21C285.303 270.019 284.222 267.413 285.032 264.396C286.142 260.251 290.392 256.872 294.5 256.872C298.608 256.872 301.008 260.195 299.971 264.284H302.66C304.1 258.692 300.789 254.161 295.227 254.161C289.665 254.161 283.846 258.751 282.333 264.396C281.29 268.286 282.556 271.669 285.272 273.399C285.745 273.676 286.242 273.909 286.757 274.095C287.69 274.377 288.651 274.554 289.623 274.623C289.95 274.651 291.119 274.665 291.46 274.665H310.013L310.736 271.958H292.225C291.964 271.961 290.89 271.947 290.67 271.937ZM293.369 267.691C293.178 267.691 292.152 267.691 291.978 267.67C291.628 267.645 291.279 267.597 290.935 267.528C290.684 267.461 290.444 267.363 290.218 267.235C289.363 266.693 288.966 265.624 289.296 264.396C289.776 262.607 291.603 261.159 293.373 261.159C295.143 261.159 296.156 262.551 295.738 264.291H298.326C299.126 261.114 297.237 258.549 294.072 258.549C290.907 258.549 287.568 261.166 286.702 264.396C286.093 266.675 286.862 268.641 288.486 269.616C288.763 269.782 289.06 269.913 289.37 270.006C289.939 270.154 290.521 270.247 291.109 270.284C291.314 270.284 292.368 270.308 292.59 270.308H311.185L311.881 267.698H293.369V267.691ZM275.22 274.651L279.982 256.869H276.02L276.75 254.14H283.429L277.919 274.644L275.22 274.651ZM272.674 258.236L271.978 260.864H274.956L271.241 274.644H273.846L278.243 258.229L272.674 258.236Z" fill="#F82828"/>
<path d="M149.439 39.8608C142.503 39.8608 136.335 43.1275 132.406 48.1714C132.782 45.9372 133.004 43.6353 133.004 41.2995C133.004 18.4832 114.347 0 91.3173 0C70.457 0 53.1844 15.1826 50.1092 34.9861C44.8471 29.2143 37.2616 25.5752 28.7876 25.5752C12.8989 25.5752 0 38.3374 0 54.0955C0 56.8376 0.410054 59.478 1.14469 62H55.2346H56.4134H127.383C127.554 61.6953 127.708 61.3907 127.878 61.086C127.878 61.1368 127.878 61.1875 127.878 61.2383C127.878 61.4922 127.913 61.7461 127.913 61.9831H170.966C170.983 61.7292 171 61.4922 171 61.2383C171 49.424 161.347 39.8608 149.439 39.8608Z" fill="#EEEFF2"/>
<path d="M363.761 44.4308C359.502 44.4308 355.715 46.433 353.302 49.5244C353.533 48.1551 353.669 46.7442 353.669 45.3126C353.669 31.3284 342.213 20 328.072 20C315.263 20 304.657 29.3055 302.769 41.4431C299.538 37.9055 294.88 35.6751 289.677 35.6751C279.92 35.6751 272 43.4971 272 53.1553C272 54.8359 272.252 56.4543 272.703 58H305.916H306.64H350.218C350.323 57.8133 350.417 57.6265 350.522 57.4398C350.522 57.4709 350.522 57.502 350.522 57.5332C350.522 57.6888 350.543 57.8444 350.543 57.9896H376.979C376.99 57.834 377 57.6888 377 57.5332C377 50.2921 371.073 44.4308 363.761 44.4308Z" fill="#EEEFF2"/>
</svg>
