<svg width="549" height="340" viewBox="0 0 549 340" fill="none" xmlns="http://www.w3.org/2000/svg">
<path d="M457.407 326.602C457.407 333.45 376.278 339 276.199 339C176.12 339 95 333.45 95 326.602C95 319.754 176.129 314.204 276.199 314.204C376.27 314.204 457.407 319.754 457.407 326.602Z" fill="#C3C3C3"/>
<path d="M362.206 28.7813V309.279C362.206 313.5 360.529 317.547 357.545 320.532C354.56 323.516 350.512 325.193 346.292 325.193H206.59C204.5 325.195 202.429 324.785 200.498 323.986C198.566 323.187 196.811 322.015 195.333 320.537C193.854 319.059 192.682 317.303 191.883 315.372C191.084 313.44 190.674 311.37 190.677 309.279V28.7813C190.672 26.6886 191.08 24.6157 191.878 22.681C192.676 20.7464 193.847 18.9881 195.326 17.5068C196.804 16.0255 198.559 14.8502 200.492 14.0484C202.425 13.2465 204.497 12.8338 206.59 12.8338H346.275C348.37 12.8282 350.445 13.237 352.382 14.0366C354.318 14.8363 356.077 16.011 357.558 17.4932C359.039 18.9754 360.212 20.7358 361.009 22.6731C361.807 24.6104 362.213 26.6863 362.206 28.7813Z" fill="#403F41"/>
<path d="M362.205 28.7813V309.279C362.205 313.5 360.529 317.547 357.544 320.532C354.56 323.516 350.512 325.193 346.292 325.193H206.59C204.489 325.198 202.408 324.785 200.469 323.978C198.529 323.171 196.769 321.987 195.291 320.493L353.494 14.5897C356.115 15.9199 358.316 17.9501 359.854 20.4551C361.392 22.9601 362.206 25.842 362.205 28.7813Z" fill="#403F41"/>
<path d="M190.706 89.0085H190.828C190.851 89.0085 190.873 89.0214 190.894 89.0465C190.915 89.0716 190.934 89.1084 190.95 89.1548C190.966 89.2012 190.978 89.2562 190.987 89.3168C190.996 89.3775 191 89.4424 191 89.508V125.5C191 125.566 190.996 125.631 190.987 125.692C190.978 125.752 190.966 125.807 190.95 125.854C190.934 125.9 190.915 125.937 190.894 125.962C190.873 125.987 190.851 126 190.828 126H190.706C190.253 126 189.819 125.478 189.5 124.549C189.18 123.62 189 122.361 189 121.047V93.9531C189 92.6395 189.18 91.3796 189.5 90.4507C189.819 89.5218 190.253 89 190.706 89V89.0085Z" fill="#403F41"/>
<path d="M362.294 126H362.172C362.126 126 362.083 125.947 362.05 125.854C362.018 125.76 362 125.633 362 125.5V89.4997C362 89.3671 362.018 89.2401 362.05 89.1463C362.083 89.0526 362.126 89 362.172 89H362.294C362.518 89 362.74 89.1281 362.947 89.3771C363.154 89.6261 363.342 89.991 363.5 90.4511C363.659 90.9111 363.784 91.4572 363.87 92.0583C363.956 92.6594 364 93.3036 364 93.9542V121.054C363.999 122.367 363.819 123.625 363.499 124.552C363.18 125.479 362.746 126 362.294 126Z" fill="#403F41"/>
<path d="M190.706 131H190.828C190.851 131 190.873 131.013 190.894 131.038C190.915 131.063 190.934 131.1 190.95 131.146C190.966 131.193 190.978 131.248 190.987 131.308C190.996 131.369 191 131.434 191 131.5V167.5C191 167.566 190.996 167.631 190.987 167.692C190.978 167.752 190.966 167.807 190.95 167.854C190.934 167.9 190.915 167.937 190.894 167.962C190.873 167.987 190.851 168 190.828 168H190.706C190.253 168 189.819 167.478 189.5 166.549C189.18 165.62 189 164.36 189 163.046V135.946C189.001 134.633 189.181 133.375 189.501 132.448C189.82 131.521 190.254 131 190.706 131Z" fill="#403F41"/>
<path d="M354.565 29.4768V308.558C354.563 310.857 353.649 313.06 352.023 314.686C350.398 316.311 348.194 317.225 345.896 317.227H207.628C206.008 317.226 204.421 316.772 203.047 315.916C201.672 315.06 200.564 313.837 199.849 312.384C199.275 311.2 198.985 309.899 199.001 308.584V29.5023C198.996 27.2125 199.897 25.0137 201.506 23.385C203.116 21.7563 205.304 20.8299 207.594 20.8075H345.862C347.311 20.8053 348.737 21.167 350.01 21.8594C351.384 22.6022 352.532 23.7018 353.334 25.0424C354.135 26.3829 354.561 27.9149 354.565 29.4768Z" fill="white"/>
<path d="M338.445 66.3341H214.606C209.364 66.3341 205.114 70.5839 205.114 75.8263V77.0647C205.114 82.3071 209.364 86.5569 214.606 86.5569H338.445C343.688 86.5569 347.938 82.3071 347.938 77.0647V75.8263C347.938 70.5839 343.688 66.3341 338.445 66.3341Z" fill="#E0E0E0"/>
<path d="M316.993 18.6869H235.864C231.68 18.6869 228.289 22.0784 228.289 26.262V27.2544C228.289 31.438 231.68 34.8295 235.864 34.8295H316.993C321.176 34.8295 324.568 31.438 324.568 27.2544V26.262C324.568 22.0784 321.176 18.6869 316.993 18.6869Z" fill="#403F41"/>
<path d="M299.416 23.7172H245.449C244.419 23.7172 243.583 24.5527 243.583 25.5834V25.8209C243.583 26.8515 244.419 27.6871 245.449 27.6871H299.416C300.447 27.6871 301.283 26.8515 301.283 25.8209V25.5834C301.283 24.5527 300.447 23.7172 299.416 23.7172Z" fill="#000B17"/>
<path d="M315.339 25.5579C315.34 26.0297 315.202 26.4914 314.941 26.8845C314.68 27.2776 314.308 27.5844 313.873 27.7661C313.438 27.9479 312.958 27.9963 312.495 27.9053C312.032 27.8142 311.607 27.5879 311.272 27.2549C310.938 26.9219 310.71 26.4971 310.618 26.0345C310.525 25.5719 310.572 25.0922 310.752 24.6562C310.932 24.2201 311.238 23.8473 311.63 23.5851C312.022 23.3228 312.483 23.1827 312.955 23.1827C313.586 23.1827 314.191 23.4327 314.637 23.8779C315.084 24.3231 315.336 24.9272 315.339 25.5579Z" fill="#335464"/>
<path d="M410.687 330.668H342.596L351.978 254.892H401.305L410.687 330.668Z" fill="#FF6600"/>
<path d="M368.137 258.692C368.139 259.154 368.004 259.606 367.748 259.99C367.493 260.375 367.129 260.675 366.703 260.853C366.277 261.031 365.808 261.078 365.355 260.989C364.902 260.9 364.485 260.679 364.158 260.353C363.831 260.027 363.608 259.611 363.517 259.159C363.427 258.706 363.472 258.236 363.649 257.81C363.825 257.383 364.124 257.018 364.508 256.761C364.891 256.505 365.343 256.368 365.805 256.368C366.422 256.368 367.014 256.612 367.451 257.048C367.888 257.484 368.135 258.075 368.137 258.692Z" fill="#ED3915"/>
<path d="M391.931 258.692C391.933 259.154 391.798 259.606 391.542 259.99C391.287 260.375 390.923 260.675 390.497 260.853C390.071 261.031 389.602 261.078 389.149 260.989C388.696 260.9 388.279 260.679 387.952 260.353C387.625 260.027 387.402 259.611 387.311 259.159C387.221 258.706 387.266 258.236 387.443 257.81C387.619 257.383 387.918 257.018 388.302 256.761C388.685 256.505 389.137 256.368 389.599 256.368C390.216 256.368 390.808 256.612 391.245 257.048C391.682 257.484 391.929 258.075 391.931 258.692Z" fill="#ED3915"/>
<path d="M365.864 258.42C365.735 258.416 365.608 258.386 365.491 258.333C365.374 258.279 365.268 258.203 365.181 258.108C365.093 258.013 365.025 257.902 364.981 257.781C364.936 257.66 364.917 257.531 364.922 257.403C365.171 252.445 365.778 247.512 366.738 242.643C369.002 231.802 372.777 226.296 377.969 226.296C383.16 226.296 386.85 231.802 388.911 242.66C389.783 247.536 390.299 252.469 390.455 257.419C390.459 257.549 390.436 257.678 390.389 257.799C390.342 257.919 390.272 258.03 390.182 258.123C390.092 258.216 389.984 258.29 389.865 258.341C389.746 258.392 389.618 258.419 389.488 258.42C389.234 258.421 388.989 258.321 388.807 258.144C388.625 257.966 388.519 257.725 388.513 257.47C388.292 248.496 386.095 228.247 377.969 228.247C369.842 228.247 367.247 248.513 366.856 257.496C366.852 257.622 366.823 257.746 366.771 257.86C366.718 257.975 366.644 258.078 366.552 258.164C366.46 258.25 366.351 258.317 366.233 258.361C366.115 258.405 365.99 258.425 365.864 258.42Z" fill="#E0E0E0"/>
<path d="M229.018 328.883H125.138L134.698 280.251H219.458L229.018 328.883Z" fill="#439533"/>
<path d="M158.866 284.671C158.864 285.13 158.726 285.579 158.47 285.96C158.213 286.341 157.85 286.637 157.425 286.812C157 286.987 156.533 287.031 156.083 286.941C155.632 286.85 155.219 286.628 154.895 286.303C154.571 285.977 154.35 285.563 154.261 285.113C154.172 284.662 154.219 284.195 154.395 283.771C154.571 283.347 154.869 282.984 155.251 282.729C155.633 282.474 156.082 282.338 156.541 282.338C156.847 282.338 157.15 282.398 157.433 282.516C157.715 282.633 157.972 282.805 158.188 283.022C158.404 283.238 158.575 283.496 158.691 283.779C158.807 284.062 158.867 284.365 158.866 284.671Z" fill="#01590E"/>
<path d="M199.422 284.671C199.422 285.132 199.285 285.583 199.028 285.967C198.772 286.35 198.408 286.649 197.981 286.826C197.555 287.003 197.086 287.049 196.634 286.959C196.181 286.869 195.766 286.647 195.439 286.32C195.113 285.994 194.891 285.578 194.801 285.126C194.711 284.673 194.757 284.204 194.934 283.778C195.11 283.352 195.409 282.987 195.793 282.731C196.176 282.475 196.627 282.338 197.089 282.338C197.707 282.338 198.301 282.584 198.738 283.021C199.176 283.459 199.422 284.052 199.422 284.671Z" fill="#01590E"/>
<path d="M156.524 284.391C156.378 284.387 156.233 284.353 156.1 284.291C155.967 284.229 155.848 284.14 155.75 284.031C155.652 283.921 155.578 283.793 155.532 283.653C155.486 283.514 155.468 283.367 155.481 283.22C155.825 279.386 156.787 275.634 158.331 272.108C162.004 263.939 168.511 259.621 177.129 259.621C185.747 259.621 192.152 263.948 195.604 272.125C197.047 275.67 197.906 279.426 198.149 283.246C198.157 283.393 198.135 283.541 198.084 283.679C198.033 283.818 197.954 283.945 197.853 284.052C197.751 284.159 197.629 284.245 197.493 284.303C197.357 284.361 197.211 284.391 197.063 284.391C196.788 284.391 196.522 284.286 196.322 284.097C196.121 283.907 196.001 283.648 195.986 283.373C195.758 279.78 194.95 276.248 193.594 272.914C190.464 265.534 184.925 261.784 177.137 261.784C169.35 261.784 163.658 265.559 160.316 272.99C158.871 276.306 157.963 279.831 157.627 283.432C157.597 283.701 157.467 283.949 157.263 284.127C157.059 284.305 156.795 284.399 156.524 284.391Z" fill="#E0E0E0"/>
<rect x="244" y="161" width="40" height="35" fill="#C4C4C4"/>
<rect x="290" y="149" width="20" height="47" fill="#C4C4C4"/>
<rect x="290" y="172" width="20" height="3" fill="#A6A6A6"/>
<rect x="244" y="172" width="40" height="2" fill="#A6A6A6"/>
<rect x="262" y="161" width="3" height="35" fill="#A6A6A6"/>
<path d="M337.265 135.021H327.477C327.132 135.019 326.795 135.132 326.521 135.343C326.246 135.553 326.05 135.849 325.962 136.184L324.545 141.416H234.547C234.326 141.417 234.108 141.465 233.907 141.558C233.707 141.651 233.529 141.786 233.386 141.955C233.237 142.12 233.127 142.317 233.063 142.53C232.999 142.744 232.984 142.968 233.017 143.188L234.434 153.539C234.412 153.671 234.412 153.805 234.434 153.936C234.427 154.211 234.501 154.482 234.646 154.716L236.473 167.818L236.898 170.923L238.612 183.259L239.051 186.364L240.567 197.282C240.621 197.654 240.806 197.994 241.09 198.241C241.373 198.489 241.735 198.626 242.111 198.629H308.682L306.514 206.427C306.012 208.208 304.944 209.776 303.472 210.894C302 212.012 300.204 212.619 298.356 212.624H250.935C250.539 212.621 250.156 212.763 249.858 213.025C249.56 213.286 249.369 213.648 249.32 214.042C249.301 214.257 249.326 214.474 249.394 214.679C249.463 214.884 249.573 215.072 249.718 215.232C249.864 215.392 250.04 215.52 250.238 215.608C250.435 215.696 250.648 215.742 250.864 215.743H256.756C255.645 216.456 254.794 217.51 254.332 218.747C253.869 219.984 253.82 221.338 254.191 222.606C254.562 223.874 255.333 224.988 256.389 225.78C257.445 226.572 258.73 227 260.049 227C261.369 227 262.653 226.572 263.71 225.78C264.766 224.988 265.537 223.874 265.908 222.606C266.279 221.338 266.229 219.984 265.767 218.747C265.304 217.51 264.454 216.456 263.343 215.743H290.07C288.959 216.456 288.108 217.51 287.646 218.747C287.183 219.984 287.134 221.338 287.505 222.606C287.875 223.874 288.647 224.988 289.703 225.78C290.759 226.572 292.043 227 293.363 227C294.683 227 295.967 226.572 297.023 225.78C298.08 224.988 298.851 223.874 299.222 222.606C299.593 221.338 299.543 219.984 299.081 218.747C298.618 217.51 297.768 216.456 296.656 215.743H298.313C300.844 215.734 303.302 214.898 305.314 213.362C307.326 211.827 308.782 209.676 309.461 207.236L312.123 197.665C312.155 197.602 312.179 197.535 312.194 197.466L315.282 186.35L316.146 183.244L319.588 170.909L320.438 167.803L323.993 155.042L324.432 153.482L327.265 143.373V143.231L328.681 138.141H337.279C337.497 138.161 337.717 138.136 337.925 138.067C338.132 137.998 338.323 137.886 338.485 137.738C338.648 137.591 338.777 137.411 338.866 137.211C338.954 137.01 339 136.793 339 136.574C339 136.355 338.954 136.138 338.866 135.937C338.777 135.737 338.648 135.557 338.485 135.409C338.323 135.262 338.132 135.15 337.925 135.081C337.717 135.011 337.497 134.986 337.279 135.007L337.265 135.021ZM311.769 187.668C311.769 187.668 311.769 187.81 311.698 187.881L309.574 195.509H243.428L242.153 186.364H312.081L311.769 187.668ZM313.002 183.259H241.728L240 170.923H316.373L313.002 183.259ZM317.251 167.818H239.575L237.861 155.482H320.664L317.251 167.818ZM321.5 152.377H237.422L236.332 144.521H323.724L321.5 152.377Z" fill="#E0E0E0"/>
<path d="M486.391 198.509H477.978" stroke="#207A00" stroke-width="3" stroke-miterlimit="10"/>
<path d="M472.495 198.509H464.083" stroke="#207A00" stroke-width="3" stroke-miterlimit="10"/>
<path d="M475.246 187.361V195.776" stroke="#207A00" stroke-width="3" stroke-miterlimit="10"/>
<path d="M475.246 201.261V209.676" stroke="#207A00" stroke-width="3" stroke-miterlimit="10"/>
<path d="M430.329 13.1178H421.479" stroke="#FF6600" stroke-width="3" stroke-miterlimit="10"/>
<path d="M415.711 13.1178H406.861" stroke="#FF6600" stroke-width="3" stroke-miterlimit="10"/>
<path d="M418.604 1.38928V10.2422" stroke="#FF6600" stroke-width="3" stroke-miterlimit="10"/>
<path d="M418.604 16.0126V24.8655" stroke="#FF6600" stroke-width="3" stroke-miterlimit="10"/>
<path d="M128.5 41C123.253 41 119 36.5228 119 31C119 25.4772 123.253 21 128.5 21C133.747 21 138 25.4772 138 31C138 36.5228 133.747 41 128.5 41Z" stroke="#207A00" stroke-width="3" stroke-miterlimit="10"/>
<circle cx="216.5" cy="76.5" r="7.5" fill="white"/>
</svg>
