<svg width="543" height="333" viewBox="0 0 543 333" fill="none" xmlns="http://www.w3.org/2000/svg">
<path d="M51.6273 300.422C51.6273 300.422 -12.1396 113.146 102.893 106.171C217.925 99.1972 507.82 307.208 496.688 318.351C494.157 320.885 67.5847 319.744 67.5847 319.744L51.6273 300.422Z" fill="#EFEEEE"/>
<g clip-path="url(#clip0)">
<path d="M501.636 319.814C501.594 327.763 399.332 333.639 273.237 332.947C147.141 332.256 44.9634 325.244 45.0159 317.295C45.0684 309.346 147.309 303.471 273.405 304.156C399.5 304.842 501.694 311.865 501.636 319.814Z" fill="#C3C3C3"/>
<path d="M144.664 168.261L137.18 164.962C134.262 163.511 131.055 163.391 129.443 163.113C126.672 162.658 122.857 162.113 117.409 161.343C102.597 159.249 99.1963 160.872 99.1963 154.237C99.1963 145.241 109.216 118.303 104.707 115.486C103.658 114.837 101.752 113.245 99.1963 115.868C90.468 124.813 82.8892 157.589 89.6283 168.381C93.9793 175.341 112.9 170.785 125.812 169.282C129.045 168.905 136.235 169.429 138.471 172.707C140.707 175.985 140.686 178.237 141.394 178.011C142.103 177.786 141.442 174.288 140.345 172.592C139.7 171.588 139.131 170.538 138.644 169.45C138.644 169.45 141.541 172.801 141.982 174.608C142.423 176.414 143.352 178.273 143.798 178.121C144.244 177.97 143.273 174.78 142.89 172.853C142.668 171.672 142.279 170.528 141.735 169.455L143.908 170.502C143.908 170.502 147.026 175.252 147.32 174.105C147.614 172.958 144.664 168.261 144.664 168.261Z" fill="#F49E87"/>
<path d="M124.725 163.014L133.322 166.313C133.322 166.313 136.749 171.026 136.408 172.152C136.067 173.277 132.498 168.544 132.498 168.544L127.297 166.37L124.725 163.014Z" fill="#E4876D"/>
<path d="M120.017 164.595C120.017 164.595 124.074 168.889 124.074 169.806C124.074 170.722 124.436 172.895 125.239 172.895C126.042 172.895 126.058 169.109 126.058 167.941C126.058 166.774 124.032 163.506 123.691 163.506C123.35 163.506 120.017 164.595 120.017 164.595Z" fill="#F49E87"/>
<path d="M156.751 302.455L112.365 301.041L138.749 223.02L95.1864 219.695L95.4436 216.27L143.426 219.931L117.109 297.752L156.862 299.025L156.751 302.455Z" fill="#212121"/>
<path d="M134.907 283.985C134.136 284.723 130.603 283.137 130.603 286.205C130.603 287.253 132.729 287.378 133.196 290.918C133.511 293.317 131.947 298.946 132.698 301.077C133.571 303.539 135.191 305.667 137.332 307.168C137.332 304.659 136.12 303.324 136.12 300.679C136.12 298.035 144.454 289.253 145.179 280.571C145.264 279.858 145.424 279.156 145.656 278.476C143.208 277.067 140.868 275.48 138.655 273.727C136.571 279.723 135.101 283.797 134.907 283.985Z" fill="#F49E87"/>
<path d="M136.34 287.048C136.34 286.043 135.511 285.038 134.834 284.027C133.952 284.64 130.603 283.215 130.603 286.205C130.603 289.195 123.98 297.872 123.98 297.872L125.308 299.035C125.308 299.035 131.816 288.242 132.367 290.887C132.918 293.531 128.619 301.538 128.619 301.538L136.865 308.529L137.321 307.188C137.321 304.722 136.151 303.381 136.114 300.815C132.099 297.721 136.944 291.065 136.34 287.048Z" fill="#111111"/>
<path d="M98.7554 74.4937L98.8138 74.5573L98.7554 74.4937Z" fill="#32033D"/>
<path d="M123.649 72.1738C121.723 70.3512 119.205 69.2806 116.553 69.1575C116.27 69.2007 116.013 69.3483 115.834 69.5712C115.199 70.2676 114.737 71.8072 114.438 73.8181L107.132 96.0476C107.132 96.0476 110.05 98.3674 115.64 99.31C121.23 100.253 124.038 97.4196 124.038 97.4196C122.946 97.2729 122.379 89.8212 123.628 88.7844C125.754 87.0039 126.657 75.1586 123.649 72.1738Z" fill="#161616"/>
<path d="M59.1397 182.033L63.7111 219.795L65.4274 219.957L63.7111 182.033H59.1397Z" fill="#212121"/>
<path d="M95.5486 144.963C93.6854 142.805 58.0847 141.423 55.1351 142.292C51.902 143.24 49.4719 145.984 49.6241 149.294C49.6976 151.017 50.9205 155.41 51.4926 157.29C55.7281 171.198 55.9013 167.727 51.4926 176.309C50.3589 178.477 48.4065 182.368 48.7214 184.761C48.9261 186.28 49.7343 186.631 51.2931 186.987C59.7695 188.93 90.8354 187.552 94.882 179.698C99.4168 170.89 97.9209 147.723 95.5486 144.963Z" fill="#667176"/>
<path d="M55.1193 142.303C52.2956 143.601 50.1857 146.152 50.5059 149.194C50.8838 152.032 53.466 159.013 55.0616 164.098C56.8566 170.01 56.3422 170.198 52.4373 176.812C51.1829 179.022 48.8788 182.876 49.2147 185.191C49.3722 186.275 50.2644 186.584 51.3141 186.992C50.7665 186.968 50.2254 186.864 49.7081 186.683C45.8977 185.306 50.0702 176.582 51.9072 172.958C54.3215 167.994 53.6707 169.785 50.6056 158.85C49.8323 156.278 49.2465 153.653 48.8526 150.996C48.6426 149.398 48.6111 147.66 49.7081 145.879C50.2936 144.925 51.0814 144.11 52.0163 143.493C52.9511 142.875 54.0103 142.469 55.1193 142.303Z" fill="#95BBCC"/>
<path d="M122.08 310.247H77.2156L104.083 230.812L60.5148 227.487L58.4101 219.307L109.998 224.062L82.4378 305.544L122.19 306.811L122.08 310.247Z" fill="#212121"/>
<path d="M101.086 206.085C101.086 206.085 59.4441 208.85 57.7226 210.552C56.0011 212.254 59.0977 221.549 60.9924 221.549C62.8871 221.549 103.148 229.273 106.424 229.273C109.699 229.273 146.69 225.665 153.057 223.261C159.423 220.858 108.313 203.493 101.086 206.085Z" fill="#667176"/>
<path d="M57.7226 210.552C57.7226 210.552 102.461 217.998 105.043 219.753C107.625 221.507 108.14 229.273 106.424 229.273C104.707 229.273 60.8087 224.895 59.1449 222.638C57.4811 220.381 53.9384 211.269 57.7226 210.552Z" fill="#95BBCC"/>
<path d="M441.877 186.06L437.305 223.821L435.594 223.979L437.305 186.06H441.877Z" fill="#4D4D4D"/>
<path d="M446.485 174.246C445.068 170.507 452.967 156.206 451.041 150.896C449.991 148.063 446.937 145.874 443.084 145.958C430.231 146.241 407.169 147.005 405.468 148.995C403.096 151.771 401.6 174.911 406.114 183.714C410.575 192.381 448.994 193.297 451.697 190.171C454.316 187.154 447.96 178.127 446.485 174.246Z" fill="#8A8A8A"/>
<path d="M378.937 314.268L423.323 312.855L396.934 234.834L439.032 231.624L441.877 223.397L391.024 228.084L418.579 309.571L378.827 310.838L378.937 314.268Z" fill="#4D4D4D"/>
<path d="M344.265 306.476L388.652 307.011L362.268 228.99L405.835 223.717L405.573 220.292L357.591 223.952L383.912 301.779L344.155 303.046L344.265 306.476Z" fill="#4D4D4D"/>
<path d="M399.931 210.112C399.931 210.112 441.578 212.856 443.299 214.574C445.021 216.291 441.919 225.57 440.029 225.57C438.14 225.57 397.868 233.295 394.598 233.295C391.328 233.295 354.332 229.686 347.965 227.283C341.599 224.879 392.704 207.52 399.931 210.112Z" fill="#8A8A8A"/>
<path d="M166.089 211.217C161.633 199.141 102.582 186.406 102.582 186.406L95.5066 188.898L89.2084 197.314L151.309 217.318C151.309 217.318 142.082 256.639 135.133 277.115C137.453 279.131 141.431 278.434 144.187 280.194C148.79 265.159 168.571 217.941 166.089 211.217Z" fill="#0F1F42"/>
<path d="M150.936 274.067C148.002 274.245 145.058 274.496 142.098 274.847C142.937 280.676 143.331 285.347 142.623 286.609C142.061 287.593 141.442 288.567 140.838 289.504C139.148 292.123 137.621 294.443 138.214 295.568C138.56 296.254 142.297 295.521 143.667 298.857C145.352 302.952 144.717 311.179 144.717 311.179L157.339 313.237C157.339 313.237 159.087 312.451 156.505 309.901C153.923 307.351 151.781 306.534 150.952 303.764C150.123 300.994 150.873 286.834 150.873 277.774C150.821 276.842 150.868 275.58 150.936 274.067Z" fill="#F9C6B9"/>
<path d="M158.006 312.179C157.896 311.703 156.263 307.99 152.306 305.67L149.556 307.534C146.407 303.664 146.438 297.443 144.433 293.5C143.987 292.17 142.539 290.515 140.828 289.499C139.137 292.118 137.61 294.443 138.203 295.569C138.98 297.098 138.901 310.818 138.901 310.818H140.807C140.807 310.818 139.662 299.491 141.568 298.82C143.473 298.15 143.924 311.912 143.924 311.912L157.953 313.897C157.953 313.897 158.536 313.583 158.006 312.179Z" fill="#4E4E4E"/>
<path d="M140.639 202.168L95.3229 192.009L64.8815 196.764C64.8815 196.764 60.9189 209.572 67.7105 214.704C70.3872 216.731 127.769 219.91 127.769 219.91C127.769 219.91 136.529 262.08 138.529 276.031C142.145 275.601 147.976 274.59 151.576 274.371C152.217 260.216 144.118 203.163 140.639 202.168Z" fill="#2A417F"/>
<path d="M100.215 112.098C100.215 112.098 104.555 113.239 107.421 115.832C110.286 118.424 112.989 139.967 109.315 144.324C105.641 148.681 104.865 153.425 102.01 159.4C100.655 162.223 92.3103 173.979 102.865 180.347C105.516 181.918 109.977 181.394 108.602 183.662C107.227 185.929 77.5095 203.037 65.2332 199.633C52.9569 196.23 62.8241 192.061 63.9735 188.951C65.123 185.84 58.809 185.112 61.449 181.588C64.089 178.064 73.8985 169.46 79.4619 150.503C79.9867 148.634 78.5959 121.121 80.6848 115.528C82.7737 109.935 100.215 112.098 100.215 112.098Z" fill="#207A00"/>
<path d="M109.315 100.41C109.315 100.41 107.137 105.516 105.411 110.213C103.684 114.91 104.156 120.875 104.156 120.875C104.156 120.875 99.0546 123.221 95.8373 120.011C93.9111 118.089 91.1136 114.873 91.2081 111.831C91.2658 109.794 105.143 88.8264 105.143 88.8264L109.315 100.41Z" fill="#F9C6B9"/>
<path d="M105.783 109.207C107.436 104.814 109.315 100.41 109.315 100.41L105.143 88.8159C105.143 88.8159 102.261 93.1728 99.1176 98.1057C101.206 102.326 104.046 107.149 105.783 109.207Z" fill="#F49E87"/>
<path d="M120.831 74.677C120.831 74.677 122.967 74.7818 123.555 78.4998C124.142 82.2178 121.34 86.4071 121.66 89.4967C121.933 92.1988 119.487 96.0844 116.359 99.4463C115.687 100.169 114.023 102.772 113.289 103.29C111.651 104.437 111.068 104.28 109.347 103.782C101.59 101.536 101.894 89.1196 101.894 86.5904C101.894 84.0611 105.426 75.2373 109.741 73.1793C114.055 71.1214 120.831 74.677 120.831 74.677Z" fill="#F9C6B9"/>
<path d="M116.852 83.9928C116.994 83.9038 115.881 82.7884 114.548 82.6627C113.215 82.537 111.777 83.9928 111.777 83.9928C111.777 83.9928 113.74 82.8251 114.564 83.2021C115.388 83.5791 116.086 84.4903 116.852 83.9928Z" fill="#2F2F2F"/>
<path d="M120.432 85.1344C121.051 85.6581 121.77 85.082 122.531 84.7678L122.725 84.1499C121.466 84.1656 120.311 85.0297 120.432 85.1344Z" fill="#2F2F2F"/>
<path d="M122.127 75.3159C127.942 76.7769 128.52 81.6784 125.617 86.0458C125.119 86.7841 124.452 87.4806 123.57 87.5487L123.996 85.5273C127.113 80.4112 127.601 76.7193 122.127 75.3159Z" fill="#161616"/>
<path d="M102.98 89.6119C102.98 89.6119 103.222 95.9796 105.117 96.8908C106.056 97.4056 107.089 97.7262 108.156 97.8334C108.156 97.8334 106.948 101.892 105.489 101.892C103.875 101.986 102.267 102.161 100.671 102.415V97.7496L98.7869 101.782C98.7869 101.782 93.402 101.352 91.8956 99.5772C90.3893 97.802 87.4186 97.0374 87.4186 97.0374C87.6181 97.0898 88.8305 93.3718 88.9617 92.9529C89.5089 91.3031 89.9008 89.6061 90.1321 87.8838C90.489 84.9565 98.0889 54.427 118.007 67.8223C121.156 69.9169 122.127 75.3578 122.127 75.3578C122.127 75.3578 109.788 77.7876 108.67 82.3906C107.552 86.9936 103.511 89.6119 102.98 89.6119Z" fill="#161616"/>
<path d="M107.867 85.4121C107.867 85.4121 108.392 82.9142 106.691 81.9664C104.991 81.0185 101.658 86.0143 103.017 89.46C104.377 92.9057 107.368 89.5123 107.867 85.4121Z" fill="#F9C6B9"/>
<path d="M106.691 85.7261C106.717 85.5114 107.615 83.3225 106.088 83.3225C104.56 83.3225 102.603 86.5849 103.463 87.4437C104.324 88.3026 106.46 87.538 106.691 85.7261Z" fill="#F49E87"/>
<path d="M98.8184 186.406H92.9978V318.552H98.8184V186.406Z" fill="#3A3A3A"/>
<path d="M131.328 170.9C129.228 161.678 119.309 161.668 115.834 161.17C112.653 160.715 108.266 160.17 102.01 159.4C84.9991 157.306 81.0889 158.924 81.0889 152.289C81.0889 143.292 92.5989 116.355 87.4186 113.538C86.222 112.894 84.0281 111.302 81.0889 113.92C71.0748 122.864 62.3727 155.646 70.13 166.433C75.1319 173.393 96.8607 168.842 111.688 167.334C115.404 166.957 123.665 167.48 126.231 170.759C128.798 174.037 128.772 176.294 129.59 176.063C130.409 175.833 129.643 172.345 128.399 170.643C127.666 169.649 127.013 168.599 126.447 167.501C126.447 167.501 129.774 170.853 130.283 172.665C130.792 174.477 131.858 176.33 132.383 176.178C132.908 176.027 131.763 172.822 131.328 170.9Z" fill="#F9C6B9"/>
<path d="M336.702 174.618C336.702 174.618 335.721 174.843 334.891 176.865C334.062 178.886 333.201 182.065 334.025 182.347C334.849 182.63 335.343 180.2 336.476 179.074C337.61 177.949 340.875 178.326 340.502 176.341C340.129 174.356 336.702 174.618 336.702 174.618Z" fill="#F49E87"/>
<path d="M332.141 170.544C332.141 170.544 326.662 170.507 324.294 172.791C322.583 174.445 319.014 177.048 319.629 177.535C320.243 178.022 326.861 173.445 326.861 173.445C326.861 173.445 330.824 172.738 327.228 174.445C325.166 175.43 318.831 180.567 321.544 180.059C324.258 179.551 326.719 177.268 326.719 177.268C326.719 177.268 331.007 174.393 330.393 175.414C329.113 177.509 324.751 181.007 324.751 181.007C324.751 181.007 324.431 181.96 325.638 182.054C327.863 182.185 331.464 175.697 340.455 176.367C346.417 176.818 351.477 175.739 357.707 173.985C356.715 170.261 355.555 166.795 352.668 164.559C337.883 172.335 339.72 170.162 332.141 170.544Z" fill="#F49E87"/>
<path d="M393.717 109.616C393.717 109.616 385.12 144.12 378.68 149.341C371.033 155.53 349.813 163.522 349.813 163.522L356.111 175.665C356.111 175.665 392.52 162.15 396.241 160.652C399.962 159.154 393.717 109.616 393.717 109.616Z" fill="#E25100"/>
<path d="M421.759 104.117C413.556 102.122 402.44 105.165 393.717 109.616L397.254 193.219C409.326 194.224 425.323 197.848 437.384 201.974C437.605 192.213 425.68 105.102 421.759 104.117Z" fill="#FF6600"/>
<path d="M321.56 295.134C321.382 295.584 316.228 307.178 316.228 307.178L290.877 298.323C290.877 298.323 311.997 298.731 313.614 297.276C315.23 295.82 315.152 290.468 315.152 290.468L322.73 292.191L321.56 295.134Z" fill="#020202"/>
<path d="M426.803 207.164L397.254 193.219L341.893 213.442C337.589 214.804 312.233 293.526 312.233 293.526L321.382 296.144L351.156 226.241L426.803 207.164Z" fill="#1D1D1D"/>
<path d="M397.254 193.219C397.254 193.48 400.172 198.565 400.172 198.565L343.53 222.853C343.53 222.853 379.519 304.722 375.604 308.346C371.689 311.97 355.66 318.536 355.66 318.536H382.637L383.025 306.89H384.983L367.778 229.021L430.068 215.93L437.368 202.466C437.368 202.466 437.368 202.074 437.395 201.393C424.006 197.125 410.627 193.706 397.254 193.219Z" fill="#303030"/>
<path d="M410.465 80.4844C410.465 80.4844 415.493 97.1997 414.831 105.421C412.389 107.749 409.712 109.818 406.843 111.595C403.883 113.313 400.22 111.286 399.758 107.93C399.747 107.736 399.747 107.542 399.758 107.348L399.359 91.9997L410.465 80.4844Z" fill="#F9C6B9"/>
<path d="M410.465 80.4844L399.348 92.005L399.626 102.599C404.775 102.368 409.599 94.8537 410.123 85.92C410.213 84.4872 410.435 83.0656 410.785 81.6731C410.591 80.9085 410.465 80.4844 410.465 80.4844Z" fill="#F49E87"/>
<path d="M390.1 64.8427C389.873 65.1113 389.695 65.418 389.576 65.7486C388.778 67.7019 388.111 72.1111 389.418 77.1749C390.993 83.3384 393.785 96.3567 398.682 96.3567C403.579 96.3567 410.129 89.9157 410.659 82.244C411.189 74.5723 414.564 70.7234 411.651 64.8427C408.738 58.9619 390.1 64.8427 390.1 64.8427Z" fill="#F9C6B9"/>
<path d="M411.656 64.8427C408.743 58.9515 390.1 64.8427 390.1 64.8427C389.873 65.1113 389.695 65.418 389.576 65.7486C388.778 67.7019 388.111 72.1111 389.418 77.1749C389.628 77.9971 389.859 78.9397 390.116 79.9556C392.336 78.3846 393.953 75.4416 395.365 71.9278C395.606 71.6294 395.722 69.3095 399.989 67.6233C400.87 69.6342 403.185 67.0997 405.51 71.6032C405.667 80.7568 411.026 78.4108 411.079 77.5834C411.63 69.9327 414.569 70.7548 411.656 64.8427Z" fill="#F49E87"/>
<path d="M406.36 73.4935C406.36 73.4935 404.644 69.9326 402.922 68.1522C401.201 66.3717 401.731 64.8426 401.731 64.8426C401.731 64.8426 395.548 65.9371 393.743 70.3201C391.937 74.7032 389.796 81.1443 382.994 78.2693C376.192 75.3944 377.378 66.2251 378.963 66.2251C380.548 66.2251 382.007 64.8583 382.007 64.8583C382.007 64.8583 387.702 56.4797 390.746 56.4797C393.79 56.4797 391.14 53.5996 396.304 52.7774C401.469 51.9553 405.589 56.7782 405.589 56.7782C405.589 56.7782 407.84 54.1599 411.808 56.7782C415.776 59.3965 413.944 69.5189 412.543 73.0851C411.142 76.6512 411.052 82.4691 411.052 82.4691C411.052 82.4691 406.36 83.4955 406.36 73.4935Z" fill="#5B2F0F"/>
<path d="M409.105 71.802C408.996 71.3992 408.767 71.039 408.448 70.7692C408.129 70.4994 407.735 70.3327 407.319 70.2912C406.903 70.2497 406.484 70.3355 406.118 70.537C405.751 70.7386 405.455 71.0464 405.269 71.4197C404.502 72.8074 404.046 74.5198 405.305 75.8237C407.819 78.4421 410.066 75.5514 409.273 72.399C409.221 72.1738 409.163 71.9853 409.105 71.802Z" fill="#F9C6B9"/>
<path d="M404.775 73.9753C404.833 73.2213 405.636 71.0271 406.791 71.7812C407.945 72.5353 408.89 75.2426 406.974 75.7872C405.059 76.3318 404.717 74.698 404.775 73.9753Z" fill="#F49E87"/>
<path d="M396.304 86.9672H393.517V79.9344C393.509 79.8957 393.51 79.8557 393.52 79.8173C393.529 79.7789 393.547 79.7432 393.572 79.7126C393.598 79.682 393.629 79.6574 393.665 79.6404C393.701 79.6235 393.74 79.6147 393.78 79.6147C393.819 79.6147 393.858 79.6235 393.894 79.6404C393.93 79.6574 393.962 79.682 393.987 79.7126C394.012 79.7432 394.03 79.7789 394.039 79.8173C394.049 79.8557 394.05 79.8957 394.042 79.9344V86.4174H396.294C396.329 86.4181 396.364 86.4258 396.397 86.4402C396.429 86.4546 396.459 86.4753 396.483 86.5011C396.508 86.527 396.527 86.5574 396.539 86.5907C396.552 86.624 396.557 86.6594 396.556 86.6949C396.557 86.764 396.532 86.831 396.485 86.8818C396.438 86.9325 396.373 86.9632 396.304 86.9672Z" fill="#212121"/>
<path d="M398.241 79.0443C398.19 79.2591 398.08 79.4553 397.923 79.6106C397.766 79.7658 397.569 79.8737 397.353 79.9219C397.137 79.9701 396.912 79.9566 396.704 79.8831C396.495 79.8095 396.312 79.6788 396.175 79.5059C396.037 79.3331 395.952 79.1251 395.927 78.9059C395.903 78.6867 395.941 78.465 396.038 78.2665C396.134 78.0679 396.284 77.9005 396.472 77.7833C396.659 77.6662 396.876 77.6041 397.097 77.6042C397.438 77.6488 397.748 77.8241 397.961 78.0929C398.175 78.3617 398.275 78.703 398.241 79.0443Z" fill="#212121"/>
<path d="M392.42 79.8874C392.42 80.6205 391.985 81.2122 391.449 81.2122C390.914 81.2122 390.478 80.6205 390.478 79.8874C390.478 79.1542 390.914 78.5625 391.449 78.5625C391.985 78.5625 392.42 79.1542 392.42 79.8874Z" fill="#212121"/>
<path d="M396.556 90.2245C396.222 90.228 395.889 90.1893 395.564 90.1093C395.498 90.0844 395.443 90.036 395.41 89.9732C395.377 89.9104 395.368 89.8377 395.386 89.769C395.406 89.7015 395.452 89.6444 395.514 89.6094C395.575 89.5744 395.647 89.564 395.716 89.5804C395.826 89.6223 398.393 90.3502 400.545 87.4386C400.588 87.3828 400.651 87.3459 400.72 87.3361C400.79 87.3263 400.861 87.3443 400.918 87.3863C400.974 87.4324 401.01 87.4984 401.019 87.5706C401.028 87.6428 401.008 87.7155 400.965 87.7738C399.427 89.8527 397.637 90.2245 396.556 90.2245Z" fill="#212121"/>
<path d="M395.044 75.5043C395.044 75.5043 396.346 74.1323 397.936 74.1323C399.527 74.1323 400.755 76.0542 400.755 76.0542C400.755 76.0542 399.563 74.4832 398.199 74.7712C396.834 75.0592 395.05 76.4155 395.05 76.4155L395.044 75.5043Z" fill="#212121"/>
<path d="M363.895 169.528C363.895 169.528 358.415 169.486 356.048 171.774C354.337 173.429 350.768 176.027 351.387 176.514C352.007 177.001 358.609 172.429 358.609 172.429C358.609 172.429 362.567 171.717 358.971 173.429C356.909 174.414 350.574 179.546 353.287 179.038C356.001 178.53 358.462 176.247 358.462 176.247C358.462 176.247 362.75 173.377 362.136 174.398C360.856 176.493 356.494 179.991 356.494 179.991C356.494 179.991 356.174 180.944 357.386 181.038C359.606 181.164 363.207 174.681 372.198 175.351C378.16 175.796 383.22 174.717 389.45 172.968C388.458 169.24 387.303 165.779 384.411 163.542C369.636 171.319 371.473 169.146 363.895 169.528Z" fill="#F9C6B9"/>
<path d="M421.759 104.117C421.759 104.117 419.287 111.647 420.064 121.88C420.841 132.112 418.379 151.383 416.191 156.499C414.002 161.615 376.003 164.522 376.003 164.522L381.97 178.477C381.97 178.477 425.885 175.278 432.603 172.193C439.321 169.109 437.358 144.732 435.936 131.845C433.059 105.95 421.759 104.117 421.759 104.117Z" fill="#FF751B"/>
<path d="M334.702 109.05H336.198L357.953 168.79L292.588 167.894L334.702 109.05Z" fill="#A0A0A0"/>
<path d="M334.702 109.05L355.36 167.894H291.89L273.326 117.413L334.702 109.05Z" fill="#403F41"/>
<path d="M314.942 149.074L314.343 145.79L307.856 154.551L302.083 176.854V181.934L303.883 182.53C303.883 182.53 304.681 176.158 306.177 172.581C307.672 169.004 314.942 149.074 314.942 149.074Z" fill="#A0A0A0"/>
<path d="M314.343 145.79C314.343 145.79 300.419 179.095 303.846 182.53H294.714L307.137 145.79H314.343Z" fill="#232323"/>
<path d="M305.594 318.557H311.415V186.411H305.594V318.557Z" fill="#3A3A3A"/>
<path d="M405.158 318.557H410.979V186.411H405.158V318.557Z" fill="#3A3A3A"/>
<path d="M267.506 318.557H273.326V186.411H267.506V318.557Z" fill="#3A3A3A"/>
<path d="M317.734 182.824H376.244V180.059H317.734V182.824Z" fill="#403F41"/>
<path d="M315.902 184.568H289.287V181.017H312.338C313.283 181.017 314.188 181.391 314.856 182.057C315.525 182.722 315.901 183.625 315.902 184.568Z" fill="#403F41"/>
<path d="M259.475 189.993L417.219 189.993V182.824L259.475 182.824V189.993Z" fill="#171717"/>
<path d="M299.495 189.993L417.219 189.993V182.824H299.495V189.993Z" fill="#515151"/>
<path d="M201.065 184.238H178.953C178.953 183.781 179.043 183.33 179.218 182.908C179.393 182.486 179.65 182.103 179.974 181.781C180.297 181.458 180.682 181.203 181.104 181.029C181.527 180.854 181.98 180.765 182.438 180.766H201.065V184.238Z" fill="#403F41"/>
<path d="M159.664 109.05H158.169L136.408 168.79L201.778 167.894L159.664 109.05Z" fill="#A0A0A0"/>
<path d="M159.664 109.05L139.006 167.894H202.477L221.041 117.413L159.664 109.05Z" fill="#403F41"/>
<path d="M179.425 149.074L180.023 145.79L186.511 154.551L192.284 176.854V181.934L190.484 182.53C190.484 182.53 189.686 176.158 188.19 172.581C186.694 169.004 179.425 149.074 179.425 149.074Z" fill="#A0A0A0"/>
<path d="M180.023 145.79C180.023 145.79 193.942 179.095 190.52 182.53H199.653L187.23 145.79H180.023Z" fill="#232323"/>
<path d="M188.773 186.406H182.952V318.552H188.773V186.406Z" fill="#3A3A3A"/>
<path d="M226.861 186.406H221.04V318.552H226.861V186.406Z" fill="#3A3A3A"/>
<path d="M98.8184 186.406H92.9978V193.219H98.8184V186.406Z" fill="#525252"/>
<path d="M188.773 186.406H182.952V193.219H188.773V186.406Z" fill="#525252"/>
<path d="M226.861 186.406H221.04V193.219H226.861V186.406Z" fill="#525252"/>
<path d="M234.891 182.824H77.1473V189.993H234.891V182.824Z" fill="#171717"/>
<path d="M234.891 182.824H77.1473V184.573H234.891V182.824Z" fill="#2F2F2F"/>
<path d="M176.628 180.059H118.122V182.824H176.628V180.059Z" fill="#403F41"/>
<path d="M111.068 87.5591C111.89 86.8881 112.901 86.4891 113.96 86.4175C114.829 86.4113 115.697 86.4638 116.558 86.5746C116.558 86.5746 115.194 86.8155 113.603 86.9883C112.737 87.0662 111.885 87.2581 111.068 87.5591Z" fill="#2F2F2F"/>
<path d="M118.679 88.2399C118.679 88.2399 119.728 87.0983 120.925 87.0983C121.6 87.0926 122.275 87.1452 122.941 87.2554C122.941 87.2554 121.891 87.4963 120.647 87.6691C119.964 87.7509 119.299 87.9437 118.679 88.2399Z" fill="#2F2F2F"/>
<path d="M113.992 86.7632C113.992 86.7632 114.937 87.622 113.619 88.5803L113.813 86.7632H113.992Z" fill="#2F2F2F"/>
<path d="M120.594 87.3601C120.594 87.3601 121.539 88.2189 120.222 89.1772L120.411 87.3601H120.594Z" fill="#2F2F2F"/>
<path d="M117.214 89.7375C117.064 91.0883 117.01 92.448 117.052 93.8064C116.366 93.9783 115.653 94.0157 114.952 93.9164C116.627 94.4767 117.288 94.0211 117.356 94.0211C117.404 92.5917 117.357 91.1607 117.214 89.7375Z" fill="#2F2F2F"/>
<path d="M111.777 96.3777L116.17 97.9225C116.17 97.9225 114.679 99.4935 113.971 99.4935C113.262 99.4935 111.777 96.3777 111.777 96.3777Z" fill="#282828"/>
</g>
<path d="M15 221.496H9.34353" stroke="#207A00" stroke-width="2" stroke-miterlimit="10"/>
<path d="M5.65647 221.496H-1.89035e-06" stroke="#207A00" stroke-width="2" stroke-miterlimit="10"/>
<path d="M7.50603 214V219.658" stroke="#207A00" stroke-width="2" stroke-miterlimit="10"/>
<path d="M7.50603 223.346V229.005" stroke="#207A00" stroke-width="2" stroke-miterlimit="10"/>
<path d="M205 54.4382H199.344" stroke="#FF6600" stroke-width="2" stroke-miterlimit="10"/>
<path d="M195.656 54.4382H190" stroke="#FF6600" stroke-width="2" stroke-miterlimit="10"/>
<path d="M197.506 47V52.6145" stroke="#FF6600" stroke-width="2" stroke-miterlimit="10"/>
<path d="M197.506 56.2739V61.8884" stroke="#FF6600" stroke-width="2" stroke-miterlimit="10"/>
<path d="M524 164C520.134 164 517 160.866 517 157C517 153.134 520.134 150 524 150C527.866 150 531 153.134 531 157C531 160.866 527.866 164 524 164Z" stroke="#207A00" stroke-width="2" stroke-miterlimit="10"/>
<path d="M362.265 23.7879C358.168 23.7879 354.526 25.7374 352.205 28.7475C352.427 27.4141 352.558 26.0404 352.558 24.6465C352.558 11.0303 341.539 0 327.936 0C315.615 0 305.413 9.0606 303.597 20.8788C300.489 17.4343 296.008 15.2626 291.003 15.2626C281.619 15.2626 274 22.8788 274 32.2828C274 33.9192 274.242 35.4949 274.676 37H306.624H307.32H349.238C349.339 36.8182 349.43 36.6364 349.531 36.4545C349.531 36.4848 349.531 36.5151 349.531 36.5454C349.531 36.697 349.551 36.8485 349.551 36.9899H374.98C374.99 36.8384 375 36.697 375 36.5454C375 29.4949 369.299 23.7879 362.265 23.7879Z" fill="#EEEFF2"/>
<defs>
<clipPath id="clip0">
<rect x="13" y="13" width="530" height="320" fill="white"/>
</clipPath>
</defs>
</svg>
