<svg width="461" height="349" viewBox="0 0 461 349" fill="none" xmlns="http://www.w3.org/2000/svg">
<path d="M442.364 319.782C442.364 319.782 505.7 134.086 391.445 127.17C277.19 120.255 -10.747 326.512 0.309711 337.561C2.82354 340.073 426.514 338.942 426.514 338.942L442.364 319.782Z" fill="#EFEEEE"/>
<path d="M460 339.107C460 344.573 357.021 349 229.996 349C102.97 349 0 344.573 0 339.107C0 333.641 103.04 333 230.11 333C357.18 333 460 333.641 460 339.107Z" fill="#C3C3C3"/>
<path d="M311.299 44H131.077C126.064 44 122 48.0673 122 53.0846V199.281C122 204.298 126.064 208.365 131.077 208.365H311.299C316.312 208.365 320.376 204.298 320.376 199.281V53.0846C320.376 48.0673 316.312 44 311.299 44Z" fill="#ADADAD"/>
<path style="mix-blend-mode:multiply" d="M306.387 48.4775H135.985C131.247 48.4775 127.406 52.3216 127.406 57.0635V195.297C127.406 200.039 131.247 203.883 135.985 203.883H306.387C311.125 203.883 314.966 200.039 314.966 195.297V57.0635C314.966 52.3216 311.125 48.4775 306.387 48.4775Z" fill="#707070"/>
<path d="M297.907 56.2158H144.469C140.202 56.2158 136.742 59.6782 136.742 63.9492V188.421C136.742 192.692 140.202 196.155 144.469 196.155H297.907C302.175 196.155 305.634 192.692 305.634 188.421V63.9492C305.634 59.6782 302.175 56.2158 297.907 56.2158Z" fill="white"/>
<path d="M158.798 80.1639H155.096V180.817H158.798V80.1639Z" fill="#B9B9B9"/>
<path d="M298.794 177.98H156.944V180.817H298.794V177.98Z" fill="#B9B9B9"/>
<path d="M283.285 180.523H291.57V102.177H283.285V180.523Z" fill="#B9B9B9"/>
<path d="M269.4 180.523H277.685V114.817H269.4V180.523Z" fill="#B9B9B9"/>
<path d="M256.362 180.523H264.647V128.469H256.362V180.523Z" fill="#B9B9B9"/>
<path d="M243.334 180.523H251.614V128.469H243.334V180.523Z" fill="#B9B9B9"/>
<path d="M230.295 180.523H238.581V131.5H230.295V180.523Z" fill="#B9B9B9"/>
<path d="M217.262 180.523H225.547V144.803H217.262V180.523Z" fill="#B9B9B9"/>
<path d="M204.234 180.523H212.519V156.012H204.234V180.523Z" fill="#B9B9B9"/>
<path d="M191.196 180.523H199.481V159.921H191.196V180.523Z" fill="#B9B9B9"/>
<path d="M178.163 180.523H186.448V159.921H178.163V180.523Z" fill="#B9B9B9"/>
<path d="M165.13 180.523H173.415V170.99H165.13V180.523Z" fill="#B9B9B9"/>
<path d="M277.755 85.0951L275.961 78.0498L267.008 93.1426L243.677 94.5138L214.836 120.521H194.295L162.704 153.02L159.62 150.019L192.481 116.218H213.187L241.919 90.3056L264.482 88.9843L272.264 75.856L265.225 77.6559L268.383 72.3358L278.363 69.783L280.908 79.775L277.755 85.0951Z" fill="#289900"/>
<path d="M242.676 62.5332H153.576V66.5021H242.676V62.5332Z" fill="#B9B9B9"/>
<path d="M225.576 203.745L220.953 203.719L220.355 310.798L224.979 310.824L225.576 203.745Z" fill="#4C4C4C"/>
<path d="M187.375 337.579L221.686 311.253L221.537 337.769L223.983 337.784L224.128 311.582L259.401 337.978L263.167 338.003L224.711 309.223L223.908 310.021L221.691 310.006V310.231L220.65 309.214L183.713 337.559L187.375 337.579Z" fill="#4C4C4C"/>
<path d="M226.853 312.439L219.056 312.394L219.101 304.771C219.103 304.258 219.206 303.75 219.404 303.278C219.602 302.805 219.892 302.375 220.256 302.015C220.62 301.654 221.052 301.368 221.526 301.175C222.001 300.981 222.509 300.883 223.022 300.887C224.055 300.893 225.044 301.31 225.771 302.046C226.498 302.782 226.903 303.776 226.898 304.811L226.853 312.439Z" fill="#4C4C4C"/>
<path d="M388.202 341.668L366.62 342.166L380.968 334.797L381.467 330.708C383.654 330.708 385.089 329.626 387.296 329.626C387.903 333.082 388.202 341.668 388.202 341.668Z" fill="#432C47"/>
<path d="M353.462 339.414L331.875 339.913L346.069 333.869L346.692 328.435C348.879 328.435 349.407 329.931 351.614 329.931C352.257 333.371 353.462 339.414 353.462 339.414Z" fill="#432C47"/>
<path d="M326.848 194.399C326.848 194.399 385.671 187.549 395.989 194.833L377.356 133.006L372.27 90.6246L360.263 90.8989L351.325 93.362L326.848 194.399Z" fill="black"/>
<path d="M310.044 133.345C308.265 129.656 307.587 127.003 307.448 122.52C307.308 118.038 303.024 113.366 303.024 113.366C302.575 112.838 299.855 112.04 299.442 112.867C299.028 113.695 301.056 113.695 301.529 115.51C302.002 117.325 300.867 117.335 300.164 117.19C299.462 117.046 294.186 106.505 292.826 106.934C291.465 107.363 295.815 115.131 296.313 116.627C296.811 118.123 294.938 118.422 294.509 119.29C294.081 120.157 294.604 120.317 294.141 121.249C293.677 122.181 294.141 123.528 295.386 125.193C296.632 126.858 301.365 128.374 302.057 129.77C302.242 130.154 303.402 133.101 305.171 137.115C306.855 135.998 308.587 134.929 310.367 133.909C310.238 133.709 310.128 133.515 310.044 133.345Z" fill="#F49E87"/>
<path d="M296.547 116.612C296.547 116.612 303.313 121.728 302.027 122.735C300.742 123.742 295.302 118.307 295.302 118.307C295.302 118.307 301.325 123.059 300.284 123.887C299.242 124.714 294.011 120.691 294.011 120.691C294.011 120.691 299.491 124.35 298.495 124.769C297.499 125.188 294.011 122.276 294.011 122.276C294.011 122.276 293.513 121.184 293.692 120.526C293.872 119.868 293.573 119.594 293.727 119.185C294.012 118.696 294.394 118.27 294.848 117.933C295.112 117.699 295.227 116.233 296.547 116.612Z" fill="#F9C6B9"/>
<path d="M308.474 124.869L300.807 130.044C300.807 130.044 314.712 162.703 317.746 162.703C320.78 162.703 337.674 139.593 337.674 139.593L337.35 98.8566C337.35 98.8566 320.058 142.001 318.369 142.001C316.68 142.001 308.474 124.869 308.474 124.869Z" fill="#1D1D1D"/>
<path d="M345.441 331.696H355.879C357.463 313.337 358.549 297.98 359.286 286.661C360.686 265.102 361.389 254.317 361.324 247.316C361.09 220.806 357.632 219.065 361.324 208.854C363.815 201.903 368.374 194.574 370.934 180.583C371.582 177.048 371.931 174.101 372.1 172.137L341.924 175.328C341.924 175.328 341.6 193.946 341.426 213.361C341.376 219.843 341.426 235.714 341.949 256.212C342.452 276.046 343.423 301.56 345.441 331.696Z" fill="#191919"/>
<path d="M380.211 174.301C380.211 174.301 382.827 243.203 385.691 253.125C389.089 264.862 388.86 331.337 388.86 331.337L378.253 330.793C378.253 330.793 368.757 267.874 366.62 258.51C364.483 249.146 355.067 205.349 355.067 205.349L341.615 197.665L341.919 175.328L380.211 174.301Z" fill="#1A1A1A"/>
<path opacity="0.57" d="M374.786 209.951C376.245 209.951 378.438 210.046 381.885 210.15C380.919 191.931 380.211 174.301 380.211 174.301L363.491 174.749C365.823 195.516 370.387 209.951 374.786 209.951Z" fill="#232323"/>
<path d="M341.924 175.328L380.211 174.301C380.211 174.301 380.351 170.86 380.744 166.024C367.741 168.816 354.374 169.539 341.58 169.594L341.924 175.328Z" fill="#38202E"/>
<path d="M356.698 169.552L347.52 169.963L347.74 174.879L356.918 174.469L356.698 169.552Z" fill="#8C9FBF"/>
<path d="M392.706 97.9192L372.28 92.1304L356.148 92.629L337.34 98.8467L341.58 169.584C354.374 169.529 367.741 168.806 380.744 166.014C381.297 159.228 382.348 149.69 384.232 142.968C387.43 131.47 392.706 97.9192 392.706 97.9192Z" fill="#E6E6E6"/>
<path d="M337.34 98.8466L341.58 169.584H343.498C340.977 143.766 351.206 96.6677 351.206 93.7957L337.34 98.8466Z" fill="#D0D0D0"/>
<path d="M376.36 92.1304C374.367 97.8494 360.876 138.945 362.51 163.64C362.619 165.352 362.747 167.031 362.893 168.676C368.891 168.151 374.852 167.265 380.744 166.024C381.297 159.238 382.348 149.699 384.232 142.978C387.44 131.47 392.701 97.9192 392.701 97.9192L376.36 92.1304Z" fill="#D0D0D0"/>
<path d="M374.133 91.3027C374.133 91.3027 363.765 131.615 365.021 155.029C366.276 178.444 370.107 195.875 373.779 195.875C377.451 195.875 393.708 197.137 395.989 194.833C398.271 192.53 387.111 147.211 387.161 138.376C387.211 129.541 392.706 97.9192 392.706 97.9192L374.133 91.3027Z" fill="#373737"/>
<path opacity="0.57" d="M392.432 169.115C391.645 165.126 390.828 161.018 390.081 157.149C387.55 154.87 384.486 152.616 382.259 152.616C379.418 152.634 376.583 152.903 373.789 153.419L392.432 169.115Z" fill="#262943"/>
<path d="M351.205 93.8157C351.205 93.8157 337.948 162.544 337.948 175.438C337.948 188.331 341.59 194.744 337.34 196.219C333.091 197.695 326.848 194.399 326.848 194.399L337.34 98.8467L351.205 93.8157Z" fill="#373737"/>
<path d="M382.946 94.6035L372.27 90.6147C372.27 90.6147 367.402 118.965 365.659 139.279L374.726 116.148V111.855L382.946 94.6035Z" fill="#4B4B4B"/>
<path d="M351.325 93.3719L342.646 140.954L341.924 114.957L345.307 110.798L342.88 96.1342L351.325 93.3719Z" fill="#4B4B4B"/>
<path d="M355.958 97.9193L354.085 90.6496C354.085 90.6496 368.429 88.9194 368.429 88.6552L371.189 92.27L355.958 97.9193Z" fill="#3B5A5E"/>
<path d="M392.706 97.9193C392.706 97.9193 385.457 125.273 387.545 131.416C389.632 137.558 397.808 169.15 404.583 172.875L410.114 158.241L392.706 97.9193Z" fill="#1D1D1D"/>
<path d="M392.367 105.782L425 119.828L398.685 168.412C398.685 168.412 379.932 152.352 373.774 153.424L392.367 105.782Z" fill="#E0E0E0"/>
<path d="M418.314 152.621C418.314 152.621 420.307 137.095 420.307 135.823C420.307 134.552 416.56 128.195 413.955 128.195C411.349 128.195 408.2 128.464 408.2 129.062C408.2 129.66 411.688 129.935 412.884 129.935C414.079 129.935 415.693 133.21 415.693 134.018C415.693 134.826 411.16 131.605 408.968 131.605C406.776 131.605 403.986 131.989 405.022 133.041C406.058 134.093 408.435 133.146 409.635 133.749C410.836 134.352 412.844 136.491 412.844 136.491C412.844 136.491 409.854 136.018 406.093 135.689C402.426 135.369 403.567 137.1 405.824 137.264C407.563 137.394 412.425 138.845 412.425 138.845C412.425 138.845 406.526 138.132 405.759 138.9C405.181 139.478 409.745 140.256 412.067 140.894C412.968 141.138 412.067 144.504 412.425 145.202C413.76 147.964 412.176 152.287 412.176 152.287L418.314 152.621Z" fill="#F9C6B9"/>
<path d="M365.19 82.1932C365.574 81.9489 370.342 70.0771 370.342 70.0771C370.342 70.0771 373.525 61.162 371.468 59.6512C369.41 58.1405 364.533 52.9101 360.248 52.8154C355.963 52.7206 353.099 54.002 352.715 54.2464C352.331 54.4907 349.556 59.1776 349.556 59.1776C349.556 59.1776 350.852 57.597 351.514 63.4556C352.177 69.3142 365.19 82.1932 365.19 82.1932Z" fill="#2E2E2E"/>
<path d="M354.394 81.6547C354.892 83.1506 354.683 94.0002 355.082 96.7226C355.48 99.445 367.726 101.419 367.995 93.7958C368.344 84.0132 367.273 72.4954 367.273 72.4954L354.394 81.6547Z" fill="#F9C6B9"/>
<path d="M354.394 81.6548L358.669 78.6133L367.273 72.4954V72.5253C367.273 72.5652 367.273 72.64 367.273 72.7496C367.303 73.1086 367.352 73.8167 367.422 74.7989C367.422 74.9984 367.452 75.2078 367.467 75.4322V75.472C367.517 76.185 367.567 77.0028 367.616 77.9002C367.616 77.9551 367.616 78.005 367.616 78.0548C367.616 78.2692 367.641 78.4836 367.651 78.708C367.651 78.8277 367.651 78.9423 367.651 79.057C367.649 79.0702 367.649 79.0837 367.651 79.0969C367.651 79.1418 367.651 79.1867 367.651 79.2315V79.2814C367.651 79.3562 367.651 79.436 367.651 79.5107C366.052 84.7611 360.009 90.4801 354.783 91.1333C354.783 90.7743 354.753 90.4053 354.728 90.0413C354.733 86.3815 354.663 82.5173 354.394 81.6548Z" fill="#F49E87"/>
<path d="M367.751 63.5304C369.325 67.4445 369.41 74.5995 365.663 80.0143C361.917 85.4292 356.741 88.2214 353.034 85.499C349.327 82.7766 348.266 65.6345 350.946 61.2268C353.627 56.8192 365.36 57.5621 367.751 63.5304Z" fill="#F9C6B9"/>
<path d="M367.746 79.9744C367.746 79.9744 368.583 74.3701 370.735 72.9939C372.887 71.6178 373.854 70.7951 374.223 68.8156C374.591 66.8362 378.423 64.1088 377.252 60.8379C376.081 57.5671 373.824 57.4723 370.969 51.8132C368.115 46.154 365.056 43.0477 358.405 45.1119C351.754 47.1761 350.827 51.2348 350.827 51.2348C350.827 51.2348 348.201 50.8957 346.099 54.2264C341.954 60.813 356.128 64.7669 361.578 59.3122C364.219 56.6646 367.671 59.1327 368.987 63.0617C370.302 66.9907 364.627 73.1734 367.746 79.9744Z" fill="#272727"/>
<path d="M366.515 69.6733C366.515 69.6733 368.862 65.6844 370.083 67.4096C371.303 69.1348 370.297 74.3552 367.711 74.3901C365.125 74.425 366.515 69.6733 366.515 69.6733Z" fill="#F9C6B9"/>
<path d="M367.841 69.9674C367.841 69.9674 367.751 67.6439 369.011 68.4117C370.272 69.1796 369.011 72.8992 367.841 72.8393C366.67 72.7795 367.841 69.9674 367.841 69.9674Z" fill="#F49E87"/>
<path d="M354.543 68.8904C354.1 69.9527 353.786 71.0641 353.607 72.2012C353.233 74.6593 353.607 75.6914 353.642 75.8659C353.926 75.8111 354.688 75.7014 355.689 75.4371C355.042 75.4371 354.399 75.4371 353.761 75.4671L353.975 75.6266C353.871 73.4178 354.304 71.1691 354.543 68.8904Z" fill="#172866"/>
<path d="M357.717 69.4837C357.578 70.1818 357.881 70.8299 358.395 70.9347C358.908 71.0394 359.426 70.5557 359.565 69.8577C359.705 69.1596 359.396 68.5164 358.888 68.4117C358.38 68.307 357.852 68.7907 357.717 69.4837Z" fill="#2F499F"/>
<path d="M350.677 68.4865C350.543 69.1846 350.847 69.8328 351.355 69.9325C351.863 70.0322 352.391 69.5585 352.526 68.8605C352.66 68.1624 352.361 67.5192 351.848 67.4145C351.335 67.3098 350.832 67.7935 350.677 68.4865Z" fill="#2F499F"/>
<path d="M361.708 67.7236C361.708 67.7236 360.632 65.8289 358.833 65.4649C357.035 65.101 357.578 66.6117 357.996 66.6965C358.415 66.7813 361.777 67.3646 361.708 67.7236Z" fill="#172866"/>
<path d="M353.138 64.5875C353.138 64.5875 351.011 65.2207 350.608 66.198C350.608 66.198 352.86 66.0085 353.268 65.48C353.324 65.4151 353.365 65.3391 353.389 65.2571C353.412 65.175 353.418 65.0888 353.406 65.0042C353.394 64.9197 353.364 64.8387 353.317 64.7668C353.271 64.6949 353.21 64.6338 353.138 64.5875Z" fill="#172866"/>
<path d="M360.681 78.5983C358.748 79.9396 355.724 81.1961 353.417 80.7772C355.271 82.5074 359.107 80.5279 360.681 78.5983Z" fill="white"/>
<path d="M410.427 150.293C410.427 150.293 401.529 163.73 400.927 166.473C400.324 169.215 404.583 172.875 404.583 172.875C404.583 172.875 407.747 174.056 410.756 172.875C413.765 171.693 419.988 152.487 419.988 152.487L410.427 150.293Z" fill="#373737"/>
<path d="M355.515 93.9055L358.544 99.4151L362.38 93.8157L364.657 99.4949L358.823 103.209L353.223 99.101L355.515 93.9055Z" fill="#C1C1C1"/>
<path d="M362.38 93.8157V102.915L372.011 92.1404L368.429 88.6501C368.429 88.6501 367.283 92.654 362.38 93.8157Z" fill="white"/>
<path d="M355.515 93.9055L362.41 94.1697L360.985 103.209L355.515 102.601V93.9055Z" fill="#FF6600"/>
<path d="M355.515 102.601L360.985 103.209L358.823 153.02L353.223 166.024L346.627 152.621L355.515 102.601Z" fill="#FF6600"/>
<path d="M362.38 94.3642L360.985 103.209L358.823 153.02L353.223 166.024L346.627 152.621L353.223 162.14L357.717 152.621L360.432 103.15L362.38 94.3642Z" fill="#E25100"/>
<path d="M380.61 76.195C380.507 76.1957 380.407 76.1624 380.326 76.1002C380.222 76.0218 380.153 75.906 380.134 75.7775C380.114 75.649 380.145 75.5179 380.221 75.4122C387.336 65.6744 378.462 51.6137 378.368 51.4791C378.303 51.3697 378.282 51.2395 378.31 51.1153C378.338 50.9911 378.412 50.8822 378.517 50.8109C378.626 50.7454 378.756 50.7239 378.88 50.7507C379.004 50.7776 379.113 50.8509 379.185 50.9555C379.279 51.1001 388.501 65.7193 380.998 75.9856C380.954 76.048 380.896 76.0994 380.828 76.1357C380.761 76.172 380.686 76.1923 380.61 76.195Z" fill="#4B4B4B"/>
<path d="M353.741 102.182L355.694 93.8157L354.09 90.6495L351.445 94.2046L353.741 102.182Z" fill="white"/>
<path d="M63.4756 220.073C57.8192 220.073 53.2337 215.487 53.2337 209.831C53.2337 204.174 57.8192 199.589 63.4756 199.589C69.1321 199.589 73.7176 204.174 73.7176 209.831C73.7176 215.487 69.1321 220.073 63.4756 220.073Z" stroke="#FF6600" stroke-width="3" stroke-miterlimit="10"/>
<path d="M24.3905 101.689H15.57" stroke="#207A00" stroke-width="3" stroke-miterlimit="10"/>
<path d="M9.82053 101.689H0.999998" stroke="#207A00" stroke-width="3" stroke-miterlimit="10"/>
<path d="M12.7047 90V98.8236" stroke="#207A00" stroke-width="3" stroke-miterlimit="10"/>
<path d="M12.7047 104.575V113.398" stroke="#207A00" stroke-width="3" stroke-miterlimit="10"/>
<path d="M449.242 22.4839C443.586 22.4839 439 17.8984 439 12.2419C439 6.58547 443.586 2 449.242 2C454.898 2 459.484 6.58547 459.484 12.2419C459.484 17.8984 454.898 22.4839 449.242 22.4839Z" stroke="#207A00" stroke-width="3" stroke-miterlimit="10"/>
</svg>
