<svg width="1199" height="48" viewBox="0 0 1199 48" fill="none" xmlns="http://www.w3.org/2000/svg">
<rect x="190" y="1" width="273" height="46" rx="23" stroke="#EAEAEA" stroke-width="2"/>
<path d="M240.17 24.086L240.394 22.056H240.31L239.638 23.596L237.37 27.25H236.726L234.318 23.582L233.66 22.07H233.576L233.87 24.072V29H231.91V19.2H233.786L236.614 23.722L237.146 24.8H237.216L237.678 23.694L240.38 19.2H242.242V29H240.17V24.086ZM244.092 22.154C244.512 21.9673 245.026 21.8133 245.632 21.692C246.248 21.5707 246.883 21.51 247.536 21.51C248.05 21.51 248.479 21.5707 248.824 21.692C249.179 21.8133 249.459 21.9907 249.664 22.224C249.87 22.448 250.014 22.7233 250.098 23.05C250.192 23.3673 250.238 23.722 250.238 24.114C250.238 24.59 250.22 25.0613 250.182 25.528C250.145 25.9947 250.126 26.4893 250.126 27.012C250.126 27.3667 250.15 27.712 250.196 28.048C250.243 28.384 250.318 28.706 250.42 29.014H248.824L248.502 27.922H248.334C248.092 28.2487 247.784 28.5287 247.41 28.762C247.037 28.9953 246.556 29.112 245.968 29.112C245.614 29.112 245.287 29.0607 244.988 28.958C244.699 28.8553 244.447 28.7107 244.232 28.524C244.027 28.328 243.864 28.0993 243.742 27.838C243.63 27.5767 243.574 27.292 243.574 26.984C243.574 26.1533 243.85 25.528 244.4 25.108C244.96 24.6787 245.805 24.464 246.934 24.464C247.196 24.464 247.457 24.4873 247.718 24.534C247.98 24.5713 248.162 24.5993 248.264 24.618C248.292 24.422 248.306 24.254 248.306 24.114C248.306 23.7593 248.218 23.498 248.04 23.33C247.863 23.162 247.532 23.078 247.046 23.078C246.598 23.078 246.16 23.134 245.73 23.246C245.31 23.3487 244.937 23.4793 244.61 23.638L244.092 22.154ZM246.654 27.544C247.093 27.544 247.443 27.4413 247.704 27.236C247.966 27.0307 248.157 26.816 248.278 26.592V25.752C248.232 25.7333 248.157 25.7147 248.054 25.696C247.961 25.6773 247.854 25.6587 247.732 25.64C247.62 25.6213 247.504 25.6073 247.382 25.598C247.27 25.5887 247.168 25.584 247.074 25.584C246.57 25.584 246.197 25.6773 245.954 25.864C245.712 26.0413 245.59 26.2653 245.59 26.536C245.59 26.872 245.684 27.124 245.87 27.292C246.066 27.46 246.328 27.544 246.654 27.544ZM256.68 23.386H254.958C254.93 24.17 254.869 24.9073 254.776 25.598C254.692 26.2887 254.552 26.8953 254.356 27.418C254.16 27.9313 253.898 28.3373 253.572 28.636C253.254 28.9347 252.844 29.084 252.34 29.084C251.752 29.084 251.336 29.0187 251.094 28.888L251.374 27.152C251.532 27.1987 251.677 27.222 251.808 27.222C252.032 27.222 252.228 27.1427 252.396 26.984C252.564 26.8253 252.704 26.5407 252.816 26.13C252.928 25.71 253.016 25.1407 253.082 24.422C253.156 23.7033 253.212 22.7793 253.25 21.65H258.64V29H256.68V23.386ZM260.231 25.332C260.231 24.1187 260.553 23.1667 261.197 22.476C261.841 21.7853 262.76 21.44 263.955 21.44C264.58 21.44 265.126 21.538 265.593 21.734C266.059 21.93 266.447 22.2053 266.755 22.56C267.063 22.9053 267.291 23.316 267.441 23.792C267.599 24.2587 267.679 24.772 267.679 25.332C267.679 25.9293 267.595 26.4707 267.427 26.956C267.259 27.432 267.016 27.838 266.699 28.174C266.381 28.51 265.989 28.7667 265.523 28.944C265.065 29.1213 264.543 29.21 263.955 29.21C263.32 29.21 262.769 29.112 262.303 28.916C261.836 28.72 261.449 28.4493 261.141 28.104C260.833 27.7493 260.604 27.3387 260.455 26.872C260.305 26.396 260.231 25.8827 260.231 25.332ZM262.247 25.332C262.247 25.64 262.279 25.9293 262.345 26.2C262.41 26.4707 262.508 26.7087 262.639 26.914C262.779 27.11 262.956 27.2687 263.171 27.39C263.385 27.5113 263.647 27.572 263.955 27.572C265.093 27.572 265.663 26.8253 265.663 25.332C265.663 25.0053 265.63 24.7067 265.565 24.436C265.509 24.156 265.411 23.918 265.271 23.722C265.14 23.5167 264.963 23.358 264.739 23.246C264.524 23.134 264.263 23.078 263.955 23.078C263.423 23.078 263.003 23.2553 262.695 23.61C262.396 23.9647 262.247 24.5387 262.247 25.332ZM276.208 25.738L276.348 24.142H276.124L275.466 25.402V25.388L273.982 27.67H273.296L271.658 25.388V25.402L271 24.142H270.804L271.014 25.724V29H269.278V21.65H271.336L273.17 24.394V24.38L273.66 25.318H273.814L274.304 24.352V24.366L276.012 21.65H278.07V29H276.208V25.738ZM282.78 25.724L283.088 26.9H283.228L283.494 25.724L284.74 21.65H286.742L284.306 28.3C284.101 28.8507 283.905 29.3453 283.718 29.784C283.541 30.2227 283.345 30.596 283.13 30.904C282.915 31.212 282.673 31.4453 282.402 31.604C282.141 31.772 281.828 31.856 281.464 31.856C281.221 31.856 280.988 31.8327 280.764 31.786C280.549 31.7487 280.363 31.688 280.204 31.604L280.61 30.092C280.75 30.1387 280.895 30.162 281.044 30.162C281.175 30.162 281.301 30.148 281.422 30.12C281.543 30.092 281.655 30.036 281.758 29.952C281.861 29.8773 281.954 29.7653 282.038 29.616C282.131 29.476 282.211 29.2847 282.276 29.042L278.916 21.65H281.282L282.78 25.724ZM292.263 23.204C292.58 22.784 292.944 22.476 293.355 22.28C293.775 22.084 294.279 21.986 294.867 21.986C295.828 21.986 296.589 22.2473 297.149 22.77C297.709 23.2927 297.989 24.114 297.989 25.234C297.989 26.5407 297.667 27.53 297.023 28.202C296.388 28.874 295.483 29.21 294.307 29.21C293.075 29.21 292.137 28.8367 291.493 28.09C290.858 27.3433 290.541 26.1813 290.541 24.604C290.541 23.764 290.592 23.0547 290.695 22.476C290.807 21.888 290.956 21.4027 291.143 21.02C291.339 20.628 291.572 20.3247 291.843 20.11C292.114 19.886 292.412 19.718 292.739 19.606C293.075 19.4847 293.434 19.4053 293.817 19.368C294.2 19.3213 294.601 19.2793 295.021 19.242C295.553 19.1953 296.01 19.144 296.393 19.088C296.785 19.0227 297.084 18.9153 297.289 18.766L297.359 20.46C297.144 20.6187 296.846 20.726 296.463 20.782C296.08 20.8287 295.548 20.8753 294.867 20.922C294.456 20.95 294.092 20.9827 293.775 21.02C293.458 21.0573 293.182 21.1507 292.949 21.3C292.716 21.44 292.529 21.6593 292.389 21.958C292.249 22.2567 292.146 22.6767 292.081 23.218H292.207L292.263 23.204ZM292.557 25.486C292.557 25.7847 292.59 26.06 292.655 26.312C292.73 26.564 292.837 26.7833 292.977 26.97C293.117 27.1567 293.294 27.306 293.509 27.418C293.724 27.5207 293.976 27.572 294.265 27.572C294.881 27.572 295.32 27.39 295.581 27.026C295.842 26.662 295.973 26.1533 295.973 25.5C295.973 24.884 295.847 24.4173 295.595 24.1C295.352 23.7827 294.942 23.624 294.363 23.624C293.747 23.624 293.29 23.792 292.991 24.128C292.702 24.4547 292.557 24.9073 292.557 25.486ZM304.46 25.682L304.544 24.436L303.662 25.668L300.764 29H299.588V21.65H301.548V25.108L301.478 26.116H301.646C301.758 25.9573 301.87 25.7893 301.982 25.612C302.103 25.4347 302.22 25.2667 302.332 25.108L305.244 21.65H306.42V29H304.46V25.682ZM309.176 25.948V24.632H310.086C310.506 24.632 310.837 24.5667 311.08 24.436C311.322 24.296 311.444 24.1093 311.444 23.876C311.444 23.6053 311.336 23.4187 311.122 23.316C310.907 23.204 310.571 23.148 310.114 23.148C309.712 23.148 309.344 23.1993 309.008 23.302C308.681 23.3953 308.41 23.4933 308.196 23.596C308.121 23.344 308.056 23.106 308 22.882C307.953 22.6487 307.892 22.406 307.818 22.154C308.126 21.9673 308.541 21.8133 309.064 21.692C309.586 21.5707 310.142 21.51 310.73 21.51C311.635 21.51 312.307 21.6687 312.746 21.986C313.194 22.294 313.418 22.742 313.418 23.33C313.418 23.498 313.39 23.666 313.334 23.834C313.287 24.002 313.212 24.1653 313.11 24.324C313.007 24.4733 312.876 24.6133 312.718 24.744C312.559 24.8653 312.372 24.9633 312.158 25.038V25.15C312.736 25.2713 313.142 25.4813 313.376 25.78C313.609 26.0693 313.726 26.4613 313.726 26.956C313.726 27.264 313.656 27.5533 313.516 27.824C313.385 28.0853 313.18 28.3187 312.9 28.524C312.62 28.7293 312.265 28.888 311.836 29C311.416 29.1213 310.916 29.182 310.338 29.182C309.778 29.182 309.278 29.1213 308.84 29C308.401 28.8787 308.042 28.7433 307.762 28.594C307.827 28.342 307.897 28.09 307.972 27.838C308.046 27.586 308.121 27.334 308.196 27.082C308.448 27.2127 308.751 27.3247 309.106 27.418C309.47 27.502 309.862 27.544 310.282 27.544C311.271 27.544 311.766 27.2593 311.766 26.69C311.766 26.5593 311.733 26.4473 311.668 26.354C311.612 26.2607 311.514 26.186 311.374 26.13C311.234 26.0647 311.042 26.018 310.8 25.99C310.566 25.962 310.268 25.948 309.904 25.948H309.176ZM319.988 26.158H317.202V29H315.242V21.65H317.202V24.38H319.988V21.65H321.948V29H319.988V26.158ZM330.251 28.328C329.934 28.5707 329.5 28.7807 328.949 28.958C328.408 29.126 327.824 29.21 327.199 29.21C325.939 29.21 325.015 28.8647 324.427 28.174C323.839 27.4833 323.545 26.536 323.545 25.332C323.545 24.0533 323.876 23.0873 324.539 22.434C325.202 21.7713 326.135 21.44 327.339 21.44C327.731 21.44 328.118 21.4913 328.501 21.594C328.884 21.6873 329.224 21.8507 329.523 22.084C329.822 22.308 330.06 22.616 330.237 23.008C330.424 23.3907 330.517 23.8667 330.517 24.436C330.517 24.632 330.503 24.8467 330.475 25.08C330.456 25.3133 330.419 25.556 330.363 25.808H325.463C325.51 26.4427 325.692 26.914 326.009 27.222C326.336 27.5207 326.863 27.67 327.591 27.67C328.03 27.67 328.422 27.6093 328.767 27.488C329.122 27.3573 329.392 27.2267 329.579 27.096L330.251 28.328ZM327.311 22.98C326.732 22.98 326.303 23.1387 326.023 23.456C325.743 23.764 325.58 24.1607 325.533 24.646H328.697C328.734 24.1327 328.641 23.7267 328.417 23.428C328.193 23.1293 327.824 22.98 327.311 22.98ZM337.74 28.552C337.422 28.7667 337.04 28.93 336.592 29.042C336.153 29.154 335.696 29.21 335.22 29.21C334.585 29.21 334.048 29.1167 333.61 28.93C333.18 28.7433 332.826 28.4773 332.546 28.132C332.275 27.7867 332.079 27.3807 331.958 26.914C331.836 26.438 331.776 25.9107 331.776 25.332C331.776 24.1093 332.074 23.1573 332.672 22.476C333.278 21.7853 334.156 21.44 335.303 21.44C335.864 21.44 336.321 21.4867 336.676 21.58C337.04 21.664 337.362 21.776 337.642 21.916L337.166 23.484C336.923 23.3813 336.68 23.3067 336.438 23.26C336.204 23.204 335.929 23.176 335.612 23.176C335.024 23.176 334.571 23.3487 334.254 23.694C333.946 24.03 333.792 24.576 333.792 25.332C333.792 25.6307 333.829 25.9107 333.904 26.172C333.978 26.424 334.095 26.648 334.254 26.844C334.412 27.04 334.613 27.194 334.856 27.306C335.098 27.418 335.383 27.474 335.71 27.474C336.102 27.474 336.41 27.4413 336.634 27.376C336.867 27.3013 337.086 27.2033 337.292 27.082L337.74 28.552ZM341.528 25.724L341.836 26.9H341.976L342.242 25.724L343.488 21.65H345.49L343.054 28.3C342.849 28.8507 342.653 29.3453 342.466 29.784C342.289 30.2227 342.093 30.596 341.878 30.904C341.663 31.212 341.421 31.4453 341.15 31.604C340.889 31.772 340.576 31.856 340.212 31.856C339.969 31.856 339.736 31.8327 339.512 31.786C339.297 31.7487 339.111 31.688 338.952 31.604L339.358 30.092C339.498 30.1387 339.643 30.162 339.792 30.162C339.923 30.162 340.049 30.148 340.17 30.12C340.291 30.092 340.403 30.036 340.506 29.952C340.609 29.8773 340.702 29.7653 340.786 29.616C340.879 29.476 340.959 29.2847 341.024 29.042L337.664 21.65H340.03L341.528 25.724ZM350.474 19.032L351.958 19.732L346.526 30.96L345.07 30.204L350.474 19.032ZM359.719 28.58C359.411 28.7947 359.005 28.9487 358.501 29.042C357.997 29.1447 357.479 29.196 356.947 29.196C356.322 29.196 355.72 29.1027 355.141 28.916C354.572 28.7293 354.063 28.4307 353.615 28.02C353.177 27.6093 352.827 27.082 352.565 26.438C352.304 25.794 352.173 25.0147 352.173 24.1C352.173 23.148 352.323 22.35 352.621 21.706C352.92 21.0527 353.303 20.53 353.769 20.138C354.236 19.7367 354.754 19.4473 355.323 19.27C355.893 19.0927 356.453 19.004 357.003 19.004C357.61 19.004 358.119 19.0413 358.529 19.116C358.949 19.1907 359.295 19.2793 359.565 19.382L359.159 21.118C358.926 21.0153 358.651 20.9407 358.333 20.894C358.025 20.8473 357.633 20.824 357.157 20.824C356.737 20.824 356.355 20.894 356.009 21.034C355.673 21.1647 355.384 21.3653 355.141 21.636C354.899 21.9067 354.707 22.2473 354.567 22.658C354.437 23.0687 354.371 23.5493 354.371 24.1C354.371 24.5853 354.432 25.0287 354.553 25.43C354.675 25.8313 354.857 26.1767 355.099 26.466C355.342 26.7553 355.65 26.9793 356.023 27.138C356.397 27.2967 356.831 27.376 357.325 27.376C357.783 27.376 358.165 27.334 358.473 27.25C358.791 27.166 359.071 27.0587 359.313 26.928L359.719 28.58ZM365.757 23.386H363.475V29H361.431V23.386H359.149V21.65H365.757V23.386ZM366.811 22.154C367.231 21.9673 367.744 21.8133 368.351 21.692C368.967 21.5707 369.602 21.51 370.255 21.51C370.768 21.51 371.198 21.5707 371.543 21.692C371.898 21.8133 372.178 21.9907 372.383 22.224C372.588 22.448 372.733 22.7233 372.817 23.05C372.91 23.3673 372.957 23.722 372.957 24.114C372.957 24.59 372.938 25.0613 372.901 25.528C372.864 25.9947 372.845 26.4893 372.845 27.012C372.845 27.3667 372.868 27.712 372.915 28.048C372.962 28.384 373.036 28.706 373.139 29.014H371.543L371.221 27.922H371.053C370.81 28.2487 370.502 28.5287 370.129 28.762C369.756 28.9953 369.275 29.112 368.687 29.112C368.332 29.112 368.006 29.0607 367.707 28.958C367.418 28.8553 367.166 28.7107 366.951 28.524C366.746 28.328 366.582 28.0993 366.461 27.838C366.349 27.5767 366.293 27.292 366.293 26.984C366.293 26.1533 366.568 25.528 367.119 25.108C367.679 24.6787 368.524 24.464 369.653 24.464C369.914 24.464 370.176 24.4873 370.437 24.534C370.698 24.5713 370.88 24.5993 370.983 24.618C371.011 24.422 371.025 24.254 371.025 24.114C371.025 23.7593 370.936 23.498 370.759 23.33C370.582 23.162 370.25 23.078 369.765 23.078C369.317 23.078 368.878 23.134 368.449 23.246C368.029 23.3487 367.656 23.4793 367.329 23.638L366.811 22.154ZM369.373 27.544C369.812 27.544 370.162 27.4413 370.423 27.236C370.684 27.0307 370.876 26.816 370.997 26.592V25.752C370.95 25.7333 370.876 25.7147 370.773 25.696C370.68 25.6773 370.572 25.6587 370.451 25.64C370.339 25.6213 370.222 25.6073 370.101 25.598C369.989 25.5887 369.886 25.584 369.793 25.584C369.289 25.584 368.916 25.6773 368.673 25.864C368.43 26.0413 368.309 26.2653 368.309 26.536C368.309 26.872 368.402 27.124 368.589 27.292C368.785 27.46 369.046 27.544 369.373 27.544ZM374.988 21.65H376.388L376.626 22.56H376.794C377.084 22.1867 377.42 21.9067 377.802 21.72C378.185 21.5333 378.633 21.44 379.146 21.44C380.136 21.44 380.878 21.7387 381.372 22.336C381.867 22.924 382.114 23.862 382.114 25.15C382.114 25.766 382.035 26.326 381.876 26.83C381.718 27.3247 381.484 27.754 381.176 28.118C380.868 28.4727 380.486 28.748 380.028 28.944C379.58 29.1307 379.062 29.224 378.474 29.224C378.157 29.224 377.882 29.1913 377.648 29.126C377.415 29.07 377.182 28.9907 376.948 28.888V31.786H374.988V21.65ZM378.544 23.078C378.096 23.078 377.751 23.1807 377.508 23.386C377.266 23.582 377.079 23.89 376.948 24.31V27.166C377.107 27.2967 377.284 27.3993 377.48 27.474C377.676 27.5487 377.924 27.586 378.222 27.586C378.857 27.586 379.328 27.39 379.636 26.998C379.944 26.5967 380.098 25.962 380.098 25.094C380.098 24.4687 379.977 23.9787 379.734 23.624C379.501 23.26 379.104 23.078 378.544 23.078ZM389.3 23.386H387.018V29H384.974V23.386H382.692V21.65H389.3V23.386ZM390.354 22.154C390.774 21.9673 391.287 21.8133 391.894 21.692C392.51 21.5707 393.145 21.51 393.798 21.51C394.311 21.51 394.741 21.5707 395.086 21.692C395.441 21.8133 395.721 21.9907 395.926 22.224C396.131 22.448 396.276 22.7233 396.36 23.05C396.453 23.3673 396.5 23.722 396.5 24.114C396.5 24.59 396.481 25.0613 396.444 25.528C396.407 25.9947 396.388 26.4893 396.388 27.012C396.388 27.3667 396.411 27.712 396.458 28.048C396.505 28.384 396.579 28.706 396.682 29.014H395.086L394.764 27.922H394.596C394.353 28.2487 394.045 28.5287 393.672 28.762C393.299 28.9953 392.818 29.112 392.23 29.112C391.875 29.112 391.549 29.0607 391.25 28.958C390.961 28.8553 390.709 28.7107 390.494 28.524C390.289 28.328 390.125 28.0993 390.004 27.838C389.892 27.5767 389.836 27.292 389.836 26.984C389.836 26.1533 390.111 25.528 390.662 25.108C391.222 24.6787 392.067 24.464 393.196 24.464C393.457 24.464 393.719 24.4873 393.98 24.534C394.241 24.5713 394.423 24.5993 394.526 24.618C394.554 24.422 394.568 24.254 394.568 24.114C394.568 23.7593 394.479 23.498 394.302 23.33C394.125 23.162 393.793 23.078 393.308 23.078C392.86 23.078 392.421 23.134 391.992 23.246C391.572 23.3487 391.199 23.4793 390.872 23.638L390.354 22.154ZM392.916 27.544C393.355 27.544 393.705 27.4413 393.966 27.236C394.227 27.0307 394.419 26.816 394.54 26.592V25.752C394.493 25.7333 394.419 25.7147 394.316 25.696C394.223 25.6773 394.115 25.6587 393.994 25.64C393.882 25.6213 393.765 25.6073 393.644 25.598C393.532 25.5887 393.429 25.584 393.336 25.584C392.832 25.584 392.459 25.6773 392.216 25.864C391.973 26.0413 391.852 26.2653 391.852 26.536C391.852 26.872 391.945 27.124 392.132 27.292C392.328 27.46 392.589 27.544 392.916 27.544ZM403.193 23.386H400.491V29H398.531V21.65H405.153V29H403.193V23.386ZM407.102 22.154C407.522 21.9673 408.035 21.8133 408.642 21.692C409.258 21.5707 409.893 21.51 410.546 21.51C411.059 21.51 411.489 21.5707 411.834 21.692C412.189 21.8133 412.469 21.9907 412.674 22.224C412.879 22.448 413.024 22.7233 413.108 23.05C413.201 23.3673 413.248 23.722 413.248 24.114C413.248 24.59 413.229 25.0613 413.192 25.528C413.155 25.9947 413.136 26.4893 413.136 27.012C413.136 27.3667 413.159 27.712 413.206 28.048C413.253 28.384 413.327 28.706 413.43 29.014H411.834L411.512 27.922H411.344C411.101 28.2487 410.793 28.5287 410.42 28.762C410.047 28.9953 409.566 29.112 408.978 29.112C408.623 29.112 408.297 29.0607 407.998 28.958C407.709 28.8553 407.457 28.7107 407.242 28.524C407.037 28.328 406.873 28.0993 406.752 27.838C406.64 27.5767 406.584 27.292 406.584 26.984C406.584 26.1533 406.859 25.528 407.41 25.108C407.97 24.6787 408.815 24.464 409.944 24.464C410.205 24.464 410.467 24.4873 410.728 24.534C410.989 24.5713 411.171 24.5993 411.274 24.618C411.302 24.422 411.316 24.254 411.316 24.114C411.316 23.7593 411.227 23.498 411.05 23.33C410.873 23.162 410.541 23.078 410.056 23.078C409.608 23.078 409.169 23.134 408.74 23.246C408.32 23.3487 407.947 23.4793 407.62 23.638L407.102 22.154ZM409.664 27.544C410.103 27.544 410.453 27.4413 410.714 27.236C410.975 27.0307 411.167 26.816 411.288 26.592V25.752C411.241 25.7333 411.167 25.7147 411.064 25.696C410.971 25.6773 410.863 25.6587 410.742 25.64C410.63 25.6213 410.513 25.6073 410.392 25.598C410.28 25.5887 410.177 25.584 410.084 25.584C409.58 25.584 409.207 25.6773 408.964 25.864C408.721 26.0413 408.6 26.2653 408.6 26.536C408.6 26.872 408.693 27.124 408.88 27.292C409.076 27.46 409.337 27.544 409.664 27.544ZM422.209 25.738L422.349 24.142H422.125L421.467 25.402V25.388L419.983 27.67H419.297L417.659 25.388V25.402L417.001 24.142H416.805L417.015 25.724V29H415.279V21.65H417.337L419.171 24.394V24.38L419.661 25.318H419.815L420.305 24.352V24.366L422.013 21.65H424.071V29H422.209V25.738Z" fill="#333333"/>
<rect x="484" y="1" width="221" height="46" rx="23" stroke="#EAEAEA" stroke-width="2"/>
<path d="M529.14 22.596L529.252 21.35H529.182L528.468 22.61L524.45 28H522.91V18.2H524.982V23.478L524.842 24.78H524.926L525.682 23.478L529.658 18.2H531.212V28H529.14V22.596ZM537.871 25.158H535.085V28H533.125V20.65H535.085V23.38H537.871V20.65H539.831V28H537.871V25.158ZM547.56 22.386H545.278V28H543.234V22.386H540.952V20.65H547.56V22.386ZM554.847 27.328C554.529 27.5707 554.095 27.7807 553.545 27.958C553.003 28.126 552.42 28.21 551.795 28.21C550.535 28.21 549.611 27.8647 549.023 27.174C548.435 26.4833 548.141 25.536 548.141 24.332C548.141 23.0533 548.472 22.0873 549.135 21.434C549.797 20.7713 550.731 20.44 551.935 20.44C552.327 20.44 552.714 20.4913 553.097 20.594C553.479 20.6873 553.82 20.8507 554.119 21.084C554.417 21.308 554.655 21.616 554.833 22.008C555.019 22.3907 555.113 22.8667 555.113 23.436C555.113 23.632 555.099 23.8467 555.071 24.08C555.052 24.3133 555.015 24.556 554.959 24.808H550.059C550.105 25.4427 550.287 25.914 550.605 26.222C550.931 26.5207 551.459 26.67 552.187 26.67C552.625 26.67 553.017 26.6093 553.363 26.488C553.717 26.3573 553.988 26.2267 554.175 26.096L554.847 27.328ZM551.907 21.98C551.328 21.98 550.899 22.1387 550.619 22.456C550.339 22.764 550.175 23.1607 550.129 23.646H553.293C553.33 23.1327 553.237 22.7267 553.013 22.428C552.789 22.1293 552.42 21.98 551.907 21.98ZM556.873 20.65H558.273L558.511 21.56H558.679C558.969 21.1867 559.305 20.9067 559.687 20.72C560.07 20.5333 560.518 20.44 561.031 20.44C562.021 20.44 562.763 20.7387 563.257 21.336C563.752 21.924 563.999 22.862 563.999 24.15C563.999 24.766 563.92 25.326 563.761 25.83C563.603 26.3247 563.369 26.754 563.061 27.118C562.753 27.4727 562.371 27.748 561.913 27.944C561.465 28.1307 560.947 28.224 560.359 28.224C560.042 28.224 559.767 28.1913 559.533 28.126C559.3 28.07 559.067 27.9907 558.833 27.888V30.786H556.873V20.65ZM560.429 22.078C559.981 22.078 559.636 22.1807 559.393 22.386C559.151 22.582 558.964 22.89 558.833 23.31V26.166C558.992 26.2967 559.169 26.3993 559.365 26.474C559.561 26.5487 559.809 26.586 560.107 26.586C560.742 26.586 561.213 26.39 561.521 25.998C561.829 25.5967 561.983 24.962 561.983 24.094C561.983 23.4687 561.862 22.9787 561.619 22.624C561.386 22.26 560.989 22.078 560.429 22.078ZM570.342 25.158H567.556V28H565.596V20.65H567.556V23.38H570.342V20.65H572.302V28H570.342V25.158ZM580.605 27.328C580.287 27.5707 579.853 27.7807 579.303 27.958C578.761 28.126 578.178 28.21 577.553 28.21C576.293 28.21 575.369 27.8647 574.781 27.174C574.193 26.4833 573.899 25.536 573.899 24.332C573.899 23.0533 574.23 22.0873 574.893 21.434C575.555 20.7713 576.489 20.44 577.693 20.44C578.085 20.44 578.472 20.4913 578.855 20.594C579.237 20.6873 579.578 20.8507 579.877 21.084C580.175 21.308 580.413 21.616 580.591 22.008C580.777 22.3907 580.871 22.8667 580.871 23.436C580.871 23.632 580.857 23.8467 580.829 24.08C580.81 24.3133 580.773 24.556 580.717 24.808H575.817C575.863 25.4427 576.045 25.914 576.363 26.222C576.689 26.5207 577.217 26.67 577.945 26.67C578.383 26.67 578.775 26.6093 579.121 26.488C579.475 26.3573 579.746 26.2267 579.933 26.096L580.605 27.328ZM577.665 21.98C577.086 21.98 576.657 22.1387 576.377 22.456C576.097 22.764 575.933 23.1607 575.887 23.646H579.051C579.088 23.1327 578.995 22.7267 578.771 22.428C578.547 22.1293 578.178 21.98 577.665 21.98ZM588.343 22.386H586.061V28H584.017V22.386H581.735V20.65H588.343V22.386ZM588.834 23.1H592.656V24.836H588.834V23.1ZM601.415 24.738L601.555 23.142H601.331L600.673 24.402V24.388L599.189 26.67H598.503L596.865 24.388V24.402L596.207 23.142H596.011L596.221 24.724V28H594.485V20.65H596.543L598.377 23.394V23.38L598.867 24.318H599.021L599.511 23.352V23.366L601.219 20.65H603.277V28H601.415V24.738ZM605.229 21.154C605.649 20.9673 606.162 20.8133 606.769 20.692C607.385 20.5707 608.02 20.51 608.673 20.51C609.186 20.51 609.616 20.5707 609.961 20.692C610.316 20.8133 610.596 20.9907 610.801 21.224C611.006 21.448 611.151 21.7233 611.235 22.05C611.328 22.3673 611.375 22.722 611.375 23.114C611.375 23.59 611.356 24.0613 611.319 24.528C611.282 24.9947 611.263 25.4893 611.263 26.012C611.263 26.3667 611.286 26.712 611.333 27.048C611.38 27.384 611.454 27.706 611.557 28.014H609.961L609.639 26.922H609.471C609.228 27.2487 608.92 27.5287 608.547 27.762C608.174 27.9953 607.693 28.112 607.105 28.112C606.75 28.112 606.424 28.0607 606.125 27.958C605.836 27.8553 605.584 27.7107 605.369 27.524C605.164 27.328 605 27.0993 604.879 26.838C604.767 26.5767 604.711 26.292 604.711 25.984C604.711 25.1533 604.986 24.528 605.537 24.108C606.097 23.6787 606.942 23.464 608.071 23.464C608.332 23.464 608.594 23.4873 608.855 23.534C609.116 23.5713 609.298 23.5993 609.401 23.618C609.429 23.422 609.443 23.254 609.443 23.114C609.443 22.7593 609.354 22.498 609.177 22.33C609 22.162 608.668 22.078 608.183 22.078C607.735 22.078 607.296 22.134 606.867 22.246C606.447 22.3487 606.074 22.4793 605.747 22.638L605.229 21.154ZM607.791 26.544C608.23 26.544 608.58 26.4413 608.841 26.236C609.102 26.0307 609.294 25.816 609.415 25.592V24.752C609.368 24.7333 609.294 24.7147 609.191 24.696C609.098 24.6773 608.99 24.6587 608.869 24.64C608.757 24.6213 608.64 24.6073 608.519 24.598C608.407 24.5887 608.304 24.584 608.211 24.584C607.707 24.584 607.334 24.6773 607.091 24.864C606.848 25.0413 606.727 25.2653 606.727 25.536C606.727 25.872 606.82 26.124 607.007 26.292C607.203 26.46 607.464 26.544 607.791 26.544ZM618.53 22.386H615.478V28H613.406V20.65H618.53V22.386ZM619.475 21.154C619.895 20.9673 620.408 20.8133 621.015 20.692C621.631 20.5707 622.266 20.51 622.919 20.51C623.432 20.51 623.862 20.5707 624.207 20.692C624.562 20.8133 624.842 20.9907 625.047 21.224C625.252 21.448 625.397 21.7233 625.481 22.05C625.574 22.3673 625.621 22.722 625.621 23.114C625.621 23.59 625.602 24.0613 625.565 24.528C625.528 24.9947 625.509 25.4893 625.509 26.012C625.509 26.3667 625.532 26.712 625.579 27.048C625.626 27.384 625.7 27.706 625.803 28.014H624.207L623.885 26.922H623.717C623.474 27.2487 623.166 27.5287 622.793 27.762C622.42 27.9953 621.939 28.112 621.351 28.112C620.996 28.112 620.67 28.0607 620.371 27.958C620.082 27.8553 619.83 27.7107 619.615 27.524C619.41 27.328 619.246 27.0993 619.125 26.838C619.013 26.5767 618.957 26.292 618.957 25.984C618.957 25.1533 619.232 24.528 619.783 24.108C620.343 23.6787 621.188 23.464 622.317 23.464C622.578 23.464 622.84 23.4873 623.101 23.534C623.362 23.5713 623.544 23.5993 623.647 23.618C623.675 23.422 623.689 23.254 623.689 23.114C623.689 22.7593 623.6 22.498 623.423 22.33C623.246 22.162 622.914 22.078 622.429 22.078C621.981 22.078 621.542 22.134 621.113 22.246C620.693 22.3487 620.32 22.4793 619.993 22.638L619.475 21.154ZM622.037 26.544C622.476 26.544 622.826 26.4413 623.087 26.236C623.348 26.0307 623.54 25.816 623.661 25.592V24.752C623.614 24.7333 623.54 24.7147 623.437 24.696C623.344 24.6773 623.236 24.6587 623.115 24.64C623.003 24.6213 622.886 24.6073 622.765 24.598C622.653 24.5887 622.55 24.584 622.457 24.584C621.953 24.584 621.58 24.6773 621.337 24.864C621.094 25.0413 620.973 25.2653 620.973 25.536C620.973 25.872 621.066 26.124 621.253 26.292C621.449 26.46 621.71 26.544 622.037 26.544ZM628.395 24.948V23.632H629.305C629.725 23.632 630.056 23.5667 630.299 23.436C630.541 23.296 630.663 23.1093 630.663 22.876C630.663 22.6053 630.555 22.4187 630.341 22.316C630.126 22.204 629.79 22.148 629.333 22.148C628.931 22.148 628.563 22.1993 628.227 22.302C627.9 22.3953 627.629 22.4933 627.415 22.596C627.34 22.344 627.275 22.106 627.219 21.882C627.172 21.6487 627.111 21.406 627.037 21.154C627.345 20.9673 627.76 20.8133 628.283 20.692C628.805 20.5707 629.361 20.51 629.949 20.51C630.854 20.51 631.526 20.6687 631.965 20.986C632.413 21.294 632.637 21.742 632.637 22.33C632.637 22.498 632.609 22.666 632.553 22.834C632.506 23.002 632.431 23.1653 632.329 23.324C632.226 23.4733 632.095 23.6133 631.937 23.744C631.778 23.8653 631.591 23.9633 631.377 24.038V24.15C631.955 24.2713 632.361 24.4813 632.595 24.78C632.828 25.0693 632.945 25.4613 632.945 25.956C632.945 26.264 632.875 26.5533 632.735 26.824C632.604 27.0853 632.399 27.3187 632.119 27.524C631.839 27.7293 631.484 27.888 631.055 28C630.635 28.1213 630.135 28.182 629.557 28.182C628.997 28.182 628.497 28.1213 628.059 28C627.62 27.8787 627.261 27.7433 626.981 27.594C627.046 27.342 627.116 27.09 627.191 26.838C627.265 26.586 627.34 26.334 627.415 26.082C627.667 26.2127 627.97 26.3247 628.325 26.418C628.689 26.502 629.081 26.544 629.501 26.544C630.49 26.544 630.985 26.2593 630.985 25.69C630.985 25.5593 630.952 25.4473 630.887 25.354C630.831 25.2607 630.733 25.186 630.593 25.13C630.453 25.0647 630.261 25.018 630.019 24.99C629.785 24.962 629.487 24.948 629.123 24.948H628.395ZM639.333 24.682L639.417 23.436L638.535 24.668L635.637 28H634.461V20.65H636.421V24.108L636.351 25.116H636.519C636.631 24.9573 636.743 24.7893 636.855 24.612C636.976 24.4347 637.093 24.2667 637.205 24.108L640.117 20.65H641.293V28H639.333V24.682ZM648.053 25.158H645.267V28H643.307V20.65H645.267V23.38H648.053V20.65H650.013V28H648.053V25.158ZM651.959 21.154C652.379 20.9673 652.893 20.8133 653.499 20.692C654.115 20.5707 654.75 20.51 655.403 20.51C655.917 20.51 656.346 20.5707 656.691 20.692C657.046 20.8133 657.326 20.9907 657.531 21.224C657.737 21.448 657.881 21.7233 657.965 22.05C658.059 22.3673 658.105 22.722 658.105 23.114C658.105 23.59 658.087 24.0613 658.049 24.528C658.012 24.9947 657.993 25.4893 657.993 26.012C657.993 26.3667 658.017 26.712 658.063 27.048C658.11 27.384 658.185 27.706 658.287 28.014H656.691L656.369 26.922H656.201C655.959 27.2487 655.651 27.5287 655.277 27.762C654.904 27.9953 654.423 28.112 653.835 28.112C653.481 28.112 653.154 28.0607 652.855 27.958C652.566 27.8553 652.314 27.7107 652.099 27.524C651.894 27.328 651.731 27.0993 651.609 26.838C651.497 26.5767 651.441 26.292 651.441 25.984C651.441 25.1533 651.717 24.528 652.267 24.108C652.827 23.6787 653.672 23.464 654.801 23.464C655.063 23.464 655.324 23.4873 655.585 23.534C655.847 23.5713 656.029 23.5993 656.131 23.618C656.159 23.422 656.173 23.254 656.173 23.114C656.173 22.7593 656.085 22.498 655.907 22.33C655.73 22.162 655.399 22.078 654.913 22.078C654.465 22.078 654.027 22.134 653.597 22.246C653.177 22.3487 652.804 22.4793 652.477 22.638L651.959 21.154ZM654.521 26.544C654.96 26.544 655.31 26.4413 655.571 26.236C655.833 26.0307 656.024 25.816 656.145 25.592V24.752C656.099 24.7333 656.024 24.7147 655.921 24.696C655.828 24.6773 655.721 24.6587 655.599 24.64C655.487 24.6213 655.371 24.6073 655.249 24.598C655.137 24.5887 655.035 24.584 654.941 24.584C654.437 24.584 654.064 24.6773 653.821 24.864C653.579 25.0413 653.457 25.2653 653.457 25.536C653.457 25.872 653.551 26.124 653.737 26.292C653.933 26.46 654.195 26.544 654.521 26.544ZM667.067 24.738L667.207 23.142H666.983L666.325 24.402V24.388L664.841 26.67H664.155L662.517 24.388V24.402L661.859 23.142H661.663L661.873 24.724V28H660.137V20.65H662.195L664.029 23.394V23.38L664.519 24.318H664.673L665.163 23.352V23.366L666.871 20.65H668.929V28H667.067V24.738Z" fill="#333333"/>
<rect x="726" y="1" width="220" height="46" rx="23" stroke="#EAEAEA" stroke-width="2"/>
<path d="M772.452 23.47L772.76 24.716H772.858L773.096 23.414L774.692 19.2H776.862L774.02 26.018C773.805 26.5407 773.591 26.9933 773.376 27.376C773.161 27.7587 772.933 28.0807 772.69 28.342C772.447 28.594 772.177 28.7853 771.878 28.916C771.579 29.0373 771.234 29.098 770.842 29.098C770.506 29.098 770.24 29.0793 770.044 29.042C769.848 29.0047 769.629 28.9113 769.386 28.762L769.904 27.096C770.081 27.18 770.24 27.2313 770.38 27.25C770.529 27.2687 770.683 27.278 770.842 27.278C771.327 27.278 771.663 26.9513 771.85 26.298L767.86 19.2H770.296L772.452 23.47ZM784.094 30.666H782.722L782.47 29H776.898L776.632 30.666H775.26V27.264H776.184C776.268 27.152 776.38 26.9653 776.52 26.704C776.669 26.4427 776.809 26.088 776.94 25.64C777.08 25.192 777.196 24.6413 777.29 23.988C777.392 23.3253 777.448 22.546 777.458 21.65H782.918V27.264H784.094V30.666ZM780.958 27.362V23.288H779.124C779.105 23.652 779.068 24.03 779.012 24.422C778.956 24.814 778.886 25.192 778.802 25.556C778.718 25.92 778.62 26.2607 778.508 26.578C778.396 26.8953 778.274 27.1567 778.144 27.362H780.958ZM785.317 22.154C785.737 21.9673 786.25 21.8133 786.857 21.692C787.473 21.5707 788.108 21.51 788.761 21.51C789.274 21.51 789.704 21.5707 790.049 21.692C790.404 21.8133 790.684 21.9907 790.889 22.224C791.094 22.448 791.239 22.7233 791.323 23.05C791.416 23.3673 791.463 23.722 791.463 24.114C791.463 24.59 791.444 25.0613 791.407 25.528C791.37 25.9947 791.351 26.4893 791.351 27.012C791.351 27.3667 791.374 27.712 791.421 28.048C791.468 28.384 791.542 28.706 791.645 29.014H790.049L789.727 27.922H789.559C789.316 28.2487 789.008 28.5287 788.635 28.762C788.262 28.9953 787.781 29.112 787.193 29.112C786.838 29.112 786.512 29.0607 786.213 28.958C785.924 28.8553 785.672 28.7107 785.457 28.524C785.252 28.328 785.088 28.0993 784.967 27.838C784.855 27.5767 784.799 27.292 784.799 26.984C784.799 26.1533 785.074 25.528 785.625 25.108C786.185 24.6787 787.03 24.464 788.159 24.464C788.42 24.464 788.682 24.4873 788.943 24.534C789.204 24.5713 789.386 24.5993 789.489 24.618C789.517 24.422 789.531 24.254 789.531 24.114C789.531 23.7593 789.442 23.498 789.265 23.33C789.088 23.162 788.756 23.078 788.271 23.078C787.823 23.078 787.384 23.134 786.955 23.246C786.535 23.3487 786.162 23.4793 785.835 23.638L785.317 22.154ZM787.879 27.544C788.318 27.544 788.668 27.4413 788.929 27.236C789.19 27.0307 789.382 26.816 789.503 26.592V25.752C789.456 25.7333 789.382 25.7147 789.279 25.696C789.186 25.6773 789.078 25.6587 788.957 25.64C788.845 25.6213 788.728 25.6073 788.607 25.598C788.495 25.5887 788.392 25.584 788.299 25.584C787.795 25.584 787.422 25.6773 787.179 25.864C786.936 26.0413 786.815 26.2653 786.815 26.536C786.815 26.872 786.908 27.124 787.095 27.292C787.291 27.46 787.552 27.544 787.879 27.544ZM797.904 23.386H796.182C796.154 24.17 796.094 24.9073 796 25.598C795.916 26.2887 795.776 26.8953 795.58 27.418C795.384 27.9313 795.123 28.3373 794.796 28.636C794.479 28.9347 794.068 29.084 793.564 29.084C792.976 29.084 792.561 29.0187 792.318 28.888L792.598 27.152C792.757 27.1987 792.902 27.222 793.032 27.222C793.256 27.222 793.452 27.1427 793.62 26.984C793.788 26.8253 793.928 26.5407 794.04 26.13C794.152 25.71 794.241 25.1407 794.306 24.422C794.381 23.7033 794.437 22.7793 794.474 21.65H799.864V29H797.904V23.386ZM808.161 28.328C807.844 28.5707 807.41 28.7807 806.859 28.958C806.318 29.126 805.735 29.21 805.109 29.21C803.849 29.21 802.925 28.8647 802.337 28.174C801.749 27.4833 801.455 26.536 801.455 25.332C801.455 24.0533 801.787 23.0873 802.449 22.434C803.112 21.7713 804.045 21.44 805.249 21.44C805.641 21.44 806.029 21.4913 806.411 21.594C806.794 21.6873 807.135 21.8507 807.433 22.084C807.732 22.308 807.97 22.616 808.147 23.008C808.334 23.3907 808.427 23.8667 808.427 24.436C808.427 24.632 808.413 24.8467 808.385 25.08C808.367 25.3133 808.329 25.556 808.273 25.808H803.373C803.42 26.4427 803.602 26.914 803.919 27.222C804.246 27.5207 804.773 27.67 805.501 27.67C805.94 27.67 806.332 27.6093 806.677 27.488C807.032 27.3573 807.303 27.2267 807.489 27.096L808.161 28.328ZM805.221 22.98C804.643 22.98 804.213 23.1387 803.933 23.456C803.653 23.764 803.49 24.1607 803.443 24.646H806.607C806.645 24.1327 806.551 23.7267 806.327 23.428C806.103 23.1293 805.735 22.98 805.221 22.98ZM814.934 26.158H812.148V29H810.188V21.65H812.148V24.38H814.934V21.65H816.894V29H814.934V26.158ZM823.656 26.158H820.87V29H818.91V21.65H820.87V24.38H823.656V21.65H825.616V29H823.656V26.158ZM829.593 27.362C829.77 27.3993 829.943 27.4273 830.111 27.446C830.288 27.4553 830.452 27.46 830.601 27.46C831.105 27.46 831.464 27.3807 831.679 27.222C831.894 27.0633 832.001 26.8067 832.001 26.452C832.001 26.1533 831.894 25.9247 831.679 25.766C831.464 25.598 831.124 25.514 830.657 25.514C830.265 25.514 829.91 25.556 829.593 25.64V27.362ZM829.593 24.282C829.882 24.2353 830.167 24.2027 830.447 24.184C830.736 24.1653 830.979 24.156 831.175 24.156C831.707 24.156 832.15 24.2167 832.505 24.338C832.869 24.45 833.163 24.6087 833.387 24.814C833.611 25.0193 833.77 25.262 833.863 25.542C833.966 25.822 834.017 26.1207 834.017 26.438C834.017 26.8767 833.952 27.264 833.821 27.6C833.7 27.9267 833.494 28.202 833.205 28.426C832.925 28.65 832.556 28.818 832.099 28.93C831.651 29.042 831.1 29.098 830.447 29.098C829.831 29.098 829.299 29.0887 828.851 29.07C828.412 29.0607 828.006 29.042 827.633 29.014V21.65H829.593V24.282ZM835.067 21.65H837.027V29H835.067V21.65ZM845.979 25.738L846.119 24.142H845.895L845.237 25.402V25.388L843.753 27.67H843.067L841.429 25.388V25.402L840.771 24.142H840.575L840.785 25.724V29H839.049V21.65H841.107L842.941 24.394V24.38L843.431 25.318H843.585L844.075 24.352V24.366L845.783 21.65H847.841V29H845.979V25.738ZM853.313 25.332C853.313 24.1187 853.635 23.1667 854.279 22.476C854.923 21.7853 855.842 21.44 857.037 21.44C857.662 21.44 858.208 21.538 858.675 21.734C859.141 21.93 859.529 22.2053 859.837 22.56C860.145 22.9053 860.373 23.316 860.523 23.792C860.681 24.2587 860.761 24.772 860.761 25.332C860.761 25.9293 860.677 26.4707 860.509 26.956C860.341 27.432 860.098 27.838 859.781 28.174C859.463 28.51 859.071 28.7667 858.605 28.944C858.147 29.1213 857.625 29.21 857.037 29.21C856.402 29.21 855.851 29.112 855.385 28.916C854.918 28.72 854.531 28.4493 854.223 28.104C853.915 27.7493 853.686 27.3387 853.537 26.872C853.387 26.396 853.313 25.8827 853.313 25.332ZM855.329 25.332C855.329 25.64 855.361 25.9293 855.427 26.2C855.492 26.4707 855.59 26.7087 855.721 26.914C855.861 27.11 856.038 27.2687 856.253 27.39C856.467 27.5113 856.729 27.572 857.037 27.572C858.175 27.572 858.745 26.8253 858.745 25.332C858.745 25.0053 858.712 24.7067 858.647 24.436C858.591 24.156 858.493 23.918 858.353 23.722C858.222 23.5167 858.045 23.358 857.821 23.246C857.606 23.134 857.345 23.078 857.037 23.078C856.505 23.078 856.085 23.2553 855.777 23.61C855.478 23.9647 855.329 24.5387 855.329 25.332ZM866.042 29.056C865.799 29.1307 865.58 29.1727 865.384 29.182C865.188 29.2007 865.01 29.21 864.852 29.21C863.881 29.21 863.139 28.8927 862.626 28.258C862.112 27.614 861.856 26.6387 861.856 25.332C861.856 24.0907 862.14 23.1433 862.71 22.49C863.279 21.8367 864.1 21.51 865.174 21.51C865.304 21.51 865.44 21.5147 865.58 21.524C865.72 21.5333 865.874 21.552 866.042 21.58V19.2H867.932V21.594C868.174 21.5567 868.375 21.5333 868.534 21.524C868.702 21.5147 868.851 21.51 868.982 21.51C870.027 21.51 870.811 21.7947 871.334 22.364C871.856 22.9333 872.118 23.8713 872.118 25.178C872.118 25.7847 872.048 26.34 871.908 26.844C871.768 27.3387 871.562 27.7633 871.292 28.118C871.021 28.4633 870.685 28.734 870.284 28.93C869.882 29.1167 869.42 29.21 868.898 29.21C868.804 29.21 868.655 29.196 868.45 29.168C868.254 29.1493 868.081 29.1167 867.932 29.07V31.8H866.042V29.056ZM867.848 27.614C867.969 27.642 868.086 27.6607 868.198 27.67C868.319 27.67 868.454 27.67 868.604 27.67C869.136 27.67 869.528 27.4787 869.78 27.096C870.032 26.704 870.158 26.0647 870.158 25.178C870.158 24.422 870.036 23.876 869.794 23.54C869.551 23.204 869.126 23.036 868.52 23.036C868.398 23.036 868.286 23.0453 868.184 23.064C868.09 23.0733 867.978 23.0967 867.848 23.134V27.614ZM866.126 23.12C865.967 23.0827 865.841 23.0593 865.748 23.05C865.654 23.0407 865.542 23.036 865.412 23.036C864.889 23.036 864.492 23.2133 864.222 23.568C863.951 23.9133 863.816 24.5013 863.816 25.332C863.816 26.06 863.942 26.634 864.194 27.054C864.446 27.4647 864.838 27.67 865.37 27.67C865.603 27.67 865.855 27.6373 866.126 27.572V23.12ZM878.497 25.682L878.581 24.436L877.699 25.668L874.801 29H873.625V21.65H875.585V25.108L875.515 26.116H875.683C875.795 25.9573 875.907 25.7893 876.019 25.612C876.141 25.4347 876.257 25.2667 876.369 25.108L879.281 21.65H880.457V29H878.497V25.682ZM888.015 28.552C887.698 28.7667 887.315 28.93 886.867 29.042C886.428 29.154 885.971 29.21 885.495 29.21C884.86 29.21 884.324 29.1167 883.885 28.93C883.456 28.7433 883.101 28.4773 882.821 28.132C882.55 27.7867 882.354 27.3807 882.233 26.914C882.112 26.438 882.051 25.9107 882.051 25.332C882.051 24.1093 882.35 23.1573 882.947 22.476C883.554 21.7853 884.431 21.44 885.579 21.44C886.139 21.44 886.596 21.4867 886.951 21.58C887.315 21.664 887.637 21.776 887.917 21.916L887.441 23.484C887.198 23.3813 886.956 23.3067 886.713 23.26C886.48 23.204 886.204 23.176 885.887 23.176C885.299 23.176 884.846 23.3487 884.529 23.694C884.221 24.03 884.067 24.576 884.067 25.332C884.067 25.6307 884.104 25.9107 884.179 26.172C884.254 26.424 884.37 26.648 884.529 26.844C884.688 27.04 884.888 27.194 885.131 27.306C885.374 27.418 885.658 27.474 885.985 27.474C886.377 27.474 886.685 27.4413 886.909 27.376C887.142 27.3013 887.362 27.2033 887.567 27.082L888.015 28.552ZM889.401 22.154C889.821 21.9673 890.334 21.8133 890.941 21.692C891.557 21.5707 892.192 21.51 892.845 21.51C893.358 21.51 893.788 21.5707 894.133 21.692C894.488 21.8133 894.768 21.9907 894.973 22.224C895.178 22.448 895.323 22.7233 895.407 23.05C895.5 23.3673 895.547 23.722 895.547 24.114C895.547 24.59 895.528 25.0613 895.491 25.528C895.454 25.9947 895.435 26.4893 895.435 27.012C895.435 27.3667 895.458 27.712 895.505 28.048C895.552 28.384 895.626 28.706 895.729 29.014H894.133L893.811 27.922H893.643C893.4 28.2487 893.092 28.5287 892.719 28.762C892.346 28.9953 891.865 29.112 891.277 29.112C890.922 29.112 890.596 29.0607 890.297 28.958C890.008 28.8553 889.756 28.7107 889.541 28.524C889.336 28.328 889.172 28.0993 889.051 27.838C888.939 27.5767 888.883 27.292 888.883 26.984C888.883 26.1533 889.158 25.528 889.709 25.108C890.269 24.6787 891.114 24.464 892.243 24.464C892.504 24.464 892.766 24.4873 893.027 24.534C893.288 24.5713 893.47 24.5993 893.573 24.618C893.601 24.422 893.615 24.254 893.615 24.114C893.615 23.7593 893.526 23.498 893.349 23.33C893.172 23.162 892.84 23.078 892.355 23.078C891.907 23.078 891.468 23.134 891.039 23.246C890.619 23.3487 890.246 23.4793 889.919 23.638L889.401 22.154ZM891.963 27.544C892.402 27.544 892.752 27.4413 893.013 27.236C893.274 27.0307 893.466 26.816 893.587 26.592V25.752C893.54 25.7333 893.466 25.7147 893.363 25.696C893.27 25.6773 893.162 25.6587 893.041 25.64C892.929 25.6213 892.812 25.6073 892.691 25.598C892.579 25.5887 892.476 25.584 892.383 25.584C891.879 25.584 891.506 25.6773 891.263 25.864C891.02 26.0413 890.899 26.2653 890.899 26.536C890.899 26.872 890.992 27.124 891.179 27.292C891.375 27.46 891.636 27.544 891.963 27.544ZM904.508 25.738L904.648 24.142H904.424L903.766 25.402V25.388L902.282 27.67H901.596L899.958 25.388V25.402L899.3 24.142H899.104L899.314 25.724V29H897.578V21.65H899.636L901.47 24.394V24.38L901.96 25.318H902.114L902.604 24.352V24.366L904.312 21.65H906.37V29H904.508V25.738Z" fill="#333333"/>
<rect x="967" y="1" width="231" height="46" rx="23" stroke="#EAEAEA" stroke-width="2"/>
<path d="M1019.46 21.02H1016.35V29H1014.28V21.02H1011.17V19.2H1019.46V21.02ZM1018.27 25.332C1018.27 24.1187 1018.6 23.1667 1019.24 22.476C1019.88 21.7853 1020.8 21.44 1022 21.44C1022.62 21.44 1023.17 21.538 1023.64 21.734C1024.1 21.93 1024.49 22.2053 1024.8 22.56C1025.11 22.9053 1025.33 23.316 1025.48 23.792C1025.64 24.2587 1025.72 24.772 1025.72 25.332C1025.72 25.9293 1025.64 26.4707 1025.47 26.956C1025.3 27.432 1025.06 27.838 1024.74 28.174C1024.42 28.51 1024.03 28.7667 1023.57 28.944C1023.11 29.1213 1022.59 29.21 1022 29.21C1021.36 29.21 1020.81 29.112 1020.35 28.916C1019.88 28.72 1019.49 28.4493 1019.18 28.104C1018.88 27.7493 1018.65 27.3387 1018.5 26.872C1018.35 26.396 1018.27 25.8827 1018.27 25.332ZM1020.29 25.332C1020.29 25.64 1020.32 25.9293 1020.39 26.2C1020.45 26.4707 1020.55 26.7087 1020.68 26.914C1020.82 27.11 1021 27.2687 1021.21 27.39C1021.43 27.5113 1021.69 27.572 1022 27.572C1023.14 27.572 1023.71 26.8253 1023.71 25.332C1023.71 25.0053 1023.67 24.7067 1023.61 24.436C1023.55 24.156 1023.45 23.918 1023.31 23.722C1023.18 23.5167 1023.01 23.358 1022.78 23.246C1022.57 23.134 1022.31 23.078 1022 23.078C1021.47 23.078 1021.05 23.2553 1020.74 23.61C1020.44 23.9647 1020.29 24.5387 1020.29 25.332ZM1027.32 21.65H1028.72L1028.96 22.56H1029.13C1029.42 22.1867 1029.75 21.9067 1030.13 21.72C1030.52 21.5333 1030.97 21.44 1031.48 21.44C1032.47 21.44 1033.21 21.7387 1033.7 22.336C1034.2 22.924 1034.45 23.862 1034.45 25.15C1034.45 25.766 1034.37 26.326 1034.21 26.83C1034.05 27.3247 1033.82 27.754 1033.51 28.118C1033.2 28.4727 1032.82 28.748 1032.36 28.944C1031.91 29.1307 1031.39 29.224 1030.81 29.224C1030.49 29.224 1030.21 29.1913 1029.98 29.126C1029.75 29.07 1029.51 28.9907 1029.28 28.888V31.786H1027.32V21.65ZM1030.88 23.078C1030.43 23.078 1030.08 23.1807 1029.84 23.386C1029.6 23.582 1029.41 23.89 1029.28 24.31V27.166C1029.44 27.2967 1029.62 27.3993 1029.81 27.474C1030.01 27.5487 1030.26 27.586 1030.55 27.586C1031.19 27.586 1031.66 27.39 1031.97 26.998C1032.28 26.5967 1032.43 25.962 1032.43 25.094C1032.43 24.4687 1032.31 23.9787 1032.07 23.624C1031.83 23.26 1031.44 23.078 1030.88 23.078ZM1041.17 23.386H1038.12V29H1036.04V21.65H1041.17V23.386ZM1041.64 25.332C1041.64 24.1187 1041.96 23.1667 1042.6 22.476C1043.25 21.7853 1044.17 21.44 1045.36 21.44C1045.99 21.44 1046.53 21.538 1047 21.734C1047.47 21.93 1047.85 22.2053 1048.16 22.56C1048.47 22.9053 1048.7 23.316 1048.85 23.792C1049.01 24.2587 1049.09 24.772 1049.09 25.332C1049.09 25.9293 1049 26.4707 1048.83 26.956C1048.67 27.432 1048.42 27.838 1048.11 28.174C1047.79 28.51 1047.4 28.7667 1046.93 28.944C1046.47 29.1213 1045.95 29.21 1045.36 29.21C1044.73 29.21 1044.18 29.112 1043.71 28.916C1043.24 28.72 1042.86 28.4493 1042.55 28.104C1042.24 27.7493 1042.01 27.3387 1041.86 26.872C1041.71 26.396 1041.64 25.8827 1041.64 25.332ZM1043.65 25.332C1043.65 25.64 1043.69 25.9293 1043.75 26.2C1043.82 26.4707 1043.92 26.7087 1044.05 26.914C1044.19 27.11 1044.36 27.2687 1044.58 27.39C1044.79 27.5113 1045.05 27.572 1045.36 27.572C1046.5 27.572 1047.07 26.8253 1047.07 25.332C1047.07 25.0053 1047.04 24.7067 1046.97 24.436C1046.92 24.156 1046.82 23.918 1046.68 23.722C1046.55 23.5167 1046.37 23.358 1046.15 23.246C1045.93 23.134 1045.67 23.078 1045.36 23.078C1044.83 23.078 1044.41 23.2553 1044.1 23.61C1043.8 23.9647 1043.65 24.5387 1043.65 25.332ZM1050.69 21.65C1051.07 21.622 1051.52 21.594 1052.03 21.566C1052.54 21.538 1053.11 21.524 1053.72 21.524C1054.88 21.524 1055.7 21.678 1056.19 21.986C1056.67 22.294 1056.92 22.7513 1056.92 23.358C1056.92 23.7033 1056.81 24.0347 1056.59 24.352C1056.38 24.6693 1056.04 24.9073 1055.59 25.066V25.178C1056.16 25.2993 1056.58 25.5093 1056.85 25.808C1057.12 26.0973 1057.25 26.4753 1057.25 26.942C1057.25 27.67 1056.94 28.216 1056.33 28.58C1055.71 28.944 1054.73 29.126 1053.39 29.126C1052.95 29.126 1052.48 29.112 1051.99 29.084C1051.5 29.0653 1051.07 29.0373 1050.69 29V21.65ZM1052.6 27.502C1052.79 27.5393 1052.95 27.5627 1053.08 27.572C1053.22 27.5813 1053.38 27.586 1053.57 27.586C1054.2 27.586 1054.64 27.5113 1054.89 27.362C1055.14 27.2033 1055.26 26.9793 1055.26 26.69C1055.26 26.4287 1055.16 26.2187 1054.94 26.06C1054.73 25.892 1054.34 25.808 1053.77 25.808H1052.6V27.502ZM1053.79 24.646C1054.17 24.646 1054.47 24.576 1054.7 24.436C1054.94 24.2867 1055.05 24.0953 1055.05 23.862C1055.05 23.61 1054.95 23.414 1054.75 23.274C1054.55 23.134 1054.19 23.064 1053.67 23.064C1053.48 23.064 1053.33 23.0687 1053.21 23.078C1053.08 23.0873 1052.97 23.0967 1052.87 23.106C1052.83 23.106 1052.79 23.1107 1052.73 23.12C1052.67 23.12 1052.63 23.12 1052.6 23.12V24.646H1053.79ZM1060.73 27.362C1060.9 27.3993 1061.08 27.4273 1061.24 27.446C1061.42 27.4553 1061.58 27.46 1061.73 27.46C1062.24 27.46 1062.6 27.3807 1062.81 27.222C1063.03 27.0633 1063.13 26.8067 1063.13 26.452C1063.13 26.1533 1063.03 25.9247 1062.81 25.766C1062.6 25.598 1062.26 25.514 1061.79 25.514C1061.4 25.514 1061.04 25.556 1060.73 25.64V27.362ZM1060.73 24.282C1061.02 24.2353 1061.3 24.2027 1061.58 24.184C1061.87 24.1653 1062.11 24.156 1062.31 24.156C1062.84 24.156 1063.28 24.2167 1063.64 24.338C1064 24.45 1064.3 24.6087 1064.52 24.814C1064.74 25.0193 1064.9 25.262 1065 25.542C1065.1 25.822 1065.15 26.1207 1065.15 26.438C1065.15 26.8767 1065.08 27.264 1064.95 27.6C1064.83 27.9267 1064.63 28.202 1064.34 28.426C1064.06 28.65 1063.69 28.818 1063.23 28.93C1062.78 29.042 1062.23 29.098 1061.58 29.098C1060.96 29.098 1060.43 29.0887 1059.98 29.07C1059.55 29.0607 1059.14 29.042 1058.77 29.014V21.65H1060.73V24.282ZM1066.2 21.65H1068.16V29H1066.2V21.65ZM1077.11 25.738L1077.25 24.142H1077.03L1076.37 25.402V25.388L1074.89 27.67H1074.2L1072.56 25.388V25.402L1071.9 24.142H1071.71L1071.92 25.724V29H1070.18V21.65H1072.24L1074.07 24.394V24.38L1074.56 25.318H1074.72L1075.21 24.352V24.366L1076.92 21.65H1078.97V29H1077.11V25.738ZM1087.51 25.948H1086.83V29H1084.87V21.65H1086.83V24.828L1087.46 24.562L1089.33 21.65H1091.45C1091.12 22.098 1090.8 22.5507 1090.48 23.008C1090.17 23.456 1089.86 23.904 1089.54 24.352L1088.62 24.968L1089.6 25.57C1089.95 26.1487 1090.31 26.7227 1090.68 27.292C1091.04 27.852 1091.4 28.4213 1091.75 29H1089.49L1087.51 25.948ZM1092.27 25.332C1092.27 24.1187 1092.59 23.1667 1093.23 22.476C1093.88 21.7853 1094.8 21.44 1095.99 21.44C1096.62 21.44 1097.16 21.538 1097.63 21.734C1098.09 21.93 1098.48 22.2053 1098.79 22.56C1099.1 22.9053 1099.33 23.316 1099.48 23.792C1099.63 24.2587 1099.71 24.772 1099.71 25.332C1099.71 25.9293 1099.63 26.4707 1099.46 26.956C1099.29 27.432 1099.05 27.838 1098.73 28.174C1098.42 28.51 1098.02 28.7667 1097.56 28.944C1097.1 29.1213 1096.58 29.21 1095.99 29.21C1095.36 29.21 1094.8 29.112 1094.34 28.916C1093.87 28.72 1093.48 28.4493 1093.18 28.104C1092.87 27.7493 1092.64 27.3387 1092.49 26.872C1092.34 26.396 1092.27 25.8827 1092.27 25.332ZM1094.28 25.332C1094.28 25.64 1094.31 25.9293 1094.38 26.2C1094.45 26.4707 1094.54 26.7087 1094.67 26.914C1094.81 27.11 1094.99 27.2687 1095.21 27.39C1095.42 27.5113 1095.68 27.572 1095.99 27.572C1097.13 27.572 1097.7 26.8253 1097.7 25.332C1097.7 25.0053 1097.67 24.7067 1097.6 24.436C1097.54 24.156 1097.45 23.918 1097.31 23.722C1097.18 23.5167 1097 23.358 1096.77 23.246C1096.56 23.134 1096.3 23.078 1095.99 23.078C1095.46 23.078 1095.04 23.2553 1094.73 23.61C1094.43 23.9647 1094.28 24.5387 1094.28 25.332ZM1108.24 25.738L1108.38 24.142H1108.16L1107.5 25.402V25.388L1106.02 27.67H1105.33L1103.69 25.388V25.402L1103.03 24.142H1102.84L1103.05 25.724V29H1101.31V21.65H1103.37L1105.2 24.394V24.38L1105.69 25.318H1105.85L1106.34 24.352V24.366L1108.05 21.65H1110.1V29H1108.24V25.738ZM1116.79 23.386H1114.09V29H1112.13V21.65H1118.75V29H1116.79V23.386ZM1120.7 22.154C1121.12 21.9673 1121.63 21.8133 1122.24 21.692C1122.85 21.5707 1123.49 21.51 1124.14 21.51C1124.66 21.51 1125.08 21.5707 1125.43 21.692C1125.78 21.8133 1126.06 21.9907 1126.27 22.224C1126.48 22.448 1126.62 22.7233 1126.7 23.05C1126.8 23.3673 1126.84 23.722 1126.84 24.114C1126.84 24.59 1126.83 25.0613 1126.79 25.528C1126.75 25.9947 1126.73 26.4893 1126.73 27.012C1126.73 27.3667 1126.76 27.712 1126.8 28.048C1126.85 28.384 1126.92 28.706 1127.03 29.014H1125.43L1125.11 27.922H1124.94C1124.7 28.2487 1124.39 28.5287 1124.02 28.762C1123.64 28.9953 1123.16 29.112 1122.57 29.112C1122.22 29.112 1121.89 29.0607 1121.59 28.958C1121.3 28.8553 1121.05 28.7107 1120.84 28.524C1120.63 28.328 1120.47 28.0993 1120.35 27.838C1120.24 27.5767 1120.18 27.292 1120.18 26.984C1120.18 26.1533 1120.46 25.528 1121.01 25.108C1121.57 24.6787 1122.41 24.464 1123.54 24.464C1123.8 24.464 1124.06 24.4873 1124.32 24.534C1124.59 24.5713 1124.77 24.5993 1124.87 24.618C1124.9 24.422 1124.91 24.254 1124.91 24.114C1124.91 23.7593 1124.82 23.498 1124.65 23.33C1124.47 23.162 1124.14 23.078 1123.65 23.078C1123.2 23.078 1122.77 23.134 1122.34 23.246C1121.92 23.3487 1121.54 23.4793 1121.22 23.638L1120.7 22.154ZM1123.26 27.544C1123.7 27.544 1124.05 27.4413 1124.31 27.236C1124.57 27.0307 1124.76 26.816 1124.88 26.592V25.752C1124.84 25.7333 1124.76 25.7147 1124.66 25.696C1124.57 25.6773 1124.46 25.6587 1124.34 25.64C1124.23 25.6213 1124.11 25.6073 1123.99 25.598C1123.88 25.5887 1123.77 25.584 1123.68 25.584C1123.18 25.584 1122.8 25.6773 1122.56 25.864C1122.32 26.0413 1122.2 26.2653 1122.2 26.536C1122.2 26.872 1122.29 27.124 1122.48 27.292C1122.67 27.46 1122.93 27.544 1123.26 27.544ZM1133.62 26.158H1130.84V29H1128.88V21.65H1130.84V24.38H1133.62V21.65H1135.58V29H1133.62V26.158ZM1142.47 25.682L1142.55 24.436L1141.67 25.668L1138.77 29H1137.6V21.65H1139.56V25.108L1139.49 26.116H1139.66C1139.77 25.9573 1139.88 25.7893 1139.99 25.612C1140.11 25.4347 1140.23 25.2667 1140.34 25.108L1143.25 21.65H1144.43V29H1142.47V25.682ZM1150.71 26.494L1149.61 26.676L1148.08 29H1145.69L1147.27 26.746L1148.1 26.41C1147.73 26.3727 1147.43 26.2793 1147.19 26.13C1146.94 25.9807 1146.75 25.7987 1146.6 25.584C1146.45 25.36 1146.34 25.1173 1146.28 24.856C1146.22 24.5853 1146.19 24.31 1146.19 24.03C1146.19 23.1433 1146.51 22.49 1147.14 22.07C1147.79 21.65 1148.78 21.44 1150.11 21.44C1150.59 21.44 1151.05 21.4633 1151.5 21.51C1151.95 21.5567 1152.34 21.608 1152.67 21.664V29H1150.71V26.494ZM1150.71 25.262V23.232C1150.59 23.1853 1150.45 23.148 1150.29 23.12C1150.13 23.092 1149.98 23.078 1149.83 23.078C1149.31 23.078 1148.91 23.1713 1148.64 23.358C1148.37 23.5353 1148.24 23.82 1148.24 24.212C1148.24 24.5947 1148.38 24.87 1148.68 25.038C1148.99 25.206 1149.45 25.29 1150.06 25.29L1150.71 25.262ZM1161.62 25.738L1161.76 24.142H1161.53L1160.88 25.402V25.388L1159.39 27.67H1158.71L1157.07 25.388V25.402L1156.41 24.142H1156.21L1156.42 25.724V29H1154.69V21.65H1156.75L1158.58 24.394V24.38L1159.07 25.318H1159.22L1159.71 24.352V24.366L1161.42 21.65H1163.48V29H1161.62V25.738Z" fill="#333333"/>
<rect width="170" height="48" rx="24" fill="url(#paint0_linear)"/>
<path d="M40.91 18.2H47.462V20.02H42.982V21.91C43.1593 21.882 43.3693 21.8587 43.612 21.84C43.8547 21.812 44.0973 21.798 44.34 21.798C44.9093 21.798 45.432 21.8493 45.908 21.952C46.384 22.0547 46.7947 22.2273 47.14 22.47C47.4853 22.7033 47.7513 23.016 47.938 23.408C48.134 23.7907 48.232 24.2667 48.232 24.836C48.232 25.3867 48.1293 25.8673 47.924 26.278C47.728 26.6887 47.4433 27.034 47.07 27.314C46.6967 27.5847 46.2487 27.79 45.726 27.93C45.2033 28.07 44.62 28.14 43.976 28.14C43.808 28.14 43.5933 28.1353 43.332 28.126C43.0707 28.1167 42.7953 28.1027 42.506 28.084C42.226 28.0653 41.946 28.042 41.666 28.014C41.386 27.986 41.134 27.9487 40.91 27.902V18.2ZM44.144 26.46C44.4053 26.46 44.648 26.432 44.872 26.376C45.1053 26.32 45.306 26.236 45.474 26.124C45.6513 26.0027 45.7867 25.8487 45.88 25.662C45.9827 25.4753 46.034 25.2513 46.034 24.99C46.034 24.6727 45.978 24.416 45.866 24.22C45.754 24.0147 45.6 23.8607 45.404 23.758C45.2173 23.646 44.9933 23.5713 44.732 23.534C44.48 23.4967 44.214 23.478 43.934 23.478C43.794 23.478 43.6213 23.492 43.416 23.52C43.2107 23.5387 43.066 23.5573 42.982 23.576V26.39C43.094 26.418 43.262 26.4367 43.486 26.446C43.71 26.4553 43.9293 26.46 44.144 26.46ZM52.3503 24.724L52.6583 25.9H52.7983L53.0643 24.724L54.3103 20.65H56.3123L53.8763 27.3C53.671 27.8507 53.475 28.3453 53.2883 28.784C53.111 29.2227 52.915 29.596 52.7003 29.904C52.4856 30.212 52.243 30.4453 51.9723 30.604C51.711 30.772 51.3983 30.856 51.0343 30.856C50.7916 30.856 50.5583 30.8327 50.3343 30.786C50.1196 30.7487 49.933 30.688 49.7743 30.604L50.1803 29.092C50.3203 29.1387 50.465 29.162 50.6143 29.162C50.745 29.162 50.871 29.148 50.9923 29.12C51.1136 29.092 51.2256 29.036 51.3283 28.952C51.431 28.8773 51.5243 28.7653 51.6083 28.616C51.7016 28.476 51.781 28.2847 51.8463 28.042L48.4863 20.65H50.8523L52.3503 24.724ZM58.9165 24.234L56.5085 20.65H58.8885L59.8825 22.078L59.8685 22.064L60.4425 23.366L61.0025 22.064L60.9885 22.078L62.0525 20.65H64.2085L61.7865 24.178L64.3625 28H62.0385L60.8485 26.348L60.8625 26.362L60.2745 25.074L59.6585 26.362L59.6725 26.348L58.4685 28H56.3125L58.9165 24.234ZM70.5773 22.386H67.5253V28H65.4533V20.65H70.5773V22.386ZM71.522 21.154C71.942 20.9673 72.4553 20.8133 73.062 20.692C73.678 20.5707 74.3127 20.51 74.966 20.51C75.4793 20.51 75.9087 20.5707 76.254 20.692C76.6087 20.8133 76.8887 20.9907 77.094 21.224C77.2993 21.448 77.444 21.7233 77.528 22.05C77.6213 22.3673 77.668 22.722 77.668 23.114C77.668 23.59 77.6493 24.0613 77.612 24.528C77.5747 24.9947 77.556 25.4893 77.556 26.012C77.556 26.3667 77.5793 26.712 77.626 27.048C77.6727 27.384 77.7473 27.706 77.85 28.014H76.254L75.932 26.922H75.764C75.5213 27.2487 75.2133 27.5287 74.84 27.762C74.4667 27.9953 73.986 28.112 73.398 28.112C73.0433 28.112 72.7167 28.0607 72.418 27.958C72.1287 27.8553 71.8767 27.7107 71.662 27.524C71.4567 27.328 71.2933 27.0993 71.172 26.838C71.06 26.5767 71.004 26.292 71.004 25.984C71.004 25.1533 71.2793 24.528 71.83 24.108C72.39 23.6787 73.2347 23.464 74.364 23.464C74.6253 23.464 74.8867 23.4873 75.148 23.534C75.4093 23.5713 75.5913 23.5993 75.694 23.618C75.722 23.422 75.736 23.254 75.736 23.114C75.736 22.7593 75.6473 22.498 75.47 22.33C75.2927 22.162 74.9613 22.078 74.476 22.078C74.028 22.078 73.5893 22.134 73.16 22.246C72.74 22.3487 72.3667 22.4793 72.04 22.638L71.522 21.154ZM74.084 26.544C74.5227 26.544 74.8727 26.4413 75.134 26.236C75.3953 26.0307 75.5867 25.816 75.708 25.592V24.752C75.6613 24.7333 75.5867 24.7147 75.484 24.696C75.3907 24.6773 75.2833 24.6587 75.162 24.64C75.05 24.6213 74.9333 24.6073 74.812 24.598C74.7 24.5887 74.5973 24.584 74.504 24.584C74 24.584 73.6267 24.6773 73.384 24.864C73.1413 25.0413 73.02 25.2653 73.02 25.536C73.02 25.872 73.1133 26.124 73.3 26.292C73.496 26.46 73.7573 26.544 74.084 26.544ZM84.1094 22.386H82.3874C82.3594 23.17 82.2987 23.9073 82.2054 24.598C82.1214 25.2887 81.9814 25.8953 81.7854 26.418C81.5894 26.9313 81.3281 27.3373 81.0014 27.636C80.6841 27.9347 80.2734 28.084 79.7694 28.084C79.1814 28.084 78.7661 28.0187 78.5234 27.888L78.8034 26.152C78.9621 26.1987 79.1067 26.222 79.2374 26.222C79.4614 26.222 79.6574 26.1427 79.8254 25.984C79.9934 25.8253 80.1334 25.5407 80.2454 25.13C80.3574 24.71 80.4461 24.1407 80.5114 23.422C80.5861 22.7033 80.6421 21.7793 80.6794 20.65H86.0694V28H84.1094V22.386ZM93.7923 22.386H91.5103V28H89.4663V22.386H87.1843V20.65H93.7923V22.386ZM101.079 27.328C100.762 27.5707 100.328 27.7807 99.7772 27.958C99.2358 28.126 98.6525 28.21 98.0272 28.21C96.7672 28.21 95.8432 27.8647 95.2552 27.174C94.6672 26.4833 94.3732 25.536 94.3732 24.332C94.3732 23.0533 94.7045 22.0873 95.3672 21.434C96.0298 20.7713 96.9632 20.44 98.1672 20.44C98.5592 20.44 98.9465 20.4913 99.3292 20.594C99.7118 20.6873 100.052 20.8507 100.351 21.084C100.65 21.308 100.888 21.616 101.065 22.008C101.252 22.3907 101.345 22.8667 101.345 23.436C101.345 23.632 101.331 23.8467 101.303 24.08C101.284 24.3133 101.247 24.556 101.191 24.808H96.2912C96.3378 25.4427 96.5198 25.914 96.8372 26.222C97.1638 26.5207 97.6912 26.67 98.4192 26.67C98.8578 26.67 99.2498 26.6093 99.5952 26.488C99.9498 26.3573 100.22 26.2267 100.407 26.096L101.079 27.328ZM98.1392 21.98C97.5605 21.98 97.1312 22.1387 96.8512 22.456C96.5712 22.764 96.4078 23.1607 96.3612 23.646H99.5252C99.5625 23.1327 99.4692 22.7267 99.2452 22.428C99.0212 22.1293 98.6525 21.98 98.1392 21.98ZM103.106 20.65H104.506L104.744 21.56H104.912C105.201 21.1867 105.537 20.9067 105.92 20.72C106.302 20.5333 106.75 20.44 107.264 20.44C108.253 20.44 108.995 20.7387 109.49 21.336C109.984 21.924 110.232 22.862 110.232 24.15C110.232 24.766 110.152 25.326 109.994 25.83C109.835 26.3247 109.602 26.754 109.294 27.118C108.986 27.4727 108.603 27.748 108.146 27.944C107.698 28.1307 107.18 28.224 106.592 28.224C106.274 28.224 105.999 28.1913 105.766 28.126C105.532 28.07 105.299 27.9907 105.066 27.888V30.786H103.106V20.65ZM106.662 22.078C106.214 22.078 105.868 22.1807 105.626 22.386C105.383 22.582 105.196 22.89 105.066 23.31V26.166C105.224 26.2967 105.402 26.3993 105.598 26.474C105.794 26.5487 106.041 26.586 106.34 26.586C106.974 26.586 107.446 26.39 107.754 25.998C108.062 25.5967 108.216 24.962 108.216 24.094C108.216 23.4687 108.094 22.9787 107.852 22.624C107.618 22.26 107.222 22.078 106.662 22.078ZM111.758 21.154C112.178 20.9673 112.692 20.8133 113.298 20.692C113.914 20.5707 114.549 20.51 115.202 20.51C115.716 20.51 116.145 20.5707 116.49 20.692C116.845 20.8133 117.125 20.9907 117.33 21.224C117.536 21.448 117.68 21.7233 117.764 22.05C117.858 22.3673 117.904 22.722 117.904 23.114C117.904 23.59 117.886 24.0613 117.848 24.528C117.811 24.9947 117.792 25.4893 117.792 26.012C117.792 26.3667 117.816 26.712 117.862 27.048C117.909 27.384 117.984 27.706 118.086 28.014H116.49L116.168 26.922H116C115.758 27.2487 115.45 27.5287 115.076 27.762C114.703 27.9953 114.222 28.112 113.634 28.112C113.28 28.112 112.953 28.0607 112.654 27.958C112.365 27.8553 112.113 27.7107 111.898 27.524C111.693 27.328 111.53 27.0993 111.408 26.838C111.296 26.5767 111.24 26.292 111.24 25.984C111.24 25.1533 111.516 24.528 112.066 24.108C112.626 23.6787 113.471 23.464 114.6 23.464C114.862 23.464 115.123 23.4873 115.384 23.534C115.646 23.5713 115.828 23.5993 115.93 23.618C115.958 23.422 115.972 23.254 115.972 23.114C115.972 22.7593 115.884 22.498 115.706 22.33C115.529 22.162 115.198 22.078 114.712 22.078C114.264 22.078 113.826 22.134 113.396 22.246C112.976 22.3487 112.603 22.4793 112.276 22.638L111.758 21.154ZM114.32 26.544C114.759 26.544 115.109 26.4413 115.37 26.236C115.632 26.0307 115.823 25.816 115.944 25.592V24.752C115.898 24.7333 115.823 24.7147 115.72 24.696C115.627 24.6773 115.52 24.6587 115.398 24.64C115.286 24.6213 115.17 24.6073 115.048 24.598C114.936 24.5887 114.834 24.584 114.74 24.584C114.236 24.584 113.863 24.6773 113.62 24.864C113.378 25.0413 113.256 25.2653 113.256 25.536C113.256 25.872 113.35 26.124 113.536 26.292C113.732 26.46 113.994 26.544 114.32 26.544ZM126.866 24.738L127.006 23.142H126.782L126.124 24.402V24.388L124.64 26.67H123.954L122.316 24.388V24.402L121.658 23.142H121.462L121.672 24.724V28H119.936V20.65H121.994L123.828 23.394V23.38L124.318 24.318H124.472L124.962 23.352V23.366L126.67 20.65H128.728V28H126.866V24.738Z" fill="white"/>
<defs>
<linearGradient id="paint0_linear" x1="85" y1="0" x2="85" y2="48" gradientUnits="userSpaceOnUse">
<stop stop-color="#F76201"/>
<stop offset="1" stop-color="#FF4D00"/>
</linearGradient>
</defs>
</svg>
