<svg width="496" height="333" viewBox="0 0 496 333" fill="none" xmlns="http://www.w3.org/2000/svg">
<path d="M30.0943 307.866C30.0943 307.866 -31.7444 105.713 79.8094 98.1851C191.363 90.6568 472.493 315.192 461.698 327.221C459.243 329.955 45.5692 328.723 45.5692 328.723L30.0943 307.866Z" fill="#EFEEEE"/>
<path d="M495.858 326.106C495.858 329.913 385.534 332.992 249.444 332.992C113.354 332.992 3.03629 329.913 3.03629 326.106C3.03629 322.3 113.354 319.228 249.444 319.228C385.534 319.228 495.858 322.307 495.858 326.106Z" fill="#C3C3C3"/>
<g clip-path="url(#clip0)">
<path d="M459.568 55.753L454.798 52.7268L421.636 112.126L388.435 52.7268L383.664 55.753L418.377 117.907L383.664 180.06L388.435 183.125L421.636 123.726L454.798 183.125L459.568 180.06L424.855 117.907L459.568 55.753Z" fill="#353535"/>
<path d="M459.568 186.151L454.798 183.125L421.636 242.523L388.435 183.125L383.664 186.151L418.377 248.304L383.664 310.458L388.435 313.484L421.636 254.085L454.798 313.484L459.568 310.458L424.855 248.304L459.568 186.151Z" fill="#353535"/>
<path d="M388.784 47.0625H383.354V325.085H388.784V47.0625Z" fill="#878787"/>
<path d="M424.351 47.0625H418.92V325.085H424.351V47.0625Z" fill="#878787"/>
<path d="M459.879 47.0625H454.449V325.085H459.879V47.0625Z" fill="#878787"/>
<path d="M457.164 53.5024H386.107V61.0291H457.164V53.5024Z" fill="#878787"/>
<path d="M457.164 179.323H386.107V186.849H457.164V179.323Z" fill="#64739A"/>
<path d="M457.164 305.181H386.107V312.708H457.164V305.181Z" fill="#878787"/>
<path d="M399.993 202.213H342.24V258.664H399.993V202.213Z" fill="#C78B5B"/>
<path d="M416.011 202.213H358.763V258.664H416.011V202.213Z" fill="#E5BE84"/>
<path d="M391.925 202.213H382.81V216.724H391.925V202.213Z" fill="#EAD1B7"/>
<path d="M391.925 244.153H382.81V258.663H391.925V244.153Z" fill="#EAD1B7"/>
<path d="M411.978 247.102H397.123V256.064H411.978V247.102Z" fill="#F7EEE5"/>
<path d="M399.372 248.343H397.782V254.784H399.372V248.343Z" fill="#444248"/>
<path d="M400.846 248.343H400.303V254.784H400.846V248.343Z" fill="#444248"/>
<path d="M404.414 248.343H403.135V254.784H404.414V248.343Z" fill="#444248"/>
<path d="M402.281 248.343H401.505V254.784H402.281V248.343Z" fill="#444248"/>
<path d="M405.927 248.343H405.384V254.784H405.927V248.343Z" fill="#444248"/>
<path d="M408.991 248.343H407.905V254.784H408.991V248.343Z" fill="#444248"/>
<path d="M409.883 248.343H409.34V254.784H409.883V248.343Z" fill="#444248"/>
<path d="M407.44 248.343H406.703V254.784H407.44V248.343Z" fill="#444248"/>
<path d="M411.241 248.343H410.465V254.784H411.241V248.343Z" fill="#444248"/>
<g style="mix-blend-mode:multiply" opacity="0.32">
<path d="M415.973 228.673H342.24V258.663H415.973V228.673Z" fill="#C78B5B"/>
</g>
<path d="M415.779 15.5586H375.17V55.2484H415.779V15.5586Z" fill="#C78B5B"/>
<path d="M426.988 15.5586H386.767V55.2484H426.988V15.5586Z" fill="#E5BE84"/>
<path d="M410.116 15.5586H403.716V25.7623H410.116V15.5586Z" fill="#EAD1B7"/>
<path d="M410.116 45.0449H403.716V55.2487H410.116V45.0449Z" fill="#EAD1B7"/>
<path d="M424.157 47.1013H413.723V53.4253H424.157V47.1013Z" fill="#F7EEE5"/>
<path d="M415.352 47.9937H414.227V52.5329H415.352V47.9937Z" fill="#444248"/>
<path d="M416.399 47.9937H416.012V52.5329H416.399V47.9937Z" fill="#444248"/>
<path d="M418.882 47.9937H417.99V52.5329H418.882V47.9937Z" fill="#444248"/>
<path d="M417.369 47.9937H416.826V52.5329H417.369V47.9937Z" fill="#444248"/>
<path d="M419.968 47.9937H419.58V52.5329H419.968V47.9937Z" fill="#444248"/>
<path d="M422.062 47.9937H421.325V52.5329H422.062V47.9937Z" fill="#444248"/>
<path d="M422.722 47.9937H422.334V52.5329H422.722V47.9937Z" fill="#444248"/>
<path d="M420.976 47.9937H420.472V52.5329H420.976V47.9937Z" fill="#444248"/>
<path d="M423.652 47.9937H423.109V52.5329H423.652V47.9937Z" fill="#444248"/>
<path d="M430.013 234.726H389.404V258.664H430.013V234.726Z" fill="#C78B5B"/>
<path d="M441.223 234.726H401.001V258.664H441.223V234.726Z" fill="#E5BE84"/>
<path d="M426.523 234.726H415.74V241.826H426.523V234.726Z" fill="#EAD1B7"/>
<path d="M413.374 250.516H402.941V256.84H413.374V250.516Z" fill="#F7EEE5"/>
<path d="M404.531 251.408H403.406V255.948H404.531V251.408Z" fill="#444248"/>
<path d="M405.578 251.408H405.19V255.948H405.578V251.408Z" fill="#444248"/>
<path d="M408.06 251.408H407.168V255.948H408.06V251.408Z" fill="#444248"/>
<path d="M406.586 251.408H406.043V255.948H406.586V251.408Z" fill="#444248"/>
<path d="M409.146 251.408H408.758V255.948H409.146V251.408Z" fill="#444248"/>
<path d="M411.28 251.408H410.543V255.948H411.28V251.408Z" fill="#444248"/>
<path d="M411.939 251.408H411.551V255.948H411.939V251.408Z" fill="#444248"/>
<path d="M410.194 251.408H409.689V255.948H410.194V251.408Z" fill="#444248"/>
<path d="M412.87 251.408H412.327V255.948H412.87V251.408Z" fill="#444248"/>
<path d="M428.966 54.783H388.357V94.4728H428.966V54.783Z" fill="#C78B5B"/>
<path d="M440.175 54.783H399.954V94.4728H440.175V54.783Z" fill="#E5BE84"/>
<path d="M425.437 54.783H414.654V64.9867H425.437V54.783Z" fill="#EAD1B7"/>
<path d="M425.437 84.2688H414.654V94.4725H425.437V84.2688Z" fill="#EAD1B7"/>
<path d="M412.327 86.3252H401.893V92.6492H412.327V86.3252Z" fill="#F7EEE5"/>
<path d="M403.484 87.2175H402.359V91.7568H403.484V87.2175Z" fill="#444248"/>
<path d="M404.531 87.2175H404.143V91.7568H404.531V87.2175Z" fill="#444248"/>
<path d="M407.013 87.2175H406.121V91.7568H407.013V87.2175Z" fill="#444248"/>
<path d="M405.5 87.2175H404.958V91.7568H405.5V87.2175Z" fill="#444248"/>
<path d="M408.099 87.2175H407.711V91.7568H408.099V87.2175Z" fill="#444248"/>
<path d="M410.232 87.2175H409.495V91.7568H410.232V87.2175Z" fill="#444248"/>
<path d="M410.853 87.2175H410.465V91.7568H410.853V87.2175Z" fill="#444248"/>
<path d="M409.146 87.2175H408.642V91.7568H409.146V87.2175Z" fill="#444248"/>
<path d="M411.784 87.2175H411.241V91.7568H411.784V87.2175Z" fill="#444248"/>
<path d="M378.738 32.7068H315.594V94.4336H378.738V32.7068Z" fill="#C78B5B"/>
<path d="M396.231 32.7068H333.63V94.4336H396.231V32.7068Z" fill="#E5BE84"/>
<path d="M373.308 32.7068H356.513V48.575H373.308V32.7068Z" fill="#EAD1B7"/>
<path d="M373.308 78.5657H356.513V94.4338H373.308V78.5657Z" fill="#EAD1B7"/>
<path d="M352.868 81.7861H336.616V91.6019H352.868V81.7861Z" fill="#F7EEE5"/>
<path d="M339.06 83.1824H337.353V90.2435H339.06V83.1824Z" fill="#444248"/>
<path d="M340.766 83.1824H340.146V90.2435H340.766V83.1824Z" fill="#444248"/>
<path d="M344.606 83.1824H343.21V90.2435H344.606V83.1824Z" fill="#444248"/>
<path d="M342.279 83.1824H341.426V90.2435H342.279V83.1824Z" fill="#444248"/>
<path d="M346.274 83.1824H345.692V90.2435H346.274V83.1824Z" fill="#444248"/>
<path d="M349.61 83.1824H348.446V90.2435H349.61V83.1824Z" fill="#444248"/>
<path d="M350.579 83.1824H349.997V90.2435H350.579V83.1824Z" fill="#444248"/>
<path d="M347.942 83.1824H347.127V90.2435H347.942V83.1824Z" fill="#444248"/>
<path d="M352.053 83.1824H351.2V90.2435H352.053V83.1824Z" fill="#444248"/>
<path d="M355.001 209.391H304.579V258.663H355.001V209.391Z" fill="#C78B5B"/>
<path d="M368.925 209.391H318.968V258.663H368.925V209.391Z" fill="#E5BE84"/>
<path d="M347.942 209.391H339.99V222.077H347.942V209.391Z" fill="#EAD1B7"/>
<path d="M347.942 245.977H339.99V258.664H347.942V245.977Z" fill="#EAD1B7"/>
<path d="M365.395 248.538H352.441V256.375H365.395V248.538Z" fill="#F7EEE5"/>
<path d="M354.419 249.663H353.061V255.288H354.419V249.663Z" fill="#444248"/>
<path d="M355.738 249.663H355.272V255.288H355.738V249.663Z" fill="#444248"/>
<path d="M358.841 249.663H357.716V255.288H358.841V249.663Z" fill="#444248"/>
<path d="M356.979 249.663H356.281V255.288H356.979V249.663Z" fill="#444248"/>
<path d="M360.159 249.663H359.694V255.288H360.159V249.663Z" fill="#444248"/>
<path d="M362.836 249.663H361.905V255.288H362.836V249.663Z" fill="#444248"/>
<path d="M363.611 249.663H363.146V255.288H363.611V249.663Z" fill="#444248"/>
<path d="M361.439 249.663H360.819V255.288H361.439V249.663Z" fill="#444248"/>
<path d="M364.814 249.663H364.116V255.288H364.814V249.663Z" fill="#444248"/>
<path d="M294.494 218.973H253.885V258.663H294.494V218.973Z" fill="#C78B5B"/>
<path d="M305.703 218.973H265.482V258.663H305.703V218.973Z" fill="#E5BE84"/>
<path d="M291.003 218.973H280.221V229.177H291.003V218.973Z" fill="#EAD1B7"/>
<path d="M291.003 248.46H280.221V258.664H291.003V248.46Z" fill="#EAD1B7"/>
<path d="M277.855 250.516H267.421V256.84H277.855V250.516Z" fill="#F7EEE5"/>
<path d="M269.012 251.408H267.887V255.948H269.012V251.408Z" fill="#444248"/>
<path d="M270.059 251.408H269.671V255.948H270.059V251.408Z" fill="#444248"/>
<path d="M272.541 251.408H271.649V255.948H272.541V251.408Z" fill="#444248"/>
<path d="M271.067 251.408H270.524V255.948H271.067V251.408Z" fill="#444248"/>
<path d="M273.627 251.408H273.239V255.948H273.627V251.408Z" fill="#444248"/>
<path d="M275.76 251.408H275.023V255.948H275.76V251.408Z" fill="#444248"/>
<path d="M276.42 251.408H276.032V255.948H276.42V251.408Z" fill="#444248"/>
<path d="M274.674 251.408H274.17V255.948H274.674V251.408Z" fill="#444248"/>
<path d="M277.351 251.408H276.808V255.948H277.351V251.408Z" fill="#444248"/>
<path d="M244.266 196.937H181.122V258.664H244.266V196.937Z" fill="#C78B5B"/>
<path d="M261.759 196.937H199.158V258.664H261.759V196.937Z" fill="#E5BE84"/>
<path d="M238.875 196.937H222.08V212.805H238.875V196.937Z" fill="#EAD1B7"/>
<path d="M238.875 242.757H222.08V258.625H238.875V242.757Z" fill="#EAD1B7"/>
<path d="M218.396 246.015H202.144V255.831H218.396V246.015Z" fill="#F7EEE5"/>
<path d="M204.626 247.374H202.92V254.435H204.626V247.374Z" fill="#444248"/>
<path d="M206.294 247.374H205.674V254.435H206.294V247.374Z" fill="#444248"/>
<path d="M210.134 247.374H208.738V254.435H210.134V247.374Z" fill="#444248"/>
<path d="M207.807 247.374H206.954V254.435H207.807V247.374Z" fill="#444248"/>
<path d="M211.802 247.374H211.22V254.435H211.802V247.374Z" fill="#444248"/>
<path d="M215.138 247.374H213.974V254.435H215.138V247.374Z" fill="#444248"/>
<path d="M216.146 247.374H215.564V254.435H216.146V247.374Z" fill="#444248"/>
<path d="M213.47 247.374H212.655V254.435H213.47V247.374Z" fill="#444248"/>
<path d="M217.62 247.374H216.767V254.435H217.62V247.374Z" fill="#444248"/>
<path d="M223.321 14.6663H175.227V61.6888H223.321V14.6663Z" fill="#C78B5B"/>
<path d="M236.625 14.6663H188.957V61.6888H236.625V14.6663Z" fill="#E5BE84"/>
<path d="M219.21 14.6663H206.411V26.7711H219.21V14.6663Z" fill="#EAD1B7"/>
<path d="M219.21 49.584H206.411V61.6888H219.21V49.584Z" fill="#EAD1B7"/>
<path d="M203.618 52.0278H191.245V59.5157H203.618V52.0278Z" fill="#F7EEE5"/>
<path d="M193.146 53.0754H191.827V58.4683H193.146V53.0754Z" fill="#444248"/>
<path d="M194.387 53.0754H193.921V58.4683H194.387V53.0754Z" fill="#444248"/>
<path d="M197.373 53.0754H196.287V58.4683H197.373V53.0754Z" fill="#444248"/>
<path d="M195.589 53.0754H194.93V58.4683H195.589V53.0754Z" fill="#444248"/>
<path d="M198.576 53.0754H198.149V58.4683H198.576V53.0754Z" fill="#444248"/>
<path d="M201.136 53.0754H200.244V58.4683H201.136V53.0754Z" fill="#444248"/>
<path d="M201.873 53.0754H201.446V58.4683H201.873V53.0754Z" fill="#444248"/>
<path d="M199.856 53.0754H199.235V58.4683H199.856V53.0754Z" fill="#444248"/>
<path d="M203.036 53.0754H202.377V58.4683H203.036V53.0754Z" fill="#444248"/>
<g style="mix-blend-mode:multiply" opacity="0.32">
<path d="M236.664 26.189H192.293V61.6498H236.664V26.189Z" fill="#C78B5B"/>
</g>
<path d="M300.118 15.5586H259.509V55.2484H300.118V15.5586Z" fill="#C78B5B"/>
<path d="M311.327 15.5586H271.106V55.2484H311.327V15.5586Z" fill="#E5BE84"/>
<path d="M294.417 15.5586H288.017V25.7623H294.417V15.5586Z" fill="#EAD1B7"/>
<path d="M294.417 45.0449H288.017V55.2487H294.417V45.0449Z" fill="#EAD1B7"/>
<path d="M308.496 47.1013H298.063V53.4253H308.496V47.1013Z" fill="#F7EEE5"/>
<path d="M299.692 47.9937H298.567V52.5329H299.692V47.9937Z" fill="#444248"/>
<path d="M300.7 47.9937H300.312V52.5329H300.7V47.9937Z" fill="#444248"/>
<path d="M303.182 47.9937H302.29V52.5329H303.182V47.9937Z" fill="#444248"/>
<path d="M301.709 47.9937H301.165V52.5329H301.709V47.9937Z" fill="#444248"/>
<path d="M304.268 47.9937H303.88V52.5329H304.268V47.9937Z" fill="#444248"/>
<path d="M306.402 47.9937H305.665V52.5329H306.402V47.9937Z" fill="#444248"/>
<path d="M307.061 47.9937H306.673V52.5329H307.061V47.9937Z" fill="#444248"/>
<path d="M305.316 47.9937H304.811V52.5329H305.316V47.9937Z" fill="#444248"/>
<path d="M307.992 47.9937H307.449V52.5329H307.992V47.9937Z" fill="#444248"/>
<path d="M313.306 54.783H272.696V94.4728H313.306V54.783Z" fill="#C78B5B"/>
<path d="M324.515 54.783H284.293V94.4728H324.515V54.783Z" fill="#E5BE84"/>
<path d="M309.776 54.783H298.993V64.9867H309.776V54.783Z" fill="#EAD1B7"/>
<path d="M309.776 84.2688H298.993V94.4725H309.776V84.2688Z" fill="#EAD1B7"/>
<path d="M296.627 86.3252H286.194V92.6492H296.627V86.3252Z" fill="#F7EEE5"/>
<path d="M287.823 87.2175H286.698V91.7568H287.823V87.2175Z" fill="#444248"/>
<path d="M288.87 87.2175H288.482V91.7568H288.87V87.2175Z" fill="#444248"/>
<path d="M291.353 87.2175H290.46V91.7568H291.353V87.2175Z" fill="#444248"/>
<path d="M289.84 87.2175H289.297V91.7568H289.84V87.2175Z" fill="#444248"/>
<path d="M292.439 87.2175H292.051V91.7568H292.439V87.2175Z" fill="#444248"/>
<path d="M294.533 87.2175H293.796V91.7568H294.533V87.2175Z" fill="#444248"/>
<path d="M295.192 87.2175H294.805V91.7568H295.192V87.2175Z" fill="#444248"/>
<path d="M293.447 87.2175H292.943V91.7568H293.447V87.2175Z" fill="#444248"/>
<path d="M296.123 87.2175H295.58V91.7568H296.123V87.2175Z" fill="#444248"/>
<path d="M263.039 32.7068H199.895V94.4336H263.039V32.7068Z" fill="#C78B5B"/>
<path d="M280.57 32.7068H217.969V94.4336H280.57V32.7068Z" fill="#E5BE84"/>
<path d="M257.647 32.7068H240.853V48.575H257.647V32.7068Z" fill="#EAD1B7"/>
<path d="M257.647 78.5657H240.853V94.4338H257.647V78.5657Z" fill="#EAD1B7"/>
<path d="M237.207 81.7861H220.955V91.6019H237.207V81.7861Z" fill="#F7EEE5"/>
<path d="M223.399 83.1824H221.692V90.2435H223.399V83.1824Z" fill="#444248"/>
<path d="M225.106 83.1824H224.485V90.2435H225.106V83.1824Z" fill="#444248"/>
<path d="M228.946 83.1824H227.549V90.2435H228.946V83.1824Z" fill="#444248"/>
<path d="M226.618 83.1824H225.765V90.2435H226.618V83.1824Z" fill="#444248"/>
<path d="M230.613 83.1824H230.031V90.2435H230.613V83.1824Z" fill="#444248"/>
<path d="M233.949 83.1824H232.785V90.2435H233.949V83.1824Z" fill="#444248"/>
<path d="M234.919 83.1824H234.337V90.2435H234.919V83.1824Z" fill="#444248"/>
<path d="M232.281 83.1824H231.467V90.2435H232.281V83.1824Z" fill="#444248"/>
<path d="M236.392 83.1824H235.539V90.2435H236.392V83.1824Z" fill="#444248"/>
<path d="M393.05 128.73H343.675V176.995H393.05V128.73Z" fill="#C78B5B"/>
<path d="M406.703 128.73H357.755V176.995H406.703V128.73Z" fill="#E5BE84"/>
<path d="M388.822 128.73H375.674V141.146H388.822V128.73Z" fill="#EAD1B7"/>
<path d="M388.822 164.579H375.674V176.995H388.822V164.579Z" fill="#EAD1B7"/>
<path d="M372.804 167.102H360.121V174.783H372.804V167.102Z" fill="#F7EEE5"/>
<path d="M362.06 168.188H360.702V173.697H362.06V168.188Z" fill="#444248"/>
<path d="M363.34 168.188H362.874V173.697H363.34V168.188Z" fill="#444248"/>
<path d="M366.365 168.188H365.279V173.697H366.365V168.188Z" fill="#444248"/>
<path d="M364.542 168.188H363.883V173.697H364.542V168.188Z" fill="#444248"/>
<path d="M367.684 168.188H367.218V173.697H367.684V168.188Z" fill="#444248"/>
<path d="M370.283 168.188H369.352V173.697H370.283V168.188Z" fill="#444248"/>
<path d="M371.058 168.188H370.593V173.697H371.058V168.188Z" fill="#444248"/>
<path d="M368.925 168.188H368.305V173.697H368.925V168.188Z" fill="#444248"/>
<path d="M372.183 168.188H371.524V173.697H372.183V168.188Z" fill="#444248"/>
<path d="M218.124 111.699H168.749V176.995H218.124V111.699Z" fill="#C78B5B"/>
<path d="M231.777 111.699H182.829V176.995H231.777V111.699Z" fill="#E5BE84"/>
<path d="M213.896 111.699H200.748V124.114H213.896V111.699Z" fill="#EAD1B7"/>
<path d="M213.896 164.579H200.748V176.995H213.896V164.579Z" fill="#EAD1B7"/>
<path d="M197.878 167.102H185.195V174.783H197.878V167.102Z" fill="#F7EEE5"/>
<path d="M187.134 168.188H185.776V173.697H187.134V168.188Z" fill="#444248"/>
<path d="M188.414 168.188H187.948V173.697H188.414V168.188Z" fill="#444248"/>
<path d="M191.439 168.188H190.353V173.697H191.439V168.188Z" fill="#444248"/>
<path d="M189.616 168.188H188.957V173.697H189.616V168.188Z" fill="#444248"/>
<path d="M192.719 168.188H192.254V173.697H192.719V168.188Z" fill="#444248"/>
<path d="M195.357 168.188H194.426V173.697H195.357V168.188Z" fill="#444248"/>
<path d="M196.132 168.188H195.667V173.697H196.132V168.188Z" fill="#444248"/>
<path d="M193.999 168.188H193.379V173.697H193.999V168.188Z" fill="#444248"/>
<path d="M197.257 168.188H196.598V173.697H197.257V168.188Z" fill="#444248"/>
<g style="mix-blend-mode:multiply" opacity="0.32">
<path d="M231.816 111.699H214.284V176.995H231.816V111.699Z" fill="#C78B5B"/>
</g>
<path d="M340.65 137.344H300.041V177.034H340.65V137.344Z" fill="#C78B5B"/>
<path d="M351.859 137.344H311.638V177.034H351.859V137.344Z" fill="#E5BE84"/>
<path d="M337.159 137.344H326.377V147.548H337.159V137.344Z" fill="#EAD1B7"/>
<path d="M337.159 166.791H326.377V176.995H337.159V166.791Z" fill="#EAD1B7"/>
<path d="M324.011 168.886H313.577V175.21H324.011V168.886Z" fill="#F7EEE5"/>
<path d="M315.167 169.74H314.042V174.279H315.167V169.74Z" fill="#444248"/>
<path d="M316.214 169.74H315.827V174.279H316.214V169.74Z" fill="#444248"/>
<path d="M318.697 169.74H317.805V174.279H318.697V169.74Z" fill="#444248"/>
<path d="M317.223 169.74H316.68V174.279H317.223V169.74Z" fill="#444248"/>
<path d="M319.783 169.74H319.395V174.279H319.783V169.74Z" fill="#444248"/>
<path d="M321.916 169.74H321.179V174.279H321.916V169.74Z" fill="#444248"/>
<path d="M322.575 169.74H322.188V174.279H322.575V169.74Z" fill="#444248"/>
<path d="M320.83 169.74H320.326V174.279H320.83V169.74Z" fill="#444248"/>
<path d="M323.506 169.74H322.963V174.279H323.506V169.74Z" fill="#444248"/>
<path d="M290.422 115.268H227.278V176.995H290.422V115.268Z" fill="#C78B5B"/>
<path d="M307.914 115.268H245.313V176.995H307.914V115.268Z" fill="#E5BE84"/>
<path d="M285.03 115.268H268.236V131.136H285.03V115.268Z" fill="#EAD1B7"/>
<path d="M285.03 161.127H268.236V176.995H285.03V161.127Z" fill="#EAD1B7"/>
<path d="M264.59 164.347H248.339V174.163H264.59V164.347Z" fill="#F7EEE5"/>
<path d="M250.782 165.743H249.076V172.805H250.782V165.743Z" fill="#444248"/>
<path d="M252.45 165.743H251.829V172.805H252.45V165.743Z" fill="#444248"/>
<path d="M256.29 165.743H254.893V172.805H256.29V165.743Z" fill="#444248"/>
<path d="M254.001 165.743H253.148V172.805H254.001V165.743Z" fill="#444248"/>
<path d="M257.958 165.743H257.376V172.805H257.958V165.743Z" fill="#444248"/>
<path d="M261.293 165.743H260.13V172.805H261.293V165.743Z" fill="#444248"/>
<path d="M262.302 165.743H261.72V172.805H262.302V165.743Z" fill="#444248"/>
<path d="M259.625 165.743H258.811V172.805H259.625V165.743Z" fill="#444248"/>
<path d="M263.776 165.743H262.922V172.805H263.776V165.743Z" fill="#444248"/>
<path d="M196.481 54.783H155.872V94.4728H196.481V54.783Z" fill="#C78B5B"/>
<path d="M207.691 54.783H167.469V94.4728H207.691V54.783Z" fill="#E5BE84"/>
<path d="M192.991 54.783H182.208V64.9867H192.991V54.783Z" fill="#EAD1B7"/>
<path d="M192.991 84.2688H182.208V94.4725H192.991V84.2688Z" fill="#EAD1B7"/>
<path d="M179.842 86.3252H169.409V92.6492H179.842V86.3252Z" fill="#F7EEE5"/>
<path d="M170.999 87.2175H169.874V91.7568H170.999V87.2175Z" fill="#444248"/>
<path d="M172.046 87.2175H171.658V91.7568H172.046V87.2175Z" fill="#444248"/>
<path d="M174.528 87.2175H173.636V91.7568H174.528V87.2175Z" fill="#444248"/>
<path d="M173.055 87.2175H172.512V91.7568H173.055V87.2175Z" fill="#444248"/>
<path d="M175.614 87.2175H175.227V91.7568H175.614V87.2175Z" fill="#444248"/>
<path d="M177.748 87.2175H177.011V91.7568H177.748V87.2175Z" fill="#444248"/>
<path d="M178.407 87.2175H178.019V91.7568H178.407V87.2175Z" fill="#444248"/>
<path d="M176.662 87.2175H176.157V91.7568H176.662V87.2175Z" fill="#444248"/>
<path d="M179.338 87.2175H178.795V91.7568H179.338V87.2175Z" fill="#444248"/>
<g style="mix-blend-mode:multiply" opacity="0.32">
<path d="M207.729 54.783H196.675V94.4728H207.729V54.783Z" fill="#C78B5B"/>
</g>
<path d="M454.449 94.4729H136.557V107.742H454.449V94.4729Z" fill="#4D4D4D"/>
<path d="M454.449 176.995H136.557V190.264H454.449V176.995Z" fill="#4D4D4D"/>
<path d="M454.449 258.663H136.557V271.932H454.449V258.663Z" fill="#4D4D4D"/>
<path d="M210.057 55.753L205.286 52.7268L172.085 112.126L138.884 52.7268L134.113 55.753L168.866 117.907L134.113 180.06L138.884 183.125L172.085 123.726L205.286 183.125L210.057 180.06L175.343 117.907L210.057 55.753Z" fill="#353535"/>
<path d="M210.057 186.151L205.286 183.125L172.085 242.523L138.884 183.125L134.113 186.151L168.866 248.304L134.113 310.458L138.884 313.484L172.085 254.085L205.286 313.484L210.057 310.458L175.343 248.304L210.057 186.151Z" fill="#353535"/>
<path d="M139.272 47.0625H133.842V325.085H139.272V47.0625Z" fill="#878787"/>
<path d="M174.8 47.0625H169.37V325.085H174.8V47.0625Z" fill="#878787"/>
<path d="M210.328 47.0625H204.898V325.085H210.328V47.0625Z" fill="#878787"/>
<path d="M207.613 53.5024H136.557V61.0291H207.613V53.5024Z" fill="#878787"/>
<path d="M207.613 179.323H136.557V186.849H207.613V179.323Z" fill="#878787"/>
<path d="M207.613 305.181H136.557V312.708H207.613V305.181Z" fill="#878787"/>
</g>
<g clip-path="url(#clip1)">
<path d="M76.7092 92.1602C76.7092 92.1602 79.1835 107.11 86.9521 117.178C92.7548 124.711 104.889 133.094 104.889 133.094L98.0152 140.709L79.0344 124.896L76.7092 92.1602Z" fill="#2F2F2F"/>
<path d="M66.3511 78.1755H51.146L51.6341 128.69L71.8216 130.067L66.3511 78.1755Z" fill="#260E0D"/>
<path d="M83.3864 320.222C91.9549 320.222 91.7448 323.784 91.7448 323.784H66.6629C66.6629 323.784 67.9102 312.826 68.1 310.265H73.9976C74.6755 313.429 76.8109 320.222 83.3864 320.222Z" fill="#260E0D"/>
<path d="M41.459 321.551C49.2547 321.551 50.8478 311.963 51.0715 310.285H56.7047C56.7047 310.751 56.7047 311.045 56.7047 311.114C56.7047 312.299 58.1622 325.105 58.1622 325.105H33.0803C33.0803 325.105 32.9176 321.551 41.459 321.551Z" fill="#260E0D"/>
<path d="M43.7232 252.765L35.7173 184.389L37.9747 164.152H82.0374L82.3492 181.958L86.9792 251.436C86.9792 251.436 75.4551 309.278 75.6788 310.237H67.3543C67.3543 310.025 69.7066 246.806 69.7066 246.806L60.2162 190.491L56.481 249.642C56.481 249.642 58.169 302.93 58.1961 310.278H50.3665C50.3936 310.093 43.7232 252.765 43.7232 252.765Z" fill="#1E1E1E"/>
<path d="M37.6764 166.809L37.9747 164.152H82.0374L82.0781 166.48L72.8317 169.658C65.3444 172.251 57.2492 172.459 49.6411 170.254L37.6764 166.809Z" fill="#0E0E0E"/>
<path d="M34.9242 91.6053C39.7101 86.1745 50.8003 77.4974 63.0226 79.5862L75.7873 85.3184L79.5428 113.158L82.9322 166.192L37.3917 166.727L33.06 115.096C33.06 115.096 30.1315 97.0431 34.9242 91.6053Z" fill="#FF6600"/>
<path d="M64.575 67.0946C64.575 67.0946 64.7038 77.9701 65.7342 83.5311C66.1341 85.6747 65.158 87.8662 63.3616 88.6538C61.6888 89.3628 59.8412 89.5373 58.0673 89.1537C52.3391 88.0511 52.1425 81.5518 52.1425 81.5518L54.0745 61.6912L64.575 67.0946Z" fill="#F9C6B9"/>
<path d="M54.0745 61.698L64.575 67.0946C64.575 67.0946 64.6225 71.1078 64.8936 75.5046C62.1821 75.6416 58.7113 74.0732 55.0575 69.3409C54.5151 68.6378 54.0067 67.9393 53.5322 67.2453L54.0745 61.698Z" fill="#F49E87"/>
<path d="M63.8971 39.2005C66.2953 41.4591 68.0688 44.3107 69.0423 47.4735C70.5947 52.651 71.9572 56.3766 71.9572 56.3766L70.3032 57.4792C70.3032 57.4792 71.6183 64.7318 70.6082 67.2041C69.0558 70.9502 62.4736 73.9841 55.071 65.5468C47.6685 57.1094 46.9974 49.6651 48.2379 46.0354C49.4784 42.4056 60.9822 37.3377 63.8971 39.2005Z" fill="#F9C6B9"/>
<path d="M52.7255 47.2681C53.8303 46.3422 55.1396 45.6989 56.5426 45.3925C57.9456 45.0861 59.401 45.1258 60.7856 45.5081C65.5308 46.8298 67.151 44.789 66.2087 43.7412C66.2087 43.7412 70.3845 43.8507 71.9369 39.995C73.4892 36.1393 73.1232 24.4489 65.741 26.6541C58.3588 28.8593 59.8501 34.1875 59.8501 34.1875C59.8501 34.1875 57.4843 31.6467 55.2473 32.9753C53.0102 34.3039 53.3085 36.1667 53.3085 36.1667C53.3085 36.1667 51.2748 40.4676 48.4548 41.0223C45.6348 41.577 45.9263 47.9667 45.9263 47.9667C45.9263 47.9667 44.2723 49.2885 45.4382 53.918C46.6042 58.5476 53.4712 65.6975 53.4712 67.9027C53.4712 67.9027 55.1524 65.0195 53.7966 60.4995C52.4408 55.9794 52.4408 53.3359 53.8915 53.3359C55.3422 53.3359 52.7255 47.2681 52.7255 47.2681Z" fill="#1D1D1D"/>
<path d="M54.827 56.3217C54.827 56.3217 54.3525 52.5208 53.295 52.5208C52.2374 52.5208 51.2613 52.9317 51.5121 55.0821C51.7629 57.2325 52.8679 59.6295 54.2237 58.6365C54.605 58.408 54.882 58.0371 54.9949 57.604C55.1078 57.1709 55.0475 56.7103 54.827 56.3217Z" fill="#F9C6B9"/>
<path d="M42.3403 47.5625C42.4434 47.2174 42.674 46.9256 42.9843 46.7476C43.974 46.275 45.2959 47.3023 46.1636 48.0145L46.3127 47.8159C45.749 47.0737 45.0407 46.4561 44.2316 46.0011C43.9689 45.8579 43.6783 45.7749 43.3804 45.7579C43.0824 45.7409 42.7844 45.7904 42.5075 45.9028C42.2306 46.0152 41.9816 46.1879 41.7781 46.4084C41.5747 46.629 41.4218 46.8921 41.3302 47.179L42.3403 47.5625Z" fill="#1D1D1D"/>
<path d="M42.2589 52.4868C42.1585 51.901 42.17 51.3012 42.2928 50.7198C42.9233 47.8572 45.9941 48.1037 46.1432 48.0215V47.8435C46.0551 47.8777 41.7031 46.9189 41.0794 51.5417C41.0178 51.9472 41.0019 52.3584 41.0319 52.7675L42.2589 52.4868Z" fill="#1D1D1D"/>
<path d="M66.0017 53.228C66.0017 54.1594 66.3678 54.9196 66.8152 54.9196C67.2626 54.9196 67.6286 54.1594 67.6286 53.228C67.6286 52.2966 67.2694 51.5227 66.8152 51.5227C66.361 51.5227 66.0017 52.2897 66.0017 53.228Z" fill="#252525"/>
<path d="M64.7516 52.2393C65.021 51.6063 65.4794 51.0744 66.0631 50.7174C66.6468 50.3604 67.3269 50.1961 68.0088 50.2473L67.8229 49.0043C67.0611 48.9426 66.3005 49.1283 65.6523 49.5342C65.0041 49.9401 64.5022 50.5449 64.2199 51.2603L64.7516 52.2393Z" fill="#252525"/>
<path d="M67.8967 80.093L71.2861 183.033H92.4091L86.1861 136.278L82.1188 107.85C82.1188 107.85 80.0987 88.7358 75.7873 85.3184C73.3243 83.3317 70.6825 81.5822 67.8967 80.093Z" fill="#464646"/>
<path d="M54.1287 54.7878C54.1287 54.7878 53.5119 53.5003 52.9831 53.6852C52.4543 53.8701 52.3052 56.4588 53.2814 57.5477C54.2575 58.6366 55.0642 56.8492 54.1287 54.7878Z" fill="#F49E87"/>
<path d="M50.9494 79.5315L53.1729 183.033H30.5179C30.5179 183.033 29.6638 101.029 32.1652 92.4272C34.6666 83.8255 50.9494 79.5315 50.9494 79.5315Z" fill="#464646"/>
<path d="M76.0788 83.9214L66.3511 78.1755L69.4897 129.348L74.8247 100.317L72.9469 99.0087L76.0788 83.9214Z" fill="#686868"/>
<path d="M51.9731 128.861L51.146 78.1755L42.4759 82.1545L47.194 98.9745L46.0009 99.9196L51.9731 128.861Z" fill="#686868"/>
<path d="M38.4017 90.4207C40.2253 94.4681 41.4319 100.467 41.0455 106.693C40.3676 116.068 38.1984 136.408 42.1505 139.497C45.967 141.921 54.5897 139.497 58.6977 138.018C54.6304 139.12 43.2622 141.832 41.7505 137.833C40.4896 134.635 40.693 126.875 40.8082 123.451C41.2692 108.583 43.0385 103.337 39.9948 94.2627C39.573 92.9385 39.0401 91.6532 38.4017 90.4207Z" fill="#EEF1F9"/>
<path d="M68.866 62.1939L68.5745 64.0704C67.4518 63.9012 66.3787 63.4878 65.4296 62.8588C64.4804 62.2298 63.6777 61.4001 63.0769 60.427C65.2529 62.6802 68.866 62.1939 68.866 62.1939Z" fill="#363636"/>
<path d="M91.9664 144.339L123.325 120.109L90.1158 117L65 144.339H91.9664Z" fill="#0E0E0E"/>
<path d="M86.5146 144L109 121.5L89.5 117.5L68.5 136L86.5146 144Z" fill="white"/>
<path d="M87.0146 144.5L109.5 122L90 118L69 136.5L87.0146 144.5Z" fill="#D9D9D9"/>
<path d="M89 141.5L108.5 124L89 120L68 138.5L89 141.5Z" fill="#AEAEAE"/>
<path d="M91.9664 144.339L123.325 120.109L90.1158 117L65 144.339H91.9664Z" fill="#0E0E0E"/>
<path d="M74.2824 133.628C74.2824 133.628 70.8929 134.416 69.6117 135.806C68.0051 137.58 64.1886 140.47 62.5888 140.47C60.989 140.47 54.1559 141.154 54.1559 141.154L52.9831 148.914C52.9831 148.914 78.4582 142.887 79.658 141.565C80.8579 140.244 73.6858 142.552 73.6858 141.956C73.6858 141.36 82.3289 140.702 81.8815 139.216C81.4341 137.73 73.9095 141.223 73.2384 140.483C72.5673 139.744 82.3289 138.511 82.3289 136.936C82.3289 135.361 72.6419 139.216 72.6419 139.216C72.6419 139.216 72.4656 138.415 75.0958 137.162C77.726 135.908 80.2681 134.854 79.6851 134.21C79.1022 133.566 72.3843 137.634 71.4963 136.669L74.2824 133.628Z" fill="#F9C6B9"/>
<path d="M38.4017 90.4207C38.4017 90.4207 42.103 97.413 41.3641 107.48C40.6252 117.548 39.3643 132.984 41.459 138.011C43.5537 143.038 58.718 138.011 58.718 138.011V149.927C58.718 149.927 36.6935 159.159 30.3213 156.139C23.9492 153.119 24.5118 127.108 24.5118 114.356C24.5118 101.604 34.3344 81.2711 38.4017 90.4207Z" fill="#686868"/>
<path d="M100.977 135.313C101.447 136.023 101.831 136.786 102.123 137.587C102.801 139.244 100.91 140.942 100.537 141.305C99.6809 142.076 98.7548 142.764 97.7711 143.36C97.1475 143.767 96.4597 144.063 95.7374 144.237C94.6189 144.49 92.1039 140.367 92.4496 139.977C92.6801 139.71 92.9648 139.504 93.2224 139.586C93.48 139.669 96.2865 141.922 96.2865 141.922C96.2865 141.922 93.7715 138.682 94.0562 137.717C94.3409 136.751 94.8833 136.874 95.1002 137.114C95.3171 137.354 98.4896 140.401 98.4896 140.401C98.4896 140.401 96.3678 136.587 96.517 135.902C96.6661 135.217 97.5745 134.834 98.5506 136.395C99.1657 137.214 99.8458 137.982 100.584 138.689C100.584 138.689 99.3777 135.772 99.6556 134.827C99.9335 133.882 100.977 135.313 100.977 135.313Z" fill="#F9C6B9"/>
<path d="M119.199 229.849H113.678" stroke="#FF6600" stroke-width="2" stroke-miterlimit="10"/>
<path d="M110.078 229.849H104.557" stroke="#FF6600" stroke-width="2" stroke-miterlimit="10"/>
<path d="M111.884 222.588V228.069" stroke="#FF6600" stroke-width="2" stroke-miterlimit="10"/>
<path d="M111.884 231.641V237.122" stroke="#FF6600" stroke-width="2" stroke-miterlimit="10"/>
</g>
<path d="M122.337 143C122.337 143 117.699 136.356 120.337 131.5C122.13 128.2 121.837 122 121.837 122L90 117C90 117 88.2245 127.152 87.3366 131C85.8366 137.5 89.8366 142 89.8366 142L122.337 143Z" fill="#C7C7C7"/>
<path d="M124 141C124 141 119.362 134.356 122 129.5C123.793 126.2 123.5 120 123.5 120L90 117C90 117 89.888 125.152 89 129C87.5 135.5 91.5 140 91.5 140L124 141Z" fill="white"/>
<path d="M14.7502 80.553H9.22858" stroke="#207A00" stroke-width="2" stroke-miterlimit="10"/>
<path d="M5.62944 80.553H0.107823" stroke="#207A00" stroke-width="2" stroke-miterlimit="10"/>
<path d="M7.43491 73.2358V78.7594" stroke="#207A00" stroke-width="2" stroke-miterlimit="10"/>
<path d="M7.43491 82.3594V87.8829" stroke="#207A00" stroke-width="2" stroke-miterlimit="10"/>
<path d="M453.046 14.6662C449.272 14.6662 446.213 11.6069 446.213 7.83311C446.213 4.05929 449.272 1 453.046 1C456.819 1 459.879 4.05929 459.879 7.83311C459.879 11.6069 456.819 14.6662 453.046 14.6662Z" stroke="#FF6600" stroke-width="2" stroke-miterlimit="10"/>
<defs>
<clipPath id="clip0">
<rect x="133.842" y="14.6663" width="326.037" height="310.419" fill="white"/>
</clipPath>
<clipPath id="clip1">
<rect x="24.5118" y="26.3801" width="98.5921" height="298.705" fill="white"/>
</clipPath>
</defs>
</svg>
