<svg width="31" height="34" viewBox="0 0 31 34" fill="none" xmlns="http://www.w3.org/2000/svg">
<path fill-rule="evenodd" clip-rule="evenodd" d="M5.9355 0.935486C5.44854 0.935486 5.05378 1.33987 5.05378 1.83871V10.4931C2.46877 11.5651 0.645264 14.1612 0.645264 17.1936V31.6452C0.645264 32.6429 1.43478 33.4516 2.4087 33.4516H12.9893C13.9632 33.4516 14.7527 32.6429 14.7527 31.6452V17.1936C14.7527 14.1611 12.9292 11.565 10.3441 10.4931V1.83871C10.3441 1.33987 9.94933 0.935486 9.46237 0.935486H5.9355ZM8.58072 10.8823L8.58065 10.8709V8.16129H6.81722V10.0238L6.81729 10.0238V11.8492C4.31522 12.2792 2.4087 14.5084 2.4087 17.1936V18.0964H12.9893V17.1936C12.9893 14.5084 11.0828 12.2792 8.58072 11.8492V10.8823ZM12.9893 19.9029H2.4087V25.3226H12.9893V19.9029ZM2.4087 31.6452V27.129H12.9893V31.6452H2.4087ZM8.58065 2.74193V6.35484H6.81722V2.74193H8.58065ZM21.9244 0.935545C21.4374 0.935545 21.0427 1.33993 21.0427 1.83877V10.4932C18.4577 11.5651 16.6342 14.1613 16.6342 17.1937V31.6453C16.6342 32.6429 17.4237 33.4517 18.3976 33.4517H28.9782C29.9521 33.4517 30.7416 32.6429 30.7416 31.6453V17.1937C30.7416 14.1612 28.9181 11.565 26.333 10.4931V1.83877C26.333 1.33993 25.9382 0.935545 25.4513 0.935545H21.9244ZM24.5696 10.8823L24.5695 10.871V8.16135H22.8061V10.0238L22.8062 10.0238V11.8493C20.3041 12.2793 18.3976 14.5084 18.3976 17.1937V18.0965H28.9782V17.1937C28.9782 14.5084 27.0717 12.2793 24.5696 11.8493V10.8823ZM28.9782 19.903H18.3976V25.3224H28.9782V19.903ZM18.3976 31.6453V27.1289H28.9782V31.6453H18.3976ZM24.5695 2.74199V6.3549H22.8061V2.74199H24.5695Z" fill="#BFD243"/>
</svg>
