<svg width="31" height="34" viewBox="0 0 31 34" fill="none" xmlns="http://www.w3.org/2000/svg">
<path fill-rule="evenodd" clip-rule="evenodd" d="M5.93541 0.935486C5.44845 0.935486 5.05369 1.33987 5.05369 1.83871V10.4931C2.46868 11.5651 0.645172 14.1612 0.645172 17.1936V31.6452C0.645172 32.6429 1.43469 33.4516 2.40861 33.4516H12.9892C13.9631 33.4516 14.7526 32.6429 14.7526 31.6452V17.1936C14.7526 14.1611 12.9291 11.565 10.344 10.4931V1.83871C10.344 1.33987 9.94924 0.935486 9.46228 0.935486H5.93541ZM8.58063 10.8823L8.58056 10.8709V8.16129H6.81713V10.0238L6.81719 10.0238V11.8492C4.31513 12.2792 2.40861 14.5084 2.40861 17.1936V18.0964H12.9892V17.1936C12.9892 14.5084 11.0827 12.2792 8.58063 11.8492V10.8823ZM12.9892 19.9029H2.40861V25.3226H12.9892V19.9029ZM2.40861 31.6452V27.129H12.9892V31.6452H2.40861ZM8.58056 2.74193V6.35484H6.81713V2.74193H8.58056ZM21.9243 0.935545C21.4373 0.935545 21.0426 1.33993 21.0426 1.83877V10.4932C18.4576 11.5651 16.6341 14.1613 16.6341 17.1937V31.6453C16.6341 32.6429 17.4236 33.4517 18.3975 33.4517H28.9781C29.952 33.4517 30.7415 32.6429 30.7415 31.6453V17.1937C30.7415 14.1612 28.918 11.565 26.3329 10.4931V1.83877C26.3329 1.33993 25.9381 0.935545 25.4512 0.935545H21.9243ZM24.5695 10.8823L24.5695 10.871V8.16135H22.806V10.0238L22.8061 10.0238V11.8493C20.304 12.2793 18.3975 14.5084 18.3975 17.1937V18.0965H28.9781V17.1937C28.9781 14.5084 27.0716 12.2793 24.5695 11.8493V10.8823ZM28.9781 19.903H18.3975V25.3224H28.9781V19.903ZM18.3975 31.6453V27.1289H28.9781V31.6453H18.3975ZM24.5695 2.74199V6.3549H22.806V2.74199H24.5695Z" fill="#BFD243"/>
</svg>
