<svg width="30" height="28" viewBox="0 0 30 28" fill="none" xmlns="http://www.w3.org/2000/svg">
<path fill-rule="evenodd" clip-rule="evenodd" d="M10.193 1.69676C8.20922 1.88116 6.70069 3.44934 6.62657 5.30902L6.59447 6.11444H1.66937C1.85099 9.14607 3.85311 11.6813 6.58397 12.6077L7.18999 12.8133L7.14731 13.4596C7.13565 13.6363 7.12972 13.8147 7.12972 13.9945V17.5382C7.12972 21.8902 10.6101 25.4182 14.9033 25.4182C19.1966 25.4182 22.6769 21.8902 22.6769 17.5382V13.9945C22.6769 13.8146 22.671 13.6363 22.6593 13.4596L22.6166 12.8132L23.2226 12.6076C25.9534 11.6812 27.9555 9.14601 28.1371 6.11444H23.212L23.1799 5.30902C23.1058 3.44934 21.5972 1.88116 19.6134 1.69676V6.11444H10.193V1.69676ZM5.06532 4.43585C5.56 1.88371 7.87261 6.10352e-05 10.5854 6.10352e-05C10.7558 6.10352e-05 10.9247 0.00745354 11.0917 0.0219588L11.8489 0.0877502V4.43585H17.9575V0.0877502L18.7148 0.0219588C18.8817 0.00745354 19.0506 6.10352e-05 19.2211 6.10352e-05C21.9338 6.10352e-05 24.2465 1.88371 24.7411 4.43585H29.7596L29.7966 5.23583C29.8031 5.37774 29.8065 5.52045 29.8065 5.66388C29.8065 9.41263 27.5457 12.6242 24.3328 13.9775L24.3328 13.9945V17.5382C24.3328 22.8173 20.1111 27.0968 14.9033 27.0968C9.69554 27.0968 5.4738 22.8173 5.4738 17.5382V13.9945L5.47382 13.9775C2.26083 12.6243 0 9.4127 0 5.66388C0 5.52045 0.00331702 5.37774 0.00988314 5.23582L0.0468968 4.43585H5.06532ZM12.1889 13.3585C12.1889 14.1299 11.5635 14.7553 10.7921 14.7553C10.0206 14.7553 9.39528 14.1299 9.39528 13.3585C9.39528 12.587 10.0206 11.9617 10.7921 11.9617C11.5635 11.9617 12.1889 12.587 12.1889 13.3585ZM19.1168 14.7553C19.8883 14.7553 20.5136 14.1299 20.5136 13.3585C20.5136 12.587 19.8883 11.9617 19.1168 11.9617C18.3454 11.9617 17.72 12.587 17.72 13.3585C17.72 14.1299 18.3454 14.7553 19.1168 14.7553Z" fill="#A4D54D"/>
</svg>
