<svg width="34" height="34" viewBox="0 0 34 34" fill="none" xmlns="http://www.w3.org/2000/svg">
<path fill-rule="evenodd" clip-rule="evenodd" d="M30.0795 15.3172H3.66566C3.08249 15.3172 2.56794 14.9242 2.37584 14.3309C2.17688 13.7377 2.35526 13.0777 2.80806 12.6847L15.9601 1.26456C16.461 0.827038 17.1745 0.827038 17.6753 1.25715L30.9371 12.6772C31.3899 13.0703 31.5683 13.7303 31.3762 14.3235C31.1841 14.9168 30.6627 15.3172 30.0795 15.3172ZM26.1552 12.351L16.8246 4.31239L7.56256 12.351H26.1552ZM2.10897 30.3338H31.6376C32.3992 30.3338 33.0098 31.0012 33.0098 31.8169C33.0098 32.6327 32.3923 33.3001 31.6376 33.3001H2.10897C1.35428 33.3001 0.736816 32.6327 0.736816 31.8169C0.736816 31.0012 1.35428 30.3338 2.10897 30.3338ZM5.47101 18.2018V27.3601C5.47101 28.1758 6.08848 28.8433 6.84316 28.8433C7.59785 28.8433 8.21531 28.1758 8.21531 27.3601V18.2018C8.21531 17.3861 7.59785 16.7187 6.84316 16.7187C6.08848 16.7187 5.47101 17.3787 5.47101 18.2018ZM25.5379 27.3601V18.2018C25.5379 17.3787 26.1485 16.7187 26.91 16.7187C27.6647 16.7187 28.2822 17.3861 28.2822 18.2018V27.3601C28.2822 28.1758 27.6647 28.8433 26.91 28.8433C26.1553 28.8433 25.5379 28.1758 25.5379 27.3601ZM18.8489 18.2018V27.3601C18.8489 28.1758 19.4664 28.8433 20.2211 28.8433C20.9757 28.8433 21.5932 28.1758 21.5932 27.3601V18.2018C21.5932 17.3861 20.9757 16.7187 20.2211 16.7187C19.4664 16.7187 18.8489 17.3787 18.8489 18.2018ZM12.1608 27.3601V18.2018C12.1608 17.3787 12.7783 16.7187 13.533 16.7187C14.2876 16.7187 14.9051 17.3861 14.9051 18.2018V27.3601C14.9051 28.1758 14.2876 28.8433 13.533 28.8433C12.7783 28.8433 12.1608 28.1758 12.1608 27.3601Z" fill="#F76201"/>
<path d="M2.37584 14.3309L2.85155 14.1769L2.84989 14.1719L2.37584 14.3309ZM2.80806 12.6847L3.13581 13.0623L3.13589 13.0622L2.80806 12.6847ZM15.9601 1.26456L16.2879 1.6421L16.2891 1.64111L15.9601 1.26456ZM17.6753 1.25715L18.0016 0.878264L18.0011 0.877825L17.6753 1.25715ZM30.9371 12.6772L31.2649 12.2996L31.2634 12.2984L30.9371 12.6772ZM31.3762 14.3235L30.9005 14.1695V14.1695L31.3762 14.3235ZM16.8246 4.31239L17.1509 3.93358L16.8234 3.65138L16.4968 3.93478L16.8246 4.31239ZM26.1552 12.351V12.851H27.5016L26.4815 11.9721L26.1552 12.351ZM7.56256 12.351L7.23483 11.9733L6.22365 12.851H7.56256V12.351ZM3.66566 15.8172H30.0795V14.8172H3.66566V15.8172ZM1.90015 14.485C2.15289 15.2655 2.84636 15.8172 3.66566 15.8172V14.8172C3.31863 14.8172 2.98299 14.5829 2.85152 14.1769L1.90015 14.485ZM2.48032 12.3071C1.87015 12.8367 1.64033 13.7103 1.90179 14.4899L2.84989 14.1719C2.71342 13.765 2.84036 13.3187 3.13581 13.0623L2.48032 12.3071ZM15.6323 0.887024L2.48024 12.3071L3.13589 13.0622L16.2879 1.6421L15.6323 0.887024ZM18.0011 0.877825C17.3124 0.286443 16.32 0.286263 15.6312 0.888009L16.2891 1.64111C16.6019 1.36781 17.0365 1.36763 17.3496 1.63647L18.0011 0.877825ZM31.2634 12.2984L18.0016 0.878264L17.349 1.63603L30.6109 13.0561L31.2634 12.2984ZM31.8519 14.4775C32.1034 13.701 31.8751 12.8293 31.2649 12.2996L30.6094 13.0548C30.9048 13.3113 31.0333 13.7596 30.9005 14.1695L31.8519 14.4775ZM30.0795 15.8172C30.9 15.8172 31.5996 15.2568 31.8519 14.4775L30.9005 14.1695C30.7687 14.5767 30.4254 14.8172 30.0795 14.8172V15.8172ZM16.4982 4.6912L25.8288 12.7298L26.4815 11.9721L17.1509 3.93358L16.4982 4.6912ZM7.8903 12.7286L17.1523 4.69L16.4968 3.93478L7.23483 11.9733L7.8903 12.7286ZM26.1552 11.851H7.56256V12.851H26.1552V11.851ZM31.6376 29.8338H2.10897V30.8338H31.6376V29.8338ZM33.5098 31.8169C33.5098 30.7641 32.7128 29.8338 31.6376 29.8338V30.8338C32.0856 30.8338 32.5098 31.2383 32.5098 31.8169H33.5098ZM31.6376 33.8001C32.7044 33.8001 33.5098 32.8715 33.5098 31.8169H32.5098C32.5098 32.3938 32.0803 32.8001 31.6376 32.8001V33.8001ZM2.10897 33.8001H31.6376V32.8001H2.10897V33.8001ZM0.236816 31.8169C0.236816 32.8715 1.04223 33.8001 2.10897 33.8001V32.8001C1.66633 32.8001 1.23682 32.3938 1.23682 31.8169H0.236816ZM2.10897 29.8338C1.04224 29.8338 0.236816 30.7624 0.236816 31.8169H1.23682C1.23682 31.24 1.66633 30.8338 2.10897 30.8338V29.8338ZM5.97101 27.3601V18.2018H4.97101V27.3601H5.97101ZM6.84316 28.3433C6.40053 28.3433 5.97101 27.937 5.97101 27.3601H4.97101C4.97101 28.4147 5.77643 29.3433 6.84316 29.3433V28.3433ZM7.71531 27.3601C7.71531 27.937 7.2858 28.3433 6.84316 28.3433V29.3433C7.90989 29.3433 8.71531 28.4147 8.71531 27.3601H7.71531ZM7.71531 18.2018V27.3601H8.71531V18.2018H7.71531ZM6.84316 17.2187C7.2858 17.2187 7.71531 17.6249 7.71531 18.2018H8.71531C8.71531 17.1473 7.90989 16.2187 6.84316 16.2187V17.2187ZM5.97101 18.2018C5.97101 17.6192 6.39897 17.2187 6.84316 17.2187V16.2187C5.77799 16.2187 4.97101 17.1382 4.97101 18.2018H5.97101ZM25.0379 18.2018V27.3601H26.0379V18.2018H25.0379ZM26.91 16.2187C25.8364 16.2187 25.0379 17.1399 25.0379 18.2018H26.0379C26.0379 17.6175 26.4605 17.2187 26.91 17.2187V16.2187ZM28.7822 18.2018C28.7822 17.1473 27.9768 16.2187 26.91 16.2187V17.2187C27.3527 17.2187 27.7822 17.6249 27.7822 18.2018H28.7822ZM28.7822 27.3601V18.2018H27.7822V27.3601H28.7822ZM26.91 29.3433C27.9768 29.3433 28.7822 28.4147 28.7822 27.3601H27.7822C27.7822 27.937 27.3527 28.3433 26.91 28.3433V29.3433ZM25.0379 27.3601C25.0379 28.4147 25.8433 29.3433 26.91 29.3433V28.3433C26.4674 28.3433 26.0379 27.937 26.0379 27.3601H25.0379ZM19.3489 27.3601V18.2018H18.3489V27.3601H19.3489ZM20.2211 28.3433C19.7784 28.3433 19.3489 27.937 19.3489 27.3601H18.3489C18.3489 28.4147 19.1543 29.3433 20.2211 29.3433V28.3433ZM21.0932 27.3601C21.0932 27.937 20.6637 28.3433 20.2211 28.3433V29.3433C21.2878 29.3433 22.0932 28.4147 22.0932 27.3601H21.0932ZM21.0932 18.2018V27.3601H22.0932V18.2018H21.0932ZM20.2211 17.2187C20.6637 17.2187 21.0932 17.6249 21.0932 18.2018H22.0932C22.0932 17.1473 21.2878 16.2187 20.2211 16.2187V17.2187ZM19.3489 18.2018C19.3489 17.6192 19.7769 17.2187 20.2211 17.2187V16.2187C19.1559 16.2187 18.3489 17.1382 18.3489 18.2018H19.3489ZM11.6608 18.2018V27.3601H12.6608V18.2018H11.6608ZM13.533 16.2187C12.4678 16.2187 11.6608 17.1382 11.6608 18.2018H12.6608C12.6608 17.6192 13.0888 17.2187 13.533 17.2187V16.2187ZM15.4051 18.2018C15.4051 17.1473 14.5997 16.2187 13.533 16.2187V17.2187C13.9756 17.2187 14.4051 17.6249 14.4051 18.2018H15.4051ZM15.4051 27.3601V18.2018H14.4051V27.3601H15.4051ZM13.533 29.3433C14.5997 29.3433 15.4051 28.4147 15.4051 27.3601H14.4051C14.4051 27.937 13.9756 28.3433 13.533 28.3433V29.3433ZM11.6608 27.3601C11.6608 28.4147 12.4662 29.3433 13.533 29.3433V28.3433C13.0903 28.3433 12.6608 27.937 12.6608 27.3601H11.6608Z" fill="white"/>
</svg>
