<svg width="34" height="25" viewBox="0 0 34 25" fill="none" xmlns="http://www.w3.org/2000/svg">
<path d="M32.938 9.44804H23.3594L19.7036 0.934316C19.532 0.529089 19.061 0.342367 18.6579 0.517171C18.2508 0.688002 18.0633 1.15679 18.2389 1.55805L21.6233 9.44804H13.2221L16.6065 1.55805C16.7781 1.15282 16.5905 0.688002 16.1874 0.517171C15.7804 0.34634 15.3134 0.533062 15.1418 0.934316L11.4859 9.45201H1.54016C1.10114 9.45201 0.741943 9.80957 0.741943 10.2466C0.741943 10.6836 1.10114 11.0411 1.54016 11.0411H2.01909L5.47537 24.2428C5.56717 24.5924 5.88645 24.8387 6.24964 24.8387H28.4321C28.7993 24.8387 29.1146 24.5924 29.2064 24.2388L32.5709 11.0451H32.938C33.3771 11.0451 33.7363 10.6876 33.7363 10.2505C33.7363 9.80559 33.3771 9.44804 32.938 9.44804ZM27.8095 23.2416H6.86826L6.07803 20.2263H26.3647C26.8037 20.2263 27.1629 19.8687 27.1629 19.4317C27.1629 18.9947 26.8037 18.6371 26.3647 18.6371H5.65896L4.87272 15.6337H27.4383C27.8773 15.6337 28.2365 15.2762 28.2365 14.8391C28.2365 14.4021 27.8773 14.0446 27.4383 14.0446H4.45764L3.6714 11.0411H12.0128H22.8286H30.9146L27.8095 23.2416Z" fill="#EA8D26"/>
</svg>
