<svg width="103" height="50" viewBox="0 0 103 50" fill="none" xmlns="http://www.w3.org/2000/svg">
<rect x="0.675903" y="0.667969" width="48.5049" height="48.5049" rx="10" fill="url(#paint0_linear)"/>
<rect x="54" y="0.667969" width="48.5049" height="48.5049" rx="10" fill="url(#paint1_linear)"/>
<path d="M78.3941 13C75.0852 13 72.3943 15.6909 72.3943 18.9998C72.3943 22.3088 75.0852 24.9997 78.3941 24.9997C81.7031 24.9997 84.394 22.3088 84.394 18.9998C84.394 15.6909 81.7031 13 78.3941 13ZM78.3941 21.9998C76.7397 21.9998 75.3942 20.6543 75.3942 18.9998C75.3942 17.3454 76.7397 15.9999 78.3941 15.9999C80.0486 15.9999 81.3941 17.3454 81.3941 18.9998C81.3941 20.6543 80.0486 21.9998 78.3941 21.9998Z" fill="white"/>
<path d="M86.35 24.8334C85.7635 24.2469 84.8155 24.2469 84.229 24.8334C81.0131 28.0493 75.7782 28.0493 72.5608 24.8334C71.9743 24.2469 71.0263 24.2469 70.4399 24.8334C69.8534 25.4199 69.8534 26.3679 70.4399 26.9559C72.3058 28.8218 74.6713 29.8853 77.1102 30.1628L72.8338 34.4392C72.2473 35.0257 72.2473 35.9736 72.8338 36.5601C73.4203 37.1466 74.3683 37.1466 74.9548 36.5601L78.3942 33.1207L81.8336 36.5601C82.1261 36.8526 82.5101 36.9996 82.8941 36.9996C83.278 36.9996 83.662 36.8526 83.9545 36.5601C84.541 35.9736 84.541 35.0257 83.9545 34.4392L79.6781 30.1628C82.1171 29.8853 84.4825 28.8218 86.3485 26.9559C86.9349 26.3694 86.9349 25.4199 86.35 24.8334Z" fill="white"/>
<path d="M36.0671 19.1376C36.2218 18.6149 36.0671 18.2302 35.3228 18.2302H32.8599C32.2327 18.2302 31.9441 18.5606 31.7894 18.9285C31.7894 18.9285 30.5351 21.9851 28.7621 23.9671C28.1893 24.54 27.9258 24.724 27.6123 24.724C27.4576 24.724 27.2192 24.54 27.2192 24.0173V19.1376C27.2192 18.5104 27.0435 18.2302 26.5251 18.2302H22.653C22.26 18.2302 22.0258 18.5229 22.0258 18.7947C22.0258 19.3884 22.9123 19.5264 23.0043 21.199V24.8285C23.0043 25.623 22.8621 25.7693 22.5485 25.7693C21.7123 25.7693 19.68 22.7002 18.4758 19.1878C18.2333 18.5062 17.9949 18.2302 17.3635 18.2302H14.9006C14.1981 18.2302 14.0559 18.5606 14.0559 18.9285C14.0559 19.5808 14.8922 22.8215 17.9488 27.1032C19.9852 30.026 22.8537 31.6109 25.4629 31.6109C27.0309 31.6109 27.2233 31.2597 27.2233 30.6534C27.2233 27.8601 27.0811 27.5966 27.8673 27.5966C28.231 27.5966 28.8582 27.7806 30.3218 29.1897C31.9943 30.8623 32.2703 31.6108 33.2069 31.6108H35.6698C36.3723 31.6108 36.7278 31.2596 36.5228 30.5654C36.0545 29.1061 32.8891 26.1038 32.747 25.9031C32.3832 25.4348 32.4877 25.2257 32.747 24.8075C32.7512 24.8034 35.7576 20.5718 36.0671 19.1376Z" fill="white"/>
<defs>
<linearGradient id="paint0_linear" x1="24.9284" y1="0.667969" x2="24.9284" y2="49.1729" gradientUnits="userSpaceOnUse">
<stop stop-color="#F76201"/>
<stop offset="1" stop-color="#FF4D00"/>
</linearGradient>
<linearGradient id="paint1_linear" x1="78.2525" y1="0.667969" x2="78.2525" y2="49.1729" gradientUnits="userSpaceOnUse">
<stop stop-color="#F76201"/>
<stop offset="1" stop-color="#FF4D00"/>
</linearGradient>
</defs>
</svg>
