<svg width="53" height="52" viewBox="0 0 53 52" fill="none" xmlns="http://www.w3.org/2000/svg">
<rect x="0.517578" width="52" height="52" rx="10" fill="url(#paint0_linear)"/>
<path d="M38.4592 19.8004C38.6251 19.24 38.4592 18.8276 37.6613 18.8276H35.0209C34.3485 18.8276 34.0392 19.1818 33.8733 19.5763C33.8733 19.5763 32.5286 22.8531 30.6279 24.9779C30.0138 25.5921 29.7314 25.7893 29.3952 25.7893C29.2294 25.7893 28.9738 25.5921 28.9738 25.0317V19.8004C28.9738 19.128 28.7854 18.8276 28.2296 18.8276H24.0786C23.6572 18.8276 23.4062 19.1415 23.4062 19.4328C23.4062 20.0693 24.3566 20.2172 24.4552 22.0103V25.9014C24.4552 26.7531 24.3028 26.9099 23.9666 26.9099C23.07 26.9099 20.8914 23.6197 19.6004 19.8542C19.3404 19.1235 19.0848 18.8276 18.408 18.8276H15.7675C15.0144 18.8276 14.862 19.1818 14.862 19.5763C14.862 20.2755 15.7586 23.7497 19.0354 28.34C21.2185 31.4734 24.2937 33.1725 27.0909 33.1725C28.7719 33.1725 28.9782 32.7959 28.9782 32.1459C28.9782 29.1514 28.8258 28.8689 29.6686 28.8689C30.0585 28.8689 30.7309 29.0662 32.3 30.5768C34.0929 32.3699 34.3888 33.1724 35.393 33.1724H38.0333C38.7864 33.1724 39.1675 32.7959 38.9478 32.0516C38.4457 30.4872 35.0523 27.2686 34.8999 27.0534C34.5099 26.5514 34.6219 26.3271 34.8999 25.8788C34.9044 25.8745 38.1274 21.3379 38.4592 19.8004Z" fill="white"/>
<defs>
<linearGradient id="paint0_linear" x1="26.5176" y1="0" x2="26.5176" y2="52" gradientUnits="userSpaceOnUse">
<stop stop-color="#F76201"/>
<stop offset="1" stop-color="#FF4D00"/>
</linearGradient>
</defs>
</svg>
