<svg width="52" height="52" viewBox="0 0 52 52" fill="none" xmlns="http://www.w3.org/2000/svg">
<rect width="52" height="52" rx="10" fill="url(#paint0_linear)"/>
<path d="M38.8802 21.5264C38.8802 21.5264 38.6339 19.7888 37.879 19.0221C36.9198 18.0183 35.8446 18.0133 35.3519 17.9536C31.822 17.6989 26.5232 17.6989 26.5232 17.6989C26.5232 17.6989 21.2237 17.6989 17.6945 17.9544C17.2019 18.0133 16.1267 18.0183 15.1675 19.0229C14.4109 19.7888 14.1654 21.5264 14.1654 21.5264C14.1654 21.5264 13.9132 23.2246 13.9132 25.2649V27.7877C13.9132 29.828 14.1654 31.6035 14.1654 31.6035C14.1654 31.6035 14.4109 33.3403 15.1675 34.1062C16.1267 35.1108 17.3869 35.0797 17.9484 35.1848C19.966 35.3781 26.5232 35.3537 26.5232 35.3537C26.5232 35.3537 31.822 35.4294 35.3519 35.1747C35.8446 35.1158 36.9198 35.1108 37.879 34.1062C38.6339 33.3412 38.8802 31.6035 38.8802 31.6035C38.8802 31.6035 39.1333 29.8289 39.1333 27.7886V25.2657C39.1333 23.2246 38.8802 21.5264 38.8802 21.5264ZM23.8368 29.8944V23.1691L30.5621 26.5318L23.8368 29.8944Z" fill="white"/>
<defs>
<linearGradient id="paint0_linear" x1="26" y1="0" x2="26" y2="52" gradientUnits="userSpaceOnUse">
<stop stop-color="#F76201"/>
<stop offset="1" stop-color="#FF4D00"/>
</linearGradient>
</defs>
</svg>
